G04*
G04 #@! TF.GenerationSoftware,Altium Limited,Altium Designer,22.6.1 (34)*
G04*
G04 Layer_Physical_Order=3*
G04 Layer_Color=16440176*
%FSLAX24Y24*%
%MOIN*%
G70*
G04*
G04 #@! TF.SameCoordinates,BFD713BD-E5D5-4BF8-98F0-1AC20243F701*
G04*
G04*
G04 #@! TF.FilePolarity,Positive*
G04*
G01*
G75*
%ADD10C,0.0098*%
%ADD11C,0.0079*%
%ADD13C,0.0100*%
%ADD15C,0.0059*%
%ADD85C,0.0197*%
%ADD90C,0.0591*%
%ADD92C,0.0217*%
%ADD93C,0.0177*%
G36*
X12776Y16160D02*
Y16041D01*
X12747Y15998D01*
X12733Y15925D01*
X12747Y15852D01*
X12776Y15810D01*
Y15579D01*
X12726Y15564D01*
X12719Y15573D01*
X12664Y15610D01*
X12598Y15623D01*
X12533Y15610D01*
X12478Y15573D01*
X12441Y15518D01*
X12428Y15453D01*
X12441Y15387D01*
X12478Y15332D01*
X12533Y15295D01*
X12598Y15282D01*
X12664Y15295D01*
X12719Y15332D01*
X12726Y15342D01*
X12776Y15327D01*
Y14980D01*
X11142D01*
Y15284D01*
X11197Y15295D01*
X11253Y15332D01*
X11289Y15387D01*
X11302Y15453D01*
X11289Y15518D01*
X11253Y15573D01*
X11197Y15610D01*
X11132Y15623D01*
X11115Y15620D01*
X10614D01*
X10598Y15623D01*
X10581Y15620D01*
X10080D01*
X10064Y15623D01*
X10048Y15620D01*
X9546D01*
X9530Y15623D01*
X9514Y15620D01*
X9013D01*
X8996Y15623D01*
X8980Y15620D01*
X8661D01*
Y15148D01*
X8186Y14672D01*
X8181Y14672D01*
X8119Y14714D01*
X8046Y14728D01*
X7973Y14714D01*
X7911Y14672D01*
X7870Y14610D01*
X7855Y14537D01*
X7870Y14464D01*
X7911Y14403D01*
X7912Y14398D01*
X7841Y14328D01*
X7085Y13571D01*
X7053Y13593D01*
X6988Y13606D01*
X6923Y13593D01*
X6868Y13556D01*
X6831Y13500D01*
X6818Y13435D01*
X6831Y13370D01*
X6852Y13338D01*
X6750Y13236D01*
X6685Y13242D01*
X6670Y13265D01*
X6608Y13306D01*
X6535Y13321D01*
X6462Y13306D01*
X6401Y13265D01*
X6359Y13203D01*
X6345Y13130D01*
X6356Y13072D01*
X6362Y13022D01*
X6307Y12985D01*
X6270Y12929D01*
X6257Y12864D01*
X6270Y12799D01*
X6287Y12773D01*
X6143Y12629D01*
X6083Y12641D01*
X6017Y12628D01*
X6017Y12628D01*
X3834D01*
X3811Y12672D01*
X3818Y12683D01*
X3832Y12756D01*
X3818Y12829D01*
X3777Y12891D01*
X3715Y12932D01*
X3642Y12947D01*
X3569Y12932D01*
X3507Y12891D01*
X3466Y12829D01*
X3459Y12798D01*
X3404Y12758D01*
X3396Y12760D01*
X3323Y12745D01*
X3261Y12704D01*
X3220Y12642D01*
X3211Y12598D01*
X3140Y12612D01*
X3067Y12597D01*
X3005Y12556D01*
X2964Y12494D01*
X2949Y12421D01*
X2964Y12348D01*
X3005Y12286D01*
X3067Y12245D01*
X3140Y12231D01*
X3213Y12245D01*
X3275Y12286D01*
X3316Y12348D01*
X3325Y12392D01*
X3396Y12378D01*
X3413Y12382D01*
X3438Y12336D01*
X2402Y11299D01*
X201D01*
Y15941D01*
X1020D01*
X1050Y15891D01*
X1040Y15837D01*
X1054Y15764D01*
X1095Y15702D01*
X1157Y15660D01*
X1230Y15646D01*
X1303Y15660D01*
X1365Y15702D01*
X1406Y15764D01*
X1421Y15837D01*
X1410Y15891D01*
X1441Y15941D01*
X4528D01*
X4532Y15942D01*
X4537Y15941D01*
X4576Y15943D01*
X4590Y15947D01*
X4605D01*
X4681Y15962D01*
X4699Y15969D01*
X4719Y15973D01*
X4790Y16003D01*
X4806Y16014D01*
X4825Y16021D01*
X4889Y16064D01*
X4903Y16078D01*
X4919Y16089D01*
X4974Y16144D01*
X4985Y16160D01*
X4999Y16174D01*
X5042Y16238D01*
X5049Y16257D01*
X5060Y16273D01*
X5090Y16344D01*
X5094Y16364D01*
X5101Y16382D01*
X5113Y16442D01*
X5138Y16465D01*
X5166Y16473D01*
X5217Y16463D01*
X5282Y16476D01*
X5337Y16513D01*
X5374Y16569D01*
X5387Y16634D01*
X5378Y16678D01*
X5410Y16728D01*
X12776D01*
X12776Y16160D01*
D02*
G37*
G36*
X15758Y15522D02*
X19665D01*
Y15308D01*
X19627Y15250D01*
X19612Y15177D01*
X19627Y15104D01*
X19665Y15047D01*
Y13114D01*
X18243D01*
X18222Y13140D01*
X18209Y13205D01*
X18172Y13260D01*
X18116Y13297D01*
X18051Y13310D01*
X17986Y13297D01*
X17931Y13260D01*
X17894Y13205D01*
X17881Y13140D01*
X17859Y13114D01*
X17721D01*
X17648Y13099D01*
X17586Y13058D01*
X17586Y13058D01*
X16825Y12297D01*
X15894D01*
X15889Y12303D01*
X15876Y12368D01*
X15839Y12424D01*
X15784Y12461D01*
X15718Y12474D01*
X15653Y12461D01*
X15598Y12424D01*
X15561Y12368D01*
X15548Y12303D01*
X15543Y12297D01*
X15423D01*
X15350Y12282D01*
X15288Y12241D01*
X15262Y12215D01*
X15210D01*
X15178Y12253D01*
X15180Y12264D01*
X15167Y12329D01*
X15130Y12384D01*
X15075Y12421D01*
X15010Y12434D01*
X14945Y12421D01*
X14889Y12384D01*
X14852Y12329D01*
X14839Y12264D01*
X14841Y12253D01*
X14810Y12215D01*
X12776D01*
Y12308D01*
X12776Y12308D01*
X12776D01*
X12806Y12344D01*
X13276Y12813D01*
X13337Y12801D01*
X13410Y12816D01*
X13471Y12857D01*
X13513Y12919D01*
X13527Y12992D01*
X13513Y13065D01*
X13471Y13127D01*
X13410Y13168D01*
X13337Y13183D01*
X13307Y13207D01*
Y13589D01*
X13346Y13620D01*
X13356Y13618D01*
X13429Y13633D01*
X13491Y13674D01*
X13532Y13736D01*
X13547Y13809D01*
X13532Y13882D01*
X13491Y13944D01*
X13429Y13985D01*
X13356Y14000D01*
X13346Y13998D01*
X13307Y14029D01*
Y14654D01*
X13370Y14666D01*
X13432Y14708D01*
X13473Y14770D01*
X13488Y14843D01*
X13473Y14915D01*
X13432Y14977D01*
X13370Y15019D01*
X13307Y15031D01*
Y15453D01*
X14183Y16329D01*
X14417D01*
X14437Y16292D01*
X14439Y16279D01*
X14425Y16211D01*
X14440Y16138D01*
X14481Y16076D01*
X14543Y16034D01*
X14616Y16020D01*
X14689Y16034D01*
X14751Y16076D01*
X14792Y16138D01*
X14807Y16211D01*
X14793Y16279D01*
X14796Y16292D01*
X14815Y16329D01*
X14951D01*
X15758Y15522D01*
D02*
G37*
G36*
X23795Y14562D02*
X23788Y14568D01*
X23782Y14574D01*
X23775Y14578D01*
X23768Y14583D01*
X23760Y14586D01*
X23753Y14589D01*
X23745Y14591D01*
X23738Y14593D01*
X23730Y14594D01*
X23721Y14594D01*
Y14653D01*
X23730Y14654D01*
X23738Y14655D01*
X23745Y14656D01*
X23753Y14659D01*
X23760Y14662D01*
X23768Y14665D01*
X23775Y14669D01*
X23782Y14674D01*
X23788Y14680D01*
X23795Y14686D01*
Y14562D01*
D02*
G37*
G36*
X23648Y14369D02*
X23641Y14376D01*
X23635Y14381D01*
X23628Y14386D01*
X23621Y14390D01*
X23613Y14394D01*
X23606Y14397D01*
X23598Y14399D01*
X23591Y14401D01*
X23583Y14402D01*
X23574Y14402D01*
Y14461D01*
X23583Y14461D01*
X23591Y14462D01*
X23598Y14464D01*
X23606Y14466D01*
X23613Y14469D01*
X23621Y14473D01*
X23628Y14477D01*
X23635Y14482D01*
X23641Y14487D01*
X23648Y14493D01*
Y14369D01*
D02*
G37*
G36*
X23795Y14173D02*
X23789Y14179D01*
X23782Y14184D01*
X23775Y14189D01*
X23768Y14193D01*
X23761Y14197D01*
X23754Y14200D01*
X23746Y14202D01*
X23738Y14204D01*
X23730Y14205D01*
X23722Y14205D01*
Y14264D01*
X23730Y14264D01*
X23738Y14265D01*
X23746Y14267D01*
X23754Y14269D01*
X23761Y14272D01*
X23768Y14276D01*
X23775Y14280D01*
X23782Y14285D01*
X23789Y14290D01*
X23795Y14297D01*
Y14173D01*
D02*
G37*
G36*
X23648Y13976D02*
X23641Y13982D01*
X23635Y13987D01*
X23628Y13992D01*
X23621Y13996D01*
X23613Y14000D01*
X23606Y14003D01*
X23598Y14005D01*
X23591Y14007D01*
X23583Y14008D01*
X23574Y14008D01*
Y14067D01*
X23583Y14068D01*
X23591Y14068D01*
X23598Y14070D01*
X23606Y14072D01*
X23613Y14075D01*
X23621Y14079D01*
X23628Y14083D01*
X23635Y14088D01*
X23641Y14094D01*
X23648Y14100D01*
Y13976D01*
D02*
G37*
G36*
X23795Y13617D02*
X23788Y13623D01*
X23782Y13629D01*
X23775Y13634D01*
X23768Y13638D01*
X23760Y13641D01*
X23753Y13644D01*
X23745Y13647D01*
X23738Y13648D01*
X23730Y13649D01*
X23721Y13649D01*
Y13709D01*
X23730Y13709D01*
X23738Y13710D01*
X23745Y13711D01*
X23753Y13714D01*
X23760Y13717D01*
X23768Y13720D01*
X23775Y13724D01*
X23782Y13729D01*
X23788Y13735D01*
X23795Y13741D01*
Y13617D01*
D02*
G37*
G36*
X23648Y13425D02*
X23641Y13431D01*
X23635Y13436D01*
X23628Y13441D01*
X23621Y13445D01*
X23613Y13449D01*
X23606Y13452D01*
X23598Y13454D01*
X23591Y13456D01*
X23583Y13457D01*
X23574Y13457D01*
Y13516D01*
X23583Y13516D01*
X23591Y13517D01*
X23598Y13519D01*
X23606Y13521D01*
X23613Y13524D01*
X23621Y13528D01*
X23628Y13532D01*
X23635Y13537D01*
X23641Y13542D01*
X23648Y13549D01*
Y13425D01*
D02*
G37*
G36*
X23795Y13228D02*
X23789Y13234D01*
X23782Y13239D01*
X23775Y13244D01*
X23768Y13248D01*
X23761Y13252D01*
X23754Y13255D01*
X23746Y13257D01*
X23738Y13259D01*
X23730Y13260D01*
X23722Y13260D01*
Y13319D01*
X23730Y13319D01*
X23738Y13320D01*
X23746Y13322D01*
X23754Y13324D01*
X23761Y13327D01*
X23768Y13331D01*
X23775Y13335D01*
X23782Y13340D01*
X23789Y13345D01*
X23795Y13352D01*
Y13228D01*
D02*
G37*
G36*
X23648Y13031D02*
X23641Y13037D01*
X23635Y13042D01*
X23628Y13047D01*
X23621Y13052D01*
X23613Y13055D01*
X23606Y13058D01*
X23598Y13060D01*
X23591Y13062D01*
X23583Y13063D01*
X23574Y13063D01*
Y13122D01*
X23583Y13123D01*
X23591Y13124D01*
X23598Y13125D01*
X23606Y13128D01*
X23613Y13130D01*
X23621Y13134D01*
X23628Y13138D01*
X23635Y13143D01*
X23641Y13149D01*
X23648Y13155D01*
Y13031D01*
D02*
G37*
G36*
X15445Y16678D02*
X15424Y16648D01*
X15410Y16575D01*
X15424Y16502D01*
X15466Y16440D01*
X15527Y16399D01*
X15600Y16384D01*
X15673Y16399D01*
X15706Y16421D01*
X15762Y16398D01*
X15765Y16382D01*
X15773Y16364D01*
X15776Y16344D01*
X15806Y16273D01*
X15817Y16257D01*
X15824Y16238D01*
X15867Y16174D01*
X15881Y16160D01*
X15892Y16144D01*
X15947Y16089D01*
X15963Y16078D01*
X15977Y16064D01*
X16041Y16021D01*
X16060Y16014D01*
X16076Y16003D01*
X16147Y15973D01*
X16167Y15969D01*
X16185Y15962D01*
X16261Y15947D01*
X16276D01*
X16290Y15943D01*
X16329Y15941D01*
X16334Y15942D01*
X16339Y15941D01*
X22275Y15941D01*
Y15256D01*
X23065Y15256D01*
X23100Y15221D01*
Y15213D01*
X23733D01*
Y15256D01*
X24173Y15256D01*
X24209Y15221D01*
Y826D01*
X24159Y805D01*
X24092Y856D01*
X24041Y877D01*
Y512D01*
X23894D01*
Y364D01*
X23529D01*
X23550Y313D01*
X23598Y251D01*
X23573Y201D01*
X23176D01*
X23165Y251D01*
X23220Y323D01*
X23258Y414D01*
X23271Y512D01*
X23258Y609D01*
X23220Y700D01*
X23160Y779D01*
X23082Y839D01*
X22991Y876D01*
X22894Y889D01*
X22796Y876D01*
X22705Y839D01*
X22627Y779D01*
X22567Y700D01*
X22529Y609D01*
X22516Y512D01*
X22529Y414D01*
X22567Y323D01*
X22623Y251D01*
X22611Y201D01*
X22176D01*
X22165Y251D01*
X22220Y323D01*
X22258Y414D01*
X22271Y512D01*
X22258Y609D01*
X22220Y700D01*
X22160Y779D01*
X22082Y839D01*
X21991Y876D01*
X21894Y889D01*
X21811Y878D01*
X21414Y1276D01*
X21431Y1329D01*
X21473Y1337D01*
X21529Y1374D01*
X21566Y1429D01*
X21579Y1495D01*
X21566Y1560D01*
X21529Y1615D01*
X21473Y1652D01*
X21408Y1665D01*
X21343Y1652D01*
X21287Y1615D01*
X21250Y1560D01*
X21242Y1518D01*
X21189Y1500D01*
X20687Y2002D01*
X20622Y2046D01*
X20545Y2061D01*
X19738D01*
X19718Y2107D01*
X19820Y2209D01*
X19820Y2209D01*
X19997Y2385D01*
X20008Y2402D01*
X20062Y2391D01*
X20127Y2404D01*
X20183Y2441D01*
X20220Y2497D01*
X20233Y2562D01*
X20220Y2627D01*
X20183Y2683D01*
X20127Y2720D01*
X20062Y2733D01*
X20032Y2757D01*
Y4379D01*
X20109Y4456D01*
X20226D01*
X20238Y4459D01*
X20250D01*
X20255Y4461D01*
X20279Y4425D01*
X20340Y4384D01*
X20413Y4369D01*
X20486Y4384D01*
X20548Y4425D01*
X20572Y4461D01*
X20577Y4459D01*
X20589D01*
X20601Y4456D01*
X20994D01*
X20994Y4456D01*
X21040Y4466D01*
X21079Y4492D01*
X21079Y4492D01*
X22508Y5920D01*
X22514Y5930D01*
X22523Y5938D01*
X22527Y5949D01*
X22534Y5959D01*
X22536Y5971D01*
X22541Y5982D01*
Y5994D01*
X22543Y6005D01*
X22541Y6017D01*
Y6029D01*
X22536Y6040D01*
X22534Y6051D01*
X22527Y6061D01*
X22523Y6072D01*
X22515Y6084D01*
X22511Y6102D01*
X22515Y6121D01*
X22525Y6136D01*
X22541Y6147D01*
X22583Y6155D01*
X22588Y6157D01*
X22594Y6158D01*
X22610Y6166D01*
X22626Y6173D01*
X22630Y6177D01*
X22635Y6180D01*
X22645Y6188D01*
X22649Y6193D01*
X22654Y6196D01*
X22664Y6211D01*
X22675Y6224D01*
X22677Y6230D01*
X22680Y6235D01*
X22684Y6252D01*
X22689Y6269D01*
X22688Y6275D01*
X22689Y6281D01*
Y6704D01*
X22725Y6758D01*
X22740Y6831D01*
X22725Y6904D01*
X22689Y6958D01*
Y6972D01*
X22688Y6979D01*
X22689Y6986D01*
X22687Y6990D01*
Y6995D01*
X22682Y7006D01*
X22681Y7013D01*
X22704Y7028D01*
X22745Y7089D01*
X22760Y7162D01*
X22745Y7235D01*
X22704Y7297D01*
X22642Y7339D01*
X22569Y7353D01*
X22552Y7350D01*
X22514Y7382D01*
Y7764D01*
X22564Y7791D01*
X22573Y7785D01*
X22638Y7772D01*
X22703Y7785D01*
X22758Y7822D01*
X22795Y7878D01*
X22808Y7943D01*
X22795Y8008D01*
X22779Y8032D01*
X22762Y8071D01*
X22779Y8110D01*
X22795Y8134D01*
X22808Y8199D01*
X22795Y8264D01*
X22779Y8288D01*
X22762Y8327D01*
X22779Y8366D01*
X22795Y8389D01*
X22808Y8455D01*
X22795Y8520D01*
X22779Y8544D01*
X22762Y8583D01*
X22779Y8621D01*
X22795Y8645D01*
X22808Y8711D01*
X22795Y8776D01*
X22779Y8800D01*
X22762Y8839D01*
X22779Y8877D01*
X22795Y8901D01*
X22808Y8967D01*
X22795Y9032D01*
X22779Y9056D01*
X22762Y9094D01*
X22779Y9133D01*
X22795Y9157D01*
X22808Y9222D01*
X22795Y9288D01*
X22758Y9343D01*
X22758Y9343D01*
Y9358D01*
X22795Y9413D01*
X22808Y9478D01*
X22795Y9544D01*
X22779Y9568D01*
X22762Y9606D01*
X22779Y9645D01*
X22792Y9664D01*
X22810Y9666D01*
X22844Y9659D01*
X22854Y9610D01*
X22891Y9555D01*
X22947Y9518D01*
X22989Y9509D01*
X23015Y9494D01*
X23026Y9456D01*
X23018Y9419D01*
X23031Y9354D01*
X23068Y9299D01*
X23124Y9262D01*
X23166Y9253D01*
X23192Y9238D01*
X23203Y9200D01*
X23196Y9163D01*
X23209Y9098D01*
X23246Y9043D01*
X23301Y9006D01*
X23343Y8997D01*
X23369Y8982D01*
X23380Y8945D01*
X23373Y8907D01*
X23386Y8842D01*
X23423Y8787D01*
X23478Y8750D01*
X23521Y8741D01*
X23546Y8726D01*
X23557Y8689D01*
X23550Y8652D01*
X23563Y8586D01*
X23600Y8531D01*
X23655Y8494D01*
X23698Y8485D01*
X23723Y8471D01*
X23734Y8433D01*
X23727Y8396D01*
X23740Y8330D01*
X23777Y8275D01*
X23832Y8238D01*
X23898Y8225D01*
X23963Y8238D01*
X24018Y8275D01*
X24055Y8330D01*
X24068Y8396D01*
X24055Y8461D01*
X24018Y8516D01*
X23963Y8553D01*
X23920Y8562D01*
X23895Y8577D01*
X23884Y8614D01*
X23891Y8652D01*
X23880Y8709D01*
X23887Y8729D01*
X23910Y8759D01*
X23963Y8770D01*
X24018Y8807D01*
X24055Y8862D01*
X24068Y8927D01*
X24055Y8992D01*
X24018Y9048D01*
X23963Y9085D01*
X23898Y9098D01*
X23832Y9085D01*
X23777Y9048D01*
X23743Y8997D01*
X23717Y8992D01*
X23689Y8991D01*
X23664Y9028D01*
X23609Y9065D01*
X23566Y9074D01*
X23561Y9076D01*
X23563Y9092D01*
X23615Y9117D01*
X23618Y9115D01*
X23691Y9101D01*
X23764Y9115D01*
X23826Y9157D01*
X23867Y9218D01*
X23882Y9291D01*
X23867Y9364D01*
X23826Y9426D01*
X23764Y9467D01*
X23691Y9482D01*
X23618Y9467D01*
X23556Y9426D01*
X23515Y9364D01*
X23508Y9330D01*
X23452Y9307D01*
X23431Y9321D01*
X23389Y9329D01*
X23363Y9344D01*
X23352Y9382D01*
X23360Y9419D01*
X23347Y9485D01*
X23310Y9540D01*
X23254Y9577D01*
X23212Y9585D01*
X23186Y9600D01*
X23175Y9638D01*
X23182Y9675D01*
X23180Y9689D01*
X23225Y9719D01*
X23261Y9695D01*
X23327Y9682D01*
X23392Y9695D01*
X23447Y9732D01*
X23484Y9787D01*
X23497Y9852D01*
X23484Y9918D01*
X23447Y9973D01*
X23392Y10010D01*
X23327Y10023D01*
X23261Y10010D01*
X23206Y9973D01*
X23169Y9918D01*
X23156Y9852D01*
X23159Y9838D01*
X23114Y9808D01*
X23077Y9833D01*
X23012Y9846D01*
X22947Y9833D01*
X22891Y9796D01*
X22857Y9745D01*
X22839Y9743D01*
X22805Y9750D01*
X22795Y9800D01*
X22758Y9855D01*
X22704Y9891D01*
X22727Y9925D01*
X22740Y9990D01*
X22727Y10055D01*
X22690Y10111D01*
X22634Y10148D01*
X22617Y10190D01*
X22636Y10218D01*
X22651Y10295D01*
X22636Y10372D01*
X22654Y10424D01*
X22657Y10428D01*
X22661Y10432D01*
X22670Y10447D01*
X22680Y10463D01*
X22681Y10468D01*
X22684Y10473D01*
X22686Y10491D01*
X22689Y10509D01*
Y10961D01*
X22905D01*
X23408Y10458D01*
X23470Y10417D01*
X23543Y10402D01*
X23711D01*
X23784Y10417D01*
X23846Y10458D01*
X23887Y10520D01*
X23902Y10593D01*
X23899Y10607D01*
X23932Y10613D01*
X23993Y10655D01*
X24035Y10717D01*
X24049Y10790D01*
X24035Y10863D01*
X23993Y10924D01*
X23945Y10957D01*
X23943Y10964D01*
X23943Y11004D01*
X23945Y11012D01*
X23993Y11044D01*
X24034Y11106D01*
X24049Y11179D01*
X24034Y11252D01*
X23993Y11314D01*
X23931Y11355D01*
X23910Y11359D01*
X23902Y11374D01*
X23892Y11414D01*
X23926Y11465D01*
X23941Y11538D01*
X23936Y11565D01*
X23939Y11566D01*
X24001Y11607D01*
X24042Y11669D01*
X24057Y11742D01*
X24042Y11815D01*
X24001Y11877D01*
X23958Y11906D01*
X23953Y11960D01*
X23955Y11964D01*
X23993Y11989D01*
X24034Y12051D01*
X24049Y12124D01*
X24034Y12197D01*
X23993Y12259D01*
X23931Y12300D01*
X23858Y12315D01*
X23079D01*
X23079Y12315D01*
X23006Y12300D01*
X22944Y12259D01*
X22854Y12169D01*
X22661D01*
X22624Y12219D01*
X22631Y12254D01*
X22618Y12319D01*
X22654Y12349D01*
X22657Y12354D01*
X22662Y12358D01*
X22670Y12374D01*
X22680Y12388D01*
X22681Y12394D01*
X22684Y12400D01*
X22686Y12417D01*
X22689Y12435D01*
Y12815D01*
X22689Y12815D01*
X22682Y12852D01*
X22699Y12885D01*
X22713Y12902D01*
X23292D01*
X23323Y12864D01*
X23336Y12799D01*
X23373Y12744D01*
X23429Y12707D01*
X23494Y12694D01*
X23559Y12707D01*
X23615Y12744D01*
X23652Y12799D01*
X23665Y12864D01*
X23696Y12902D01*
X23711D01*
X23784Y12917D01*
X23846Y12958D01*
X23887Y13020D01*
X23902Y13093D01*
X23899Y13107D01*
X23931Y13113D01*
X23993Y13155D01*
X24034Y13217D01*
X24049Y13290D01*
X24034Y13363D01*
X23993Y13424D01*
X23945Y13457D01*
X23942Y13464D01*
Y13505D01*
X23945Y13512D01*
X23993Y13544D01*
X24034Y13606D01*
X24049Y13679D01*
X24034Y13752D01*
X23993Y13814D01*
X23931Y13855D01*
X23877Y13866D01*
X23873Y13871D01*
X23857Y13910D01*
X23857Y13920D01*
X23887Y13965D01*
X23902Y14038D01*
X23899Y14052D01*
X23931Y14058D01*
X23993Y14100D01*
X24034Y14162D01*
X24049Y14235D01*
X24034Y14307D01*
X23993Y14369D01*
X23945Y14401D01*
X23942Y14409D01*
Y14449D01*
X23945Y14457D01*
X23993Y14489D01*
X24034Y14551D01*
X24049Y14624D01*
X24034Y14697D01*
X23993Y14759D01*
X23931Y14800D01*
X23858Y14815D01*
X22714D01*
X22714Y14815D01*
X22641Y14800D01*
X22580Y14759D01*
X21848Y14027D01*
X21833Y14028D01*
X21778Y14065D01*
X21713Y14078D01*
X21647Y14065D01*
X21592Y14028D01*
X21555Y13973D01*
X21542Y13907D01*
X21555Y13842D01*
X21592Y13787D01*
X21593Y13772D01*
X20935Y13114D01*
X19786D01*
Y14972D01*
X19803Y14986D01*
X19876Y15001D01*
X19938Y15042D01*
X19979Y15104D01*
X19994Y15177D01*
X19979Y15250D01*
X19938Y15312D01*
X19876Y15353D01*
X19803Y15368D01*
X19786Y15382D01*
Y15522D01*
X19777Y15568D01*
X19751Y15607D01*
X19711Y15633D01*
X19665Y15642D01*
X15808D01*
X15322Y16128D01*
X15328Y16161D01*
X15315Y16227D01*
X15278Y16282D01*
X15223Y16319D01*
X15157Y16332D01*
X15124Y16325D01*
X15036Y16414D01*
X14997Y16440D01*
X14951Y16449D01*
X14951Y16449D01*
X14815D01*
X14798Y16446D01*
X14780Y16444D01*
X14775Y16441D01*
X14769Y16440D01*
X14754Y16430D01*
X14739Y16422D01*
X14735Y16417D01*
X14730Y16414D01*
X14689Y16387D01*
X14616Y16401D01*
X14543Y16387D01*
X14502Y16414D01*
X14497Y16417D01*
X14494Y16422D01*
X14478Y16430D01*
X14463Y16440D01*
X14457Y16441D01*
X14452Y16444D01*
X14434Y16446D01*
X14417Y16449D01*
X14183D01*
X14137Y16440D01*
X14098Y16414D01*
X14098Y16414D01*
X13222Y15538D01*
X13196Y15499D01*
X13187Y15453D01*
X13187Y15453D01*
Y15031D01*
X13189Y15020D01*
Y15008D01*
X13193Y14998D01*
X13162Y14977D01*
X13121Y14915D01*
X13107Y14843D01*
X13121Y14770D01*
X13162Y14708D01*
X13193Y14687D01*
X13189Y14677D01*
Y14665D01*
X13187Y14654D01*
Y14029D01*
X13188Y14023D01*
X13187Y14018D01*
X13192Y14001D01*
X13196Y13983D01*
X13199Y13978D01*
X13201Y13973D01*
X13221Y13944D01*
X13180Y13882D01*
X13166Y13809D01*
X13180Y13736D01*
X13221Y13674D01*
X13201Y13646D01*
X13199Y13640D01*
X13196Y13635D01*
X13192Y13618D01*
X13187Y13601D01*
X13188Y13595D01*
X13187Y13589D01*
Y13207D01*
X13188Y13201D01*
X13187Y13195D01*
X13192Y13178D01*
X13196Y13161D01*
X13199Y13156D01*
X13201Y13150D01*
X13202Y13127D01*
X13160Y13065D01*
X13146Y12992D01*
X13160Y12919D01*
X13181Y12889D01*
X12729Y12436D01*
X12694Y12447D01*
X12679Y12456D01*
X12667Y12516D01*
X12630Y12571D01*
X12575Y12608D01*
X12510Y12621D01*
X12453Y12610D01*
X12422Y12629D01*
X12407Y12643D01*
X12395Y12703D01*
X12358Y12758D01*
X12303Y12795D01*
X12237Y12808D01*
X12172Y12795D01*
X12117Y12758D01*
X12080Y12703D01*
X12067Y12638D01*
X12080Y12573D01*
X12117Y12517D01*
X12172Y12480D01*
X12237Y12467D01*
X12294Y12478D01*
X12325Y12459D01*
X12340Y12445D01*
X12352Y12385D01*
X12389Y12330D01*
X12445Y12293D01*
X12510Y12280D01*
X12575Y12293D01*
X12607Y12314D01*
X12610Y12314D01*
X12655Y12287D01*
Y12215D01*
X12626Y12179D01*
X11554D01*
X11549Y12185D01*
X11536Y12250D01*
X11504Y12298D01*
X11538Y12320D01*
X11575Y12376D01*
X11588Y12441D01*
X11575Y12506D01*
X11538Y12562D01*
X11483Y12599D01*
X11417Y12612D01*
X11352Y12599D01*
X11297Y12562D01*
X11260Y12506D01*
X11247Y12441D01*
X11260Y12376D01*
X11291Y12328D01*
X11257Y12306D01*
X11220Y12250D01*
X11207Y12185D01*
X11202Y12179D01*
X11161D01*
X11088Y12164D01*
X11027Y12123D01*
X9498Y10594D01*
X8937D01*
X8864Y10580D01*
X8802Y10538D01*
X8576Y10312D01*
X8534Y10250D01*
X8526Y10210D01*
X8514Y10213D01*
X8448Y10200D01*
X8393Y10163D01*
X8356Y10107D01*
X8343Y10042D01*
X8356Y9977D01*
X8393Y9921D01*
X8448Y9884D01*
X8514Y9871D01*
X8520Y9866D01*
Y9743D01*
X8512Y9733D01*
X8474Y9708D01*
X8471Y9707D01*
X8416Y9718D01*
X8343Y9704D01*
X8281Y9662D01*
X8240Y9601D01*
X8230Y9554D01*
X8170Y9542D01*
X8126Y9513D01*
X8080Y9544D01*
X8007Y9558D01*
X7934Y9544D01*
X7872Y9502D01*
X7831Y9440D01*
X7816Y9367D01*
Y9352D01*
X7826Y9302D01*
X7793Y9280D01*
X7752Y9218D01*
X7737Y9145D01*
Y9131D01*
X7738Y9124D01*
X7691Y9104D01*
X7670Y9136D01*
X7614Y9173D01*
X7549Y9186D01*
X7484Y9173D01*
X7429Y9136D01*
X7392Y9081D01*
X7379Y9016D01*
X7392Y8950D01*
X7429Y8895D01*
X7484Y8858D01*
X7498Y8855D01*
X7509Y8802D01*
X7471Y8777D01*
X7429Y8715D01*
X7415Y8642D01*
X7429Y8569D01*
X7471Y8507D01*
X7533Y8466D01*
X7605Y8451D01*
X7821D01*
X7852Y8412D01*
X7851Y8406D01*
X7864Y8340D01*
X7901Y8285D01*
X7956Y8248D01*
X8022Y8235D01*
X8043Y8239D01*
X8047Y8233D01*
X8021Y8183D01*
X7982D01*
X7909Y8168D01*
X7847Y8127D01*
X7806Y8065D01*
X7795Y8008D01*
X7756Y8015D01*
X7683Y8001D01*
X7621Y7960D01*
X7580Y7898D01*
X7565Y7825D01*
X7580Y7752D01*
X7621Y7690D01*
X7631Y7680D01*
X7693Y7639D01*
X7766Y7624D01*
X7766Y7624D01*
X8238D01*
X8311Y7639D01*
X8373Y7680D01*
X8439Y7746D01*
X8494Y7709D01*
X8567Y7694D01*
X8640Y7709D01*
X8702Y7750D01*
X8802Y7851D01*
X8859D01*
X8864Y7844D01*
X8879Y7772D01*
X8920Y7710D01*
X8982Y7668D01*
X9055Y7654D01*
X9597D01*
X9638Y7604D01*
X9633Y7579D01*
X9644Y7519D01*
X9627Y7499D01*
X9607Y7482D01*
X9547Y7493D01*
X9482Y7480D01*
X9427Y7443D01*
X9390Y7388D01*
X9377Y7323D01*
X9390Y7258D01*
X9427Y7202D01*
X9482Y7165D01*
X9547Y7152D01*
X9613Y7165D01*
X9668Y7202D01*
X9705Y7258D01*
X9718Y7323D01*
X9706Y7382D01*
X9723Y7403D01*
X9744Y7420D01*
X9803Y7408D01*
X9868Y7421D01*
X9924Y7458D01*
X9961Y7513D01*
X9974Y7579D01*
X9961Y7644D01*
X9924Y7699D01*
X9945Y7746D01*
X10535Y8336D01*
X10540Y8343D01*
X10594Y8307D01*
X10659Y8294D01*
X10725Y8307D01*
X10780Y8344D01*
X10817Y8399D01*
X10830Y8465D01*
X10817Y8530D01*
X10780Y8585D01*
X10725Y8622D01*
X10659Y8635D01*
X10653Y8634D01*
X10628Y8680D01*
X10771Y8823D01*
X10828Y8809D01*
X10859Y8763D01*
X10921Y8721D01*
X10994Y8707D01*
X11067Y8721D01*
X11129Y8763D01*
X11170Y8825D01*
X11185Y8898D01*
X11170Y8971D01*
X11129Y9032D01*
X11083Y9063D01*
X11069Y9121D01*
X11226Y9278D01*
X11923D01*
X11927Y9228D01*
X11903Y9223D01*
X11848Y9186D01*
X11811Y9131D01*
X11798Y9065D01*
X11811Y9000D01*
X11848Y8945D01*
X11903Y8908D01*
X11968Y8895D01*
X12034Y8908D01*
X12089Y8945D01*
X12126Y9000D01*
X12132Y9031D01*
X12185Y9072D01*
X12185Y9072D01*
X12250Y9085D01*
X12306Y9121D01*
X12343Y9177D01*
X12356Y9242D01*
X12385Y9278D01*
X13092D01*
X13111Y9232D01*
X13018Y9138D01*
X12974Y9073D01*
X12959Y8996D01*
X12974Y8919D01*
X13018Y8854D01*
X13083Y8811D01*
X13159Y8795D01*
X13236Y8811D01*
X13301Y8854D01*
X13587Y9140D01*
X15029D01*
X15042Y9118D01*
X15050Y9090D01*
X15018Y9042D01*
X15005Y8976D01*
X15018Y8911D01*
X15055Y8856D01*
X15111Y8819D01*
X15176Y8806D01*
X15241Y8819D01*
X15297Y8856D01*
X15333Y8911D01*
X15346Y8976D01*
X15333Y9042D01*
X15301Y9090D01*
X15309Y9118D01*
X15322Y9140D01*
X15922D01*
X15941Y9094D01*
X15537Y8689D01*
X15494Y8624D01*
X15478Y8548D01*
Y8337D01*
X15473Y8330D01*
X13276D01*
X13265Y8385D01*
X13228Y8441D01*
X13185Y8469D01*
X13192Y8480D01*
X13205Y8545D01*
X13192Y8610D01*
X13155Y8666D01*
X13100Y8703D01*
X13034Y8716D01*
X12969Y8703D01*
X12914Y8666D01*
X12877Y8610D01*
X12864Y8545D01*
X12877Y8480D01*
X12914Y8424D01*
X12956Y8396D01*
X12949Y8385D01*
X12938Y8330D01*
X12382D01*
X12377Y8337D01*
X12364Y8402D01*
X12327Y8457D01*
X12272Y8494D01*
X12207Y8507D01*
X12194Y8556D01*
X12185Y8599D01*
X12148Y8654D01*
X12093Y8691D01*
X12028Y8704D01*
X11962Y8691D01*
X11907Y8654D01*
X11899Y8642D01*
X11849Y8637D01*
X11818Y8668D01*
X11756Y8710D01*
X11683Y8724D01*
X11610Y8710D01*
X11548Y8668D01*
X11507Y8606D01*
X11492Y8533D01*
X11507Y8461D01*
X11548Y8399D01*
X11798Y8149D01*
X11779Y8103D01*
X10694D01*
X10686Y8101D01*
X10677Y8101D01*
X10663Y8096D01*
X10648Y8094D01*
X10641Y8089D01*
X10632Y8086D01*
X10621Y8076D01*
X10609Y8067D01*
X10604Y8060D01*
X10598Y8054D01*
X10591Y8041D01*
X10583Y8028D01*
X10581Y8020D01*
X10577Y8012D01*
X10392Y7274D01*
X10391Y7266D01*
X10389Y7259D01*
X10390Y7243D01*
X10389Y7227D01*
X10392Y7220D01*
X10392Y7212D01*
X10400Y7198D01*
X10405Y7182D01*
X10410Y7177D01*
X10413Y7170D01*
X10444Y7131D01*
X10450Y7126D01*
X10454Y7120D01*
X10468Y7111D01*
X10480Y7100D01*
X10487Y7098D01*
X10493Y7093D01*
X10509Y7090D01*
X10524Y7085D01*
X10532Y7086D01*
X10539Y7084D01*
X11948D01*
X11953Y7085D01*
X11959Y7085D01*
X11976Y7090D01*
X11994Y7093D01*
X11999Y7097D01*
X12004Y7099D01*
X12018Y7110D01*
X12033Y7120D01*
X12083Y7121D01*
X12090Y7116D01*
X12156Y7103D01*
X12221Y7116D01*
X12228Y7121D01*
X12278Y7120D01*
X12293Y7110D01*
X12307Y7099D01*
X12312Y7097D01*
X12317Y7093D01*
X12335Y7090D01*
X12352Y7085D01*
X12358Y7085D01*
X12363Y7084D01*
X14968Y7084D01*
Y6627D01*
X14969Y6622D01*
X14969Y6616D01*
X14974Y6599D01*
X14977Y6581D01*
X14981Y6576D01*
X14982Y6571D01*
X14994Y6557D01*
X15003Y6542D01*
X15008Y6539D01*
X15012Y6534D01*
X15051Y6503D01*
X15056Y6500D01*
X15060Y6496D01*
X15077Y6489D01*
X15092Y6480D01*
X15098Y6480D01*
X15104Y6478D01*
X15121D01*
X15128Y6477D01*
X15156Y6471D01*
X15172Y6461D01*
X15182Y6445D01*
X15186Y6427D01*
X15182Y6409D01*
X15172Y6393D01*
X15156Y6383D01*
X15128Y6377D01*
X15121Y6377D01*
X15104D01*
X15098Y6374D01*
X15092Y6374D01*
X15077Y6366D01*
X15060Y6359D01*
X15056Y6355D01*
X15051Y6352D01*
X15012Y6320D01*
X15008Y6315D01*
X15003Y6312D01*
X14994Y6297D01*
X14982Y6284D01*
X14981Y6278D01*
X14977Y6273D01*
X14974Y6256D01*
X14969Y6239D01*
X14969Y6233D01*
X14968Y6227D01*
Y3967D01*
X14182Y3181D01*
X14079D01*
X14012Y3173D01*
X13950Y3147D01*
X13896Y3106D01*
X13832Y3042D01*
X13771Y3052D01*
X13747Y3088D01*
X13685Y3129D01*
X13612Y3143D01*
X13539Y3129D01*
X13477Y3088D01*
X13436Y3026D01*
X13422Y2953D01*
X13436Y2880D01*
X13477Y2818D01*
X13520Y2789D01*
X13540Y2770D01*
X13544Y2725D01*
X13537Y2707D01*
X13484Y2689D01*
X13290Y2883D01*
X13326Y2938D01*
X13339Y3003D01*
X13326Y3068D01*
X13289Y3124D01*
X13234Y3161D01*
X13168Y3174D01*
X13103Y3161D01*
X13049Y3124D01*
X12998Y3175D01*
X12999Y3203D01*
X13032Y3245D01*
X13097Y3258D01*
X13152Y3295D01*
X13189Y3350D01*
X13202Y3415D01*
X13189Y3481D01*
X13152Y3536D01*
X13097Y3573D01*
X13032Y3586D01*
X13015Y3583D01*
X12976Y3614D01*
Y3752D01*
X13017Y3781D01*
X13026Y3779D01*
X13091Y3766D01*
X13156Y3779D01*
X13211Y3816D01*
X13248Y3871D01*
X13261Y3937D01*
X13248Y4002D01*
X13211Y4057D01*
X13156Y4094D01*
X13091Y4107D01*
X13026Y4095D01*
X13017Y4093D01*
X12976Y4121D01*
Y4580D01*
X13026Y4621D01*
X13047Y4617D01*
X13112Y4630D01*
X13168Y4667D01*
X13205Y4722D01*
X13218Y4788D01*
X13205Y4853D01*
X13168Y4908D01*
X13173Y4965D01*
X13191Y4978D01*
X13228Y5033D01*
X13241Y5098D01*
X13228Y5164D01*
X13191Y5219D01*
X13136Y5256D01*
X13071Y5269D01*
X13006Y5256D01*
X12950Y5219D01*
X12913Y5164D01*
X12902Y5106D01*
X12877Y5092D01*
X12852Y5085D01*
X12421Y5516D01*
X12367Y5552D01*
X12373Y5581D01*
X12360Y5646D01*
X12323Y5701D01*
X12267Y5738D01*
X12202Y5751D01*
X12137Y5738D01*
X12081Y5701D01*
X12044Y5646D01*
X12031Y5581D01*
X12026Y5575D01*
X11929D01*
X11902Y5569D01*
X11849Y5575D01*
X11808Y5637D01*
X11746Y5678D01*
X11673Y5693D01*
X11600Y5678D01*
X11538Y5637D01*
X11497Y5575D01*
X11483Y5502D01*
X11497Y5429D01*
X11538Y5367D01*
X11566Y5349D01*
X11570Y5299D01*
X11521Y5250D01*
X11478Y5185D01*
X11463Y5108D01*
X11468Y5081D01*
X11400Y5067D01*
X11334Y5024D01*
X11291Y4959D01*
X11276Y4882D01*
X11291Y4805D01*
X11334Y4740D01*
X11400Y4696D01*
X11476Y4681D01*
X11674D01*
X11675Y4677D01*
X11718Y4612D01*
X11783Y4569D01*
X11860Y4553D01*
X11937Y4569D01*
X12002Y4612D01*
X12052Y4662D01*
X12279D01*
X12280Y4661D01*
Y3837D01*
X12230Y3810D01*
X12201Y3829D01*
X12170Y3835D01*
X12178Y3878D01*
X12165Y3943D01*
X12129Y3999D01*
X12073Y4036D01*
X12059Y4038D01*
X12068Y4087D01*
X12063Y4112D01*
X12106Y4121D01*
X12161Y4158D01*
X12198Y4213D01*
X12211Y4278D01*
X12198Y4344D01*
X12161Y4399D01*
X12106Y4436D01*
X12041Y4449D01*
X11975Y4436D01*
X11920Y4399D01*
X11883Y4344D01*
X11870Y4278D01*
X11875Y4253D01*
X11833Y4245D01*
X11777Y4208D01*
X11740Y4152D01*
X11728Y4091D01*
X11721Y4092D01*
X11672Y4082D01*
X11669Y4085D01*
X11653Y4161D01*
X11610Y4227D01*
X11545Y4270D01*
X11468Y4285D01*
X11391Y4270D01*
X11326Y4227D01*
X11283Y4161D01*
X11267Y4085D01*
Y4078D01*
X11217Y4038D01*
X11178Y4046D01*
X11101Y4031D01*
X11036Y3987D01*
X11012Y3983D01*
X10991Y3997D01*
X10925Y4010D01*
X10860Y3997D01*
X10816Y3968D01*
X10737Y4047D01*
X10723Y4069D01*
X10658Y4113D01*
X10581Y4128D01*
X10504Y4113D01*
X10439Y4069D01*
X10395Y4004D01*
X10383Y3943D01*
X10170D01*
X10169Y3943D01*
X10089Y3959D01*
X9470D01*
X9457Y3981D01*
X9449Y4009D01*
X9481Y4057D01*
X9494Y4123D01*
X9481Y4188D01*
X9444Y4243D01*
X9389Y4280D01*
X9323Y4293D01*
X9258Y4280D01*
X9203Y4243D01*
X9169Y4192D01*
X9157Y4184D01*
X9118Y4172D01*
X8767Y4523D01*
X8699Y4569D01*
X8618Y4585D01*
X7406D01*
X7325Y4569D01*
X7257Y4523D01*
X7046Y4312D01*
X7000Y4244D01*
X6984Y4163D01*
X6984Y4163D01*
X6985Y4159D01*
X6988Y4117D01*
X6923Y4104D01*
X6868Y4067D01*
X6831Y4012D01*
X6818Y3947D01*
X6831Y3882D01*
X6868Y3826D01*
X6923Y3789D01*
X6988Y3776D01*
X7053Y3789D01*
X7109Y3826D01*
X7146Y3882D01*
X7159Y3947D01*
X7194Y3953D01*
X7195Y3953D01*
X7276Y3969D01*
X7344Y4014D01*
X7493Y4163D01*
X8434D01*
X8453Y4113D01*
X8425Y4071D01*
X8412Y4006D01*
X8425Y3941D01*
X8462Y3885D01*
X8517Y3848D01*
X8583Y3835D01*
X8648Y3848D01*
X8703Y3885D01*
X8717Y3906D01*
X8782Y3912D01*
X8967Y3727D01*
X8962Y3678D01*
X8954Y3672D01*
X8917Y3617D01*
X8904Y3552D01*
X8917Y3487D01*
X8954Y3431D01*
X9010Y3394D01*
X9075Y3381D01*
X9140Y3394D01*
X9195Y3431D01*
X9232Y3487D01*
X9243Y3537D01*
X9243Y3538D01*
X10079D01*
X10080Y3537D01*
X10161Y3521D01*
X10243D01*
X10256Y3458D01*
X10293Y3403D01*
X10348Y3366D01*
X10413Y3353D01*
X10479Y3366D01*
X10534Y3403D01*
X10578Y3407D01*
X10775Y3210D01*
X10746Y3166D01*
X10733Y3101D01*
X10746Y3036D01*
X10783Y2980D01*
X10838Y2943D01*
X10904Y2930D01*
X10969Y2943D01*
X11012Y2973D01*
X11104Y2881D01*
Y2670D01*
X11120Y2590D01*
X11166Y2521D01*
X11316Y2371D01*
X11385Y2325D01*
X11465Y2309D01*
X11658D01*
X11739Y2325D01*
X11807Y2371D01*
X11843Y2374D01*
X12106Y2111D01*
X12106Y2040D01*
X11883Y1817D01*
X11857Y1778D01*
X11848Y1732D01*
X11848Y1732D01*
Y1489D01*
X11853Y1467D01*
X11857Y1445D01*
X11857Y1444D01*
X11857Y1443D01*
X11870Y1424D01*
X11882Y1405D01*
X11883Y1405D01*
X11883Y1404D01*
X11902Y1391D01*
X11921Y1379D01*
X11928Y1376D01*
Y1321D01*
X11921Y1318D01*
X11902Y1305D01*
X11883Y1293D01*
X11873Y1295D01*
X11873Y1295D01*
X11833Y1307D01*
X11823Y1321D01*
X11768Y1358D01*
X11703Y1371D01*
X11637Y1358D01*
X11593Y1329D01*
X11560Y1324D01*
X11527Y1329D01*
X11483Y1358D01*
X11417Y1371D01*
X11352Y1358D01*
X11297Y1321D01*
X11260Y1266D01*
X11247Y1201D01*
X11260Y1135D01*
X11297Y1080D01*
X11352Y1043D01*
X11417Y1030D01*
X11483Y1043D01*
X11527Y1073D01*
X11560Y1077D01*
X11593Y1073D01*
X11637Y1043D01*
X11703Y1030D01*
X11768Y1043D01*
X11798Y1063D01*
X11848Y1037D01*
Y918D01*
X10954D01*
X10927Y968D01*
X10938Y1024D01*
X10925Y1089D01*
X10888Y1144D01*
X10833Y1181D01*
X10768Y1194D01*
X10702Y1181D01*
X10647Y1144D01*
X10610Y1089D01*
X10597Y1024D01*
X10608Y968D01*
X10582Y918D01*
X10206D01*
X10179Y968D01*
X10190Y1024D01*
X10177Y1089D01*
X10140Y1144D01*
X10085Y1181D01*
X10020Y1194D01*
X9954Y1181D01*
X9899Y1144D01*
X9862Y1089D01*
X9849Y1024D01*
X9860Y968D01*
X9834Y918D01*
X9508D01*
X9484Y962D01*
X9488Y968D01*
X9501Y1033D01*
X9488Y1099D01*
X9451Y1154D01*
X9396Y1191D01*
X9331Y1204D01*
X9265Y1191D01*
X9210Y1154D01*
X9173Y1099D01*
X9160Y1033D01*
X9173Y968D01*
X9177Y962D01*
X9154Y918D01*
X8960D01*
Y1447D01*
X8959Y1453D01*
X8959Y1459D01*
X8954Y1476D01*
X8951Y1493D01*
X8947Y1498D01*
X8946Y1504D01*
X8934Y1517D01*
X8925Y1532D01*
X8944Y1578D01*
X8947Y1582D01*
X8960Y1647D01*
X8947Y1712D01*
X8910Y1768D01*
X8855Y1805D01*
X8789Y1818D01*
X8764Y1813D01*
X8760Y1822D01*
X8752Y1830D01*
X8745Y1840D01*
X8551Y2034D01*
X8512Y2060D01*
X8466Y2069D01*
X8466Y2069D01*
X8337D01*
X8334Y2069D01*
X8332Y2069D01*
X8311Y2064D01*
X8291Y2060D01*
X8288Y2059D01*
X8286Y2058D01*
X8269Y2046D01*
X8251Y2034D01*
X8250Y2032D01*
X8248Y2030D01*
X7925Y1679D01*
X7922Y1675D01*
X7919Y1672D01*
X7910Y1655D01*
X7900Y1639D01*
X7900Y1634D01*
X7898Y1630D01*
X7896Y1611D01*
X7893Y1592D01*
X7848Y1575D01*
X7793Y1538D01*
X7756Y1483D01*
X7744Y1425D01*
X7732Y1420D01*
X7716Y1416D01*
X7710Y1411D01*
X7703Y1409D01*
X7691Y1398D01*
X7678Y1388D01*
X7631Y1384D01*
X7566Y1397D01*
X7500Y1384D01*
X7479Y1374D01*
X7464Y1389D01*
X7450Y1405D01*
X7448Y1406D01*
X7446Y1408D01*
X7432Y1417D01*
X7429Y1418D01*
X7428Y1420D01*
X7408Y1427D01*
X7388Y1435D01*
X7386Y1435D01*
X7384Y1436D01*
X7362Y1436D01*
X7341Y1436D01*
X7339Y1435D01*
X7337Y1435D01*
X7316Y1430D01*
X7306Y1425D01*
X7295Y1423D01*
X7284Y1415D01*
X7273Y1410D01*
X7273Y1410D01*
X7228Y1418D01*
X7221Y1421D01*
X7216Y1429D01*
X7214Y1443D01*
X7214Y1458D01*
X7210Y1466D01*
X7208Y1475D01*
X7201Y1488D01*
X7195Y1501D01*
X7188Y1507D01*
X7183Y1515D01*
X7138Y1562D01*
X7156Y1588D01*
X7169Y1654D01*
X7156Y1719D01*
X7119Y1774D01*
X7063Y1811D01*
X6998Y1824D01*
X6933Y1811D01*
X6914Y1799D01*
X6586Y2144D01*
X6337Y2406D01*
X6336Y2407D01*
X6335Y2408D01*
X6317Y2420D01*
X6299Y2433D01*
X6297Y2433D01*
X6296Y2434D01*
X6275Y2438D01*
X6274Y2439D01*
X6264Y2492D01*
X6272Y2497D01*
X6309Y2553D01*
X6316Y2587D01*
X6347Y2596D01*
X6395Y2564D01*
X6398Y2553D01*
X6434Y2497D01*
X6490Y2461D01*
X6555Y2448D01*
X6620Y2461D01*
X6676Y2497D01*
X6713Y2553D01*
X6726Y2618D01*
X6742Y2615D01*
X6807Y2628D01*
X6863Y2665D01*
X6900Y2720D01*
X6913Y2785D01*
X6900Y2851D01*
X6863Y2906D01*
X6807Y2943D01*
X6742Y2956D01*
X6677Y2943D01*
X6621Y2906D01*
X6585Y2851D01*
X6581Y2833D01*
X6558Y2826D01*
X6506Y2860D01*
X6506Y2861D01*
X6469Y2916D01*
X6414Y2953D01*
X6348Y2966D01*
X6283Y2953D01*
X6228Y2916D01*
X6191Y2861D01*
X6185Y2830D01*
X6182Y2826D01*
X6172Y2823D01*
X6160Y2829D01*
X6122Y2860D01*
X6112Y2910D01*
X6075Y2965D01*
X6020Y3002D01*
X5955Y3015D01*
X5889Y3002D01*
X5834Y2965D01*
X5797Y2910D01*
X5784Y2844D01*
X5788Y2824D01*
X5758Y2779D01*
X5693Y2766D01*
X5637Y2729D01*
X5600Y2674D01*
X5587Y2608D01*
X5600Y2543D01*
X5633Y2493D01*
X5627Y2468D01*
X5614Y2443D01*
X5498D01*
X5483Y2493D01*
X5485Y2495D01*
X5522Y2550D01*
X5535Y2615D01*
X5522Y2681D01*
X5485Y2736D01*
X5429Y2773D01*
X5364Y2786D01*
X5299Y2773D01*
X5244Y2736D01*
X5207Y2681D01*
X5199Y2645D01*
X5167Y2651D01*
X5102Y2638D01*
X5047Y2601D01*
X5010Y2546D01*
X4997Y2480D01*
X4966Y2443D01*
X4435D01*
X4413Y2470D01*
X4399Y2543D01*
X4357Y2605D01*
X4295Y2647D01*
X4222Y2661D01*
X4149Y2647D01*
X4088Y2605D01*
X4046Y2543D01*
X4032Y2470D01*
X4009Y2443D01*
X3062D01*
X3045Y2493D01*
X3080Y2545D01*
X3094Y2618D01*
X3080Y2691D01*
X3038Y2753D01*
X3013Y2770D01*
Y2830D01*
X3038Y2847D01*
X3080Y2909D01*
X3094Y2982D01*
X3080Y3055D01*
X3038Y3117D01*
X2977Y3158D01*
X2904Y3173D01*
X2831Y3158D01*
X2769Y3117D01*
X2727Y3055D01*
X2713Y2982D01*
X2727Y2909D01*
X2769Y2847D01*
X2794Y2830D01*
Y2770D01*
X2769Y2753D01*
X2727Y2691D01*
X2724Y2676D01*
X2676Y2661D01*
X1636Y3701D01*
X1636Y4685D01*
X1627Y4731D01*
X1601Y4770D01*
X1601Y4770D01*
X1030Y5341D01*
X991Y5367D01*
X945Y5376D01*
X945Y5376D01*
X201D01*
Y7762D01*
X251Y7788D01*
X268Y7777D01*
X333Y7764D01*
X399Y7777D01*
X454Y7814D01*
X491Y7869D01*
X504Y7934D01*
X491Y8000D01*
X464Y8040D01*
X476Y8086D01*
X483Y8095D01*
X508Y8100D01*
X564Y8137D01*
X601Y8193D01*
X614Y8258D01*
X601Y8323D01*
X564Y8379D01*
X508Y8415D01*
X443Y8428D01*
X378Y8415D01*
X322Y8379D01*
X285Y8323D01*
X272Y8258D01*
X285Y8193D01*
X312Y8152D01*
X300Y8106D01*
X293Y8097D01*
X268Y8092D01*
X251Y8081D01*
X201Y8107D01*
X201Y9305D01*
X210Y9312D01*
X277Y9301D01*
X288Y9284D01*
X350Y9243D01*
X423Y9229D01*
X496Y9243D01*
X558Y9284D01*
X599Y9346D01*
X614Y9419D01*
X599Y9492D01*
X574Y9530D01*
X562Y9567D01*
X574Y9604D01*
X599Y9642D01*
X614Y9715D01*
X599Y9788D01*
X558Y9849D01*
X496Y9891D01*
X423Y9905D01*
X350Y9891D01*
X288Y9849D01*
X277Y9833D01*
X210Y9822D01*
X201Y9829D01*
Y11129D01*
X201Y11179D01*
X2402D01*
X2448Y11188D01*
X2487Y11214D01*
X2487Y11214D01*
X3523Y12251D01*
X3527Y12255D01*
X3531Y12259D01*
X3539Y12275D01*
X3549Y12290D01*
X3550Y12295D01*
X3553Y12301D01*
X3555Y12318D01*
X3558Y12336D01*
X3557Y12342D01*
X3558Y12347D01*
X3553Y12364D01*
X3549Y12382D01*
X3546Y12387D01*
X3544Y12392D01*
X3524Y12430D01*
X3530Y12434D01*
X3572Y12496D01*
X3578Y12527D01*
X3634Y12567D01*
X3642Y12565D01*
X3715Y12580D01*
X3749Y12543D01*
X3754Y12539D01*
X3758Y12535D01*
X3773Y12527D01*
X3788Y12517D01*
X3794Y12516D01*
X3799Y12513D01*
X3817Y12511D01*
X3834Y12508D01*
X4419D01*
X4450Y12458D01*
X4441Y12411D01*
X4454Y12346D01*
X4491Y12291D01*
X4546Y12254D01*
X4611Y12241D01*
X4677Y12254D01*
X4732Y12291D01*
X4733Y12293D01*
X4783D01*
X4785Y12290D01*
X4791Y12240D01*
Y12234D01*
X4781Y12227D01*
X4744Y12172D01*
X4731Y12106D01*
X4744Y12041D01*
X4781Y11986D01*
X4836Y11949D01*
X4902Y11936D01*
X4967Y11949D01*
X5022Y11986D01*
X5059Y12041D01*
X5072Y12106D01*
X5059Y12172D01*
X5022Y12227D01*
Y12274D01*
X5032Y12281D01*
X5069Y12336D01*
X5082Y12402D01*
X5071Y12458D01*
X5097Y12508D01*
X5882D01*
X5912Y12470D01*
X5925Y12405D01*
X5962Y12350D01*
X6017Y12313D01*
X6083Y12300D01*
X6148Y12313D01*
X6203Y12350D01*
X6240Y12405D01*
X6253Y12470D01*
X6240Y12536D01*
X6232Y12548D01*
X6372Y12688D01*
X6379Y12698D01*
X6383Y12702D01*
X6427Y12694D01*
X6492Y12707D01*
X6548Y12744D01*
X6585Y12799D01*
X6598Y12864D01*
X6585Y12929D01*
X6622Y12963D01*
X6670Y12995D01*
X6712Y13057D01*
X6716Y13080D01*
X6750Y13115D01*
X6767Y13119D01*
X6785Y13121D01*
X6790Y13123D01*
X6796Y13125D01*
X6810Y13134D01*
X6826Y13143D01*
X6830Y13147D01*
X6835Y13151D01*
X6937Y13253D01*
X6944Y13263D01*
X6952Y13271D01*
X6952Y13272D01*
X6988Y13264D01*
X7053Y13277D01*
X7109Y13314D01*
X7146Y13370D01*
X7159Y13435D01*
X7152Y13471D01*
X7152Y13471D01*
X7161Y13480D01*
X7170Y13486D01*
X7926Y14242D01*
X7926Y14242D01*
X7997Y14313D01*
X8000Y14318D01*
X8005Y14321D01*
X8013Y14337D01*
X8023Y14351D01*
X8046Y14347D01*
X8119Y14361D01*
X8181Y14403D01*
X8222Y14464D01*
X8237Y14537D01*
X8233Y14554D01*
X8301Y14568D01*
X8363Y14609D01*
X8404Y14671D01*
X8417Y14733D01*
X8695Y15011D01*
X8745Y15006D01*
X8757Y14988D01*
X8813Y14951D01*
X8878Y14938D01*
X8943Y14951D01*
X8999Y14988D01*
X9036Y15043D01*
X9049Y15108D01*
X9036Y15174D01*
X8999Y15229D01*
X8991Y15234D01*
X8993Y15252D01*
X9006Y15284D01*
X9061Y15295D01*
X9117Y15332D01*
X9154Y15387D01*
X9167Y15453D01*
X9165Y15461D01*
X9197Y15500D01*
X9329D01*
X9361Y15461D01*
X9359Y15453D01*
X9372Y15387D01*
X9409Y15332D01*
X9465Y15295D01*
X9530Y15282D01*
X9595Y15295D01*
X9651Y15332D01*
X9688Y15387D01*
X9701Y15453D01*
X9699Y15461D01*
X9731Y15500D01*
X9863D01*
X9895Y15461D01*
X9893Y15453D01*
X9906Y15387D01*
X9943Y15332D01*
X9999Y15295D01*
X10064Y15282D01*
X10129Y15295D01*
X10185Y15332D01*
X10222Y15387D01*
X10235Y15453D01*
X10233Y15461D01*
X10265Y15500D01*
X10397D01*
X10429Y15461D01*
X10427Y15453D01*
X10440Y15387D01*
X10477Y15332D01*
X10533Y15295D01*
X10598Y15282D01*
X10663Y15295D01*
X10719Y15332D01*
X10756Y15387D01*
X10769Y15453D01*
X10767Y15461D01*
X10799Y15500D01*
X10931D01*
X10963Y15461D01*
X10961Y15453D01*
X10974Y15387D01*
X11011Y15332D01*
X11029Y15321D01*
X11028Y15319D01*
X11024Y15308D01*
Y15296D01*
X11021Y15284D01*
Y14980D01*
X11030Y14934D01*
X11057Y14895D01*
X11096Y14869D01*
X11142Y14860D01*
X11997D01*
X12012Y14810D01*
X12005Y14806D01*
X11970Y14753D01*
X11968Y14750D01*
X11914Y14735D01*
X11886Y14754D01*
X11821Y14767D01*
X11756Y14754D01*
X11700Y14717D01*
X11663Y14662D01*
X11650Y14596D01*
X11663Y14531D01*
X11700Y14476D01*
X11756Y14439D01*
X11821Y14426D01*
X11886Y14439D01*
X11941Y14476D01*
X11976Y14528D01*
X11979Y14531D01*
X12032Y14546D01*
X12061Y14527D01*
X12126Y14514D01*
X12191Y14527D01*
X12247Y14564D01*
X12284Y14620D01*
X12297Y14685D01*
X12284Y14750D01*
X12247Y14806D01*
X12240Y14810D01*
X12255Y14860D01*
X12776D01*
X12822Y14869D01*
X12861Y14895D01*
X12887Y14934D01*
X12896Y14980D01*
Y15327D01*
X12895Y15333D01*
X12895Y15339D01*
X12890Y15355D01*
X12887Y15373D01*
X12884Y15378D01*
X12882Y15383D01*
X12871Y15397D01*
X12861Y15412D01*
X12856Y15415D01*
X12852Y15420D01*
X12843Y15425D01*
X12837Y15453D01*
X12843Y15481D01*
X12852Y15486D01*
X12856Y15490D01*
X12861Y15494D01*
X12871Y15508D01*
X12882Y15522D01*
X12884Y15528D01*
X12887Y15533D01*
X12890Y15550D01*
X12895Y15567D01*
X12895Y15573D01*
X12896Y15579D01*
Y15712D01*
X12923Y15735D01*
X12996Y15749D01*
X13058Y15790D01*
X13099Y15852D01*
X13114Y15925D01*
X13099Y15998D01*
X13058Y16060D01*
X12996Y16101D01*
X12923Y16116D01*
X12897Y16138D01*
X12896Y16161D01*
X12896Y16728D01*
X15418D01*
X15445Y16678D01*
D02*
G37*
G36*
X22569Y12815D02*
Y12435D01*
X22554Y12426D01*
X22519Y12413D01*
X22461Y12425D01*
X22395Y12412D01*
X22340Y12375D01*
X22303Y12319D01*
X22290Y12254D01*
X22297Y12219D01*
X22261Y12169D01*
X21764D01*
X21745Y12215D01*
X22432Y12902D01*
X22482D01*
X22569Y12815D01*
D02*
G37*
G36*
X23795Y12062D02*
X23788Y12068D01*
X23782Y12074D01*
X23775Y12078D01*
X23768Y12083D01*
X23760Y12086D01*
X23753Y12089D01*
X23745Y12091D01*
X23738Y12093D01*
X23730Y12094D01*
X23721Y12094D01*
Y12153D01*
X23730Y12154D01*
X23738Y12155D01*
X23745Y12156D01*
X23753Y12159D01*
X23760Y12162D01*
X23768Y12165D01*
X23775Y12169D01*
X23782Y12174D01*
X23788Y12180D01*
X23795Y12186D01*
Y12062D01*
D02*
G37*
G36*
X23663Y11857D02*
X23662Y11857D01*
X23661Y11857D01*
X23659Y11856D01*
X23657Y11855D01*
X23655Y11854D01*
X23652Y11852D01*
X23646Y11847D01*
X23638Y11839D01*
X23596Y11881D01*
X23602Y11887D01*
X23623Y11911D01*
X23624Y11912D01*
X23624Y11913D01*
X23663Y11857D01*
D02*
G37*
G36*
X23801Y11679D02*
X23795Y11686D01*
X23788Y11691D01*
X23782Y11696D01*
X23775Y11701D01*
X23768Y11704D01*
X23760Y11707D01*
X23753Y11710D01*
X23745Y11711D01*
X23737Y11712D01*
X23729Y11713D01*
X23730Y11772D01*
X23739Y11772D01*
X23747Y11773D01*
X23754Y11774D01*
X23762Y11777D01*
X23770Y11780D01*
X23777Y11783D01*
X23784Y11787D01*
X23791Y11792D01*
X23798Y11797D01*
X23805Y11803D01*
X23801Y11679D01*
D02*
G37*
G36*
X23651Y11640D02*
X23664Y11628D01*
X23668Y11626D01*
X23672Y11624D01*
X23675Y11622D01*
X23678Y11621D01*
X23680Y11621D01*
X23682Y11622D01*
X23627Y11566D01*
X23627Y11568D01*
X23627Y11571D01*
X23626Y11574D01*
X23625Y11577D01*
X23623Y11580D01*
X23620Y11584D01*
X23617Y11589D01*
X23609Y11598D01*
X23604Y11603D01*
X23645Y11645D01*
X23651Y11640D01*
D02*
G37*
G36*
X23795Y11117D02*
X23788Y11123D01*
X23782Y11129D01*
X23775Y11134D01*
X23768Y11138D01*
X23760Y11141D01*
X23753Y11144D01*
X23745Y11147D01*
X23738Y11148D01*
X23730Y11149D01*
X23721Y11149D01*
Y11209D01*
X23730Y11209D01*
X23738Y11210D01*
X23745Y11211D01*
X23753Y11214D01*
X23760Y11217D01*
X23768Y11220D01*
X23775Y11224D01*
X23782Y11229D01*
X23788Y11235D01*
X23795Y11241D01*
Y11117D01*
D02*
G37*
G36*
X23648Y10924D02*
X23641Y10931D01*
X23635Y10936D01*
X23628Y10941D01*
X23621Y10945D01*
X23613Y10949D01*
X23606Y10952D01*
X23598Y10954D01*
X23591Y10956D01*
X23583Y10957D01*
X23574Y10957D01*
Y11016D01*
X23583Y11016D01*
X23591Y11017D01*
X23598Y11019D01*
X23606Y11021D01*
X23613Y11024D01*
X23621Y11028D01*
X23628Y11032D01*
X23635Y11037D01*
X23641Y11042D01*
X23648Y11049D01*
Y10924D01*
D02*
G37*
G36*
X22569Y10509D02*
X22519Y10482D01*
X22451Y10496D01*
X22374Y10481D01*
X22309Y10437D01*
X22171Y10299D01*
X22128Y10234D01*
X22112Y10157D01*
Y7165D01*
X22128Y7089D01*
X22171Y7023D01*
X22236Y6980D01*
X22313Y6965D01*
X22390Y6980D01*
X22448Y7019D01*
X22496Y6986D01*
X22569Y6972D01*
X22569Y6972D01*
Y6281D01*
X22559Y6273D01*
X22494Y6260D01*
X22438Y6223D01*
X22401Y6168D01*
X22388Y6102D01*
X22401Y6037D01*
X22423Y6005D01*
X20994Y4577D01*
X20601D01*
X20590Y4633D01*
X20548Y4695D01*
X20486Y4736D01*
X20413Y4751D01*
X20340Y4736D01*
X20279Y4695D01*
X20237Y4633D01*
X20226Y4577D01*
X20059D01*
X19911Y4429D01*
Y2638D01*
X19904Y2627D01*
X19891Y2562D01*
X19904Y2497D01*
X19911Y2486D01*
Y2470D01*
X19735Y2294D01*
X19502Y2061D01*
X15983D01*
X15964Y2107D01*
X16234Y2378D01*
X16249Y2399D01*
X16264D01*
X16305Y2393D01*
X16352Y2362D01*
X16417Y2349D01*
X16483Y2362D01*
X16538Y2399D01*
X16575Y2454D01*
X16588Y2520D01*
X16575Y2585D01*
X16538Y2640D01*
X16483Y2677D01*
X16417Y2690D01*
X16352Y2677D01*
X16305Y2646D01*
X16264Y2640D01*
X16249D01*
X16234Y2662D01*
X16169Y2705D01*
X16093Y2720D01*
X16016Y2705D01*
X15951Y2662D01*
X15488Y2199D01*
X14734D01*
X14714Y2245D01*
X14852Y2382D01*
X14871Y2386D01*
X14936Y2430D01*
X14979Y2495D01*
X14995Y2572D01*
X14979Y2648D01*
X14936Y2714D01*
X14871Y2757D01*
X14794Y2772D01*
X14757D01*
X14716Y2764D01*
X14700Y2789D01*
X14635Y2832D01*
X14558Y2847D01*
X14481Y2832D01*
X14458Y2816D01*
X14396Y2857D01*
X14320Y2872D01*
X14243Y2857D01*
X14178Y2814D01*
X14134Y2749D01*
X14132Y2737D01*
X14128Y2731D01*
X14025Y2628D01*
X13865D01*
X13845Y2674D01*
X15089Y3917D01*
Y6227D01*
X15127Y6259D01*
X15138Y6257D01*
X15203Y6270D01*
X15258Y6307D01*
X15295Y6362D01*
X15308Y6427D01*
X15295Y6492D01*
X15258Y6548D01*
X15203Y6585D01*
X15138Y6598D01*
X15127Y6596D01*
X15089Y6627D01*
Y7205D01*
X12363Y7205D01*
X12322Y7255D01*
X12326Y7274D01*
X12313Y7339D01*
X12276Y7394D01*
X12221Y7431D01*
X12156Y7444D01*
X12090Y7431D01*
X12035Y7394D01*
X11998Y7339D01*
X11985Y7274D01*
X11989Y7255D01*
X11948Y7205D01*
X10539D01*
X10508Y7244D01*
X10694Y7982D01*
X11969D01*
X11996Y7959D01*
X11985Y7906D01*
X11972Y7904D01*
X11917Y7867D01*
X11880Y7811D01*
X11867Y7746D01*
X11880Y7681D01*
X11917Y7625D01*
X11972Y7588D01*
X12037Y7575D01*
X12103Y7588D01*
X12158Y7625D01*
X12195Y7681D01*
X12208Y7746D01*
X12203Y7769D01*
X12207Y7772D01*
X12272Y7785D01*
X12327Y7822D01*
X12364Y7878D01*
X12377Y7943D01*
X12382Y7949D01*
X15580D01*
X16183Y7347D01*
X16179Y7306D01*
X16142Y7250D01*
X16129Y7185D01*
X16142Y7120D01*
X16179Y7064D01*
X16234Y7027D01*
X16299Y7014D01*
X16365Y7027D01*
X16420Y7064D01*
X16461Y7068D01*
X16636Y6893D01*
X16698Y6852D01*
X16771Y6837D01*
X17440D01*
X17461Y6837D01*
X17496Y6793D01*
X17500Y6775D01*
X17537Y6720D01*
X17557Y6706D01*
Y6686D01*
X17527Y6640D01*
X17506Y6654D01*
X17441Y6667D01*
X17376Y6654D01*
X17320Y6617D01*
X17283Y6561D01*
X17270Y6496D01*
X17283Y6431D01*
X17320Y6375D01*
X17376Y6338D01*
X17410Y6332D01*
X17457Y6309D01*
X17471Y6236D01*
X17513Y6174D01*
X17534Y6160D01*
X17544Y6111D01*
X17529Y6089D01*
X17475Y6070D01*
X17442Y6077D01*
X17377Y6064D01*
X17322Y6027D01*
X17285Y5971D01*
X17272Y5906D01*
X17285Y5841D01*
X17322Y5785D01*
X17377Y5748D01*
X17442Y5735D01*
X17483Y5743D01*
X17491Y5703D01*
X17528Y5647D01*
X17576Y5615D01*
X17577Y5611D01*
X17580Y5583D01*
X17577Y5561D01*
X17536Y5533D01*
X17499Y5478D01*
X17486Y5413D01*
X17497Y5355D01*
X17495Y5355D01*
X17439Y5318D01*
X17402Y5262D01*
X17389Y5197D01*
X17402Y5132D01*
X17431Y5089D01*
X17419Y5081D01*
X17382Y5026D01*
X17369Y4961D01*
X17374Y4932D01*
X17351Y4877D01*
X17296Y4840D01*
X17259Y4784D01*
X17246Y4719D01*
X17259Y4654D01*
X17296Y4599D01*
X17310Y4589D01*
X17273Y4534D01*
X17261Y4469D01*
X17273Y4403D01*
X17310Y4348D01*
X17335Y4332D01*
X17332Y4273D01*
X17301Y4252D01*
X17264Y4197D01*
X17251Y4131D01*
X17264Y4066D01*
X17301Y4011D01*
X17319Y3999D01*
Y3938D01*
X17301Y3926D01*
X17264Y3871D01*
X17251Y3806D01*
X17264Y3740D01*
X17292Y3698D01*
X17299Y3643D01*
X17262Y3588D01*
X17249Y3522D01*
X17262Y3457D01*
X17299Y3402D01*
X17355Y3365D01*
X17420Y3352D01*
X17485Y3365D01*
X17541Y3402D01*
X17578Y3457D01*
X17591Y3522D01*
X17578Y3588D01*
X17549Y3630D01*
X17542Y3685D01*
X17579Y3740D01*
X17592Y3806D01*
X17579Y3871D01*
X17542Y3926D01*
X17524Y3938D01*
Y3999D01*
X17542Y4011D01*
X17579Y4066D01*
X17592Y4131D01*
X17579Y4197D01*
X17542Y4252D01*
X17518Y4268D01*
X17520Y4327D01*
X17552Y4348D01*
X17589Y4403D01*
X17593Y4424D01*
X17644D01*
X17648Y4405D01*
X17683Y4352D01*
X17648Y4299D01*
X17635Y4234D01*
X17648Y4169D01*
X17675Y4127D01*
X17639Y4073D01*
X17624Y3996D01*
X17639Y3919D01*
X17683Y3854D01*
X17674Y3800D01*
X17657Y3776D01*
X17644Y3711D01*
X17657Y3645D01*
X17694Y3590D01*
X17750Y3553D01*
X17771Y3549D01*
X17762Y3506D01*
X17775Y3441D01*
X17812Y3385D01*
X17868Y3348D01*
X17933Y3335D01*
X17998Y3348D01*
X18054Y3385D01*
X18091Y3441D01*
X18104Y3506D01*
X18091Y3571D01*
X18054Y3627D01*
X17998Y3664D01*
X17977Y3668D01*
X17986Y3711D01*
X17973Y3776D01*
X17956Y3800D01*
X17966Y3849D01*
X17974Y3854D01*
X18134Y4014D01*
X18178Y4080D01*
X18193Y4156D01*
Y4785D01*
X18193Y4786D01*
Y5182D01*
X18250Y5240D01*
X18293Y5305D01*
X18309Y5382D01*
Y6667D01*
X18293Y6744D01*
X18250Y6809D01*
X18042Y7017D01*
X18044Y7035D01*
X18081Y7090D01*
X18094Y7156D01*
X18081Y7221D01*
X18069Y7239D01*
X18044Y7277D01*
X18068Y7320D01*
X18079Y7336D01*
X18091Y7402D01*
X18079Y7467D01*
X18042Y7522D01*
X18012Y7542D01*
X18032Y7573D01*
X18045Y7638D01*
X18032Y7703D01*
X17996Y7759D01*
X18029Y7792D01*
X18044Y7803D01*
X18081Y7858D01*
X18094Y7923D01*
X18081Y7989D01*
X18044Y8044D01*
X17989Y8081D01*
X17923Y8094D01*
X17923Y8141D01*
X17927Y8159D01*
X17914Y8225D01*
X17877Y8280D01*
X17821Y8317D01*
X17756Y8330D01*
X17691Y8317D01*
X17635Y8280D01*
X17598Y8225D01*
X17585Y8159D01*
X17598Y8094D01*
X17635Y8039D01*
X17651Y8029D01*
X17648Y7996D01*
X17642Y7974D01*
X17591Y7940D01*
X17554Y7884D01*
X17541Y7819D01*
X17554Y7754D01*
X17567Y7733D01*
X17517Y7699D01*
X17480Y7644D01*
X17467Y7579D01*
X17480Y7513D01*
X17486Y7505D01*
X17459Y7455D01*
X16845D01*
X15884Y8416D01*
Y8468D01*
X16368Y8953D01*
X16663D01*
X16740Y8968D01*
X16774Y8991D01*
X16775Y8989D01*
X16830Y8953D01*
X16896Y8940D01*
X16961Y8953D01*
X17010Y8985D01*
X17299Y8697D01*
X17364Y8653D01*
X17409Y8644D01*
Y8593D01*
X17356Y8583D01*
X17301Y8546D01*
X17264Y8490D01*
X17251Y8425D01*
X17264Y8360D01*
X17301Y8305D01*
X17356Y8268D01*
X17421Y8255D01*
X17487Y8268D01*
X17542Y8305D01*
X17579Y8360D01*
X17592Y8425D01*
X17579Y8490D01*
X17542Y8546D01*
X17487Y8583D01*
X17461Y8588D01*
X17466Y8638D01*
X19193D01*
X19270Y8653D01*
X19335Y8697D01*
X20221Y9582D01*
X20264Y9648D01*
X20279Y9724D01*
X20264Y9801D01*
X20221Y9866D01*
X20156Y9910D01*
X20079Y9925D01*
X20002Y9910D01*
X19937Y9866D01*
X19110Y9039D01*
X18075D01*
X18049Y9089D01*
X18061Y9108D01*
X18074Y9173D01*
X18061Y9239D01*
X18024Y9294D01*
X17969Y9331D01*
X17904Y9344D01*
X17838Y9331D01*
X17783Y9294D01*
X17766Y9268D01*
X17713Y9279D01*
X17706Y9315D01*
X17664Y9377D01*
X17602Y9418D01*
X17530Y9433D01*
X17457Y9418D01*
X17395Y9377D01*
X17353Y9315D01*
X17348Y9286D01*
X17293Y9270D01*
X17081Y9482D01*
X17079Y9506D01*
X17545Y9972D01*
X17592Y9941D01*
X17657Y9928D01*
X17723Y9941D01*
X17778Y9978D01*
X17815Y10033D01*
X17828Y10098D01*
X17815Y10164D01*
X17784Y10211D01*
X18217Y10644D01*
X18281Y10638D01*
X18295Y10618D01*
X18350Y10581D01*
X18352Y10580D01*
X18374Y10525D01*
X18356Y10497D01*
X18343Y10431D01*
X18356Y10366D01*
X18393Y10311D01*
X18448Y10274D01*
X18478Y10268D01*
X18489Y10215D01*
X18457Y10193D01*
X18416Y10131D01*
X18401Y10058D01*
X18416Y9986D01*
X18457Y9924D01*
X18519Y9882D01*
X18592Y9868D01*
X18665Y9882D01*
X18727Y9924D01*
X18768Y9986D01*
X18783Y10058D01*
X18768Y10131D01*
X18727Y10193D01*
X18665Y10235D01*
X18623Y10243D01*
X18612Y10296D01*
X18634Y10311D01*
X18671Y10366D01*
X18684Y10431D01*
X18671Y10497D01*
X18634Y10552D01*
X18579Y10589D01*
X18577Y10589D01*
X18554Y10645D01*
X18573Y10673D01*
X18586Y10738D01*
X18573Y10803D01*
X18536Y10859D01*
X18516Y10872D01*
X18511Y10920D01*
X18549Y10961D01*
X18793D01*
X18815Y10911D01*
X18789Y10872D01*
X18776Y10807D01*
X18789Y10742D01*
X18826Y10686D01*
X18882Y10649D01*
X18906Y10645D01*
X18929Y10589D01*
X18928Y10587D01*
X18915Y10522D01*
X18928Y10456D01*
X18965Y10401D01*
X19020Y10364D01*
X19086Y10351D01*
X19134Y10361D01*
X19139Y10336D01*
X19181Y10274D01*
X19243Y10233D01*
X19315Y10218D01*
X19388Y10233D01*
X19395Y10237D01*
X19431Y10201D01*
X19407Y10165D01*
X19393Y10092D01*
X19407Y10019D01*
X19448Y9957D01*
X19510Y9916D01*
X19583Y9901D01*
X19656Y9916D01*
X19718Y9957D01*
X19759Y10019D01*
X19774Y10092D01*
X19759Y10165D01*
X19718Y10227D01*
X19656Y10268D01*
X19583Y10283D01*
X19510Y10268D01*
X19503Y10264D01*
X19467Y10300D01*
X19492Y10336D01*
X19506Y10409D01*
X19492Y10482D01*
X19450Y10544D01*
X19388Y10585D01*
X19315Y10600D01*
X19244Y10585D01*
X19243Y10587D01*
X19206Y10642D01*
X19151Y10679D01*
X19126Y10684D01*
X19103Y10740D01*
X19104Y10742D01*
X19117Y10807D01*
X19104Y10872D01*
X19079Y10911D01*
X19101Y10961D01*
X19790D01*
X19805Y10911D01*
X19771Y10888D01*
X19734Y10833D01*
X19721Y10768D01*
X19734Y10702D01*
X19771Y10647D01*
X19823Y10613D01*
X19824Y10597D01*
X19818Y10561D01*
X19793Y10556D01*
X19737Y10519D01*
X19700Y10463D01*
X19687Y10398D01*
X19700Y10333D01*
X19737Y10277D01*
X19793Y10240D01*
X19858Y10227D01*
X19923Y10240D01*
X19979Y10277D01*
X20016Y10333D01*
X20029Y10398D01*
X20031Y10400D01*
X20079Y10390D01*
X20144Y10403D01*
X20199Y10440D01*
X20236Y10496D01*
X20249Y10561D01*
X20236Y10626D01*
X20199Y10682D01*
X20144Y10719D01*
X20079Y10732D01*
X20059Y10751D01*
X20062Y10768D01*
X20049Y10833D01*
X20012Y10888D01*
X19979Y10911D01*
X19994Y10961D01*
X21505D01*
X21516Y10909D01*
X21553Y10854D01*
X21608Y10817D01*
X21673Y10804D01*
X21739Y10817D01*
X21794Y10854D01*
X21831Y10909D01*
X21841Y10961D01*
X22569D01*
Y10509D01*
D02*
G37*
G36*
X23795Y10728D02*
X23789Y10734D01*
X23782Y10739D01*
X23775Y10744D01*
X23768Y10748D01*
X23761Y10752D01*
X23754Y10755D01*
X23746Y10757D01*
X23738Y10759D01*
X23730Y10760D01*
X23722Y10760D01*
Y10819D01*
X23730Y10819D01*
X23738Y10820D01*
X23746Y10822D01*
X23754Y10824D01*
X23761Y10827D01*
X23768Y10831D01*
X23775Y10835D01*
X23782Y10840D01*
X23789Y10845D01*
X23795Y10852D01*
Y10728D01*
D02*
G37*
G36*
X16802Y10802D02*
X16792Y10752D01*
X16805Y10687D01*
X16837Y10639D01*
X16682Y10484D01*
X16676Y10485D01*
X16620Y10522D01*
X16555Y10535D01*
X16520Y10528D01*
X16514Y10557D01*
X16477Y10613D01*
X16422Y10650D01*
X16356Y10663D01*
X16291Y10650D01*
X16236Y10613D01*
X16199Y10557D01*
X16186Y10492D01*
X16199Y10427D01*
X16236Y10371D01*
X16215Y10325D01*
X16199Y10302D01*
X16189Y10250D01*
X12597D01*
X12592Y10256D01*
X12579Y10321D01*
X12542Y10377D01*
X12487Y10414D01*
X12421Y10427D01*
X12356Y10414D01*
X12333Y10398D01*
X12266Y10408D01*
X12265Y10409D01*
X12251Y10430D01*
X12189Y10471D01*
X12116Y10486D01*
X12043Y10471D01*
X11981Y10430D01*
X11940Y10368D01*
X11925Y10295D01*
X11927Y10288D01*
X11895Y10250D01*
X11261D01*
X11242Y10296D01*
X11631Y10685D01*
X13277D01*
X13292Y10635D01*
X13274Y10623D01*
X13237Y10568D01*
X13224Y10503D01*
X13237Y10437D01*
X13274Y10382D01*
X13330Y10345D01*
X13395Y10332D01*
X13460Y10345D01*
X13516Y10382D01*
X13553Y10437D01*
X13566Y10503D01*
X13553Y10568D01*
X13516Y10623D01*
X13498Y10635D01*
X13513Y10685D01*
X13888D01*
X13919Y10647D01*
X13914Y10620D01*
X13927Y10555D01*
X13964Y10499D01*
X14019Y10462D01*
X14085Y10449D01*
X14150Y10462D01*
X14205Y10499D01*
X14242Y10555D01*
X14255Y10620D01*
X14250Y10647D01*
X14282Y10685D01*
X15723D01*
X15796Y10700D01*
X15857Y10740D01*
X15905Y10708D01*
X15970Y10695D01*
X16035Y10708D01*
X16091Y10745D01*
X16128Y10801D01*
X16138Y10852D01*
X16773D01*
X16802Y10802D01*
D02*
G37*
G36*
X23648Y10531D02*
X23641Y10537D01*
X23635Y10542D01*
X23628Y10547D01*
X23621Y10552D01*
X23613Y10555D01*
X23606Y10558D01*
X23598Y10560D01*
X23591Y10562D01*
X23583Y10563D01*
X23574Y10563D01*
Y10622D01*
X23583Y10623D01*
X23591Y10624D01*
X23598Y10625D01*
X23606Y10627D01*
X23613Y10630D01*
X23621Y10634D01*
X23628Y10638D01*
X23635Y10643D01*
X23641Y10649D01*
X23648Y10655D01*
Y10531D01*
D02*
G37*
G36*
X22450Y10207D02*
X22444Y10206D01*
X22437Y10205D01*
X22431Y10204D01*
X22424Y10202D01*
X22418Y10199D01*
X22411Y10195D01*
X22405Y10191D01*
X22398Y10186D01*
X22392Y10180D01*
X22385Y10174D01*
X22329Y10229D01*
X22336Y10236D01*
X22341Y10243D01*
X22346Y10249D01*
X22350Y10256D01*
X22354Y10262D01*
X22357Y10269D01*
X22359Y10275D01*
X22361Y10282D01*
X22362Y10288D01*
X22362Y10294D01*
X22450Y10207D01*
D02*
G37*
G36*
X9026Y10122D02*
X9020Y10116D01*
X9015Y10109D01*
X9011Y10103D01*
X9007Y10096D01*
X9004Y10088D01*
X9001Y10081D01*
X8999Y10073D01*
X8997Y10064D01*
X8996Y10056D01*
X8996Y10047D01*
X8910Y10137D01*
X8919Y10137D01*
X8928Y10137D01*
X8936Y10139D01*
X8944Y10140D01*
X8952Y10143D01*
X8959Y10146D01*
X8966Y10150D01*
X8973Y10154D01*
X8979Y10159D01*
X8985Y10165D01*
X9026Y10122D01*
D02*
G37*
G36*
X9278Y10083D02*
X9272Y10077D01*
X9267Y10070D01*
X9263Y10064D01*
X9259Y10057D01*
X9256Y10049D01*
X9254Y10042D01*
X9251Y10034D01*
X9250Y10025D01*
X9249Y10017D01*
X9249Y10008D01*
X9161Y10096D01*
X9170Y10096D01*
X9179Y10097D01*
X9187Y10098D01*
X9195Y10100D01*
X9203Y10103D01*
X9210Y10106D01*
X9217Y10110D01*
X9224Y10114D01*
X9230Y10119D01*
X9236Y10125D01*
X9278Y10083D01*
D02*
G37*
G36*
X9528Y10047D02*
X9535Y10041D01*
X9541Y10036D01*
X9549Y10032D01*
X9556Y10029D01*
X9563Y10026D01*
X9571Y10023D01*
X9579Y10022D01*
X9587Y10021D01*
X9595Y10021D01*
X9596Y9962D01*
X9587Y9961D01*
X9579Y9960D01*
X9572Y9959D01*
X9564Y9956D01*
X9557Y9953D01*
X9549Y9950D01*
X9542Y9945D01*
X9536Y9941D01*
X9529Y9935D01*
X9523Y9929D01*
X9521Y10053D01*
X9528Y10047D01*
D02*
G37*
G36*
X9123Y9685D02*
X9114Y9685D01*
X9106Y9684D01*
X9097Y9683D01*
X9089Y9681D01*
X9082Y9678D01*
X9074Y9675D01*
X9067Y9671D01*
X9061Y9667D01*
X9054Y9662D01*
X9048Y9656D01*
X9007Y9698D01*
X9012Y9704D01*
X9017Y9710D01*
X9021Y9717D01*
X9025Y9724D01*
X9028Y9731D01*
X9031Y9739D01*
X9033Y9747D01*
X9034Y9755D01*
X9035Y9764D01*
X9035Y9773D01*
X9123Y9685D01*
D02*
G37*
G36*
X20078Y9636D02*
X20071Y9636D01*
X20065Y9635D01*
X20059Y9633D01*
X20052Y9631D01*
X20046Y9628D01*
X20039Y9624D01*
X20033Y9620D01*
X20026Y9615D01*
X20020Y9609D01*
X20013Y9603D01*
X19957Y9659D01*
X19964Y9665D01*
X19969Y9672D01*
X19974Y9678D01*
X19978Y9685D01*
X19982Y9691D01*
X19985Y9698D01*
X19987Y9704D01*
X19989Y9711D01*
X19990Y9717D01*
X19990Y9724D01*
X20078Y9636D01*
D02*
G37*
G36*
X9418Y9651D02*
X9419Y9650D01*
X9422Y9649D01*
X9425Y9648D01*
X9429Y9648D01*
X9438Y9647D01*
X9459Y9647D01*
Y9588D01*
X9453Y9588D01*
X9438Y9587D01*
X9435Y9586D01*
X9432Y9585D01*
X9429Y9585D01*
X9427Y9584D01*
X9426Y9583D01*
X9426Y9581D01*
X9417Y9651D01*
X9418Y9651D01*
D02*
G37*
G36*
X8504Y9515D02*
X8505Y9507D01*
X8506Y9500D01*
X8508Y9492D01*
X8510Y9485D01*
X8514Y9478D01*
X8518Y9471D01*
X8522Y9465D01*
X8527Y9458D01*
X8533Y9452D01*
X8492Y9410D01*
X8485Y9416D01*
X8479Y9421D01*
X8472Y9426D01*
X8465Y9430D01*
X8458Y9433D01*
X8451Y9436D01*
X8444Y9437D01*
X8436Y9439D01*
X8429Y9439D01*
X8421Y9439D01*
X8504Y9523D01*
X8504Y9515D01*
D02*
G37*
G36*
X8326Y9333D02*
X8326Y9331D01*
X8327Y9329D01*
X8328Y9326D01*
X8330Y9323D01*
X8333Y9320D01*
X8340Y9312D01*
X8349Y9302D01*
X8307Y9261D01*
X8302Y9265D01*
X8290Y9276D01*
X8286Y9279D01*
X8283Y9281D01*
X8280Y9282D01*
X8278Y9283D01*
X8276Y9284D01*
X8274Y9283D01*
X8326Y9335D01*
X8326Y9333D01*
D02*
G37*
G36*
X8094Y9347D02*
X8094Y9339D01*
X8094Y9331D01*
X8096Y9323D01*
X8098Y9315D01*
X8101Y9308D01*
X8104Y9301D01*
X8108Y9294D01*
X8113Y9288D01*
X8119Y9282D01*
X8072Y9246D01*
X8066Y9251D01*
X8059Y9256D01*
X8053Y9261D01*
X8046Y9265D01*
X8039Y9268D01*
X8031Y9272D01*
X8023Y9274D01*
X8015Y9276D01*
X8006Y9278D01*
X7997Y9279D01*
X8095Y9356D01*
X8094Y9347D01*
D02*
G37*
G36*
X16600Y9092D02*
X16595Y9096D01*
X16590Y9100D01*
X16585Y9103D01*
X16578Y9106D01*
X16572Y9109D01*
X16565Y9111D01*
X16557Y9112D01*
X16549Y9113D01*
X16540Y9114D01*
X16531Y9114D01*
Y9193D01*
X16540Y9193D01*
X16549Y9194D01*
X16557Y9195D01*
X16565Y9197D01*
X16572Y9199D01*
X16578Y9201D01*
X16585Y9204D01*
X16590Y9207D01*
X16595Y9211D01*
X16600Y9216D01*
Y9092D01*
D02*
G37*
G36*
X8011Y9114D02*
X8011Y9109D01*
X8011Y9104D01*
X8012Y9099D01*
X8014Y9094D01*
X8017Y9089D01*
X8020Y9083D01*
X8024Y9078D01*
X8029Y9072D01*
X8034Y9066D01*
X7993Y9024D01*
X7986Y9031D01*
X7973Y9042D01*
X7967Y9046D01*
X7961Y9049D01*
X7955Y9052D01*
X7950Y9054D01*
X7944Y9056D01*
X7939Y9057D01*
X7934Y9057D01*
X8012Y9119D01*
X8011Y9114D01*
D02*
G37*
G36*
X13281Y9062D02*
X13275Y9055D01*
X13269Y9049D01*
X13264Y9042D01*
X13260Y9036D01*
X13256Y9029D01*
X13253Y9023D01*
X13251Y9016D01*
X13249Y9010D01*
X13248Y9003D01*
X13248Y8997D01*
X13160Y9085D01*
X13167Y9085D01*
X13173Y9086D01*
X13179Y9087D01*
X13186Y9090D01*
X13192Y9093D01*
X13199Y9096D01*
X13205Y9101D01*
X13212Y9106D01*
X13219Y9111D01*
X13225Y9118D01*
X13281Y9062D01*
D02*
G37*
G36*
X7795Y8899D02*
X7801Y8893D01*
X7808Y8888D01*
X7815Y8883D01*
X7822Y8880D01*
X7829Y8877D01*
X7836Y8874D01*
X7844Y8872D01*
X7852Y8871D01*
X7861Y8871D01*
X7857Y8812D01*
X7848Y8812D01*
X7840Y8811D01*
X7833Y8809D01*
X7825Y8807D01*
X7817Y8804D01*
X7810Y8801D01*
X7802Y8797D01*
X7795Y8792D01*
X7788Y8787D01*
X7781Y8781D01*
X7789Y8905D01*
X7795Y8899D01*
D02*
G37*
G36*
X8948Y8865D02*
X8954Y8859D01*
X8961Y8855D01*
X8968Y8850D01*
X8975Y8847D01*
X8983Y8844D01*
X8991Y8842D01*
X8998Y8840D01*
X9006Y8839D01*
X9015Y8839D01*
Y8780D01*
X9006Y8779D01*
X8998Y8778D01*
X8991Y8777D01*
X8983Y8774D01*
X8975Y8771D01*
X8968Y8768D01*
X8961Y8764D01*
X8954Y8759D01*
X8948Y8753D01*
X8941Y8747D01*
Y8871D01*
X8948Y8865D01*
D02*
G37*
G36*
X7675Y8698D02*
X7682Y8692D01*
X7689Y8687D01*
X7696Y8683D01*
X7703Y8679D01*
X7710Y8676D01*
X7718Y8674D01*
X7726Y8673D01*
X7734Y8672D01*
X7742Y8671D01*
Y8612D01*
X7734Y8612D01*
X7726Y8611D01*
X7718Y8609D01*
X7710Y8607D01*
X7703Y8604D01*
X7696Y8601D01*
X7689Y8596D01*
X7682Y8591D01*
X7675Y8586D01*
X7669Y8580D01*
Y8704D01*
X7675Y8698D01*
D02*
G37*
G36*
X11772Y8524D02*
X11773Y8515D01*
X11774Y8507D01*
X11776Y8499D01*
X11779Y8491D01*
X11782Y8484D01*
X11786Y8477D01*
X11790Y8470D01*
X11795Y8464D01*
X11801Y8458D01*
X11759Y8416D01*
X11753Y8422D01*
X11746Y8427D01*
X11740Y8431D01*
X11733Y8435D01*
X11725Y8438D01*
X11718Y8440D01*
X11710Y8442D01*
X11702Y8444D01*
X11693Y8445D01*
X11684Y8445D01*
X11772Y8533D01*
X11772Y8524D01*
D02*
G37*
G36*
X10399Y8382D02*
X10390Y8382D01*
X10381Y8381D01*
X10373Y8380D01*
X10365Y8378D01*
X10358Y8375D01*
X10350Y8372D01*
X10343Y8368D01*
X10337Y8364D01*
X10330Y8359D01*
X10324Y8353D01*
X10282Y8395D01*
X10288Y8401D01*
X10293Y8407D01*
X10297Y8414D01*
X10301Y8421D01*
X10304Y8428D01*
X10307Y8436D01*
X10309Y8444D01*
X10310Y8452D01*
X10311Y8461D01*
X10311Y8470D01*
X10399Y8382D01*
D02*
G37*
G36*
X8395Y8363D02*
X8389Y8357D01*
X8385Y8351D01*
X8380Y8344D01*
X8376Y8337D01*
X8373Y8330D01*
X8371Y8322D01*
X8369Y8314D01*
X8367Y8306D01*
X8366Y8297D01*
X8366Y8288D01*
X8278Y8376D01*
X8287Y8376D01*
X8296Y8377D01*
X8304Y8378D01*
X8312Y8380D01*
X8320Y8383D01*
X8327Y8386D01*
X8334Y8390D01*
X8341Y8394D01*
X8347Y8399D01*
X8353Y8405D01*
X8395Y8363D01*
D02*
G37*
G36*
X8052Y8048D02*
X8059Y8042D01*
X8066Y8038D01*
X8073Y8033D01*
X8080Y8030D01*
X8087Y8027D01*
X8095Y8025D01*
X8103Y8023D01*
X8111Y8022D01*
X8119Y8022D01*
Y7963D01*
X8111Y7962D01*
X8103Y7961D01*
X8095Y7960D01*
X8087Y7957D01*
X8080Y7954D01*
X8073Y7951D01*
X8066Y7947D01*
X8059Y7942D01*
X8052Y7936D01*
X8046Y7930D01*
Y8054D01*
X8052Y8048D01*
D02*
G37*
G36*
X8684Y7961D02*
X8679Y7955D01*
X8674Y7948D01*
X8669Y7942D01*
X8665Y7935D01*
X8662Y7927D01*
X8660Y7920D01*
X8658Y7912D01*
X8656Y7903D01*
X8655Y7895D01*
X8655Y7886D01*
X8568Y7974D01*
X8577Y7974D01*
X8585Y7975D01*
X8593Y7976D01*
X8601Y7978D01*
X8609Y7981D01*
X8616Y7984D01*
X8623Y7988D01*
X8630Y7992D01*
X8636Y7997D01*
X8642Y8003D01*
X8684Y7961D01*
D02*
G37*
G36*
X9125Y7900D02*
X9132Y7895D01*
X9138Y7890D01*
X9145Y7886D01*
X9153Y7882D01*
X9160Y7879D01*
X9168Y7877D01*
X9176Y7875D01*
X9184Y7874D01*
X9192Y7874D01*
Y7815D01*
X9184Y7815D01*
X9176Y7814D01*
X9168Y7812D01*
X9160Y7810D01*
X9153Y7807D01*
X9145Y7803D01*
X9138Y7799D01*
X9132Y7794D01*
X9125Y7789D01*
X9118Y7782D01*
Y7907D01*
X9125Y7900D01*
D02*
G37*
G36*
X7831Y7873D02*
X7837Y7867D01*
X7843Y7862D01*
X7850Y7857D01*
X7857Y7853D01*
X7864Y7850D01*
X7871Y7848D01*
X7879Y7846D01*
X7887Y7845D01*
X7895Y7844D01*
X7888Y7785D01*
X7880Y7785D01*
X7872Y7784D01*
X7864Y7783D01*
X7857Y7781D01*
X7849Y7778D01*
X7841Y7775D01*
X7834Y7771D01*
X7826Y7767D01*
X7819Y7762D01*
X7812Y7756D01*
X7826Y7879D01*
X7831Y7873D01*
D02*
G37*
G36*
X22353Y7289D02*
X22353Y7280D01*
X22354Y7272D01*
X22356Y7264D01*
X22358Y7257D01*
X22361Y7250D01*
X22363Y7244D01*
X22367Y7238D01*
X22371Y7233D01*
X22375Y7229D01*
X22251D01*
X22255Y7233D01*
X22259Y7238D01*
X22263Y7244D01*
X22265Y7250D01*
X22268Y7257D01*
X22270Y7264D01*
X22272Y7272D01*
X22273Y7280D01*
X22273Y7289D01*
X22274Y7298D01*
X22352D01*
X22353Y7289D01*
D02*
G37*
G36*
X17398Y6966D02*
X17392Y6972D01*
X17385Y6978D01*
X17378Y6982D01*
X17371Y6987D01*
X17364Y6990D01*
X17357Y6993D01*
X17349Y6995D01*
X17341Y6997D01*
X17333Y6998D01*
X17325Y6998D01*
Y7057D01*
X17333Y7058D01*
X17341Y7059D01*
X17349Y7060D01*
X17357Y7063D01*
X17364Y7066D01*
X17371Y7069D01*
X17378Y7073D01*
X17385Y7078D01*
X17392Y7084D01*
X17398Y7090D01*
Y6966D01*
D02*
G37*
G36*
X11785Y5174D02*
X11779Y5167D01*
X11773Y5161D01*
X11768Y5154D01*
X11764Y5148D01*
X11760Y5141D01*
X11757Y5135D01*
X11755Y5128D01*
X11753Y5122D01*
X11752Y5116D01*
X11752Y5109D01*
X11664Y5197D01*
X11671Y5197D01*
X11677Y5198D01*
X11683Y5200D01*
X11690Y5202D01*
X11696Y5205D01*
X11703Y5209D01*
X11709Y5213D01*
X11716Y5218D01*
X11723Y5223D01*
X11729Y5230D01*
X11785Y5174D01*
D02*
G37*
G36*
X11544Y4940D02*
X11550Y4936D01*
X11555Y4932D01*
X11561Y4929D01*
X11568Y4927D01*
X11575Y4925D01*
X11583Y4923D01*
X11591Y4922D01*
X11600Y4921D01*
X11609Y4921D01*
Y4843D01*
X11600Y4842D01*
X11591Y4842D01*
X11583Y4840D01*
X11575Y4839D01*
X11568Y4837D01*
X11561Y4834D01*
X11555Y4831D01*
X11550Y4828D01*
X11544Y4824D01*
X11540Y4820D01*
Y4944D01*
X11544Y4940D01*
D02*
G37*
G36*
X11982Y4820D02*
X11975Y4813D01*
X11970Y4807D01*
X11965Y4800D01*
X11961Y4793D01*
X11957Y4787D01*
X11954Y4780D01*
X11952Y4774D01*
X11950Y4768D01*
X11949Y4761D01*
X11949Y4755D01*
X11861Y4843D01*
X11867Y4843D01*
X11874Y4844D01*
X11880Y4845D01*
X11887Y4848D01*
X11893Y4851D01*
X11900Y4854D01*
X11906Y4859D01*
X11913Y4863D01*
X11919Y4869D01*
X11926Y4875D01*
X11982Y4820D01*
D02*
G37*
G36*
X7319Y4218D02*
X7312Y4211D01*
X7296Y4192D01*
X7292Y4187D01*
X7289Y4182D01*
X7287Y4177D01*
X7285Y4172D01*
X7284Y4168D01*
X7283Y4164D01*
X7196Y4252D01*
X7200Y4252D01*
X7204Y4253D01*
X7208Y4255D01*
X7213Y4258D01*
X7218Y4261D01*
X7224Y4265D01*
X7236Y4275D01*
X7243Y4281D01*
X7250Y4288D01*
X7319Y4218D01*
D02*
G37*
G36*
X17948Y4057D02*
X17942Y4050D01*
X17931Y4037D01*
X17926Y4030D01*
X17923Y4024D01*
X17920Y4017D01*
X17917Y4011D01*
X17915Y4005D01*
X17914Y3998D01*
X17913Y3992D01*
X17831Y4084D01*
X17837Y4084D01*
X17843Y4085D01*
X17850Y4086D01*
X17856Y4088D01*
X17863Y4091D01*
X17869Y4095D01*
X17876Y4099D01*
X17882Y4104D01*
X17889Y4109D01*
X17896Y4116D01*
X17948Y4057D01*
D02*
G37*
G36*
X11526Y4017D02*
X11522Y4012D01*
X11518Y4006D01*
X11516Y4000D01*
X11513Y3993D01*
X11511Y3986D01*
X11509Y3978D01*
X11508Y3970D01*
X11508Y3961D01*
X11507Y3952D01*
X11429D01*
X11428Y3961D01*
X11428Y3970D01*
X11427Y3978D01*
X11425Y3986D01*
X11423Y3993D01*
X11421Y4000D01*
X11418Y4006D01*
X11414Y4012D01*
X11410Y4017D01*
X11406Y4021D01*
X11530D01*
X11526Y4017D01*
D02*
G37*
G36*
X10669Y3915D02*
X10670Y3908D01*
X10671Y3902D01*
X10673Y3895D01*
X10676Y3889D01*
X10679Y3882D01*
X10683Y3876D01*
X10688Y3869D01*
X10694Y3863D01*
X10700Y3856D01*
X10641Y3804D01*
X10634Y3810D01*
X10621Y3821D01*
X10615Y3825D01*
X10608Y3829D01*
X10602Y3832D01*
X10595Y3835D01*
X10589Y3837D01*
X10583Y3838D01*
X10576Y3839D01*
X10669Y3921D01*
X10669Y3915D01*
D02*
G37*
G36*
X11238Y3780D02*
X11234Y3774D01*
X11231Y3768D01*
X11228Y3762D01*
X11226Y3755D01*
X11224Y3748D01*
X11222Y3741D01*
X11221Y3732D01*
X11221Y3724D01*
X11220Y3715D01*
X11142Y3712D01*
X11142Y3721D01*
X11141Y3729D01*
X11140Y3738D01*
X11138Y3745D01*
X11136Y3752D01*
X11133Y3759D01*
X11130Y3765D01*
X11127Y3771D01*
X11123Y3776D01*
X11118Y3780D01*
X11242Y3784D01*
X11238Y3780D01*
D02*
G37*
G36*
X10025Y3687D02*
X10022Y3689D01*
X10019Y3691D01*
X10014Y3693D01*
X10009Y3695D01*
X10003Y3696D01*
X9996Y3697D01*
X9981Y3699D01*
X9972Y3699D01*
X9962Y3700D01*
Y3798D01*
X9972Y3798D01*
X9996Y3800D01*
X10003Y3801D01*
X10009Y3803D01*
X10014Y3804D01*
X10019Y3806D01*
X10022Y3808D01*
X10025Y3811D01*
Y3687D01*
D02*
G37*
G36*
X10165Y3795D02*
X10168Y3792D01*
X10173Y3789D01*
X10178Y3787D01*
X10183Y3785D01*
X10190Y3784D01*
X10197Y3783D01*
X10205Y3782D01*
X10224Y3781D01*
X10229Y3683D01*
X10213Y3683D01*
X10146Y3678D01*
X10142Y3677D01*
X10139Y3676D01*
X10162Y3798D01*
X10165Y3795D01*
D02*
G37*
G36*
X11623Y3662D02*
X11619Y3657D01*
X11615Y3652D01*
X11612Y3645D01*
X11610Y3639D01*
X11608Y3631D01*
X11606Y3624D01*
X11605Y3616D01*
X11605Y3607D01*
X11604Y3598D01*
X11526D01*
X11525Y3607D01*
X11525Y3616D01*
X11524Y3624D01*
X11522Y3631D01*
X11520Y3639D01*
X11517Y3645D01*
X11515Y3652D01*
X11511Y3657D01*
X11507Y3662D01*
X11503Y3667D01*
X11627D01*
X11623Y3662D01*
D02*
G37*
G36*
X11857Y3630D02*
X11853Y3625D01*
X11849Y3620D01*
X11847Y3613D01*
X11844Y3607D01*
X11842Y3600D01*
X11840Y3592D01*
X11839Y3584D01*
X11839Y3575D01*
X11838Y3566D01*
X11760D01*
X11759Y3575D01*
X11759Y3584D01*
X11758Y3592D01*
X11756Y3600D01*
X11754Y3607D01*
X11751Y3613D01*
X11749Y3620D01*
X11745Y3625D01*
X11741Y3630D01*
X11737Y3635D01*
X11861D01*
X11857Y3630D01*
D02*
G37*
G36*
X14342Y2586D02*
X14336Y2584D01*
X14330Y2582D01*
X14324Y2578D01*
X14317Y2574D01*
X14310Y2568D01*
X14294Y2555D01*
X14276Y2539D01*
X14266Y2529D01*
X14209Y2584D01*
X14215Y2591D01*
X14221Y2597D01*
X14225Y2604D01*
X14229Y2610D01*
X14232Y2617D01*
X14234Y2623D01*
X14236Y2629D01*
X14236Y2636D01*
X14236Y2642D01*
X14234Y2648D01*
X14342Y2586D01*
D02*
G37*
G36*
X14593Y2565D02*
X14590Y2564D01*
X14586Y2562D01*
X14582Y2559D01*
X14573Y2552D01*
X14562Y2542D01*
X14543Y2523D01*
X14456Y2548D01*
X14462Y2555D01*
X14468Y2561D01*
X14472Y2568D01*
X14476Y2574D01*
X14479Y2580D01*
X14480Y2586D01*
X14481Y2592D01*
X14481Y2598D01*
X14480Y2603D01*
X14478Y2609D01*
X14593Y2565D01*
D02*
G37*
G36*
X14767Y2487D02*
X14761Y2489D01*
X14755Y2489D01*
X14749Y2489D01*
X14743Y2488D01*
X14737Y2486D01*
X14730Y2483D01*
X14724Y2479D01*
X14717Y2474D01*
X14711Y2469D01*
X14704Y2463D01*
X14668Y2538D01*
X14674Y2545D01*
X14691Y2564D01*
X14695Y2570D01*
X14702Y2581D01*
X14705Y2586D01*
X14707Y2592D01*
X14709Y2597D01*
X14767Y2487D01*
D02*
G37*
G36*
X11595Y2458D02*
X11592Y2460D01*
X11589Y2462D01*
X11584Y2464D01*
X11579Y2466D01*
X11573Y2467D01*
X11566Y2468D01*
X11551Y2470D01*
X11541Y2470D01*
X11532Y2470D01*
Y2569D01*
X11541Y2569D01*
X11566Y2571D01*
X11573Y2572D01*
X11579Y2573D01*
X11584Y2575D01*
X11589Y2577D01*
X11592Y2579D01*
X11595Y2582D01*
Y2458D01*
D02*
G37*
G36*
X16092Y2431D02*
X16085Y2431D01*
X16079Y2430D01*
X16072Y2428D01*
X16066Y2426D01*
X16060Y2423D01*
X16053Y2419D01*
X16046Y2415D01*
X16040Y2410D01*
X16033Y2404D01*
X16027Y2398D01*
X15971Y2454D01*
X15977Y2460D01*
X15983Y2467D01*
X15988Y2474D01*
X15992Y2480D01*
X15996Y2487D01*
X15999Y2493D01*
X16001Y2500D01*
X16003Y2506D01*
X16004Y2512D01*
X16004Y2519D01*
X16092Y2431D01*
D02*
G37*
G36*
X21604Y859D02*
X21623Y848D01*
X21645Y838D01*
X21670Y829D01*
X21698Y822D01*
X21730Y816D01*
X21765Y812D01*
X21846Y807D01*
X21891Y807D01*
X21598Y515D01*
X21598Y560D01*
X21594Y640D01*
X21589Y675D01*
X21583Y707D01*
X21576Y736D01*
X21568Y761D01*
X21558Y783D01*
X21546Y801D01*
X21534Y816D01*
X21589Y872D01*
X21604Y859D01*
D02*
G37*
G36*
X20604Y859D02*
X20623Y848D01*
X20645Y838D01*
X20670Y829D01*
X20698Y822D01*
X20730Y816D01*
X20765Y812D01*
X20846Y807D01*
X20891Y807D01*
X20598Y515D01*
X20598Y560D01*
X20594Y640D01*
X20589Y675D01*
X20583Y707D01*
X20576Y736D01*
X20568Y761D01*
X20558Y783D01*
X20546Y801D01*
X20534Y816D01*
X20589Y872D01*
X20604Y859D01*
D02*
G37*
G36*
X19604D02*
X19623Y848D01*
X19645Y838D01*
X19670Y829D01*
X19698Y822D01*
X19730Y816D01*
X19765Y812D01*
X19846Y807D01*
X19891Y807D01*
X19598Y515D01*
X19598Y560D01*
X19594Y640D01*
X19589Y675D01*
X19583Y707D01*
X19576Y736D01*
X19568Y761D01*
X19558Y783D01*
X19546Y801D01*
X19534Y816D01*
X19589Y872D01*
X19604Y859D01*
D02*
G37*
G36*
X18604D02*
X18623Y848D01*
X18645Y838D01*
X18670Y829D01*
X18698Y822D01*
X18730Y816D01*
X18765Y812D01*
X18846Y807D01*
X18891Y807D01*
X18598Y515D01*
X18598Y560D01*
X18594Y640D01*
X18589Y675D01*
X18583Y707D01*
X18576Y736D01*
X18568Y761D01*
X18558Y783D01*
X18546Y801D01*
X18534Y816D01*
X18589Y872D01*
X18604Y859D01*
D02*
G37*
G36*
X1516Y4685D02*
X1516Y3652D01*
X2844Y2323D01*
X4107D01*
X4149Y2294D01*
X4222Y2280D01*
X4295Y2294D01*
X4338Y2323D01*
X5102D01*
X5102Y2323D01*
X5167Y2310D01*
X5233Y2323D01*
X5233Y2323D01*
X6250D01*
X6499Y2061D01*
X6838Y1704D01*
X6827Y1654D01*
X6840Y1588D01*
X6877Y1533D01*
X6933Y1496D01*
X6998Y1483D01*
X7040Y1491D01*
X7096Y1432D01*
X7085Y1371D01*
X7055Y1351D01*
X7018Y1296D01*
X7005Y1230D01*
X7018Y1165D01*
X7055Y1110D01*
X7110Y1073D01*
X7175Y1060D01*
X7240Y1073D01*
X7296Y1110D01*
X7333Y1165D01*
X7346Y1230D01*
X7334Y1289D01*
X7343Y1312D01*
X7364Y1317D01*
X7379Y1308D01*
X7403Y1268D01*
X7395Y1227D01*
X7408Y1161D01*
X7445Y1106D01*
X7500Y1069D01*
X7566Y1056D01*
X7631Y1069D01*
X7686Y1106D01*
X7723Y1161D01*
X7736Y1227D01*
X7731Y1255D01*
X7767Y1307D01*
X7785Y1308D01*
X7793Y1297D01*
X7848Y1260D01*
X7913Y1247D01*
X7979Y1260D01*
X8034Y1297D01*
X8071Y1352D01*
X8084Y1417D01*
X8071Y1483D01*
X8034Y1538D01*
X8019Y1548D01*
X8013Y1597D01*
X8337Y1949D01*
X8466D01*
X8660Y1755D01*
X8632Y1712D01*
X8619Y1647D01*
X8632Y1582D01*
X8669Y1526D01*
X8724Y1489D01*
X8789Y1477D01*
X8801Y1479D01*
X8839Y1447D01*
Y797D01*
X11968D01*
Y1208D01*
X12001Y1222D01*
X12019Y1226D01*
X12071Y1191D01*
X12136Y1178D01*
X12201Y1191D01*
X12256Y1228D01*
X12293Y1283D01*
X12306Y1348D01*
X12293Y1414D01*
X12256Y1469D01*
X12201Y1506D01*
X12136Y1519D01*
X12071Y1506D01*
X12019Y1471D01*
X12001Y1475D01*
X11968Y1489D01*
Y1732D01*
X12226Y1990D01*
X12351Y1866D01*
X12350Y1853D01*
X12313Y1798D01*
X12300Y1732D01*
X12313Y1667D01*
X12350Y1612D01*
X12405Y1575D01*
X12470Y1562D01*
X12536Y1575D01*
X12591Y1612D01*
X12604Y1613D01*
X12912Y1305D01*
X12977Y1261D01*
X13054Y1246D01*
X15991D01*
X16006Y1196D01*
X16002Y1194D01*
X15965Y1138D01*
X15952Y1073D01*
X15965Y1008D01*
X16002Y952D01*
X16058Y915D01*
X16123Y902D01*
X16188Y915D01*
X16243Y952D01*
X16280Y1008D01*
X16293Y1073D01*
X16280Y1138D01*
X16243Y1194D01*
X16240Y1196D01*
X16255Y1246D01*
X17876D01*
X18252Y870D01*
X18246Y805D01*
X18228Y787D01*
X18175Y777D01*
X18113Y735D01*
X18072Y673D01*
X18061Y620D01*
X17642Y201D01*
X6437D01*
X6401Y236D01*
X6401Y945D01*
X6401Y950D01*
X6401Y955D01*
X6399Y993D01*
X6396Y1008D01*
Y1023D01*
X6381Y1098D01*
X6373Y1117D01*
X6369Y1136D01*
X6340Y1207D01*
X6329Y1224D01*
X6321Y1242D01*
X6278Y1306D01*
X6264Y1320D01*
X6253Y1337D01*
X6199Y1391D01*
X6182Y1402D01*
X6168Y1416D01*
X6104Y1459D01*
X6086Y1467D01*
X6069Y1478D01*
X5998Y1507D01*
X5979Y1511D01*
X5961Y1518D01*
X5885Y1534D01*
X5870D01*
X5856Y1537D01*
X5817Y1539D01*
X5812Y1538D01*
X5807Y1539D01*
X201Y1539D01*
Y5256D01*
X945D01*
X1516Y4685D01*
D02*
G37*
%LPC*%
G36*
X6073Y16175D02*
X6008Y16162D01*
X5952Y16125D01*
X5915Y16069D01*
X5902Y16004D01*
X5915Y15939D01*
X5952Y15883D01*
X6008Y15846D01*
X6073Y15833D01*
X6138Y15846D01*
X6193Y15883D01*
X6230Y15939D01*
X6243Y16004D01*
X6230Y16069D01*
X6193Y16125D01*
X6138Y16162D01*
X6073Y16175D01*
D02*
G37*
G36*
X7736Y15702D02*
X7663Y15688D01*
X7601Y15647D01*
X7560Y15585D01*
X7546Y15512D01*
X7560Y15439D01*
X7601Y15377D01*
X7663Y15336D01*
X7736Y15321D01*
X7809Y15336D01*
X7871Y15377D01*
X7912Y15439D01*
X7927Y15512D01*
X7912Y15585D01*
X7871Y15647D01*
X7809Y15688D01*
X7736Y15702D01*
D02*
G37*
G36*
X6476Y15693D02*
X6403Y15678D01*
X6342Y15637D01*
X6300Y15575D01*
X6286Y15502D01*
X6300Y15429D01*
X6342Y15367D01*
X6403Y15326D01*
X6476Y15311D01*
X6549Y15326D01*
X6611Y15367D01*
X6653Y15429D01*
X6667Y15502D01*
X6653Y15575D01*
X6611Y15637D01*
X6549Y15678D01*
X6476Y15693D01*
D02*
G37*
G36*
X4390Y15643D02*
X4324Y15630D01*
X4269Y15593D01*
X4232Y15538D01*
X4219Y15472D01*
X4232Y15407D01*
X4269Y15352D01*
X4324Y15315D01*
X4390Y15302D01*
X4455Y15315D01*
X4510Y15352D01*
X4547Y15407D01*
X4560Y15472D01*
X4547Y15538D01*
X4510Y15593D01*
X4455Y15630D01*
X4390Y15643D01*
D02*
G37*
G36*
X7096Y15673D02*
X7023Y15658D01*
X6962Y15617D01*
X6920Y15555D01*
X6906Y15482D01*
X6920Y15409D01*
X6962Y15347D01*
X7023Y15306D01*
X7096Y15292D01*
X7169Y15306D01*
X7231Y15347D01*
X7273Y15409D01*
X7287Y15482D01*
X7273Y15555D01*
X7231Y15617D01*
X7169Y15658D01*
X7096Y15673D01*
D02*
G37*
G36*
X5797Y15614D02*
X5732Y15601D01*
X5677Y15564D01*
X5640Y15508D01*
X5627Y15443D01*
X5640Y15378D01*
X5677Y15322D01*
X5732Y15285D01*
X5797Y15272D01*
X5863Y15285D01*
X5918Y15322D01*
X5955Y15378D01*
X5968Y15443D01*
X5955Y15508D01*
X5918Y15564D01*
X5863Y15601D01*
X5797Y15614D01*
D02*
G37*
G36*
X5344D02*
X5279Y15601D01*
X5224Y15564D01*
X5187Y15508D01*
X5174Y15443D01*
X5187Y15378D01*
X5224Y15322D01*
X5279Y15285D01*
X5344Y15272D01*
X5410Y15285D01*
X5465Y15322D01*
X5502Y15378D01*
X5515Y15443D01*
X5502Y15508D01*
X5465Y15564D01*
X5410Y15601D01*
X5344Y15614D01*
D02*
G37*
G36*
X3179Y15643D02*
X3106Y15629D01*
X3044Y15588D01*
X3003Y15526D01*
X2988Y15453D01*
X3003Y15380D01*
X3044Y15318D01*
X3106Y15277D01*
X3179Y15262D01*
X3252Y15277D01*
X3314Y15318D01*
X3355Y15380D01*
X3370Y15453D01*
X3355Y15526D01*
X3314Y15588D01*
X3252Y15629D01*
X3179Y15643D01*
D02*
G37*
G36*
X5581Y15141D02*
X5515Y15128D01*
X5460Y15091D01*
X5423Y15036D01*
X5410Y14970D01*
X5423Y14905D01*
X5460Y14850D01*
X5515Y14813D01*
X5581Y14800D01*
X5646Y14813D01*
X5701Y14850D01*
X5738Y14905D01*
X5751Y14970D01*
X5738Y15036D01*
X5701Y15091D01*
X5646Y15128D01*
X5581Y15141D01*
D02*
G37*
G36*
X522Y15181D02*
X449Y15166D01*
X387Y15125D01*
X345Y15063D01*
X331Y14990D01*
X345Y14917D01*
X387Y14855D01*
X449Y14814D01*
X522Y14799D01*
X595Y14814D01*
X656Y14855D01*
X698Y14917D01*
X712Y14990D01*
X698Y15063D01*
X656Y15125D01*
X595Y15166D01*
X522Y15181D01*
D02*
G37*
G36*
X4990Y15427D02*
X4917Y15412D01*
X4855Y15371D01*
X4814Y15309D01*
X4799Y15236D01*
X4811Y15179D01*
X4788Y15134D01*
X4780Y15125D01*
X4748Y15118D01*
X4692Y15081D01*
X4655Y15026D01*
X4642Y14961D01*
X4655Y14895D01*
X4692Y14840D01*
X4748Y14803D01*
X4813Y14790D01*
X4878Y14803D01*
X4934Y14840D01*
X4971Y14895D01*
X4984Y14961D01*
X4976Y14997D01*
X4987Y15035D01*
X5013Y15050D01*
X5063Y15060D01*
X5125Y15101D01*
X5166Y15163D01*
X5181Y15236D01*
X5166Y15309D01*
X5125Y15371D01*
X5063Y15412D01*
X4990Y15427D01*
D02*
G37*
G36*
X7077Y15112D02*
X7004Y15097D01*
X6942Y15056D01*
X6901Y14994D01*
X6886Y14921D01*
X6901Y14848D01*
X6942Y14786D01*
X7004Y14745D01*
X7077Y14731D01*
X7150Y14745D01*
X7212Y14786D01*
X7253Y14848D01*
X7267Y14921D01*
X7253Y14994D01*
X7212Y15056D01*
X7150Y15097D01*
X7077Y15112D01*
D02*
G37*
G36*
X3642Y14994D02*
X3569Y14979D01*
X3507Y14938D01*
X3466Y14876D01*
X3451Y14803D01*
X3466Y14730D01*
X3507Y14668D01*
X3569Y14627D01*
X3642Y14612D01*
X3715Y14627D01*
X3777Y14668D01*
X3818Y14730D01*
X3832Y14803D01*
X3818Y14876D01*
X3777Y14938D01*
X3715Y14979D01*
X3642Y14994D01*
D02*
G37*
G36*
X1230Y14905D02*
X1157Y14891D01*
X1095Y14849D01*
X1054Y14788D01*
X1040Y14715D01*
X1054Y14642D01*
X1095Y14580D01*
X1157Y14538D01*
X1230Y14524D01*
X1303Y14538D01*
X1365Y14580D01*
X1406Y14642D01*
X1421Y14715D01*
X1406Y14788D01*
X1365Y14849D01*
X1303Y14891D01*
X1230Y14905D01*
D02*
G37*
G36*
X6112Y14767D02*
X6047Y14754D01*
X5992Y14717D01*
X5955Y14662D01*
X5942Y14596D01*
X5955Y14531D01*
X5992Y14476D01*
X6047Y14439D01*
X6112Y14426D01*
X6177Y14439D01*
X6233Y14476D01*
X6270Y14531D01*
X6283Y14596D01*
X6270Y14662D01*
X6233Y14717D01*
X6177Y14754D01*
X6112Y14767D01*
D02*
G37*
G36*
X3268Y14551D02*
X3195Y14536D01*
X3133Y14495D01*
X3092Y14433D01*
X3077Y14360D01*
X3092Y14287D01*
X3133Y14225D01*
X3195Y14184D01*
X3268Y14170D01*
X3341Y14184D01*
X3403Y14225D01*
X3444Y14287D01*
X3458Y14360D01*
X3444Y14433D01*
X3403Y14495D01*
X3341Y14536D01*
X3268Y14551D01*
D02*
G37*
G36*
X5020Y14314D02*
X4954Y14301D01*
X4899Y14264D01*
X4862Y14209D01*
X4849Y14144D01*
X4862Y14078D01*
X4899Y14023D01*
X4954Y13986D01*
X5020Y13973D01*
X5085Y13986D01*
X5140Y14023D01*
X5177Y14078D01*
X5190Y14144D01*
X5177Y14209D01*
X5140Y14264D01*
X5085Y14301D01*
X5020Y14314D01*
D02*
G37*
G36*
X7124Y14198D02*
X7059Y14185D01*
X7004Y14148D01*
X6967Y14093D01*
X6954Y14027D01*
X6967Y13962D01*
X7004Y13907D01*
X7059Y13870D01*
X7124Y13857D01*
X7189Y13870D01*
X7245Y13907D01*
X7282Y13962D01*
X7295Y14027D01*
X7282Y14093D01*
X7245Y14148D01*
X7189Y14185D01*
X7124Y14198D01*
D02*
G37*
G36*
X6033Y14108D02*
X5968Y14095D01*
X5913Y14058D01*
X5876Y14002D01*
X5863Y13937D01*
X5876Y13872D01*
X5913Y13816D01*
X5968Y13779D01*
X6033Y13766D01*
X6099Y13779D01*
X6154Y13816D01*
X6191Y13872D01*
X6204Y13937D01*
X6191Y14002D01*
X6154Y14058D01*
X6099Y14095D01*
X6033Y14108D01*
D02*
G37*
G36*
X522Y14059D02*
X449Y14044D01*
X387Y14003D01*
X345Y13941D01*
X331Y13868D01*
X345Y13795D01*
X387Y13733D01*
X449Y13692D01*
X522Y13677D01*
X595Y13692D01*
X656Y13733D01*
X698Y13795D01*
X712Y13868D01*
X698Y13941D01*
X656Y14003D01*
X595Y14044D01*
X522Y14059D01*
D02*
G37*
G36*
X5010Y13911D02*
X4945Y13898D01*
X4889Y13861D01*
X4852Y13805D01*
X4839Y13740D01*
X4852Y13675D01*
X4889Y13620D01*
X4945Y13583D01*
X5010Y13570D01*
X5075Y13583D01*
X5130Y13620D01*
X5167Y13675D01*
X5180Y13740D01*
X5167Y13805D01*
X5130Y13861D01*
X5075Y13898D01*
X5010Y13911D01*
D02*
G37*
G36*
X1230Y13783D02*
X1157Y13769D01*
X1095Y13727D01*
X1054Y13665D01*
X1040Y13593D01*
X1054Y13520D01*
X1095Y13458D01*
X1157Y13416D01*
X1230Y13402D01*
X1303Y13416D01*
X1365Y13458D01*
X1406Y13520D01*
X1421Y13593D01*
X1406Y13665D01*
X1365Y13727D01*
X1303Y13769D01*
X1230Y13783D01*
D02*
G37*
G36*
X3268Y13724D02*
X3195Y13710D01*
X3133Y13668D01*
X3092Y13606D01*
X3077Y13533D01*
X3092Y13461D01*
X3133Y13399D01*
X3195Y13357D01*
X3268Y13343D01*
X3341Y13357D01*
X3403Y13399D01*
X3444Y13461D01*
X3458Y13533D01*
X3444Y13606D01*
X3403Y13668D01*
X3341Y13710D01*
X3268Y13724D01*
D02*
G37*
G36*
X5955Y13655D02*
X5889Y13642D01*
X5834Y13605D01*
X5797Y13550D01*
X5784Y13484D01*
X5797Y13419D01*
X5834Y13364D01*
X5889Y13327D01*
X5955Y13314D01*
X6020Y13327D01*
X6075Y13364D01*
X6112Y13419D01*
X6125Y13484D01*
X6112Y13550D01*
X6075Y13605D01*
X6020Y13642D01*
X5955Y13655D01*
D02*
G37*
G36*
X4311Y13577D02*
X4238Y13562D01*
X4176Y13521D01*
X4135Y13459D01*
X4120Y13386D01*
X4135Y13313D01*
X4176Y13251D01*
X4238Y13210D01*
X4311Y13195D01*
X4384Y13210D01*
X4446Y13251D01*
X4487Y13313D01*
X4502Y13386D01*
X4487Y13459D01*
X4446Y13521D01*
X4384Y13562D01*
X4311Y13577D01*
D02*
G37*
G36*
X5472Y13380D02*
X5399Y13365D01*
X5338Y13324D01*
X5296Y13262D01*
X5282Y13189D01*
X5296Y13116D01*
X5338Y13054D01*
X5399Y13013D01*
X5472Y12998D01*
X5545Y13013D01*
X5607Y13054D01*
X5649Y13116D01*
X5663Y13189D01*
X5649Y13262D01*
X5607Y13324D01*
X5545Y13365D01*
X5472Y13380D01*
D02*
G37*
G36*
X4911Y13271D02*
X4846Y13258D01*
X4791Y13221D01*
X4754Y13166D01*
X4741Y13100D01*
X4754Y13035D01*
X4791Y12980D01*
X4846Y12943D01*
X4911Y12930D01*
X4977Y12943D01*
X5032Y12980D01*
X5069Y13035D01*
X5082Y13100D01*
X5069Y13166D01*
X5032Y13221D01*
X4977Y13258D01*
X4911Y13271D01*
D02*
G37*
G36*
X1909Y12671D02*
X1836Y12656D01*
X1775Y12615D01*
X1733Y12553D01*
X1719Y12480D01*
X1733Y12407D01*
X1775Y12345D01*
X1836Y12304D01*
X1909Y12290D01*
X1982Y12304D01*
X2044Y12345D01*
X2086Y12407D01*
X2100Y12480D01*
X2086Y12553D01*
X2044Y12615D01*
X1982Y12656D01*
X1909Y12671D01*
D02*
G37*
G36*
X2362Y12070D02*
X2297Y12057D01*
X2242Y12020D01*
X2205Y11965D01*
X2192Y11900D01*
X2205Y11834D01*
X2242Y11779D01*
X2297Y11742D01*
X2362Y11729D01*
X2427Y11742D01*
X2483Y11779D01*
X2520Y11834D01*
X2533Y11900D01*
X2520Y11965D01*
X2483Y12020D01*
X2427Y12057D01*
X2362Y12070D01*
D02*
G37*
G36*
X1752Y12060D02*
X1687Y12047D01*
X1631Y12010D01*
X1594Y11955D01*
X1581Y11890D01*
X1594Y11824D01*
X1631Y11769D01*
X1687Y11732D01*
X1752Y11719D01*
X1817Y11732D01*
X1873Y11769D01*
X1910Y11824D01*
X1923Y11890D01*
X1910Y11955D01*
X1873Y12010D01*
X1817Y12047D01*
X1752Y12060D01*
D02*
G37*
G36*
X1240Y12051D02*
X1175Y12038D01*
X1120Y12001D01*
X1083Y11945D01*
X1070Y11880D01*
X1083Y11815D01*
X1120Y11759D01*
X1175Y11722D01*
X1240Y11709D01*
X1305Y11722D01*
X1361Y11759D01*
X1398Y11815D01*
X1411Y11880D01*
X1398Y11945D01*
X1361Y12001D01*
X1305Y12038D01*
X1240Y12051D01*
D02*
G37*
G36*
X18465Y15417D02*
X18399Y15404D01*
X18344Y15367D01*
X18307Y15311D01*
X18294Y15246D01*
X18307Y15181D01*
X18344Y15125D01*
X18399Y15088D01*
X18465Y15075D01*
X18530Y15088D01*
X18585Y15125D01*
X18622Y15181D01*
X18635Y15246D01*
X18622Y15311D01*
X18585Y15367D01*
X18530Y15404D01*
X18465Y15417D01*
D02*
G37*
G36*
X17254Y15131D02*
X17189Y15118D01*
X17133Y15081D01*
X17096Y15026D01*
X17083Y14961D01*
X17096Y14895D01*
X17133Y14840D01*
X17189Y14803D01*
X17254Y14790D01*
X17319Y14803D01*
X17375Y14840D01*
X17412Y14895D01*
X17425Y14961D01*
X17412Y15026D01*
X17375Y15081D01*
X17319Y15118D01*
X17254Y15131D01*
D02*
G37*
G36*
X18879Y15102D02*
X18813Y15089D01*
X18758Y15052D01*
X18721Y14997D01*
X18708Y14932D01*
X18721Y14866D01*
X18758Y14811D01*
X18813Y14774D01*
X18879Y14761D01*
X18944Y14774D01*
X18999Y14811D01*
X19036Y14866D01*
X19049Y14932D01*
X19036Y14997D01*
X18999Y15052D01*
X18944Y15089D01*
X18879Y15102D01*
D02*
G37*
G36*
X16033Y14925D02*
X15968Y14912D01*
X15913Y14875D01*
X15876Y14819D01*
X15863Y14754D01*
X15876Y14689D01*
X15913Y14633D01*
X15968Y14596D01*
X16033Y14583D01*
X16099Y14596D01*
X16154Y14633D01*
X16191Y14689D01*
X16204Y14754D01*
X16191Y14819D01*
X16154Y14875D01*
X16099Y14912D01*
X16033Y14925D01*
D02*
G37*
G36*
X14685Y14925D02*
X14612Y14910D01*
X14550Y14869D01*
X14509Y14807D01*
X14494Y14734D01*
X14509Y14661D01*
X14550Y14599D01*
X14612Y14558D01*
X14685Y14544D01*
X14758Y14558D01*
X14820Y14599D01*
X14861Y14661D01*
X14876Y14734D01*
X14861Y14807D01*
X14820Y14869D01*
X14758Y14910D01*
X14685Y14925D01*
D02*
G37*
G36*
X18336Y14570D02*
X18271Y14557D01*
X18216Y14520D01*
X18210Y14511D01*
X18156Y14547D01*
X18091Y14560D01*
X18025Y14547D01*
X17970Y14510D01*
X17933Y14455D01*
X17920Y14390D01*
X17933Y14324D01*
X17970Y14269D01*
X18025Y14232D01*
X18091Y14219D01*
X18156Y14232D01*
X18211Y14269D01*
X18217Y14278D01*
X18271Y14242D01*
X18336Y14229D01*
X18402Y14242D01*
X18457Y14279D01*
X18494Y14334D01*
X18507Y14399D01*
X18494Y14465D01*
X18457Y14520D01*
X18402Y14557D01*
X18336Y14570D01*
D02*
G37*
G36*
X19331Y14511D02*
X19265Y14498D01*
X19210Y14461D01*
X19192Y14434D01*
X19132D01*
X19127Y14441D01*
X19071Y14478D01*
X19006Y14491D01*
X18941Y14478D01*
X18885Y14441D01*
X18848Y14386D01*
X18835Y14321D01*
X18848Y14256D01*
X18885Y14200D01*
X18941Y14163D01*
X19006Y14150D01*
X19071Y14163D01*
X19127Y14200D01*
X19145Y14228D01*
X19205D01*
X19210Y14220D01*
X19265Y14183D01*
X19331Y14170D01*
X19396Y14183D01*
X19451Y14220D01*
X19488Y14275D01*
X19501Y14341D01*
X19488Y14406D01*
X19451Y14461D01*
X19396Y14498D01*
X19331Y14511D01*
D02*
G37*
G36*
X17234Y14738D02*
X17169Y14725D01*
X17114Y14688D01*
X17077Y14632D01*
X17064Y14567D01*
X17077Y14502D01*
X17114Y14446D01*
X17169Y14409D01*
X17234Y14396D01*
X17300Y14409D01*
X17355Y14446D01*
X17392Y14502D01*
X17405Y14567D01*
X17392Y14632D01*
X17355Y14688D01*
X17300Y14725D01*
X17234Y14738D01*
D02*
G37*
G36*
X16398Y14580D02*
X16332Y14567D01*
X16277Y14530D01*
X16240Y14475D01*
X16227Y14409D01*
X16240Y14344D01*
X16277Y14289D01*
X16332Y14252D01*
X16398Y14239D01*
X16463Y14252D01*
X16518Y14289D01*
X16555Y14344D01*
X16568Y14409D01*
X16555Y14475D01*
X16518Y14530D01*
X16463Y14567D01*
X16398Y14580D01*
D02*
G37*
G36*
X16417Y14157D02*
X16352Y14144D01*
X16297Y14107D01*
X16260Y14052D01*
X16247Y13986D01*
X16260Y13921D01*
X16297Y13866D01*
X16352Y13829D01*
X16417Y13816D01*
X16483Y13829D01*
X16538Y13866D01*
X16575Y13921D01*
X16588Y13986D01*
X16575Y14052D01*
X16538Y14107D01*
X16483Y14144D01*
X16417Y14157D01*
D02*
G37*
G36*
X17933Y13852D02*
X17868Y13839D01*
X17812Y13802D01*
X17775Y13746D01*
X17762Y13681D01*
X17775Y13616D01*
X17812Y13560D01*
X17868Y13523D01*
X17933Y13511D01*
X17998Y13523D01*
X18054Y13560D01*
X18091Y13616D01*
X18104Y13681D01*
X18091Y13746D01*
X18054Y13802D01*
X17998Y13839D01*
X17933Y13852D01*
D02*
G37*
G36*
X14567Y13862D02*
X14494Y13847D01*
X14432Y13806D01*
X14391Y13744D01*
X14376Y13671D01*
X14391Y13598D01*
X14432Y13536D01*
X14494Y13495D01*
X14567Y13481D01*
X14640Y13495D01*
X14702Y13536D01*
X14743Y13598D01*
X14758Y13671D01*
X14743Y13744D01*
X14702Y13806D01*
X14640Y13847D01*
X14567Y13862D01*
D02*
G37*
G36*
X18602Y13763D02*
X18537Y13750D01*
X18482Y13713D01*
X18445Y13658D01*
X18432Y13593D01*
X18445Y13527D01*
X18482Y13472D01*
X18537Y13435D01*
X18602Y13422D01*
X18668Y13435D01*
X18723Y13472D01*
X18760Y13527D01*
X18773Y13593D01*
X18760Y13658D01*
X18723Y13713D01*
X18668Y13750D01*
X18602Y13763D01*
D02*
G37*
G36*
X15148Y13832D02*
X15075Y13818D01*
X15013Y13777D01*
X14971Y13715D01*
X14957Y13642D01*
X14971Y13569D01*
X15013Y13507D01*
X15075Y13466D01*
X15148Y13451D01*
X15221Y13466D01*
X15258Y13491D01*
X15284Y13453D01*
X15339Y13416D01*
X15404Y13403D01*
X15470Y13416D01*
X15525Y13453D01*
X15562Y13508D01*
X15575Y13573D01*
X15562Y13639D01*
X15525Y13694D01*
X15470Y13731D01*
X15404Y13744D01*
X15339Y13731D01*
X15309Y13737D01*
X15282Y13777D01*
X15221Y13818D01*
X15148Y13832D01*
D02*
G37*
G36*
X17343Y13665D02*
X17277Y13652D01*
X17222Y13615D01*
X17185Y13559D01*
X17172Y13494D01*
X17185Y13429D01*
X17222Y13373D01*
X17277Y13336D01*
X17343Y13323D01*
X17408Y13336D01*
X17463Y13373D01*
X17500Y13429D01*
X17513Y13494D01*
X17500Y13559D01*
X17463Y13615D01*
X17408Y13652D01*
X17343Y13665D01*
D02*
G37*
G36*
X16024Y13655D02*
X15958Y13642D01*
X15903Y13605D01*
X15866Y13550D01*
X15853Y13484D01*
X15866Y13419D01*
X15903Y13364D01*
X15958Y13327D01*
X16024Y13314D01*
X16089Y13327D01*
X16144Y13364D01*
X16181Y13419D01*
X16194Y13484D01*
X16181Y13550D01*
X16144Y13605D01*
X16089Y13642D01*
X16024Y13655D01*
D02*
G37*
G36*
X16378Y13173D02*
X16313Y13160D01*
X16257Y13123D01*
X16220Y13067D01*
X16207Y13002D01*
X16220Y12937D01*
X16257Y12881D01*
X16313Y12844D01*
X16378Y12831D01*
X16443Y12844D01*
X16499Y12881D01*
X16536Y12937D01*
X16549Y13002D01*
X16536Y13067D01*
X16499Y13123D01*
X16443Y13160D01*
X16378Y13173D01*
D02*
G37*
G36*
X14581Y13046D02*
X14516Y13033D01*
X14461Y12996D01*
X14424Y12941D01*
X14411Y12875D01*
X14424Y12810D01*
X14461Y12755D01*
X14516Y12718D01*
X14581Y12705D01*
X14647Y12718D01*
X14702Y12755D01*
X14739Y12810D01*
X14752Y12875D01*
X14739Y12941D01*
X14702Y12996D01*
X14647Y13033D01*
X14581Y13046D01*
D02*
G37*
G36*
X20187Y15604D02*
X20114Y15590D01*
X20052Y15548D01*
X20011Y15486D01*
X19996Y15413D01*
X20011Y15340D01*
X20052Y15279D01*
X20114Y15237D01*
X20187Y15223D01*
X20260Y15237D01*
X20322Y15279D01*
X20363Y15340D01*
X20378Y15413D01*
X20363Y15486D01*
X20322Y15548D01*
X20260Y15590D01*
X20187Y15604D01*
D02*
G37*
G36*
X20630Y15447D02*
X20557Y15432D01*
X20495Y15391D01*
X20454Y15329D01*
X20439Y15256D01*
X20454Y15183D01*
X20495Y15121D01*
X20557Y15080D01*
X20630Y15065D01*
X20703Y15080D01*
X20765Y15121D01*
X20806Y15183D01*
X20821Y15256D01*
X20806Y15329D01*
X20765Y15391D01*
X20703Y15432D01*
X20630Y15447D01*
D02*
G37*
G36*
X20482Y14984D02*
X20417Y14971D01*
X20362Y14934D01*
X20325Y14878D01*
X20312Y14813D01*
X20325Y14748D01*
X20362Y14692D01*
X20417Y14655D01*
X20482Y14642D01*
X20548Y14655D01*
X20603Y14692D01*
X20640Y14748D01*
X20653Y14813D01*
X20640Y14878D01*
X20603Y14934D01*
X20548Y14971D01*
X20482Y14984D01*
D02*
G37*
G36*
X22096Y14895D02*
X22031Y14882D01*
X21976Y14845D01*
X21939Y14790D01*
X21926Y14724D01*
X21939Y14659D01*
X21976Y14604D01*
X22031Y14567D01*
X22096Y14554D01*
X22162Y14567D01*
X22217Y14604D01*
X22254Y14659D01*
X22267Y14724D01*
X22254Y14790D01*
X22217Y14845D01*
X22162Y14882D01*
X22096Y14895D01*
D02*
G37*
G36*
X9281Y14747D02*
X9216Y14734D01*
X9161Y14697D01*
X9124Y14642D01*
X9111Y14577D01*
X9124Y14511D01*
X9161Y14456D01*
X9216Y14419D01*
X9272Y14408D01*
X9288Y14395D01*
X9308Y14360D01*
X9298Y14311D01*
X9311Y14246D01*
X9348Y14190D01*
X9403Y14153D01*
X9469Y14140D01*
X9534Y14153D01*
X9589Y14190D01*
X9626Y14246D01*
X9630Y14264D01*
X9675Y14255D01*
X9740Y14268D01*
X9796Y14305D01*
X9833Y14360D01*
X9839Y14392D01*
X9872Y14385D01*
X9912Y14393D01*
X9921Y14350D01*
X9958Y14294D01*
X10013Y14257D01*
X10079Y14244D01*
X10144Y14257D01*
X10163Y14270D01*
X10188Y14233D01*
X10243Y14196D01*
X10309Y14183D01*
X10374Y14196D01*
X10429Y14233D01*
X10465Y14286D01*
X10527Y14274D01*
X10592Y14287D01*
X10622Y14307D01*
X10671Y14323D01*
X10727Y14286D01*
X10792Y14273D01*
X10857Y14286D01*
X10913Y14323D01*
X10950Y14378D01*
X10952Y14391D01*
X11002Y14381D01*
X11068Y14394D01*
X11123Y14431D01*
X11160Y14486D01*
X11173Y14551D01*
X11160Y14617D01*
X11123Y14672D01*
X11068Y14709D01*
X11002Y14722D01*
X10937Y14709D01*
X10882Y14672D01*
X10845Y14617D01*
X10842Y14604D01*
X10792Y14614D01*
X10727Y14601D01*
X10697Y14581D01*
X10648Y14565D01*
X10592Y14602D01*
X10527Y14615D01*
X10462Y14602D01*
X10406Y14565D01*
X10371Y14512D01*
X10309Y14525D01*
X10243Y14512D01*
X10224Y14499D01*
X10199Y14536D01*
X10144Y14573D01*
X10079Y14586D01*
X10038Y14577D01*
X10030Y14621D01*
X9993Y14677D01*
X9937Y14714D01*
X9872Y14727D01*
X9807Y14714D01*
X9751Y14677D01*
X9714Y14621D01*
X9708Y14589D01*
X9675Y14596D01*
X9610Y14583D01*
X9555Y14546D01*
X9521Y14496D01*
X9487Y14490D01*
X9472Y14489D01*
X9443Y14529D01*
X9452Y14577D01*
X9439Y14642D01*
X9402Y14697D01*
X9347Y14734D01*
X9281Y14747D01*
D02*
G37*
G36*
X11407Y14718D02*
X11342Y14705D01*
X11287Y14668D01*
X11250Y14613D01*
X11237Y14547D01*
X11250Y14482D01*
X11287Y14427D01*
X11342Y14390D01*
X11407Y14377D01*
X11473Y14390D01*
X11528Y14427D01*
X11565Y14482D01*
X11578Y14547D01*
X11565Y14613D01*
X11528Y14668D01*
X11473Y14705D01*
X11407Y14718D01*
D02*
G37*
G36*
X21624Y14708D02*
X21559Y14695D01*
X21503Y14658D01*
X21466Y14603D01*
X21460Y14569D01*
X21443Y14521D01*
X21378Y14508D01*
X21323Y14471D01*
X21286Y14416D01*
X21273Y14350D01*
X21286Y14285D01*
X21323Y14230D01*
X21378Y14193D01*
X21443Y14180D01*
X21508Y14193D01*
X21564Y14230D01*
X21601Y14285D01*
X21608Y14319D01*
X21624Y14367D01*
X21689Y14380D01*
X21745Y14417D01*
X21782Y14472D01*
X21795Y14537D01*
X21782Y14603D01*
X21745Y14658D01*
X21689Y14695D01*
X21624Y14708D01*
D02*
G37*
G36*
X12237Y14383D02*
X12172Y14370D01*
X12117Y14333D01*
X12080Y14278D01*
X12067Y14213D01*
X12080Y14147D01*
X12117Y14092D01*
X12172Y14055D01*
X12237Y14042D01*
X12303Y14055D01*
X12358Y14092D01*
X12395Y14147D01*
X12408Y14213D01*
X12395Y14278D01*
X12358Y14333D01*
X12303Y14370D01*
X12237Y14383D01*
D02*
G37*
G36*
X11417Y14186D02*
X11352Y14173D01*
X11297Y14136D01*
X11260Y14081D01*
X11247Y14016D01*
X11260Y13950D01*
X11297Y13895D01*
X11352Y13858D01*
X11417Y13845D01*
X11483Y13858D01*
X11538Y13895D01*
X11575Y13950D01*
X11588Y14016D01*
X11575Y14081D01*
X11538Y14136D01*
X11483Y14173D01*
X11417Y14186D01*
D02*
G37*
G36*
X20443Y14570D02*
X20378Y14557D01*
X20322Y14520D01*
X20285Y14465D01*
X20272Y14400D01*
X20285Y14334D01*
X20322Y14279D01*
X20378Y14242D01*
X20400Y14238D01*
X20440Y14183D01*
X20453Y14118D01*
X20490Y14062D01*
X20545Y14025D01*
X20567Y14021D01*
X20607Y13967D01*
X20620Y13901D01*
X20657Y13846D01*
X20712Y13809D01*
X20778Y13796D01*
X20843Y13809D01*
X20898Y13846D01*
X20935Y13901D01*
X20948Y13967D01*
X20935Y14032D01*
X20898Y14087D01*
X20843Y14124D01*
X20821Y14129D01*
X20781Y14183D01*
X20768Y14248D01*
X20731Y14304D01*
X20676Y14341D01*
X20654Y14345D01*
X20614Y14400D01*
X20601Y14465D01*
X20564Y14520D01*
X20508Y14557D01*
X20443Y14570D01*
D02*
G37*
G36*
X12237Y13989D02*
X12172Y13977D01*
X12117Y13940D01*
X12080Y13884D01*
X12067Y13819D01*
X12080Y13754D01*
X12117Y13698D01*
X12172Y13661D01*
X12237Y13648D01*
X12303Y13661D01*
X12358Y13698D01*
X12395Y13754D01*
X12408Y13819D01*
X12395Y13884D01*
X12358Y13940D01*
X12303Y13977D01*
X12237Y13989D01*
D02*
G37*
G36*
X11417Y13793D02*
X11352Y13780D01*
X11297Y13743D01*
X11260Y13687D01*
X11247Y13622D01*
X11260Y13557D01*
X11297Y13501D01*
X11352Y13464D01*
X11417Y13451D01*
X11483Y13464D01*
X11538Y13501D01*
X11575Y13557D01*
X11588Y13622D01*
X11575Y13687D01*
X11538Y13743D01*
X11483Y13780D01*
X11417Y13793D01*
D02*
G37*
G36*
X8042Y13743D02*
X7976Y13730D01*
X7921Y13693D01*
X7884Y13638D01*
X7871Y13573D01*
X7884Y13507D01*
X7921Y13452D01*
X7976Y13415D01*
X8042Y13402D01*
X8107Y13415D01*
X8162Y13452D01*
X8199Y13507D01*
X8212Y13573D01*
X8199Y13638D01*
X8162Y13693D01*
X8107Y13730D01*
X8042Y13743D01*
D02*
G37*
G36*
X12237Y13596D02*
X12172Y13583D01*
X12117Y13546D01*
X12080Y13490D01*
X12067Y13425D01*
X12080Y13360D01*
X12117Y13305D01*
X12172Y13268D01*
X12237Y13255D01*
X12303Y13268D01*
X12358Y13305D01*
X12395Y13360D01*
X12408Y13425D01*
X12395Y13490D01*
X12358Y13546D01*
X12303Y13583D01*
X12237Y13596D01*
D02*
G37*
G36*
X11417Y13399D02*
X11352Y13386D01*
X11297Y13349D01*
X11260Y13294D01*
X11247Y13228D01*
X11260Y13163D01*
X11297Y13108D01*
X11352Y13071D01*
X11417Y13058D01*
X11483Y13071D01*
X11538Y13108D01*
X11575Y13163D01*
X11588Y13228D01*
X11575Y13294D01*
X11538Y13349D01*
X11483Y13386D01*
X11417Y13399D01*
D02*
G37*
G36*
X12237Y13202D02*
X12172Y13189D01*
X12117Y13152D01*
X12080Y13097D01*
X12067Y13032D01*
X12080Y12966D01*
X12117Y12911D01*
X12172Y12874D01*
X12237Y12861D01*
X12303Y12874D01*
X12323Y12887D01*
X12378Y12864D01*
X12383Y12840D01*
X12424Y12779D01*
X12486Y12737D01*
X12559Y12723D01*
X12632Y12737D01*
X12694Y12779D01*
X12735Y12840D01*
X12750Y12913D01*
X12735Y12986D01*
X12694Y13048D01*
X12632Y13090D01*
X12559Y13104D01*
X12486Y13090D01*
X12452Y13067D01*
X12396Y13090D01*
X12395Y13097D01*
X12358Y13152D01*
X12303Y13189D01*
X12237Y13202D01*
D02*
G37*
G36*
X11417Y13005D02*
X11352Y12992D01*
X11297Y12955D01*
X11260Y12900D01*
X11247Y12835D01*
X11260Y12769D01*
X11297Y12714D01*
X11352Y12677D01*
X11417Y12664D01*
X11483Y12677D01*
X11538Y12714D01*
X11575Y12769D01*
X11588Y12835D01*
X11575Y12900D01*
X11538Y12955D01*
X11483Y12992D01*
X11417Y13005D01*
D02*
G37*
G36*
X5552Y12167D02*
X5487Y12154D01*
X5431Y12117D01*
X5394Y12061D01*
X5392Y12051D01*
X5335Y12021D01*
X5298Y12028D01*
X5233Y12015D01*
X5178Y11978D01*
X5141Y11923D01*
X5128Y11857D01*
X5141Y11792D01*
X5178Y11737D01*
X5233Y11700D01*
X5298Y11687D01*
X5364Y11700D01*
X5419Y11737D01*
X5456Y11792D01*
X5458Y11802D01*
X5515Y11833D01*
X5552Y11826D01*
X5617Y11839D01*
X5673Y11876D01*
X5710Y11931D01*
X5723Y11996D01*
X5710Y12061D01*
X5673Y12117D01*
X5617Y12154D01*
X5552Y12167D01*
D02*
G37*
G36*
X4774Y11470D02*
X4708Y11457D01*
X4653Y11420D01*
X4616Y11365D01*
X4603Y11299D01*
X4616Y11234D01*
X4653Y11179D01*
X4708Y11142D01*
X4774Y11129D01*
X4839Y11142D01*
X4894Y11179D01*
X4931Y11234D01*
X4944Y11299D01*
X4931Y11365D01*
X4894Y11420D01*
X4839Y11457D01*
X4774Y11470D01*
D02*
G37*
G36*
X3602Y11440D02*
X3537Y11427D01*
X3482Y11390D01*
X3445Y11335D01*
X3432Y11270D01*
X3445Y11204D01*
X3482Y11149D01*
X3537Y11112D01*
X3602Y11099D01*
X3668Y11112D01*
X3723Y11149D01*
X3760Y11204D01*
X3773Y11270D01*
X3760Y11335D01*
X3723Y11390D01*
X3668Y11427D01*
X3602Y11440D01*
D02*
G37*
G36*
X3356Y11017D02*
X3283Y11003D01*
X3245Y10978D01*
X3209Y10966D01*
X3172Y10978D01*
X3134Y11003D01*
X3061Y11017D01*
X2988Y11003D01*
X2950Y10978D01*
X2913Y10966D01*
X2877Y10978D01*
X2839Y11003D01*
X2766Y11017D01*
X2693Y11003D01*
X2631Y10962D01*
X2615Y10937D01*
X2547Y10923D01*
X2547Y10923D01*
X2481Y10936D01*
X2416Y10923D01*
X2361Y10886D01*
X2324Y10831D01*
X2311Y10765D01*
X2324Y10700D01*
X2361Y10645D01*
X2416Y10608D01*
X2458Y10599D01*
Y10548D01*
X2417Y10540D01*
X2355Y10499D01*
X2314Y10437D01*
X2299Y10364D01*
X2314Y10291D01*
X2333Y10262D01*
X2323Y10213D01*
X2311Y10205D01*
X2266Y10220D01*
X2228Y10245D01*
X2156Y10260D01*
X2083Y10245D01*
X2045Y10220D01*
X2008Y10208D01*
X1971Y10220D01*
X1933Y10245D01*
X1860Y10260D01*
X1787Y10245D01*
X1749Y10220D01*
X1713Y10208D01*
X1676Y10220D01*
X1638Y10245D01*
X1565Y10260D01*
X1492Y10245D01*
X1454Y10220D01*
X1417Y10208D01*
X1381Y10220D01*
X1343Y10245D01*
X1270Y10260D01*
X1197Y10245D01*
X1135Y10204D01*
X1094Y10142D01*
X1079Y10069D01*
X1094Y9996D01*
X1119Y9958D01*
X1131Y9921D01*
X1119Y9885D01*
X1094Y9847D01*
X1079Y9774D01*
X1094Y9701D01*
X1135Y9639D01*
X1197Y9597D01*
X1270Y9583D01*
X1343Y9597D01*
X1381Y9623D01*
X1417Y9635D01*
X1454Y9623D01*
X1492Y9597D01*
X1565Y9583D01*
X1638Y9597D01*
X1676Y9623D01*
X1713Y9635D01*
X1749Y9623D01*
X1787Y9597D01*
X1860Y9583D01*
X1933Y9597D01*
X1971Y9623D01*
X2008Y9635D01*
X2045Y9623D01*
X2083Y9597D01*
X2156Y9583D01*
X2228Y9597D01*
X2266Y9623D01*
X2303Y9635D01*
X2340Y9623D01*
X2378Y9597D01*
X2451Y9583D01*
X2524Y9597D01*
X2586Y9639D01*
X2627Y9701D01*
X2641Y9774D01*
X2627Y9847D01*
X2602Y9885D01*
X2590Y9921D01*
X2602Y9958D01*
X2627Y9996D01*
X2641Y10069D01*
X2627Y10142D01*
X2586Y10203D01*
X2625Y10229D01*
X2666Y10291D01*
X2681Y10364D01*
X2666Y10437D01*
X2625Y10499D01*
X2563Y10540D01*
X2514Y10550D01*
Y10601D01*
X2547Y10608D01*
X2602Y10645D01*
X2633Y10691D01*
X2693Y10651D01*
X2766Y10636D01*
X2839Y10651D01*
X2869Y10671D01*
X2905Y10635D01*
X2885Y10604D01*
X2870Y10532D01*
X2885Y10459D01*
X2910Y10421D01*
X2922Y10384D01*
X2910Y10347D01*
X2885Y10309D01*
X2870Y10236D01*
X2885Y10163D01*
X2910Y10125D01*
X2922Y10089D01*
X2910Y10052D01*
X2885Y10014D01*
X2870Y9941D01*
X2885Y9868D01*
X2910Y9830D01*
X2922Y9793D01*
X2910Y9757D01*
X2885Y9719D01*
X2870Y9646D01*
X2885Y9573D01*
X2910Y9535D01*
X2922Y9498D01*
X2910Y9461D01*
X2885Y9423D01*
X2870Y9350D01*
X2885Y9277D01*
X2905Y9247D01*
X2869Y9211D01*
X2839Y9231D01*
X2766Y9246D01*
X2693Y9231D01*
X2631Y9190D01*
X2605D01*
X2543Y9231D01*
X2470Y9246D01*
X2397Y9231D01*
X2336Y9190D01*
X2294Y9128D01*
X2280Y9055D01*
X2294Y8982D01*
X2320Y8944D01*
X2332Y8907D01*
X2320Y8871D01*
X2294Y8833D01*
X2280Y8760D01*
X2294Y8687D01*
X2336Y8625D01*
X2397Y8584D01*
X2470Y8569D01*
X2543Y8584D01*
X2581Y8609D01*
X2618Y8621D01*
X2655Y8609D01*
X2693Y8584D01*
X2766Y8569D01*
X2839Y8584D01*
X2877Y8609D01*
X2913Y8621D01*
X2950Y8609D01*
X2988Y8584D01*
X3061Y8569D01*
X3134Y8584D01*
X3172Y8609D01*
X3209Y8621D01*
X3245Y8609D01*
X3283Y8584D01*
X3356Y8569D01*
X3429Y8584D01*
X3491Y8625D01*
X3532Y8687D01*
X3547Y8760D01*
X3532Y8833D01*
X3507Y8871D01*
X3495Y8907D01*
X3507Y8944D01*
X3532Y8982D01*
X3547Y9055D01*
X3532Y9128D01*
X3507Y9166D01*
X3495Y9203D01*
X3507Y9239D01*
X3532Y9277D01*
X3547Y9350D01*
X3532Y9423D01*
X3507Y9461D01*
X3495Y9498D01*
X3507Y9535D01*
X3532Y9573D01*
X3547Y9646D01*
X3532Y9719D01*
X3507Y9757D01*
X3495Y9793D01*
X3507Y9830D01*
X3532Y9868D01*
X3547Y9941D01*
X3532Y10014D01*
X3507Y10052D01*
X3495Y10089D01*
X3507Y10125D01*
X3532Y10163D01*
X3547Y10236D01*
X3532Y10309D01*
X3507Y10347D01*
X3495Y10384D01*
X3507Y10421D01*
X3532Y10459D01*
X3547Y10532D01*
X3532Y10604D01*
X3507Y10642D01*
X3495Y10679D01*
X3507Y10716D01*
X3532Y10754D01*
X3547Y10827D01*
X3532Y10900D01*
X3491Y10962D01*
X3429Y11003D01*
X3356Y11017D01*
D02*
G37*
G36*
X5238Y11193D02*
X5172Y11180D01*
X5117Y11143D01*
X5080Y11088D01*
X5067Y11022D01*
X5080Y10957D01*
X5117Y10902D01*
X5172Y10865D01*
X5238Y10852D01*
X5303Y10865D01*
X5358Y10902D01*
X5395Y10957D01*
X5408Y11022D01*
X5395Y11088D01*
X5358Y11143D01*
X5303Y11180D01*
X5238Y11193D01*
D02*
G37*
G36*
X4035Y10890D02*
X3970Y10877D01*
X3914Y10840D01*
X3877Y10784D01*
X3864Y10719D01*
X3877Y10654D01*
X3914Y10599D01*
X3970Y10562D01*
X4035Y10549D01*
X4100Y10562D01*
X4155Y10599D01*
X4192Y10654D01*
X4205Y10719D01*
X4192Y10784D01*
X4155Y10840D01*
X4100Y10877D01*
X4035Y10890D01*
D02*
G37*
G36*
X3912Y10488D02*
X3907Y10487D01*
X3901Y10487D01*
X3884Y10482D01*
X3866Y10478D01*
X3861Y10475D01*
X3857Y10474D01*
X3848Y10476D01*
X3783Y10463D01*
X3728Y10426D01*
X3691Y10370D01*
X3678Y10305D01*
X3691Y10240D01*
X3728Y10184D01*
X3783Y10148D01*
X3848Y10135D01*
X3866Y10108D01*
X3879Y10043D01*
X3916Y9988D01*
X3971Y9951D01*
X4036Y9938D01*
X4101Y9951D01*
X4157Y9988D01*
X4194Y10043D01*
X4207Y10108D01*
X4194Y10174D01*
X4157Y10229D01*
X4101Y10266D01*
X4096Y10267D01*
Y10354D01*
X4091Y10377D01*
X4087Y10399D01*
X4087Y10400D01*
X4086Y10400D01*
X4074Y10419D01*
X4061Y10438D01*
X4061Y10439D01*
X4060Y10439D01*
X4041Y10452D01*
X4023Y10465D01*
X4022Y10465D01*
X4021Y10466D01*
X3999Y10470D01*
X3977Y10475D01*
X3969Y10475D01*
X3965Y10475D01*
X3962Y10475D01*
X3958Y10478D01*
X3953Y10479D01*
X3948Y10482D01*
X3932Y10484D01*
X3932Y10484D01*
X3931Y10484D01*
X3930Y10484D01*
X3912Y10488D01*
D02*
G37*
G36*
X4469Y10761D02*
X4403Y10748D01*
X4348Y10711D01*
X4343Y10704D01*
X4339Y10702D01*
X4334Y10701D01*
X4319Y10691D01*
X4302Y10682D01*
X4299Y10678D01*
X4295Y10675D01*
X4285Y10660D01*
X4284Y10659D01*
X4283Y10658D01*
X4283Y10657D01*
X4273Y10645D01*
X4272Y10640D01*
X4269Y10636D01*
X4268Y10631D01*
X4262Y10624D01*
X4258Y10620D01*
X4245Y10601D01*
X4233Y10582D01*
X4233Y10581D01*
X4232Y10580D01*
X4228Y10558D01*
X4224Y10536D01*
X4224Y10535D01*
X4224Y10534D01*
X4228Y10512D01*
X4233Y10490D01*
X4233Y10489D01*
X4233Y10488D01*
X4246Y10469D01*
X4259Y10451D01*
X4328Y10381D01*
X4347Y10368D01*
X4366Y10355D01*
X4367Y10355D01*
X4368Y10355D01*
X4390Y10350D01*
X4412Y10346D01*
X4413Y10346D01*
X4414Y10346D01*
X4436Y10350D01*
X4458Y10354D01*
X4459Y10355D01*
X4460Y10355D01*
X4479Y10367D01*
X4498Y10380D01*
X4503Y10385D01*
X4506Y10388D01*
X4508Y10390D01*
X4514Y10391D01*
X4518Y10394D01*
X4523Y10395D01*
X4535Y10405D01*
X4536Y10405D01*
X4537Y10406D01*
X4538Y10407D01*
X4553Y10417D01*
X4556Y10421D01*
X4560Y10425D01*
X4569Y10441D01*
X4579Y10456D01*
X4580Y10461D01*
X4582Y10465D01*
X4589Y10470D01*
X4626Y10525D01*
X4639Y10591D01*
X4626Y10656D01*
X4589Y10711D01*
X4534Y10748D01*
X4469Y10761D01*
D02*
G37*
G36*
X3809Y9403D02*
X3744Y9390D01*
X3688Y9353D01*
X3651Y9298D01*
X3638Y9232D01*
X3651Y9167D01*
X3688Y9112D01*
X3744Y9075D01*
X3809Y9062D01*
X3874Y9075D01*
X3930Y9112D01*
X3967Y9167D01*
X3980Y9232D01*
X3967Y9298D01*
X3930Y9353D01*
X3874Y9390D01*
X3809Y9403D01*
D02*
G37*
G36*
X1971Y9238D02*
X1906Y9225D01*
X1851Y9188D01*
X1814Y9133D01*
X1801Y9068D01*
X1814Y9003D01*
X1851Y8947D01*
X1854Y8945D01*
X1844Y8892D01*
X1824Y8888D01*
X1769Y8851D01*
X1732Y8796D01*
X1719Y8730D01*
X1732Y8665D01*
X1769Y8610D01*
X1824Y8573D01*
X1890Y8560D01*
X1955Y8573D01*
X2010Y8610D01*
X2047Y8665D01*
X2060Y8730D01*
X2047Y8796D01*
X2010Y8851D01*
X2007Y8853D01*
X2017Y8906D01*
X2037Y8910D01*
X2092Y8947D01*
X2129Y9003D01*
X2142Y9068D01*
X2129Y9133D01*
X2092Y9188D01*
X2037Y9225D01*
X1971Y9238D01*
D02*
G37*
G36*
X3356Y8360D02*
X3283Y8345D01*
X3221Y8304D01*
X3180Y8242D01*
X3166Y8169D01*
X3180Y8096D01*
X3221Y8034D01*
X3283Y7993D01*
X3356Y7979D01*
X3429Y7993D01*
X3491Y8034D01*
X3532Y8096D01*
X3547Y8169D01*
X3532Y8242D01*
X3491Y8304D01*
X3429Y8345D01*
X3356Y8360D01*
D02*
G37*
G36*
Y7769D02*
X3283Y7755D01*
X3221Y7714D01*
X3180Y7652D01*
X3166Y7579D01*
X3180Y7506D01*
X3221Y7444D01*
X3283Y7403D01*
X3356Y7388D01*
X3429Y7403D01*
X3491Y7444D01*
X3532Y7506D01*
X3547Y7579D01*
X3532Y7652D01*
X3491Y7714D01*
X3429Y7755D01*
X3356Y7769D01*
D02*
G37*
G36*
X8632Y7582D02*
X8567Y7569D01*
X8511Y7532D01*
X8474Y7477D01*
X8461Y7411D01*
X8474Y7346D01*
X8511Y7291D01*
X8567Y7254D01*
X8632Y7241D01*
X8697Y7254D01*
X8753Y7291D01*
X8789Y7346D01*
X8802Y7411D01*
X8789Y7477D01*
X8753Y7532D01*
X8697Y7569D01*
X8632Y7582D01*
D02*
G37*
G36*
X492Y7573D02*
X419Y7558D01*
X357Y7517D01*
X316Y7455D01*
X301Y7382D01*
X316Y7309D01*
X357Y7247D01*
X419Y7206D01*
X492Y7191D01*
X565Y7206D01*
X627Y7247D01*
X627Y7247D01*
X692Y7254D01*
X722Y7234D01*
X787Y7221D01*
X853Y7234D01*
X908Y7271D01*
X945Y7326D01*
X958Y7392D01*
X945Y7457D01*
X908Y7512D01*
X853Y7549D01*
X787Y7562D01*
X722Y7549D01*
X683Y7523D01*
X627Y7517D01*
X565Y7558D01*
X492Y7573D01*
D02*
G37*
G36*
X3465Y7169D02*
X3392Y7155D01*
X3330Y7113D01*
X3316Y7093D01*
X3264Y7067D01*
X3199Y7080D01*
X3134Y7067D01*
X3078Y7030D01*
X3041Y6975D01*
X3028Y6909D01*
X3041Y6844D01*
X3059Y6817D01*
X3032Y6798D01*
X2995Y6743D01*
X2982Y6678D01*
X2995Y6612D01*
X3021Y6573D01*
X3034Y6523D01*
X2993Y6461D01*
X2979Y6388D01*
X2993Y6315D01*
X3013Y6284D01*
X2977Y6248D01*
X2947Y6269D01*
X2874Y6283D01*
X2801Y6269D01*
X2763Y6243D01*
X2726Y6231D01*
X2690Y6243D01*
X2652Y6269D01*
X2579Y6283D01*
X2506Y6269D01*
X2468Y6243D01*
X2431Y6231D01*
X2394Y6243D01*
X2356Y6269D01*
X2283Y6283D01*
X2210Y6269D01*
X2180Y6248D01*
X2144Y6284D01*
X2164Y6315D01*
X2179Y6388D01*
X2164Y6461D01*
X2139Y6499D01*
X2127Y6535D01*
X2139Y6572D01*
X2164Y6610D01*
X2179Y6683D01*
X2164Y6756D01*
X2123Y6818D01*
X2061Y6859D01*
X1988Y6874D01*
X1915Y6859D01*
X1853Y6818D01*
X1812Y6756D01*
X1798Y6683D01*
X1812Y6610D01*
X1837Y6572D01*
X1849Y6535D01*
X1837Y6499D01*
X1812Y6461D01*
X1798Y6388D01*
X1812Y6315D01*
X1837Y6277D01*
X1849Y6240D01*
X1837Y6203D01*
X1812Y6165D01*
X1798Y6093D01*
X1812Y6020D01*
X1837Y5982D01*
X1849Y5945D01*
X1837Y5908D01*
X1812Y5870D01*
X1798Y5797D01*
X1812Y5724D01*
X1837Y5686D01*
X1849Y5650D01*
X1837Y5613D01*
X1812Y5575D01*
X1798Y5502D01*
X1812Y5429D01*
X1853Y5367D01*
X1915Y5326D01*
X1988Y5311D01*
X2061Y5326D01*
X2123Y5367D01*
X2164Y5429D01*
X2179Y5502D01*
X2164Y5575D01*
X2144Y5605D01*
X2180Y5641D01*
X2210Y5621D01*
X2283Y5607D01*
X2356Y5621D01*
X2394Y5646D01*
X2431Y5658D01*
X2468Y5646D01*
X2506Y5621D01*
X2579Y5607D01*
X2652Y5621D01*
X2690Y5646D01*
X2726Y5658D01*
X2763Y5646D01*
X2801Y5621D01*
X2874Y5607D01*
X2947Y5621D01*
X2977Y5641D01*
X3013Y5605D01*
X2993Y5575D01*
X2979Y5502D01*
X2993Y5429D01*
X3019Y5391D01*
X3030Y5354D01*
X3019Y5318D01*
X2993Y5280D01*
X2979Y5207D01*
X2993Y5134D01*
X3019Y5096D01*
X3030Y5059D01*
X3019Y5022D01*
X2993Y4984D01*
X2979Y4911D01*
X2993Y4838D01*
X3019Y4800D01*
X3029Y4767D01*
X3007Y4720D01*
X3002Y4718D01*
X2951Y4716D01*
X2910Y4744D01*
X2844Y4757D01*
X2779Y4744D01*
X2724Y4707D01*
X2717Y4697D01*
X2667D01*
X2660Y4707D01*
X2605Y4744D01*
X2539Y4757D01*
X2474Y4744D01*
X2419Y4707D01*
X2412Y4697D01*
X2362D01*
X2355Y4707D01*
X2300Y4744D01*
X2234Y4757D01*
X2169Y4744D01*
X2114Y4707D01*
X2077Y4652D01*
X2064Y4587D01*
X2077Y4521D01*
X2114Y4466D01*
X2169Y4429D01*
X2234Y4416D01*
X2300Y4429D01*
X2355Y4466D01*
X2362Y4476D01*
X2412D01*
X2419Y4466D01*
X2474Y4429D01*
X2539Y4416D01*
X2605Y4429D01*
X2660Y4466D01*
X2667Y4476D01*
X2717D01*
X2724Y4466D01*
X2779Y4429D01*
X2844Y4416D01*
X2910Y4429D01*
X2965Y4466D01*
X2975Y4481D01*
X3034Y4481D01*
X3096Y4440D01*
X3169Y4425D01*
X3242Y4440D01*
X3280Y4465D01*
X3317Y4477D01*
X3354Y4465D01*
X3392Y4440D01*
X3465Y4425D01*
X3526Y4438D01*
X3558Y4416D01*
X3570Y4401D01*
X3570Y4400D01*
X3583Y4334D01*
X3620Y4279D01*
X3675Y4242D01*
X3740Y4229D01*
X3805Y4242D01*
X3861Y4279D01*
X3898Y4334D01*
X3911Y4400D01*
X3898Y4465D01*
X3861Y4520D01*
X3805Y4557D01*
X3740Y4570D01*
X3695Y4561D01*
X3657Y4592D01*
X3658Y4639D01*
X3699Y4662D01*
X3739Y4636D01*
X3804Y4623D01*
X3869Y4636D01*
X3925Y4673D01*
X3962Y4728D01*
X3975Y4793D01*
X3962Y4859D01*
X3925Y4914D01*
X3869Y4951D01*
X3804Y4964D01*
X3739Y4951D01*
X3703Y4927D01*
X3650Y4945D01*
X3648Y4946D01*
X3641Y4984D01*
X3615Y5022D01*
X3610Y5038D01*
X3627Y5065D01*
X3683Y5066D01*
X3684Y5066D01*
X3739Y5029D01*
X3804Y5016D01*
X3869Y5029D01*
X3925Y5066D01*
X3962Y5122D01*
X3975Y5187D01*
X3962Y5252D01*
X3925Y5308D01*
X3869Y5345D01*
X3804Y5358D01*
X3739Y5345D01*
X3683Y5308D01*
X3683Y5306D01*
X3623Y5307D01*
X3615Y5318D01*
X3604Y5354D01*
X3615Y5391D01*
X3641Y5429D01*
X3655Y5502D01*
X3641Y5575D01*
X3615Y5613D01*
X3610Y5628D01*
X3627Y5655D01*
X3683Y5657D01*
X3684Y5657D01*
X3739Y5620D01*
X3804Y5607D01*
X3869Y5620D01*
X3925Y5657D01*
X3962Y5712D01*
X3975Y5778D01*
X3962Y5843D01*
X3925Y5898D01*
X3869Y5935D01*
X3804Y5948D01*
X3739Y5935D01*
X3683Y5898D01*
X3683Y5897D01*
X3623Y5897D01*
X3615Y5908D01*
X3604Y5945D01*
X3615Y5982D01*
X3631Y6006D01*
X3689Y6027D01*
X3695Y6023D01*
X3760Y6011D01*
X3825Y6023D01*
X3880Y6060D01*
X3917Y6116D01*
X3930Y6181D01*
X3917Y6246D01*
X3880Y6302D01*
X3880Y6302D01*
Y6362D01*
X3900Y6375D01*
X3937Y6431D01*
X3950Y6496D01*
X3937Y6561D01*
X3900Y6617D01*
X3845Y6654D01*
X3780Y6667D01*
X3714Y6654D01*
X3698Y6643D01*
X3653Y6673D01*
X3655Y6683D01*
X3641Y6756D01*
X3615Y6794D01*
X3610Y6809D01*
X3627Y6836D01*
X3683Y6838D01*
X3684Y6838D01*
X3739Y6801D01*
X3804Y6788D01*
X3869Y6801D01*
X3925Y6838D01*
X3962Y6893D01*
X3975Y6959D01*
X3962Y7024D01*
X3925Y7079D01*
X3869Y7116D01*
X3804Y7129D01*
X3739Y7116D01*
X3683Y7079D01*
X3683Y7078D01*
X3623Y7078D01*
X3599Y7113D01*
X3538Y7155D01*
X3465Y7169D01*
D02*
G37*
G36*
X4655Y7622D02*
X4590Y7609D01*
X4534Y7572D01*
X4498Y7516D01*
X4485Y7451D01*
X4498Y7386D01*
X4524Y7346D01*
X4534Y7331D01*
X4515Y7284D01*
X4503Y7276D01*
X4466Y7221D01*
X4453Y7156D01*
X4466Y7090D01*
X4503Y7035D01*
X4559Y6998D01*
X4624Y6985D01*
X4689Y6998D01*
X4745Y7035D01*
X4782Y7090D01*
X4795Y7156D01*
X4782Y7221D01*
X4755Y7261D01*
X4745Y7276D01*
X4764Y7323D01*
X4776Y7331D01*
X4813Y7386D01*
X4826Y7451D01*
X4813Y7516D01*
X4776Y7572D01*
X4720Y7609D01*
X4655Y7622D01*
D02*
G37*
G36*
X13061Y6844D02*
X12996Y6831D01*
X12940Y6794D01*
X12903Y6739D01*
X12890Y6673D01*
X12903Y6608D01*
X12940Y6553D01*
X12996Y6516D01*
X13061Y6503D01*
X13126Y6516D01*
X13182Y6553D01*
X13219Y6608D01*
X13232Y6673D01*
X13219Y6739D01*
X13182Y6794D01*
X13126Y6831D01*
X13061Y6844D01*
D02*
G37*
G36*
X12096Y6810D02*
X12031Y6797D01*
X11976Y6760D01*
X11939Y6705D01*
X11926Y6639D01*
X11939Y6574D01*
X11957Y6547D01*
X11927Y6502D01*
X11890Y6510D01*
X11817Y6495D01*
X11755Y6454D01*
X11714Y6392D01*
X11699Y6319D01*
X11714Y6246D01*
X11755Y6184D01*
X11817Y6143D01*
X11890Y6128D01*
X11894Y6129D01*
X11896Y6127D01*
X11919Y6083D01*
X11890Y6040D01*
X11877Y5974D01*
X11890Y5909D01*
X11927Y5854D01*
X11982Y5817D01*
X12047Y5804D01*
X12113Y5817D01*
X12168Y5854D01*
X12205Y5909D01*
X12218Y5974D01*
X12212Y6002D01*
X12272Y6014D01*
X12327Y6051D01*
X12364Y6106D01*
X12377Y6171D01*
X12364Y6237D01*
X12327Y6292D01*
X12285Y6320D01*
X12299Y6342D01*
X12312Y6407D01*
X12299Y6473D01*
X12262Y6528D01*
X12235Y6546D01*
X12254Y6574D01*
X12267Y6639D01*
X12254Y6705D01*
X12217Y6760D01*
X12162Y6797D01*
X12096Y6810D01*
D02*
G37*
G36*
X10807Y6854D02*
X10734Y6840D01*
X10672Y6798D01*
X10631Y6736D01*
X10616Y6663D01*
X10631Y6590D01*
X10672Y6529D01*
X10734Y6487D01*
X10807Y6473D01*
X10880Y6487D01*
X10942Y6529D01*
X10983Y6590D01*
X10998Y6663D01*
X10983Y6736D01*
X10942Y6798D01*
X10880Y6840D01*
X10807Y6854D01*
D02*
G37*
G36*
X1043Y6795D02*
X970Y6780D01*
X908Y6739D01*
X867Y6677D01*
X853Y6604D01*
X867Y6531D01*
X908Y6470D01*
X970Y6428D01*
X1043Y6414D01*
X1116Y6428D01*
X1178Y6470D01*
X1219Y6531D01*
X1234Y6604D01*
X1219Y6677D01*
X1178Y6739D01*
X1116Y6780D01*
X1043Y6795D01*
D02*
G37*
G36*
X5039Y6972D02*
X4974Y6959D01*
X4919Y6922D01*
X4882Y6866D01*
X4869Y6801D01*
X4882Y6736D01*
X4919Y6681D01*
X4928Y6626D01*
X4911Y6601D01*
X4898Y6535D01*
X4911Y6470D01*
X4948Y6415D01*
X5004Y6378D01*
X5069Y6365D01*
X5134Y6378D01*
X5190Y6415D01*
X5227Y6470D01*
X5239Y6535D01*
X5227Y6601D01*
X5190Y6656D01*
X5180Y6710D01*
X5197Y6736D01*
X5210Y6801D01*
X5197Y6866D01*
X5160Y6922D01*
X5105Y6959D01*
X5039Y6972D01*
D02*
G37*
G36*
X14724Y6598D02*
X14659Y6585D01*
X14604Y6548D01*
X14567Y6492D01*
X14554Y6427D01*
X14567Y6362D01*
X14604Y6307D01*
X14659Y6270D01*
X14724Y6257D01*
X14790Y6270D01*
X14845Y6307D01*
X14882Y6362D01*
X14895Y6427D01*
X14882Y6492D01*
X14845Y6548D01*
X14790Y6585D01*
X14724Y6598D01*
D02*
G37*
G36*
X11378Y6066D02*
X11313Y6053D01*
X11257Y6016D01*
X11220Y5961D01*
X11207Y5896D01*
X11220Y5830D01*
X11257Y5775D01*
X11313Y5738D01*
X11378Y5725D01*
X11443Y5738D01*
X11499Y5775D01*
X11536Y5830D01*
X11549Y5896D01*
X11536Y5961D01*
X11499Y6016D01*
X11443Y6053D01*
X11378Y6066D01*
D02*
G37*
G36*
X10197Y6322D02*
X10132Y6309D01*
X10076Y6272D01*
X10039Y6217D01*
X10026Y6152D01*
X10039Y6086D01*
X10076Y6031D01*
X10094Y6019D01*
Y5959D01*
X10076Y5947D01*
X10039Y5892D01*
X10026Y5827D01*
X10039Y5761D01*
X10076Y5706D01*
X10132Y5669D01*
X10197Y5656D01*
X10262Y5669D01*
X10317Y5706D01*
X10354Y5761D01*
X10367Y5827D01*
X10354Y5892D01*
X10317Y5947D01*
X10300Y5959D01*
Y6019D01*
X10317Y6031D01*
X10354Y6086D01*
X10367Y6152D01*
X10354Y6217D01*
X10317Y6272D01*
X10262Y6309D01*
X10197Y6322D01*
D02*
G37*
G36*
X8415Y6942D02*
X8284Y6929D01*
X8158Y6891D01*
X8042Y6829D01*
X7940Y6745D01*
X7856Y6643D01*
X7794Y6527D01*
X7756Y6401D01*
X7743Y6270D01*
X7756Y6138D01*
X7794Y6012D01*
X7856Y5896D01*
X7940Y5794D01*
X8042Y5710D01*
X8158Y5648D01*
X8284Y5610D01*
X8415Y5597D01*
X8547Y5610D01*
X8673Y5648D01*
X8789Y5710D01*
X8891Y5794D01*
X8975Y5896D01*
X9037Y6012D01*
X9075Y6138D01*
X9088Y6270D01*
X9075Y6401D01*
X9037Y6527D01*
X8975Y6643D01*
X8891Y6745D01*
X8789Y6829D01*
X8673Y6891D01*
X8547Y6929D01*
X8415Y6942D01*
D02*
G37*
G36*
X13071Y5830D02*
X13006Y5817D01*
X12950Y5780D01*
X12913Y5725D01*
X12900Y5659D01*
X12913Y5594D01*
X12950Y5539D01*
X13006Y5502D01*
X13071Y5489D01*
X13136Y5502D01*
X13191Y5539D01*
X13228Y5594D01*
X13241Y5659D01*
X13228Y5725D01*
X13191Y5780D01*
X13136Y5817D01*
X13071Y5830D01*
D02*
G37*
G36*
X9764Y5791D02*
X9698Y5778D01*
X9643Y5741D01*
X9606Y5685D01*
X9593Y5620D01*
X9606Y5555D01*
X9643Y5499D01*
X9698Y5462D01*
X9764Y5449D01*
X9829Y5462D01*
X9884Y5499D01*
X9921Y5555D01*
X9934Y5620D01*
X9921Y5685D01*
X9884Y5741D01*
X9829Y5778D01*
X9764Y5791D01*
D02*
G37*
G36*
X4624Y5751D02*
X4559Y5738D01*
X4503Y5701D01*
X4466Y5646D01*
X4453Y5581D01*
X4466Y5515D01*
X4503Y5460D01*
X4559Y5423D01*
X4624Y5410D01*
X4689Y5423D01*
X4745Y5460D01*
X4782Y5515D01*
X4795Y5581D01*
X4782Y5646D01*
X4745Y5701D01*
X4689Y5738D01*
X4624Y5751D01*
D02*
G37*
G36*
X10010Y5486D02*
X9945Y5473D01*
X9889Y5436D01*
X9852Y5380D01*
X9839Y5315D01*
X9852Y5250D01*
X9889Y5194D01*
X9945Y5157D01*
X10010Y5144D01*
X10075Y5157D01*
X10130Y5194D01*
X10167Y5250D01*
X10180Y5315D01*
X10167Y5380D01*
X10130Y5436D01*
X10075Y5473D01*
X10010Y5486D01*
D02*
G37*
G36*
X9144Y5447D02*
X9078Y5434D01*
X9023Y5397D01*
X8986Y5342D01*
X8973Y5276D01*
X8986Y5211D01*
X9023Y5156D01*
X9078Y5119D01*
X9144Y5106D01*
X9209Y5119D01*
X9264Y5156D01*
X9301Y5211D01*
X9314Y5276D01*
X9301Y5342D01*
X9264Y5397D01*
X9209Y5434D01*
X9144Y5447D01*
D02*
G37*
G36*
X7697Y5338D02*
X7632Y5325D01*
X7576Y5288D01*
X7539Y5233D01*
X7526Y5167D01*
X7539Y5102D01*
X7565Y5063D01*
X7543Y5048D01*
X7506Y4993D01*
X7493Y4927D01*
X7506Y4862D01*
X7543Y4807D01*
X7598Y4770D01*
X7664Y4757D01*
X7729Y4770D01*
X7784Y4807D01*
X7821Y4862D01*
X7834Y4927D01*
X7821Y4993D01*
X7795Y5032D01*
X7817Y5047D01*
X7854Y5102D01*
X7903Y5091D01*
X7902Y5089D01*
X7915Y5024D01*
X7952Y4969D01*
X8008Y4932D01*
X8073Y4919D01*
X8138Y4932D01*
X8194Y4969D01*
X8230Y5024D01*
X8243Y5089D01*
X8230Y5155D01*
X8194Y5210D01*
X8138Y5247D01*
X8073Y5260D01*
X8008Y5247D01*
X7952Y5210D01*
X7915Y5155D01*
X7867Y5166D01*
X7867Y5167D01*
X7854Y5233D01*
X7817Y5288D01*
X7762Y5325D01*
X7697Y5338D01*
D02*
G37*
G36*
X4624Y5161D02*
X4559Y5148D01*
X4503Y5111D01*
X4466Y5055D01*
X4453Y4990D01*
X4466Y4925D01*
X4503Y4870D01*
X4559Y4833D01*
X4624Y4820D01*
X4689Y4833D01*
X4745Y4870D01*
X4782Y4925D01*
X4795Y4990D01*
X4782Y5055D01*
X4745Y5111D01*
X4689Y5148D01*
X4624Y5161D01*
D02*
G37*
G36*
X10177Y5033D02*
X10104Y5019D01*
X10042Y4977D01*
X10001Y4915D01*
X9986Y4843D01*
X10001Y4770D01*
X10042Y4708D01*
X10104Y4666D01*
X10177Y4652D01*
X10250Y4666D01*
X10312Y4708D01*
X10353Y4770D01*
X10368Y4843D01*
X10353Y4915D01*
X10312Y4977D01*
X10250Y5019D01*
X10177Y5033D01*
D02*
G37*
G36*
X4624Y4767D02*
X4559Y4754D01*
X4503Y4717D01*
X4466Y4662D01*
X4453Y4596D01*
X4466Y4531D01*
X4503Y4476D01*
X4559Y4439D01*
X4624Y4426D01*
X4689Y4439D01*
X4745Y4476D01*
X4782Y4531D01*
X4795Y4596D01*
X4782Y4662D01*
X4745Y4717D01*
X4689Y4754D01*
X4624Y4767D01*
D02*
G37*
G36*
X9576Y4787D02*
X9511Y4774D01*
X9456Y4737D01*
X9419Y4682D01*
X9406Y4617D01*
X9419Y4551D01*
X9456Y4496D01*
X9511Y4459D01*
X9576Y4446D01*
X9641Y4459D01*
X9687Y4489D01*
X9702Y4466D01*
X9758Y4429D01*
X9823Y4416D01*
X9888Y4429D01*
X9943Y4466D01*
X9980Y4521D01*
X9993Y4587D01*
X9980Y4652D01*
X9943Y4707D01*
X9888Y4744D01*
X9823Y4757D01*
X9758Y4744D01*
X9712Y4714D01*
X9697Y4737D01*
X9641Y4774D01*
X9576Y4787D01*
D02*
G37*
G36*
X22087Y5289D02*
X22021Y5276D01*
X21966Y5239D01*
X21929Y5183D01*
X21916Y5118D01*
X21929Y5053D01*
X21957Y5011D01*
X21960Y4983D01*
X21947Y4950D01*
X21907Y4924D01*
X21870Y4868D01*
X21857Y4803D01*
X21870Y4738D01*
X21898Y4696D01*
X21901Y4668D01*
X21888Y4635D01*
X21848Y4609D01*
X21811Y4553D01*
X21798Y4488D01*
X21811Y4423D01*
X21839Y4381D01*
X21842Y4353D01*
X21828Y4320D01*
X21789Y4294D01*
X21752Y4239D01*
X21739Y4173D01*
X21752Y4108D01*
X21789Y4053D01*
X21844Y4016D01*
X21909Y4003D01*
X21975Y4016D01*
X22030Y4053D01*
X22067Y4108D01*
X22080Y4173D01*
X22067Y4239D01*
X22039Y4281D01*
X22036Y4308D01*
X22049Y4341D01*
X22089Y4368D01*
X22126Y4423D01*
X22139Y4488D01*
X22126Y4553D01*
X22098Y4596D01*
X22095Y4623D01*
X22109Y4656D01*
X22148Y4683D01*
X22185Y4738D01*
X22198Y4803D01*
X22185Y4868D01*
X22157Y4911D01*
X22154Y4938D01*
X22168Y4971D01*
X22207Y4997D01*
X22244Y5053D01*
X22257Y5118D01*
X22244Y5183D01*
X22207Y5239D01*
X22152Y5276D01*
X22087Y5289D01*
D02*
G37*
G36*
X23750Y4167D02*
X23677Y4153D01*
X23615Y4111D01*
X23574Y4049D01*
X23559Y3976D01*
X23574Y3903D01*
X23615Y3842D01*
X23677Y3800D01*
X23750Y3786D01*
X23823Y3800D01*
X23885Y3842D01*
X23926Y3903D01*
X23941Y3976D01*
X23926Y4049D01*
X23885Y4111D01*
X23823Y4153D01*
X23750Y4167D01*
D02*
G37*
G36*
X8071Y4106D02*
X8006Y4093D01*
X7950Y4056D01*
X7913Y4001D01*
X7900Y3936D01*
X7913Y3870D01*
X7950Y3815D01*
X8006Y3778D01*
X8071Y3765D01*
X8136Y3778D01*
X8191Y3815D01*
X8228Y3870D01*
X8241Y3936D01*
X8228Y4001D01*
X8191Y4056D01*
X8136Y4093D01*
X8071Y4106D01*
D02*
G37*
G36*
X4675Y4364D02*
X4610Y4351D01*
X4555Y4314D01*
X4518Y4258D01*
X4505Y4193D01*
X4518Y4128D01*
X4555Y4072D01*
X4610Y4035D01*
X4610Y4035D01*
X4610Y3984D01*
X4571Y3977D01*
X4515Y3940D01*
X4478Y3884D01*
X4465Y3819D01*
X4478Y3754D01*
X4515Y3698D01*
X4571Y3661D01*
X4636Y3648D01*
X4701Y3661D01*
X4756Y3698D01*
X4793Y3754D01*
X4806Y3819D01*
X4793Y3884D01*
X4756Y3940D01*
X4701Y3976D01*
X4701Y3977D01*
X4701Y4027D01*
X4740Y4035D01*
X4796Y4072D01*
X4833Y4128D01*
X4846Y4193D01*
X4833Y4258D01*
X4796Y4314D01*
X4740Y4351D01*
X4675Y4364D01*
D02*
G37*
G36*
X7451Y3950D02*
X7386Y3937D01*
X7330Y3900D01*
X7293Y3845D01*
X7280Y3780D01*
X7293Y3714D01*
X7330Y3659D01*
X7386Y3622D01*
X7451Y3609D01*
X7516Y3622D01*
X7571Y3659D01*
X7608Y3714D01*
X7621Y3780D01*
X7608Y3845D01*
X7571Y3900D01*
X7516Y3937D01*
X7451Y3950D01*
D02*
G37*
G36*
X4941Y3606D02*
X4876Y3593D01*
X4820Y3556D01*
X4806Y3534D01*
X4746D01*
X4745Y3536D01*
X4689Y3573D01*
X4624Y3586D01*
X4559Y3573D01*
X4503Y3536D01*
X4466Y3481D01*
X4453Y3415D01*
X4466Y3350D01*
X4503Y3295D01*
X4559Y3258D01*
X4624Y3245D01*
X4689Y3258D01*
X4745Y3295D01*
X4759Y3316D01*
X4819D01*
X4820Y3314D01*
X4876Y3277D01*
X4941Y3264D01*
X5006Y3277D01*
X5062Y3314D01*
X5099Y3370D01*
X5112Y3435D01*
X5099Y3500D01*
X5062Y3556D01*
X5006Y3593D01*
X4941Y3606D01*
D02*
G37*
G36*
X7077Y3606D02*
X7011Y3593D01*
X6956Y3556D01*
X6919Y3500D01*
X6906Y3435D01*
X6919Y3370D01*
X6956Y3314D01*
X7011Y3277D01*
X7077Y3264D01*
X7142Y3277D01*
X7197Y3314D01*
X7234Y3370D01*
X7247Y3435D01*
X7234Y3500D01*
X7197Y3556D01*
X7142Y3593D01*
X7077Y3606D01*
D02*
G37*
G36*
X13602Y3556D02*
X13537Y3543D01*
X13482Y3506D01*
X13445Y3451D01*
X13432Y3386D01*
X13445Y3321D01*
X13482Y3265D01*
X13537Y3228D01*
X13602Y3215D01*
X13668Y3228D01*
X13723Y3265D01*
X13760Y3321D01*
X13773Y3386D01*
X13760Y3451D01*
X13723Y3506D01*
X13668Y3543D01*
X13602Y3556D01*
D02*
G37*
G36*
X9163Y3211D02*
X9098Y3198D01*
X9043Y3161D01*
X9006Y3105D01*
X8993Y3040D01*
X9006Y2975D01*
X9043Y2919D01*
X9098Y2882D01*
X9163Y2869D01*
X9229Y2882D01*
X9284Y2919D01*
X9321Y2975D01*
X9334Y3040D01*
X9321Y3105D01*
X9284Y3161D01*
X9229Y3198D01*
X9163Y3211D01*
D02*
G37*
G36*
X7313Y3281D02*
X7248Y3268D01*
X7192Y3231D01*
X7155Y3176D01*
X7142Y3110D01*
X7155Y3045D01*
X7192Y2990D01*
X7248Y2953D01*
X7313Y2940D01*
X7331Y2943D01*
X7342Y2887D01*
X7379Y2832D01*
X7435Y2795D01*
X7500Y2782D01*
X7565Y2795D01*
X7621Y2832D01*
X7655Y2884D01*
X7671Y2874D01*
X7736Y2861D01*
X7802Y2874D01*
X7857Y2911D01*
X7894Y2966D01*
X7907Y3031D01*
X7894Y3097D01*
X7857Y3152D01*
X7802Y3189D01*
X7736Y3202D01*
X7671Y3189D01*
X7616Y3152D01*
X7581Y3100D01*
X7565Y3110D01*
X7500Y3123D01*
X7482Y3120D01*
X7471Y3176D01*
X7434Y3231D01*
X7378Y3268D01*
X7313Y3281D01*
D02*
G37*
G36*
X23661Y3193D02*
X23588Y3178D01*
X23527Y3137D01*
X23485Y3075D01*
X23471Y3002D01*
X23485Y2929D01*
X23527Y2867D01*
X23588Y2826D01*
X23661Y2811D01*
X23734Y2826D01*
X23796Y2867D01*
X23838Y2929D01*
X23852Y3002D01*
X23838Y3075D01*
X23796Y3137D01*
X23734Y3178D01*
X23661Y3193D01*
D02*
G37*
G36*
X5562Y3144D02*
X5497Y3131D01*
X5442Y3094D01*
X5405Y3039D01*
X5392Y2974D01*
X5405Y2909D01*
X5442Y2853D01*
X5497Y2816D01*
X5562Y2803D01*
X5628Y2816D01*
X5683Y2853D01*
X5720Y2909D01*
X5733Y2974D01*
X5720Y3039D01*
X5683Y3094D01*
X5628Y3131D01*
X5562Y3144D01*
D02*
G37*
G36*
X8557Y3133D02*
X8492Y3120D01*
X8437Y3083D01*
X8400Y3028D01*
X8387Y2963D01*
X8400Y2897D01*
X8437Y2842D01*
X8492Y2805D01*
X8557Y2792D01*
X8623Y2805D01*
X8678Y2842D01*
X8715Y2897D01*
X8728Y2963D01*
X8715Y3028D01*
X8678Y3083D01*
X8623Y3120D01*
X8557Y3133D01*
D02*
G37*
G36*
X9547Y3487D02*
X9482Y3474D01*
X9427Y3438D01*
X9390Y3382D01*
X9377Y3317D01*
X9390Y3252D01*
X9427Y3196D01*
X9438Y3189D01*
X9409Y3147D01*
X9396Y3081D01*
X9409Y3016D01*
X9443Y2965D01*
X9084Y2606D01*
X9040Y2541D01*
X9025Y2464D01*
Y1605D01*
X9025Y1604D01*
X9040Y1527D01*
X9084Y1462D01*
X9149Y1419D01*
X9226Y1403D01*
X9302Y1419D01*
X9368Y1462D01*
X9368Y1462D01*
X9411Y1528D01*
X9427Y1604D01*
Y2381D01*
X10077Y3031D01*
X10123Y3006D01*
X10120Y2995D01*
X10133Y2930D01*
X10170Y2874D01*
X10226Y2838D01*
X10291Y2825D01*
X10356Y2838D01*
X10370Y2847D01*
X10406Y2811D01*
X10394Y2792D01*
X10381Y2726D01*
X10335Y2700D01*
X10311Y2695D01*
X10263Y2663D01*
X10215Y2645D01*
X10159Y2682D01*
X10094Y2695D01*
X10029Y2682D01*
X9973Y2645D01*
X9936Y2590D01*
X9923Y2524D01*
X9936Y2459D01*
X9973Y2404D01*
X10029Y2367D01*
X10094Y2354D01*
X10159Y2367D01*
X10207Y2399D01*
X10256Y2417D01*
X10311Y2380D01*
X10376Y2367D01*
X10441Y2380D01*
X10497Y2417D01*
X10534Y2472D01*
X10547Y2537D01*
X10567Y2549D01*
X10619Y2542D01*
X10656Y2487D01*
X10712Y2450D01*
X10777Y2437D01*
X10842Y2450D01*
X10898Y2487D01*
X10935Y2542D01*
X10948Y2608D01*
X10935Y2673D01*
X10898Y2728D01*
X10842Y2765D01*
X10777Y2778D01*
X10714Y2766D01*
X10709Y2792D01*
X10672Y2847D01*
X10616Y2884D01*
X10551Y2897D01*
X10486Y2884D01*
X10472Y2875D01*
X10436Y2911D01*
X10449Y2930D01*
X10462Y2995D01*
X10449Y3060D01*
X10412Y3116D01*
X10356Y3153D01*
X10291Y3166D01*
X10226Y3153D01*
X10209Y3141D01*
X10164Y3171D01*
X10171Y3209D01*
X10156Y3285D01*
X10112Y3351D01*
X10047Y3394D01*
X9970Y3409D01*
X9894Y3394D01*
X9829Y3351D01*
X9762Y3284D01*
X9716Y3309D01*
X9718Y3317D01*
X9705Y3382D01*
X9668Y3438D01*
X9613Y3474D01*
X9547Y3487D01*
D02*
G37*
G36*
X21988Y3753D02*
X21923Y3740D01*
X21868Y3703D01*
X21831Y3648D01*
X21818Y3583D01*
X21831Y3517D01*
X21868Y3462D01*
X21885Y3450D01*
Y3400D01*
X21868Y3388D01*
X21831Y3333D01*
X21818Y3268D01*
X21831Y3202D01*
X21868Y3147D01*
X21897Y3127D01*
X21907Y3075D01*
X21903Y3068D01*
X21870Y3018D01*
X21857Y2953D01*
X21870Y2887D01*
X21907Y2832D01*
X21947Y2806D01*
X21960Y2773D01*
X21957Y2745D01*
X21929Y2703D01*
X21916Y2638D01*
X21929Y2573D01*
X21966Y2517D01*
X22021Y2480D01*
X22087Y2467D01*
X22152Y2480D01*
X22207Y2517D01*
X22244Y2573D01*
X22257Y2638D01*
X22244Y2703D01*
X22207Y2758D01*
X22168Y2785D01*
X22154Y2818D01*
X22157Y2845D01*
X22185Y2887D01*
X22198Y2953D01*
X22185Y3018D01*
X22148Y3073D01*
X22118Y3093D01*
X22109Y3145D01*
X22113Y3153D01*
X22146Y3202D01*
X22159Y3268D01*
X22146Y3333D01*
X22109Y3388D01*
X22091Y3400D01*
Y3450D01*
X22109Y3462D01*
X22146Y3517D01*
X22159Y3583D01*
X22146Y3648D01*
X22109Y3703D01*
X22053Y3740D01*
X21988Y3753D01*
D02*
G37*
G36*
X7126Y2867D02*
X7061Y2854D01*
X7005Y2817D01*
X6968Y2762D01*
X6955Y2697D01*
X6968Y2632D01*
X7005Y2576D01*
X7061Y2539D01*
X7126Y2526D01*
X7129Y2527D01*
X7140Y2470D01*
X7177Y2414D01*
X7233Y2377D01*
X7298Y2364D01*
X7363Y2377D01*
X7419Y2414D01*
X7456Y2470D01*
X7469Y2535D01*
X7456Y2600D01*
X7419Y2656D01*
X7363Y2693D01*
X7298Y2706D01*
X7295Y2705D01*
X7284Y2762D01*
X7247Y2817D01*
X7191Y2854D01*
X7126Y2867D01*
D02*
G37*
G36*
X21036Y2475D02*
X20963Y2461D01*
X20901Y2419D01*
X20860Y2358D01*
X20845Y2285D01*
X20860Y2212D01*
X20901Y2150D01*
X20963Y2108D01*
X21036Y2094D01*
X21109Y2108D01*
X21171Y2150D01*
X21212Y2212D01*
X21227Y2285D01*
X21212Y2358D01*
X21171Y2419D01*
X21109Y2461D01*
X21036Y2475D01*
D02*
G37*
G36*
X23504Y2386D02*
X23431Y2371D01*
X23369Y2330D01*
X23328Y2268D01*
X23313Y2195D01*
X23328Y2122D01*
X23369Y2060D01*
X23431Y2019D01*
X23504Y2004D01*
X23577Y2019D01*
X23639Y2060D01*
X23680Y2122D01*
X23695Y2195D01*
X23680Y2268D01*
X23639Y2330D01*
X23577Y2371D01*
X23504Y2386D01*
D02*
G37*
G36*
X23091Y1519D02*
X23018Y1505D01*
X22956Y1464D01*
X22943Y1445D01*
X22883D01*
X22871Y1464D01*
X22809Y1505D01*
X22736Y1519D01*
X22663Y1505D01*
X22601Y1464D01*
X22589Y1445D01*
X22529D01*
X22517Y1464D01*
X22455Y1505D01*
X22382Y1519D01*
X22309Y1505D01*
X22247Y1464D01*
X22206Y1402D01*
X22191Y1329D01*
X22206Y1256D01*
X22247Y1194D01*
X22309Y1153D01*
X22382Y1138D01*
X22455Y1153D01*
X22517Y1194D01*
X22529Y1212D01*
X22589D01*
X22601Y1194D01*
X22663Y1153D01*
X22736Y1138D01*
X22809Y1153D01*
X22871Y1194D01*
X22883Y1212D01*
X22943D01*
X22956Y1194D01*
X23018Y1153D01*
X23091Y1138D01*
X23164Y1153D01*
X23225Y1194D01*
X23267Y1256D01*
X23281Y1329D01*
X23267Y1402D01*
X23225Y1464D01*
X23164Y1505D01*
X23091Y1519D01*
D02*
G37*
G36*
X23746Y877D02*
X23695Y856D01*
X23613Y793D01*
X23550Y710D01*
X23529Y659D01*
X23746D01*
Y877D01*
D02*
G37*
%LPD*%
G36*
X3915Y10365D02*
X3918Y10363D01*
X3923Y10361D01*
X3928Y10359D01*
X3934Y10358D01*
X3941Y10356D01*
X3956Y10355D01*
X3965Y10354D01*
X3975Y10354D01*
Y10256D01*
X3965Y10256D01*
X3941Y10254D01*
X3934Y10253D01*
X3928Y10251D01*
X3923Y10250D01*
X3918Y10248D01*
X3915Y10246D01*
X3912Y10243D01*
Y10367D01*
X3915Y10365D01*
D02*
G37*
G36*
X4468Y10502D02*
X4464Y10502D01*
X4460Y10501D01*
X4455Y10499D01*
X4450Y10496D01*
X4445Y10493D01*
X4440Y10489D01*
X4427Y10479D01*
X4421Y10473D01*
X4414Y10466D01*
X4344Y10536D01*
X4351Y10543D01*
X4367Y10562D01*
X4371Y10567D01*
X4374Y10572D01*
X4377Y10577D01*
X4379Y10582D01*
X4380Y10586D01*
X4380Y10590D01*
X4468Y10502D01*
D02*
G37*
G36*
X9970Y3120D02*
X9963Y3120D01*
X9957Y3119D01*
X9950Y3117D01*
X9944Y3115D01*
X9937Y3112D01*
X9931Y3108D01*
X9924Y3104D01*
X9918Y3099D01*
X9911Y3093D01*
X9905Y3087D01*
X9849Y3143D01*
X9855Y3149D01*
X9861Y3156D01*
X9866Y3163D01*
X9870Y3169D01*
X9874Y3176D01*
X9877Y3182D01*
X9879Y3189D01*
X9881Y3195D01*
X9882Y3201D01*
X9882Y3208D01*
X9970Y3120D01*
D02*
G37*
G36*
X9265Y1737D02*
X9266Y1727D01*
X9266Y1719D01*
X9267Y1711D01*
X9269Y1703D01*
X9271Y1696D01*
X9273Y1689D01*
X9276Y1683D01*
X9280Y1677D01*
X9284Y1672D01*
X9288Y1667D01*
X9164Y1668D01*
X9168Y1672D01*
X9172Y1677D01*
X9175Y1683D01*
X9178Y1689D01*
X9181Y1696D01*
X9183Y1703D01*
X9184Y1711D01*
X9186Y1719D01*
X9186Y1728D01*
X9187Y1737D01*
X9265Y1737D01*
D02*
G37*
%LPC*%
G36*
X20666Y10189D02*
X20601Y10176D01*
X20546Y10139D01*
X20509Y10083D01*
X20496Y10018D01*
X20509Y9953D01*
X20546Y9897D01*
X20601Y9860D01*
X20666Y9847D01*
X20732Y9860D01*
X20787Y9897D01*
X20824Y9953D01*
X20837Y10018D01*
X20824Y10083D01*
X20787Y10139D01*
X20732Y10176D01*
X20666Y10189D01*
D02*
G37*
G36*
X19045Y9925D02*
X18972Y9910D01*
X18910Y9869D01*
X18869Y9807D01*
X18855Y9734D01*
X18869Y9661D01*
X18910Y9599D01*
X18972Y9558D01*
X19045Y9544D01*
X19118Y9558D01*
X19180Y9599D01*
X19221Y9661D01*
X19236Y9734D01*
X19221Y9807D01*
X19180Y9869D01*
X19118Y9910D01*
X19045Y9925D01*
D02*
G37*
G36*
X20423Y8744D02*
X20350Y8729D01*
X20288Y8688D01*
X20247Y8626D01*
X20233Y8553D01*
X20247Y8480D01*
X20288Y8418D01*
X20350Y8377D01*
X20423Y8362D01*
X20496Y8377D01*
X20558Y8418D01*
X20599Y8480D01*
X20614Y8553D01*
X20599Y8626D01*
X20558Y8688D01*
X20496Y8729D01*
X20423Y8744D01*
D02*
G37*
G36*
X16663Y8874D02*
X16598Y8861D01*
X16543Y8824D01*
X16506Y8768D01*
X16493Y8703D01*
X16506Y8638D01*
X16543Y8583D01*
X16598Y8546D01*
X16633Y8539D01*
X16627Y8509D01*
X16640Y8444D01*
X16677Y8388D01*
X16700Y8373D01*
X16673Y8333D01*
X16660Y8268D01*
X16673Y8202D01*
X16710Y8147D01*
X16765Y8110D01*
X16831Y8097D01*
X16896Y8110D01*
X16951Y8147D01*
X16988Y8202D01*
X17001Y8268D01*
X16988Y8333D01*
X16951Y8388D01*
X16929Y8403D01*
X16956Y8444D01*
X16969Y8509D01*
X16956Y8574D01*
X16919Y8630D01*
X16863Y8667D01*
X16828Y8674D01*
X16834Y8703D01*
X16821Y8768D01*
X16784Y8824D01*
X16729Y8861D01*
X16663Y8874D01*
D02*
G37*
G36*
X13102Y7639D02*
X13037Y7626D01*
X12981Y7589D01*
X12944Y7534D01*
X12931Y7469D01*
X12944Y7404D01*
X12981Y7348D01*
X13037Y7311D01*
X13102Y7298D01*
X13167Y7311D01*
X13223Y7348D01*
X13260Y7404D01*
X13273Y7469D01*
X13260Y7534D01*
X13223Y7589D01*
X13167Y7626D01*
X13102Y7639D01*
D02*
G37*
G36*
X11329Y7621D02*
X11263Y7608D01*
X11208Y7571D01*
X11171Y7516D01*
X11158Y7451D01*
X11171Y7386D01*
X11208Y7330D01*
X11263Y7293D01*
X11329Y7280D01*
X11394Y7293D01*
X11449Y7330D01*
X11486Y7386D01*
X11499Y7451D01*
X11486Y7516D01*
X11449Y7571D01*
X11394Y7608D01*
X11329Y7621D01*
D02*
G37*
G36*
X20315Y7553D02*
X20242Y7538D01*
X20180Y7497D01*
X20139Y7435D01*
X20124Y7362D01*
X20139Y7289D01*
X20180Y7227D01*
X20242Y7186D01*
X20315Y7172D01*
X20388Y7186D01*
X20450Y7227D01*
X20491Y7289D01*
X20506Y7362D01*
X20491Y7435D01*
X20450Y7497D01*
X20388Y7538D01*
X20315Y7553D01*
D02*
G37*
G36*
X18593Y7808D02*
X18527Y7795D01*
X18472Y7758D01*
X18435Y7703D01*
X18422Y7638D01*
X18435Y7573D01*
X18472Y7517D01*
X18527Y7480D01*
X18548Y7476D01*
X18559Y7423D01*
X18531Y7404D01*
X18494Y7349D01*
X18481Y7283D01*
X18494Y7218D01*
X18531Y7163D01*
X18586Y7126D01*
X18652Y7113D01*
X18717Y7126D01*
X18772Y7163D01*
X18809Y7218D01*
X18822Y7283D01*
X18809Y7349D01*
X18772Y7404D01*
X18717Y7441D01*
X18696Y7445D01*
X18685Y7498D01*
X18713Y7517D01*
X18750Y7573D01*
X18763Y7638D01*
X18750Y7703D01*
X18713Y7758D01*
X18658Y7795D01*
X18593Y7808D01*
D02*
G37*
G36*
X21831Y7297D02*
X21758Y7282D01*
X21696Y7241D01*
X21655Y7179D01*
X21640Y7106D01*
X21655Y7033D01*
X21696Y6971D01*
X21758Y6930D01*
X21831Y6916D01*
X21904Y6930D01*
X21966Y6971D01*
X22007Y7033D01*
X22021Y7106D01*
X22007Y7179D01*
X21966Y7241D01*
X21904Y7282D01*
X21831Y7297D01*
D02*
G37*
G36*
X18477Y7066D02*
X18412Y7053D01*
X18357Y7016D01*
X18320Y6961D01*
X18307Y6896D01*
X18320Y6830D01*
X18357Y6775D01*
X18412Y6738D01*
X18477Y6725D01*
X18543Y6738D01*
X18598Y6775D01*
X18635Y6830D01*
X18648Y6896D01*
X18635Y6961D01*
X18598Y7016D01*
X18543Y7053D01*
X18477Y7066D01*
D02*
G37*
G36*
X16595Y6765D02*
X16529Y6752D01*
X16474Y6715D01*
X16437Y6660D01*
X16428Y6614D01*
X16390Y6588D01*
X16375Y6586D01*
X16318Y6597D01*
X16253Y6584D01*
X16198Y6547D01*
X16161Y6492D01*
X16148Y6426D01*
X16161Y6361D01*
X16198Y6306D01*
X16253Y6269D01*
X16318Y6256D01*
X16384Y6269D01*
X16439Y6306D01*
X16476Y6361D01*
X16485Y6406D01*
X16523Y6432D01*
X16538Y6435D01*
X16595Y6424D01*
X16660Y6437D01*
X16715Y6474D01*
X16752Y6529D01*
X16765Y6594D01*
X16752Y6660D01*
X16715Y6715D01*
X16660Y6752D01*
X16595Y6765D01*
D02*
G37*
G36*
X18712Y6706D02*
X18646Y6693D01*
X18591Y6656D01*
X18554Y6601D01*
X18541Y6536D01*
X18554Y6470D01*
X18591Y6415D01*
X18646Y6378D01*
X18655Y6325D01*
X18648Y6289D01*
X18657Y6243D01*
X18612Y6212D01*
X18600Y6221D01*
X18534Y6234D01*
X18469Y6221D01*
X18414Y6184D01*
X18377Y6129D01*
X18364Y6063D01*
X18377Y5998D01*
X18414Y5943D01*
X18469Y5906D01*
X18534Y5893D01*
X18600Y5906D01*
X18655Y5943D01*
X18692Y5998D01*
X18705Y6063D01*
X18698Y6098D01*
X18743Y6128D01*
X18766Y6113D01*
X18839Y6099D01*
X18912Y6113D01*
X18973Y6155D01*
X19015Y6216D01*
X19029Y6289D01*
X19015Y6362D01*
X18973Y6424D01*
X18912Y6466D01*
X18870Y6474D01*
X18882Y6536D01*
X18869Y6601D01*
X18832Y6656D01*
X18777Y6693D01*
X18712Y6706D01*
D02*
G37*
G36*
X15482Y6007D02*
X15417Y5994D01*
X15362Y5957D01*
X15325Y5902D01*
X15312Y5837D01*
X15325Y5771D01*
X15362Y5716D01*
X15417Y5679D01*
X15482Y5666D01*
X15548Y5679D01*
X15603Y5716D01*
X15640Y5771D01*
X15653Y5837D01*
X15640Y5902D01*
X15603Y5957D01*
X15548Y5994D01*
X15482Y6007D01*
D02*
G37*
G36*
X16693Y6224D02*
X16628Y6211D01*
X16572Y6174D01*
X16535Y6118D01*
X16522Y6053D01*
X16535Y5988D01*
X16538Y5984D01*
X16490Y5952D01*
X16453Y5897D01*
X16440Y5832D01*
X16453Y5766D01*
X16490Y5711D01*
X16546Y5674D01*
X16611Y5661D01*
X16676Y5674D01*
X16731Y5711D01*
X16768Y5766D01*
X16781Y5832D01*
X16768Y5897D01*
X16766Y5901D01*
X16814Y5933D01*
X16851Y5988D01*
X16864Y6053D01*
X16851Y6118D01*
X16814Y6174D01*
X16758Y6211D01*
X16693Y6224D01*
D02*
G37*
G36*
X18573Y5821D02*
X18508Y5808D01*
X18452Y5771D01*
X18415Y5716D01*
X18402Y5650D01*
X18415Y5585D01*
X18452Y5530D01*
X18506Y5494D01*
X18507Y5487D01*
X18504Y5442D01*
X18459Y5433D01*
X18404Y5396D01*
X18367Y5341D01*
X18354Y5276D01*
X18367Y5211D01*
X18404Y5155D01*
X18459Y5118D01*
X18525Y5105D01*
X18590Y5118D01*
X18645Y5155D01*
X18682Y5211D01*
X18695Y5276D01*
X18682Y5341D01*
X18645Y5396D01*
X18591Y5433D01*
X18590Y5439D01*
X18593Y5484D01*
X18638Y5493D01*
X18693Y5530D01*
X18730Y5585D01*
X18743Y5650D01*
X18730Y5716D01*
X18693Y5771D01*
X18638Y5808D01*
X18573Y5821D01*
D02*
G37*
G36*
X16881Y5230D02*
X16815Y5217D01*
X16760Y5180D01*
X16723Y5125D01*
X16710Y5059D01*
X16723Y4994D01*
X16760Y4939D01*
X16815Y4902D01*
X16881Y4889D01*
X16946Y4902D01*
X17001Y4939D01*
X17038Y4994D01*
X17051Y5059D01*
X17038Y5125D01*
X17001Y5180D01*
X16946Y5217D01*
X16881Y5230D01*
D02*
G37*
G36*
X16260Y5161D02*
X16195Y5148D01*
X16139Y5111D01*
X16102Y5055D01*
X16089Y4990D01*
X16102Y4925D01*
X16139Y4870D01*
X16195Y4833D01*
X16260Y4820D01*
X16325Y4833D01*
X16380Y4870D01*
X16417Y4925D01*
X16430Y4990D01*
X16417Y5055D01*
X16380Y5111D01*
X16325Y5148D01*
X16260Y5161D01*
D02*
G37*
G36*
X18884Y4743D02*
X18818Y4730D01*
X18763Y4693D01*
X18726Y4638D01*
X18713Y4572D01*
X18726Y4507D01*
X18763Y4452D01*
X18818Y4415D01*
X18884Y4402D01*
X18949Y4415D01*
X19004Y4452D01*
X19041Y4507D01*
X19054Y4572D01*
X19041Y4638D01*
X19004Y4693D01*
X18949Y4730D01*
X18884Y4743D01*
D02*
G37*
G36*
X16901Y4580D02*
X16836Y4567D01*
X16781Y4530D01*
X16744Y4475D01*
X16731Y4410D01*
X16744Y4344D01*
X16781Y4289D01*
X16836Y4252D01*
X16901Y4239D01*
X16967Y4252D01*
X17022Y4289D01*
X17059Y4344D01*
X17072Y4410D01*
X17059Y4475D01*
X17022Y4530D01*
X16967Y4567D01*
X16901Y4580D01*
D02*
G37*
G36*
X18602Y4373D02*
X18537Y4360D01*
X18482Y4323D01*
X18445Y4268D01*
X18432Y4203D01*
X18445Y4137D01*
X18482Y4082D01*
X18537Y4045D01*
X18602Y4032D01*
X18668Y4045D01*
X18723Y4082D01*
X18760Y4137D01*
X18773Y4203D01*
X18760Y4268D01*
X18723Y4323D01*
X18668Y4360D01*
X18602Y4373D01*
D02*
G37*
G36*
X16794Y4204D02*
X16729Y4191D01*
X16674Y4154D01*
X16637Y4099D01*
X16624Y4034D01*
X16637Y3968D01*
X16674Y3913D01*
X16729Y3876D01*
X16794Y3863D01*
X16859Y3876D01*
X16915Y3913D01*
X16952Y3968D01*
X16965Y4034D01*
X16952Y4099D01*
X16915Y4154D01*
X16859Y4191D01*
X16794Y4204D01*
D02*
G37*
G36*
X16220Y3960D02*
X16155Y3947D01*
X16100Y3910D01*
X16063Y3855D01*
X16061Y3846D01*
X16007Y3830D01*
X15945Y3842D01*
X15872Y3828D01*
X15810Y3786D01*
X15769Y3725D01*
X15754Y3652D01*
X15769Y3579D01*
X15810Y3517D01*
X15827Y3505D01*
X15829Y3485D01*
X15822Y3449D01*
X15775Y3418D01*
X15738Y3363D01*
X15725Y3297D01*
X15738Y3232D01*
X15775Y3177D01*
Y3152D01*
X15738Y3097D01*
X15725Y3031D01*
X15738Y2966D01*
X15775Y2911D01*
X15830Y2874D01*
X15896Y2861D01*
X15961Y2874D01*
X16016Y2911D01*
X16053Y2966D01*
X16066Y3031D01*
X16053Y3097D01*
X16016Y3152D01*
Y3177D01*
X16053Y3232D01*
X16066Y3297D01*
X16053Y3363D01*
X16016Y3418D01*
X16009Y3423D01*
X16018Y3475D01*
X16080Y3517D01*
X16121Y3579D01*
X16129Y3621D01*
X16155Y3632D01*
X16220Y3619D01*
X16286Y3632D01*
X16341Y3669D01*
X16378Y3724D01*
X16391Y3789D01*
X16378Y3855D01*
X16341Y3910D01*
X16286Y3947D01*
X16220Y3960D01*
D02*
G37*
G36*
X17205Y2926D02*
X17140Y2913D01*
X17085Y2876D01*
X17048Y2821D01*
X17035Y2755D01*
X17041Y2725D01*
X16998Y2684D01*
X16963Y2691D01*
X16898Y2678D01*
X16842Y2641D01*
X16805Y2586D01*
X16793Y2520D01*
X16805Y2455D01*
X16842Y2400D01*
X16898Y2363D01*
X16963Y2350D01*
X17028Y2363D01*
X17084Y2400D01*
X17121Y2455D01*
X17134Y2520D01*
X17128Y2550D01*
X17171Y2592D01*
X17205Y2585D01*
X17271Y2598D01*
X17326Y2635D01*
X17363Y2690D01*
X17376Y2755D01*
X17363Y2821D01*
X17326Y2876D01*
X17271Y2913D01*
X17205Y2926D01*
D02*
G37*
G36*
X15266Y2858D02*
X15200Y2845D01*
X15145Y2808D01*
X15108Y2752D01*
X15095Y2687D01*
X15108Y2622D01*
X15145Y2566D01*
X15200Y2529D01*
X15266Y2516D01*
X15331Y2529D01*
X15386Y2566D01*
X15423Y2622D01*
X15436Y2687D01*
X15423Y2752D01*
X15386Y2808D01*
X15331Y2845D01*
X15266Y2858D01*
D02*
G37*
G36*
X935Y4757D02*
X870Y4744D01*
X814Y4707D01*
X777Y4652D01*
X721Y4625D01*
X699Y4629D01*
X634Y4616D01*
X578Y4579D01*
X541Y4524D01*
X528Y4459D01*
X541Y4393D01*
X578Y4338D01*
X634Y4301D01*
X699Y4288D01*
X764Y4301D01*
X819Y4338D01*
X856Y4393D01*
X913Y4420D01*
X935Y4416D01*
X1000Y4429D01*
X1056Y4466D01*
X1093Y4521D01*
X1106Y4587D01*
X1093Y4652D01*
X1056Y4707D01*
X1000Y4744D01*
X935Y4757D01*
D02*
G37*
G36*
X1024Y4344D02*
X958Y4331D01*
X903Y4294D01*
X866Y4239D01*
X853Y4173D01*
X866Y4108D01*
X903Y4053D01*
X958Y4016D01*
X1024Y4003D01*
X1089Y4016D01*
X1144Y4053D01*
X1181Y4108D01*
X1194Y4173D01*
X1181Y4239D01*
X1144Y4294D01*
X1089Y4331D01*
X1024Y4344D01*
D02*
G37*
G36*
X1959Y2848D02*
X1886Y2834D01*
X1824Y2792D01*
X1782Y2730D01*
X1768Y2657D01*
X1782Y2585D01*
X1824Y2523D01*
X1886Y2481D01*
X1959Y2467D01*
X2032Y2481D01*
X2093Y2523D01*
X2135Y2585D01*
X2149Y2657D01*
X2135Y2730D01*
X2093Y2792D01*
X2032Y2834D01*
X1959Y2848D01*
D02*
G37*
G36*
X600Y2720D02*
X527Y2706D01*
X466Y2664D01*
X424Y2603D01*
X410Y2530D01*
X424Y2457D01*
X466Y2395D01*
X527Y2353D01*
X600Y2339D01*
X673Y2353D01*
X735Y2395D01*
X777Y2457D01*
X791Y2530D01*
X777Y2603D01*
X735Y2664D01*
X673Y2706D01*
X600Y2720D01*
D02*
G37*
G36*
X8606Y1438D02*
X8541Y1425D01*
X8499Y1398D01*
X8485Y1388D01*
X8427Y1391D01*
X8402Y1408D01*
X8337Y1421D01*
X8271Y1408D01*
X8216Y1371D01*
X8179Y1315D01*
X8166Y1250D01*
X8179Y1185D01*
X8216Y1129D01*
X8271Y1092D01*
X8337Y1079D01*
X8402Y1092D01*
X8444Y1120D01*
X8458Y1129D01*
X8516Y1127D01*
X8541Y1110D01*
X8606Y1097D01*
X8672Y1110D01*
X8727Y1147D01*
X8764Y1202D01*
X8777Y1268D01*
X8764Y1333D01*
X8727Y1388D01*
X8672Y1425D01*
X8606Y1438D01*
D02*
G37*
G36*
X6713Y1440D02*
X6647Y1427D01*
X6592Y1390D01*
X6555Y1335D01*
X6542Y1270D01*
X6555Y1204D01*
X6592Y1149D01*
X6647Y1112D01*
X6713Y1099D01*
X6778Y1112D01*
X6833Y1149D01*
X6870Y1204D01*
X6883Y1270D01*
X6870Y1335D01*
X6833Y1390D01*
X6778Y1427D01*
X6713Y1440D01*
D02*
G37*
G36*
X12323Y1155D02*
X12258Y1142D01*
X12202Y1105D01*
X12165Y1050D01*
X12152Y984D01*
X12165Y919D01*
X12202Y864D01*
X12258Y827D01*
X12323Y814D01*
X12388Y827D01*
X12443Y864D01*
X12480Y919D01*
X12493Y984D01*
X12480Y1050D01*
X12443Y1105D01*
X12388Y1142D01*
X12323Y1155D01*
D02*
G37*
G36*
X16398Y840D02*
X16332Y827D01*
X16277Y790D01*
X16240Y735D01*
X16227Y669D01*
X16240Y604D01*
X16277Y549D01*
X16332Y512D01*
X16398Y499D01*
X16457Y510D01*
X16502Y482D01*
X16502Y482D01*
X16517Y409D01*
X16558Y347D01*
X16620Y306D01*
X16693Y292D01*
X16766Y306D01*
X16828Y347D01*
X16869Y409D01*
X16884Y482D01*
X16869Y555D01*
X16828Y617D01*
X16766Y658D01*
X16693Y673D01*
X16620Y658D01*
X16617Y656D01*
X16600Y661D01*
X16566Y682D01*
X16555Y735D01*
X16518Y790D01*
X16463Y827D01*
X16398Y840D01*
D02*
G37*
%LPD*%
D10*
X7195Y4163D02*
X7406Y4374D01*
X8618D01*
X9243Y3749D01*
X10551Y3732D02*
X11315Y2968D01*
Y2670D02*
X11465Y2520D01*
X11315Y2670D02*
Y2968D01*
X11465Y2520D02*
X11658D01*
X9243Y3749D02*
X10089D01*
X10161Y3732D02*
X10551D01*
D11*
X9226Y1604D02*
Y2464D01*
X9970Y3209D01*
X11565Y3544D02*
Y3730D01*
X11799Y3505D02*
X13306Y1998D01*
X11799Y3505D02*
Y3698D01*
X11468Y3929D02*
Y4085D01*
X11378Y3839D02*
X11468Y3929D01*
X11378Y3536D02*
Y3839D01*
X10581Y3920D02*
Y3927D01*
Y3920D02*
X13054Y1447D01*
X22313Y7165D02*
Y10157D01*
X22451Y10295D01*
X17992Y4785D02*
Y5266D01*
Y4785D02*
X17992Y4785D01*
Y4156D02*
Y4785D01*
X17832Y3996D02*
X17992Y4156D01*
X17825Y3996D02*
X17832D01*
X9226Y1604D02*
X9226Y1604D01*
X13054Y1447D02*
X17959D01*
X15571Y1998D02*
X16093Y2520D01*
X13306Y1998D02*
X15571D01*
X12419Y5000D02*
X12628Y4791D01*
X11476Y4882D02*
X11724D01*
X12480Y3018D02*
Y4744D01*
X12362Y4862D02*
X12480Y4744D01*
X11969Y4862D02*
X12362D01*
X11724Y4882D02*
X11842Y5000D01*
X12419D01*
X12628Y3066D02*
Y4791D01*
X11929Y5374D02*
X12279D01*
X11663Y5108D02*
X11929Y5374D01*
X11860Y4754D02*
X11969Y4862D01*
X12776Y3113D02*
Y4878D01*
X12279Y5374D02*
X12776Y4878D01*
X11565Y3544D02*
X13249Y1860D01*
X12480Y3018D02*
X13353Y2146D01*
X12628Y3066D02*
X13404Y2290D01*
X14757Y2572D02*
X14794D01*
X14331Y2146D02*
X14757Y2572D01*
X13353Y2146D02*
X14331D01*
X14282Y2608D02*
X14320Y2645D01*
Y2672D01*
X14282Y2602D02*
Y2608D01*
X14108Y2427D02*
X14282Y2602D01*
X13462Y2427D02*
X14108D01*
X12776Y3113D02*
X13462Y2427D01*
X11181Y3538D02*
Y3843D01*
X11178Y3846D02*
X11181Y3843D01*
X13249Y1860D02*
X20545D01*
X11378Y3536D02*
X13192Y1722D01*
X19683D01*
X13135Y1585D02*
X18821D01*
X11181Y3538D02*
X13135Y1585D01*
X18108Y5382D02*
Y6667D01*
X17992Y5266D02*
X18108Y5382D01*
X17521Y7254D02*
X18108Y6667D01*
X14253Y2290D02*
X14558Y2594D01*
Y2647D01*
X13404Y2290D02*
X14253D01*
X16285Y9154D02*
X16663D01*
X20545Y1860D02*
X21894Y512D01*
X18821Y1585D02*
X19894Y512D01*
X19683Y1722D02*
X20894Y512D01*
X17959Y1447D02*
X18971Y435D01*
X19193Y8839D02*
X20079Y9724D01*
X17441Y8839D02*
X19193D01*
X16939Y9341D02*
X17441Y8839D01*
X13504Y9341D02*
X16939D01*
X13159Y8996D02*
X13504Y9341D01*
X15679Y8337D02*
Y8548D01*
X16285Y9154D01*
X15679Y8337D02*
X16762Y7254D01*
X17521D01*
D13*
X23259Y15766D02*
X23338Y15845D01*
X23495D01*
X23574Y15766D01*
Y15687D01*
X23495Y15609D01*
X23417D01*
X23495D01*
X23574Y15530D01*
Y15451D01*
X23495Y15372D01*
X23338D01*
X23259Y15451D01*
D15*
X8367Y8642D02*
X8495Y8514D01*
X7605Y8642D02*
X8367D01*
X8243Y9366D02*
X8328Y9281D01*
X8196Y9163D02*
X9506D01*
X8007Y9352D02*
X8196Y9163D01*
X7928Y9131D02*
Y9145D01*
Y9131D02*
X8013Y9045D01*
X9555D01*
X9506Y9163D02*
X11474Y11132D01*
X8243Y9366D02*
X8275D01*
X9555Y9045D02*
X11513Y11004D01*
X8328Y9281D02*
X9457D01*
X11435Y11260D01*
X8878Y8809D02*
X9486D01*
X23731Y11557D02*
X23750Y11538D01*
X7722Y8847D02*
X7728Y8842D01*
X9486Y8809D02*
X11552Y10876D01*
X8628Y8632D02*
X9475D01*
X7728Y8842D02*
X8418D01*
X8628Y8632D01*
X8495Y8514D02*
X9524D01*
X8386Y8396D02*
X9573D01*
X8278Y8287D02*
X8386Y8396D01*
X7982Y7992D02*
X8238D01*
X8524Y8278D02*
X9622D01*
X8238Y7992D02*
X8524Y8278D01*
X8238Y7815D02*
X8583Y8159D01*
X7766Y7815D02*
X8238D01*
X7756Y7825D02*
X7766Y7815D01*
X23483Y10986D02*
X23711D01*
X22933Y11978D02*
X23079Y12124D01*
X23858D01*
X23688Y11931D02*
X23711D01*
X23617Y11860D02*
X23688Y11931D01*
X18161Y11860D02*
X23617D01*
X18259Y11624D02*
X23625D01*
X23711Y11538D01*
X18210Y11742D02*
X23866D01*
X22689Y14431D02*
X23711D01*
X22412Y13486D02*
X23711D01*
X22629Y14038D02*
X23711D01*
X22353Y13093D02*
X23711D01*
X8007Y9352D02*
Y9367D01*
X9671Y8159D02*
X11098Y9587D01*
X9573Y8396D02*
X11000Y9823D01*
X9720Y8041D02*
X11147Y9469D01*
X8667Y7986D02*
X8723Y8041D01*
X9524Y8514D02*
X10952Y9941D01*
X9622Y8278D02*
X11049Y9705D01*
X8723Y8041D02*
X9720D01*
X9475Y8632D02*
X10903Y10059D01*
X9055Y7844D02*
X9774D01*
X8667Y7986D02*
X8667D01*
X8583Y8159D02*
X9671D01*
X8567Y7885D02*
X8667Y7986D01*
X9774Y7844D02*
X10400Y8471D01*
X11552Y10876D02*
X15723D01*
X15891Y11043D01*
X15409Y11004D02*
X15409Y11004D01*
X15669D02*
X15827Y11161D01*
X11513Y11004D02*
X15409D01*
X15409Y11004D02*
X15669D01*
X15618Y11132D02*
X15765Y11279D01*
X11435Y11260D02*
X15579D01*
X15717Y11397D01*
X11474Y11132D02*
X15618D01*
X8416Y9528D02*
X8514Y9429D01*
X9438D01*
X9341Y9606D02*
X9352Y9617D01*
X9459D01*
X11357Y11516D01*
X9459Y9990D02*
X9460Y9991D01*
X9675Y10167D02*
X11259Y11752D01*
X8910Y10048D02*
X9148Y10285D01*
X9626D01*
X9665Y9991D02*
X11308Y11634D01*
X8711Y10177D02*
X8937Y10404D01*
X9577D02*
X11161Y11988D01*
X9321Y10167D02*
X9675D01*
X9161Y10007D02*
X9321Y10167D01*
X9626Y10285D02*
X11210Y11870D01*
X8937Y10404D02*
X9577D01*
X9460Y9991D02*
X9665D01*
X11357Y11516D02*
X15501D01*
X11147Y9469D02*
X16772D01*
X10952Y9941D02*
X16576D01*
X11049Y9705D02*
X16674D01*
X9438Y9429D02*
X11396Y11388D01*
X15540D01*
X11098Y9587D02*
X16723D01*
X11000Y9823D02*
X16625D01*
X11308Y11634D02*
X15452D01*
X10903Y10059D02*
X16527D01*
X8814Y9611D02*
X8961D01*
X9124Y9774D01*
X8711Y9715D02*
Y10177D01*
Y9715D02*
X8814Y9611D01*
X11683Y8533D02*
X12077Y8140D01*
X15659D01*
X11161Y11988D02*
X15305D01*
X11210Y11870D02*
X15354D01*
X11259Y11752D02*
X15403D01*
X15452Y11634D02*
X15570Y11752D01*
X15501Y11516D02*
X15619Y11634D01*
X15403Y11752D02*
X15521Y11870D01*
X15354Y11870D02*
X15472Y11988D01*
X21112Y12687D02*
X22659Y14235D01*
X23858D01*
X15668Y11516D02*
X17148D01*
X15521Y11870D02*
X17002D01*
X18112Y11978D02*
X22933D01*
X16527Y10059D02*
X18210Y11742D01*
X15765Y11279D02*
X17246D01*
X15827Y11161D02*
X17295D01*
X17721Y12923D02*
X21014D01*
X18308Y11506D02*
X23131D01*
X17917Y12451D02*
X21209D01*
X15619Y11634D02*
X17099D01*
X17344Y11043D02*
X18161Y11860D01*
X17002Y11870D02*
X17819Y12687D01*
X15717Y11397D02*
X17197D01*
X16723Y9587D02*
X18406Y11270D01*
X16904Y12106D02*
X17721Y12923D01*
X17966Y12333D02*
X21258D01*
X17868Y12569D02*
X21161D01*
X18357Y11388D02*
X23082D01*
X17770Y12805D02*
X21063D01*
X16953Y11988D02*
X17770Y12805D01*
X15423Y12106D02*
X16904D01*
X16576Y9941D02*
X18259Y11624D01*
X17099Y11634D02*
X17917Y12451D01*
X17246Y11279D02*
X18063Y12096D01*
X17295Y11161D02*
X18112Y11978D01*
X17148Y11516D02*
X17966Y12333D01*
X15891Y11043D02*
X17344D01*
X17197Y11397D02*
X18014Y12215D01*
X16625Y9823D02*
X18308Y11506D01*
X18014Y12215D02*
X21307D01*
X15472Y11988D02*
X16953D01*
X18406Y11270D02*
X23033D01*
X16772Y9469D02*
X18455Y11152D01*
X17051Y11752D02*
X17868Y12569D01*
X15570Y11752D02*
X17051D01*
X18455Y11152D02*
X22984D01*
X16674Y9705D02*
X18357Y11388D01*
X18063Y12096D02*
X21356D01*
X17819Y12687D02*
X21112D01*
X8907Y10048D02*
X8910D01*
X15540Y11388D02*
X15668Y11516D01*
X15305Y11988D02*
X15423Y12106D01*
X21258Y12333D02*
X22412Y13486D01*
X21063Y12805D02*
X22689Y14431D01*
X21307Y12215D02*
X22382Y13290D01*
X21356Y12096D02*
X22353Y13093D01*
X21014Y12923D02*
X22714Y14624D01*
X21209Y12451D02*
X22438Y13679D01*
X21161Y12569D02*
X22629Y14038D01*
X15659Y8140D02*
X16771Y7028D01*
X22382Y13290D02*
X23858D01*
X22438Y13679D02*
X23858D01*
X22714Y14624D02*
X23858D01*
X16771Y7028D02*
X17461D01*
X23033Y11270D02*
X23513Y10790D01*
X22984Y11152D02*
X23543Y10593D01*
X23131Y11506D02*
X23458Y11179D01*
X23858D01*
X23082Y11388D02*
X23483Y10986D01*
X23513Y10790D02*
X23859D01*
X23543Y10593D02*
X23711D01*
D85*
X13780Y2624D02*
X14079Y2923D01*
X14203D01*
D90*
X21894Y512D02*
D03*
X20894D02*
D03*
X23894D02*
D03*
X19894D02*
D03*
X18894D02*
D03*
D92*
X679Y4724D02*
D03*
X11663Y9045D02*
D03*
X21398Y10787D02*
D03*
X8829Y7618D02*
D03*
X18878Y15374D02*
D03*
X5305Y12165D02*
D03*
X5020Y12776D02*
D03*
X12372Y10561D02*
D03*
X22549Y6831D02*
D03*
X4734Y2825D02*
D03*
X8868Y4852D02*
D03*
X12126Y4596D02*
D03*
X4213Y9921D02*
D03*
X305Y4724D02*
D03*
X1260Y10443D02*
D03*
X965D02*
D03*
X561Y10906D02*
D03*
Y10610D02*
D03*
X3760Y5482D02*
D03*
X10837Y8652D02*
D03*
X6181Y13012D02*
D03*
X8228Y14744D02*
D03*
X3917Y15748D02*
D03*
X12520Y13238D02*
D03*
X18533Y9764D02*
D03*
X13159Y1093D02*
D03*
X11516Y15305D02*
D03*
X22411Y2293D02*
D03*
X18553Y6329D02*
D03*
X14026Y2638D02*
D03*
X3740Y3888D02*
D03*
D93*
X14400Y10669D02*
D03*
X8243Y9366D02*
D03*
X8878Y8809D02*
D03*
X8278Y8287D02*
D03*
X7982Y7992D02*
D03*
X7756Y7825D02*
D03*
X10717Y3288D02*
D03*
X11565Y3730D02*
D03*
X11799Y3698D02*
D03*
X10581Y3927D02*
D03*
X22451Y10295D02*
D03*
X23711Y10986D02*
D03*
X23858Y12124D02*
D03*
X23711Y14431D02*
D03*
Y14038D02*
D03*
Y13486D02*
D03*
Y13093D02*
D03*
Y11931D02*
D03*
X17825Y3996D02*
D03*
X8007Y9367D02*
D03*
X7928Y9145D02*
D03*
X9055Y7844D02*
D03*
X9616Y6476D02*
D03*
X10492Y6870D02*
D03*
X15157Y16161D02*
D03*
X14685Y15098D02*
D03*
X16201Y15177D02*
D03*
X4252Y12397D02*
D03*
X4744Y10876D02*
D03*
X22559Y6102D02*
D03*
X22313Y7165D02*
D03*
X7987Y3528D02*
D03*
X9845Y2805D02*
D03*
X12217Y6959D02*
D03*
X9226Y1604D02*
D03*
X8553Y1014D02*
D03*
X7195Y4163D02*
D03*
X12962Y1171D02*
D03*
X11083Y7323D02*
D03*
X7392Y1654D02*
D03*
X8415Y1661D02*
D03*
X20217Y14862D02*
D03*
X17392Y9793D02*
D03*
X16093Y2520D02*
D03*
X15709Y3455D02*
D03*
X11658Y2520D02*
D03*
X12185Y1870D02*
D03*
X9970Y3209D02*
D03*
X11860Y4754D02*
D03*
X11663Y5108D02*
D03*
X11476Y4882D02*
D03*
X14794Y2572D02*
D03*
X14320Y2672D02*
D03*
X11178Y3846D02*
D03*
X11468Y4085D02*
D03*
X13366Y2874D02*
D03*
X4469Y10591D02*
D03*
X3809Y8927D02*
D03*
X8567Y7885D02*
D03*
X10400Y8471D02*
D03*
X9459Y9990D02*
D03*
X9341Y9606D02*
D03*
X9161Y10007D02*
D03*
X9124Y9774D02*
D03*
X3848Y10305D02*
D03*
X7605Y8642D02*
D03*
X7722Y8847D02*
D03*
X1112Y4409D02*
D03*
X1988D02*
D03*
X10955Y7815D02*
D03*
X8416Y9528D02*
D03*
X23859Y14235D02*
D03*
X16663Y9154D02*
D03*
X13780Y2624D02*
D03*
X15138Y6427D02*
D03*
Y8484D02*
D03*
X8907Y10048D02*
D03*
X12726Y10246D02*
D03*
X20079Y9724D02*
D03*
X13159Y8996D02*
D03*
X22372Y12844D02*
D03*
X15669Y13583D02*
D03*
X21201Y2480D02*
D03*
X15443Y6467D02*
D03*
X23209Y12815D02*
D03*
X23179Y15000D02*
D03*
X20276Y5108D02*
D03*
X15915Y8435D02*
D03*
X23858Y14624D02*
D03*
X23866Y11739D02*
D03*
X23711Y11538D02*
D03*
X23858Y11179D02*
D03*
X23859Y10790D02*
D03*
X23858Y13679D02*
D03*
X23859Y13290D02*
D03*
X14558Y2647D02*
D03*
X14292Y12520D02*
D03*
X17458Y8172D02*
D03*
X10089Y3749D02*
D03*
X13508Y14261D02*
D03*
X16841Y3596D02*
D03*
X23711Y10593D02*
D03*
X17461Y7028D02*
D03*
X11683Y8533D02*
D03*
X3819Y8150D02*
D03*
M02*
