G04*
G04 #@! TF.GenerationSoftware,Altium Limited,Altium Designer,22.6.1 (34)*
G04*
G04 Layer_Color=8421504*
%FSLAX24Y24*%
%MOIN*%
G70*
G04*
G04 #@! TF.SameCoordinates,BFD713BD-E5D5-4BF8-98F0-1AC20243F701*
G04*
G04*
G04 #@! TF.FilePolarity,Positive*
G04*
G01*
G75*
%ADD17C,0.0118*%
%ADD18R,0.0118X0.0394*%
%ADD19R,0.0157X0.0512*%
%ADD20R,0.0374X0.0217*%
%ADD21R,0.0610X0.0138*%
%ADD22R,0.0576X0.0110*%
%ADD23R,0.0110X0.0576*%
%ADD24R,0.0098X0.0315*%
%ADD25R,0.0929X0.0646*%
%ADD26R,0.0709X0.0630*%
%ADD27R,0.0533X0.0110*%
%ADD28R,0.0110X0.0533*%
%ADD29R,0.1630X0.1630*%
%ADD30R,0.0453X0.0079*%
%ADD31R,0.0492X0.0079*%
%ADD32R,0.0354X0.0315*%
%ADD33R,0.0197X0.0236*%
%ADD34R,0.0098X0.0276*%
%ADD35R,0.0917X0.0650*%
%ADD36R,0.0512X0.1339*%
%ADD37R,0.0236X0.0197*%
%ADD38R,0.0551X0.0394*%
%ADD39R,0.0394X0.0256*%
%ADD40R,0.0256X0.0394*%
%ADD41R,0.0256X0.0354*%
%ADD42R,0.0354X0.0256*%
%ADD43R,0.0217X0.0374*%
G36*
X9191Y6581D02*
X8726D01*
Y7045D01*
X9191D01*
Y6581D01*
D02*
G37*
G36*
X8648D02*
X8183D01*
Y7045D01*
X8648D01*
Y6581D01*
D02*
G37*
G36*
X8104D02*
X7640D01*
Y7045D01*
X8104D01*
Y6581D01*
D02*
G37*
G36*
X9191Y6037D02*
X8726D01*
Y6502D01*
X9191D01*
Y6037D01*
D02*
G37*
G36*
X8648D02*
X8183D01*
Y6502D01*
X8648D01*
Y6037D01*
D02*
G37*
G36*
X8104D02*
X7640D01*
Y6502D01*
X8104D01*
Y6037D01*
D02*
G37*
G36*
X9191Y5494D02*
X8726D01*
Y5959D01*
X9191D01*
Y5494D01*
D02*
G37*
G36*
X8648D02*
X8183D01*
Y5959D01*
X8648D01*
Y5494D01*
D02*
G37*
G36*
X8104D02*
X7640D01*
Y5959D01*
X8104D01*
Y5494D01*
D02*
G37*
D17*
X463Y8937D02*
G03*
X463Y8937I-59J0D01*
G01*
X23898Y1762D02*
G03*
X23898Y1762I-59J0D01*
G01*
X23691Y14961D02*
G03*
X23691Y14961I-59J0D01*
G01*
D18*
X17067Y14055D02*
D03*
X16870D02*
D03*
X17264D02*
D03*
X16870Y15276D02*
D03*
X17067D02*
D03*
X17657Y14055D02*
D03*
X17854D02*
D03*
X17461D02*
D03*
X18051D02*
D03*
X18248D02*
D03*
X17657Y15276D02*
D03*
X17264D02*
D03*
X17461D02*
D03*
X17854D02*
D03*
X18248D02*
D03*
X18051D02*
D03*
D19*
X14360Y14892D02*
D03*
X14104D02*
D03*
X13848D02*
D03*
X14360Y13159D02*
D03*
X13848D02*
D03*
X14104D02*
D03*
X13593Y14892D02*
D03*
Y13159D02*
D03*
X15276D02*
D03*
X15020D02*
D03*
Y14892D02*
D03*
X15787Y13159D02*
D03*
X15531D02*
D03*
X15787Y14892D02*
D03*
X15276D02*
D03*
X15531D02*
D03*
D20*
X23268Y3583D02*
D03*
Y3268D02*
D03*
Y2638D02*
D03*
Y2953D02*
D03*
X22559Y3583D02*
D03*
Y3268D02*
D03*
Y2638D02*
D03*
Y2953D02*
D03*
Y5118D02*
D03*
Y4803D02*
D03*
Y4488D02*
D03*
Y4173D02*
D03*
X23268Y5118D02*
D03*
Y4803D02*
D03*
Y4488D02*
D03*
Y4173D02*
D03*
D21*
X6594Y14961D02*
D03*
Y14705D02*
D03*
Y15217D02*
D03*
Y14193D02*
D03*
Y14449D02*
D03*
Y13937D02*
D03*
Y13681D02*
D03*
X4331Y13937D02*
D03*
Y14193D02*
D03*
Y14961D02*
D03*
Y15217D02*
D03*
Y14449D02*
D03*
Y14705D02*
D03*
Y13681D02*
D03*
D22*
X11827Y14409D02*
D03*
Y14016D02*
D03*
Y13819D02*
D03*
Y14213D02*
D03*
Y13622D02*
D03*
Y13425D02*
D03*
Y13228D02*
D03*
Y12835D02*
D03*
Y12638D02*
D03*
Y13032D02*
D03*
Y12441D02*
D03*
Y12244D02*
D03*
X8507Y14409D02*
D03*
Y14016D02*
D03*
Y13819D02*
D03*
Y14213D02*
D03*
Y13622D02*
D03*
Y13425D02*
D03*
Y13228D02*
D03*
Y12835D02*
D03*
Y12638D02*
D03*
Y13032D02*
D03*
Y12441D02*
D03*
Y12244D02*
D03*
D23*
X11053Y14987D02*
D03*
X11250D02*
D03*
X10659D02*
D03*
X10856D02*
D03*
X10463D02*
D03*
X10266D02*
D03*
X11053Y11667D02*
D03*
X11250D02*
D03*
X10659D02*
D03*
X10856D02*
D03*
X10463D02*
D03*
X10266D02*
D03*
X9872Y14987D02*
D03*
X10069D02*
D03*
X9478D02*
D03*
X9675D02*
D03*
X9281D02*
D03*
X9085D02*
D03*
X9872Y11667D02*
D03*
X10069D02*
D03*
X9478D02*
D03*
X9675D02*
D03*
X9281D02*
D03*
X9085D02*
D03*
D24*
X2874Y6514D02*
D03*
X2480D02*
D03*
X2283D02*
D03*
X2677D02*
D03*
X2480Y5376D02*
D03*
X2874D02*
D03*
X2677D02*
D03*
X2283D02*
D03*
D25*
X2579Y5945D02*
D03*
D26*
X2575Y3543D02*
D03*
Y1890D02*
D03*
X575Y3543D02*
D03*
Y1890D02*
D03*
D27*
X12617Y9518D02*
D03*
Y9715D02*
D03*
Y8927D02*
D03*
Y8730D02*
D03*
Y9124D02*
D03*
Y8337D02*
D03*
Y8140D02*
D03*
Y8533D02*
D03*
Y9321D02*
D03*
Y7746D02*
D03*
Y7943D02*
D03*
Y7156D02*
D03*
Y6959D02*
D03*
Y7352D02*
D03*
Y6565D02*
D03*
Y6368D02*
D03*
Y6762D02*
D03*
Y7549D02*
D03*
Y5974D02*
D03*
Y5778D02*
D03*
Y6171D02*
D03*
Y5187D02*
D03*
Y4990D02*
D03*
Y5384D02*
D03*
Y4596D02*
D03*
Y4400D02*
D03*
Y4793D02*
D03*
Y5581D02*
D03*
Y4006D02*
D03*
Y4203D02*
D03*
Y3809D02*
D03*
Y3415D02*
D03*
Y3612D02*
D03*
Y3022D02*
D03*
Y2825D02*
D03*
Y3219D02*
D03*
X4214Y9518D02*
D03*
Y9715D02*
D03*
Y9321D02*
D03*
Y8927D02*
D03*
Y8730D02*
D03*
Y9124D02*
D03*
Y8337D02*
D03*
Y8140D02*
D03*
Y8533D02*
D03*
Y7746D02*
D03*
Y7943D02*
D03*
Y7549D02*
D03*
Y7156D02*
D03*
Y6959D02*
D03*
Y7352D02*
D03*
Y6565D02*
D03*
Y6368D02*
D03*
Y6762D02*
D03*
Y5974D02*
D03*
Y5778D02*
D03*
Y6171D02*
D03*
Y5187D02*
D03*
Y4990D02*
D03*
Y5384D02*
D03*
Y4596D02*
D03*
Y4400D02*
D03*
Y4793D02*
D03*
Y5581D02*
D03*
Y4006D02*
D03*
Y4203D02*
D03*
Y3809D02*
D03*
Y3415D02*
D03*
Y3612D02*
D03*
Y3022D02*
D03*
Y2825D02*
D03*
Y3219D02*
D03*
D28*
X11860Y10471D02*
D03*
X11073D02*
D03*
X11270D02*
D03*
X10876D02*
D03*
X11663D02*
D03*
X11467D02*
D03*
X9892D02*
D03*
X10089D02*
D03*
X9695D02*
D03*
X10482D02*
D03*
X10679D02*
D03*
X10285D02*
D03*
X9301D02*
D03*
X9498D02*
D03*
X9104D02*
D03*
X8711D02*
D03*
X8907D02*
D03*
X8514D02*
D03*
X11860Y2068D02*
D03*
X10876D02*
D03*
X11073D02*
D03*
X10679D02*
D03*
X11467D02*
D03*
X11663D02*
D03*
X11270D02*
D03*
X9695D02*
D03*
X9892D02*
D03*
X9498D02*
D03*
X10285D02*
D03*
X10482D02*
D03*
X10089D02*
D03*
X9104D02*
D03*
X9301D02*
D03*
X8907D02*
D03*
X8711D02*
D03*
X8514D02*
D03*
X7530Y10471D02*
D03*
X7726D02*
D03*
X7333D02*
D03*
X8120D02*
D03*
X8317D02*
D03*
X7923D02*
D03*
X6545D02*
D03*
X6742D02*
D03*
X6348D02*
D03*
X7136D02*
D03*
X6939D02*
D03*
X6152D02*
D03*
X5955D02*
D03*
X5167D02*
D03*
X5364D02*
D03*
X4970D02*
D03*
X5758D02*
D03*
X5561D02*
D03*
X7726Y2068D02*
D03*
X7923D02*
D03*
X7530D02*
D03*
X8120D02*
D03*
X8317D02*
D03*
X6742D02*
D03*
X6939D02*
D03*
X6545D02*
D03*
X7136D02*
D03*
X7333D02*
D03*
X6152D02*
D03*
X6348D02*
D03*
X5955D02*
D03*
X5167D02*
D03*
X5364D02*
D03*
X4970D02*
D03*
X5758D02*
D03*
X5561D02*
D03*
D29*
X8415Y6270D02*
D03*
D30*
X23297Y14095D02*
D03*
Y13937D02*
D03*
Y14252D02*
D03*
Y13622D02*
D03*
Y13780D02*
D03*
Y14409D02*
D03*
Y14567D02*
D03*
Y13307D02*
D03*
Y13465D02*
D03*
X22530Y13780D02*
D03*
Y13937D02*
D03*
Y14409D02*
D03*
Y14567D02*
D03*
Y14095D02*
D03*
Y14252D02*
D03*
Y13150D02*
D03*
Y13622D02*
D03*
Y13307D02*
D03*
Y13465D02*
D03*
Y12067D02*
D03*
Y11909D02*
D03*
Y11752D02*
D03*
Y11594D02*
D03*
Y11437D02*
D03*
Y11280D02*
D03*
Y11122D02*
D03*
Y10965D02*
D03*
Y10807D02*
D03*
Y10650D02*
D03*
X23297Y11122D02*
D03*
Y11280D02*
D03*
Y10965D02*
D03*
Y10807D02*
D03*
Y11437D02*
D03*
Y12067D02*
D03*
Y11909D02*
D03*
Y11752D02*
D03*
Y11594D02*
D03*
D31*
X23278Y13150D02*
D03*
Y10650D02*
D03*
D32*
X23494Y7874D02*
D03*
Y7126D02*
D03*
X22707Y7500D02*
D03*
X23494Y6083D02*
D03*
X22707Y6457D02*
D03*
Y5709D02*
D03*
D33*
X22500Y15010D02*
D03*
X22933D02*
D03*
X1742Y11604D02*
D03*
X2175D02*
D03*
X354Y7657D02*
D03*
X787D02*
D03*
X787Y7992D02*
D03*
X1220D02*
D03*
X1043Y4872D02*
D03*
X1476D02*
D03*
X5679Y14390D02*
D03*
X5246D02*
D03*
X5679Y13937D02*
D03*
X5246D02*
D03*
X5679Y13484D02*
D03*
X5246D02*
D03*
X7382Y11486D02*
D03*
X7815D02*
D03*
X8120D02*
D03*
X8553D02*
D03*
X13366Y12579D02*
D03*
X13799D02*
D03*
X13366Y12234D02*
D03*
X13799D02*
D03*
X6476Y15811D02*
D03*
X6909D02*
D03*
X14547Y12234D02*
D03*
X14114D02*
D03*
X14055Y15472D02*
D03*
X13622D02*
D03*
X14055Y15817D02*
D03*
X13622D02*
D03*
X15157Y15906D02*
D03*
X14724D02*
D03*
X16093Y15472D02*
D03*
X15659D02*
D03*
X15285Y12579D02*
D03*
X15718D02*
D03*
X14980D02*
D03*
X14547D02*
D03*
X14862Y16467D02*
D03*
X15295D02*
D03*
X14833Y15472D02*
D03*
X15266D02*
D03*
X16398Y945D02*
D03*
X16831D02*
D03*
X14596Y11309D02*
D03*
X14163D02*
D03*
X13868Y11309D02*
D03*
X13435D02*
D03*
X4252Y15768D02*
D03*
X4685D02*
D03*
X7815Y12175D02*
D03*
X7382D02*
D03*
X7815Y11831D02*
D03*
X7382D02*
D03*
X22382Y12530D02*
D03*
X22815D02*
D03*
X23642D02*
D03*
X23209D02*
D03*
X23327Y10148D02*
D03*
X22894D02*
D03*
X3219Y3219D02*
D03*
X3652D02*
D03*
X8553Y11142D02*
D03*
X8120D02*
D03*
X3228Y2825D02*
D03*
X3661D02*
D03*
X758Y4163D02*
D03*
X325D02*
D03*
D34*
X2254Y10482D02*
D03*
X2057D02*
D03*
X1860D02*
D03*
X1663D02*
D03*
X2254Y9360D02*
D03*
X1663D02*
D03*
X2057D02*
D03*
X1860D02*
D03*
X1467Y10482D02*
D03*
Y9360D02*
D03*
D35*
X1860Y9921D02*
D03*
D36*
X2864Y7776D02*
D03*
X2037D02*
D03*
D37*
X22165Y5640D02*
D03*
Y6073D02*
D03*
X19193Y14774D02*
D03*
Y15207D02*
D03*
X22165Y6388D02*
D03*
Y6821D02*
D03*
X23927Y7441D02*
D03*
Y7874D02*
D03*
X2756Y9803D02*
D03*
Y9370D02*
D03*
X4626Y12657D02*
D03*
Y13091D02*
D03*
X4252D02*
D03*
Y12657D02*
D03*
X7372Y14360D02*
D03*
Y14793D02*
D03*
X7382Y13484D02*
D03*
Y13917D02*
D03*
X7028Y13032D02*
D03*
Y12598D02*
D03*
X7746Y14360D02*
D03*
Y14793D02*
D03*
X7756Y13484D02*
D03*
Y13917D02*
D03*
X7392Y13032D02*
D03*
Y12598D02*
D03*
X12519Y14269D02*
D03*
Y14702D02*
D03*
X12520Y13533D02*
D03*
Y13967D02*
D03*
X12913Y12618D02*
D03*
Y12185D02*
D03*
X5797Y15718D02*
D03*
Y16152D02*
D03*
X14390Y15886D02*
D03*
Y15453D02*
D03*
X15659Y15807D02*
D03*
Y16240D02*
D03*
X5344Y15718D02*
D03*
Y16152D02*
D03*
X3022Y11516D02*
D03*
Y11083D02*
D03*
X6918Y11117D02*
D03*
Y11550D02*
D03*
X6378Y11112D02*
D03*
Y11545D02*
D03*
X23091Y2037D02*
D03*
Y1604D02*
D03*
X22736D02*
D03*
Y2037D02*
D03*
X22382Y1604D02*
D03*
Y2037D02*
D03*
X1752Y3976D02*
D03*
Y4409D02*
D03*
X1348Y3976D02*
D03*
Y4409D02*
D03*
X4626Y12106D02*
D03*
Y11673D02*
D03*
X4252D02*
D03*
Y12106D02*
D03*
X5305Y12490D02*
D03*
Y12923D02*
D03*
X8081Y15059D02*
D03*
Y15492D02*
D03*
X8455Y15059D02*
D03*
Y15492D02*
D03*
X12234Y15059D02*
D03*
Y15492D02*
D03*
X11880Y15059D02*
D03*
Y15492D02*
D03*
X13297Y15886D02*
D03*
Y15453D02*
D03*
X16457Y14843D02*
D03*
Y15276D02*
D03*
X16289Y13711D02*
D03*
Y13278D02*
D03*
X22028Y1604D02*
D03*
Y2037D02*
D03*
X13081Y11309D02*
D03*
Y10876D02*
D03*
X12726Y11309D02*
D03*
Y10876D02*
D03*
X4459Y11309D02*
D03*
Y10876D02*
D03*
X12372Y11309D02*
D03*
Y10876D02*
D03*
X13189Y1949D02*
D03*
Y2382D02*
D03*
D38*
X1476Y5344D02*
D03*
Y6132D02*
D03*
D39*
X906Y10138D02*
D03*
Y10748D02*
D03*
X21230Y11516D02*
D03*
Y12126D02*
D03*
X3602Y11545D02*
D03*
Y12156D02*
D03*
X20738Y11516D02*
D03*
Y12126D02*
D03*
X3337Y4291D02*
D03*
Y3681D02*
D03*
X906Y9724D02*
D03*
Y9114D02*
D03*
X1398Y6644D02*
D03*
Y7254D02*
D03*
X3573Y15148D02*
D03*
Y15758D02*
D03*
D40*
X2766Y15059D02*
D03*
X2156D02*
D03*
X2766Y15551D02*
D03*
X2156D02*
D03*
X2766Y13937D02*
D03*
X2156D02*
D03*
X2766Y14429D02*
D03*
X2156D02*
D03*
X2766Y12815D02*
D03*
X2156D02*
D03*
X2766Y13307D02*
D03*
X2156D02*
D03*
X2884Y4222D02*
D03*
X2274D02*
D03*
X3278Y2274D02*
D03*
X3888D02*
D03*
X3278Y1772D02*
D03*
X3888D02*
D03*
X1654Y11191D02*
D03*
X2264D02*
D03*
D41*
X19193Y15620D02*
D03*
X19803D02*
D03*
D42*
X5758Y12923D02*
D03*
Y12313D02*
D03*
D43*
X20906Y14882D02*
D03*
X21220D02*
D03*
X21535D02*
D03*
X21850D02*
D03*
X20906Y15591D02*
D03*
X21220D02*
D03*
X21535D02*
D03*
X21850D02*
D03*
M02*
