G04*
G04 #@! TF.GenerationSoftware,Altium Limited,Altium Designer,22.6.1 (34)*
G04*
G04 Layer_Color=65535*
%FSLAX24Y24*%
%MOIN*%
G70*
G04*
G04 #@! TF.SameCoordinates,BFD713BD-E5D5-4BF8-98F0-1AC20243F701*
G04*
G04*
G04 #@! TF.FilePolarity,Positive*
G04*
G01*
G75*
%ADD10C,0.0098*%
%ADD11C,0.0079*%
%ADD12C,0.0039*%
%ADD13C,0.0100*%
%ADD14C,0.0060*%
%ADD15C,0.0059*%
%ADD16C,0.0020*%
G36*
X10132Y16730D02*
X10133D01*
Y16729D01*
X10134D01*
Y16730D01*
X10135D01*
Y16729D01*
X10155D01*
Y16729D01*
X10156D01*
Y16728D01*
X10160D01*
Y16727D01*
X10165D01*
Y16727D01*
X10168D01*
Y16726D01*
X10175D01*
Y16725D01*
X10176D01*
Y16725D01*
X10181D01*
Y16724D01*
X10184D01*
Y16723D01*
X10185D01*
Y16723D01*
X10190D01*
Y16722D01*
X10190D01*
Y16721D01*
X10196D01*
Y16721D01*
X10196D01*
Y16720D01*
X10200D01*
Y16720D01*
X10203D01*
Y16719D01*
X10203D01*
Y16718D01*
X10209D01*
Y16718D01*
X10209D01*
Y16717D01*
X10211D01*
Y16716D01*
X10212D01*
Y16716D01*
X10213D01*
Y16715D01*
X10216D01*
Y16714D01*
X10217D01*
Y16714D01*
X10220D01*
Y16713D01*
X10222D01*
Y16712D01*
X10222D01*
Y16712D01*
X10226D01*
Y16711D01*
X10226D01*
Y16710D01*
X10229D01*
Y16710D01*
X10229D01*
Y16709D01*
X10233D01*
Y16708D01*
X10234D01*
Y16708D01*
X10235D01*
Y16707D01*
X10237D01*
Y16707D01*
X10237D01*
Y16706D01*
X10239D01*
Y16705D01*
X10240D01*
Y16705D01*
X10241D01*
Y16704D01*
X10243D01*
Y16703D01*
X10244D01*
Y16703D01*
X10246D01*
Y16702D01*
X10246D01*
Y16701D01*
X10248D01*
Y16701D01*
X10250D01*
Y16700D01*
X10250D01*
Y16699D01*
X10252D01*
Y16699D01*
X10253D01*
Y16698D01*
X10256D01*
Y16697D01*
X10256D01*
Y16697D01*
X10257D01*
Y16696D01*
X10259D01*
Y16695D01*
X10259D01*
Y16695D01*
X10261D01*
Y16694D01*
X10262D01*
Y16694D01*
X10263D01*
Y16693D01*
X10263D01*
Y16692D01*
X10265D01*
Y16692D01*
X10267D01*
Y16691D01*
X10267D01*
Y16690D01*
X10269D01*
Y16690D01*
X10270D01*
Y16689D01*
X10271D01*
Y16688D01*
X10271D01*
Y16688D01*
X10272D01*
Y16687D01*
X10274D01*
Y16686D01*
X10274D01*
Y16686D01*
X10276D01*
Y16685D01*
X10276D01*
Y16684D01*
X10278D01*
Y16684D01*
X10279D01*
Y16683D01*
X10280D01*
Y16682D01*
X10282D01*
Y16682D01*
X10282D01*
Y16681D01*
X10283D01*
Y16680D01*
X10284D01*
Y16680D01*
X10284D01*
Y16679D01*
X10285D01*
Y16679D01*
X10285D01*
Y16678D01*
X10287D01*
Y16677D01*
X10288D01*
Y16677D01*
X10289D01*
Y16676D01*
X10290D01*
Y16675D01*
X10291D01*
Y16675D01*
X10291D01*
Y16674D01*
X10292D01*
Y16673D01*
X10293D01*
Y16673D01*
X10295D01*
Y16672D01*
X10295D01*
Y16671D01*
X10296D01*
Y16671D01*
X10297D01*
Y16670D01*
X10297D01*
Y16669D01*
X10298D01*
Y16669D01*
X10299D01*
Y16668D01*
X10300D01*
Y16667D01*
X10301D01*
Y16667D01*
X10302D01*
Y16666D01*
X10302D01*
Y16666D01*
X10303D01*
Y16665D01*
X10304D01*
Y16664D01*
X10304D01*
Y16664D01*
X10305D01*
Y16663D01*
X10306D01*
Y16662D01*
X10307D01*
Y16662D01*
X10308D01*
Y16661D01*
X10308D01*
Y16660D01*
X10309D01*
Y16660D01*
X10310D01*
Y16659D01*
X10310D01*
Y16658D01*
X10311D01*
Y16658D01*
X10312D01*
Y16657D01*
X10312D01*
Y16656D01*
X10313D01*
Y16656D01*
X10315D01*
Y16654D01*
X10315D01*
Y16654D01*
X10316D01*
Y16653D01*
X10317D01*
Y16652D01*
X10318D01*
Y16651D01*
X10319D01*
Y16651D01*
X10320D01*
Y16649D01*
X10321D01*
Y16648D01*
X10323D01*
Y16647D01*
X10323D01*
Y16646D01*
X10324D01*
Y16645D01*
X10325D01*
Y16645D01*
X10325D01*
Y16644D01*
X10326D01*
Y16643D01*
X10326D01*
Y16643D01*
X10327D01*
Y16642D01*
X10328D01*
Y16641D01*
X10328D01*
Y16640D01*
X10329D01*
Y16639D01*
X10330D01*
Y16639D01*
X10330D01*
Y16638D01*
X10331D01*
Y16638D01*
X10332D01*
Y16637D01*
X10332D01*
Y16636D01*
X10333D01*
Y16635D01*
X10334D01*
Y16634D01*
X10334D01*
Y16634D01*
X10335D01*
Y16633D01*
X10336D01*
Y16632D01*
X10336D01*
Y16632D01*
X10337D01*
Y16631D01*
X10338D01*
Y16630D01*
X10338D01*
Y16630D01*
X10339D01*
Y16629D01*
X10339D01*
Y16628D01*
X10340D01*
Y16626D01*
X10341D01*
Y16626D01*
X10341D01*
Y16625D01*
X10342D01*
Y16624D01*
X10343D01*
Y16624D01*
X10343D01*
Y16623D01*
X10344D01*
Y16623D01*
X10345D01*
Y16621D01*
X10345D01*
Y16620D01*
X10346D01*
Y16619D01*
X10347D01*
Y16619D01*
X10347D01*
Y16618D01*
X10348D01*
Y16617D01*
X10349D01*
Y16616D01*
X10349D01*
Y16615D01*
X10350D01*
Y16613D01*
X10351D01*
Y16613D01*
X10351D01*
Y16612D01*
X10352D01*
Y16611D01*
X10353D01*
Y16611D01*
X10353D01*
Y16610D01*
X10354D01*
Y16609D01*
X10354D01*
Y16608D01*
X10355D01*
Y16607D01*
X10356D01*
Y16605D01*
X10356D01*
Y16604D01*
X10357D01*
Y16603D01*
X10358D01*
Y16602D01*
X10358D01*
Y16602D01*
X10359D01*
Y16600D01*
X10360D01*
Y16599D01*
X10360D01*
Y16598D01*
X10361D01*
Y16598D01*
X10362D01*
Y16596D01*
X10362D01*
Y16595D01*
X10363D01*
Y16595D01*
X10364D01*
Y16593D01*
X10364D01*
Y16591D01*
X10365D01*
Y16591D01*
X10366D01*
Y16590D01*
X10366D01*
Y16589D01*
X10367D01*
Y16587D01*
X10367D01*
Y16587D01*
X10368D01*
Y16585D01*
X10369D01*
Y16584D01*
X10369D01*
Y16583D01*
X10370D01*
Y16581D01*
X10371D01*
Y16580D01*
X10371D01*
Y16578D01*
X10372D01*
Y16578D01*
X10373D01*
Y16576D01*
X10373D01*
Y16574D01*
X10374D01*
Y16574D01*
X10375D01*
Y16572D01*
X10375D01*
Y16571D01*
X10376D01*
Y16569D01*
X10377D01*
Y16569D01*
X10377D01*
Y16567D01*
X10378D01*
Y16565D01*
X10379D01*
Y16565D01*
X10379D01*
Y16563D01*
X10380D01*
Y16562D01*
X10381D01*
Y16559D01*
X10381D01*
Y16557D01*
X10382D01*
Y16557D01*
X10382D01*
Y16554D01*
X10383D01*
Y16552D01*
X10384D01*
Y16550D01*
X10384D01*
Y16550D01*
X10385D01*
Y16548D01*
X10386D01*
Y16545D01*
X10386D01*
Y16544D01*
X10387D01*
Y16541D01*
X10388D01*
Y16540D01*
X10388D01*
Y16538D01*
X10389D01*
Y16536D01*
X10390D01*
Y16535D01*
X10390D01*
Y16531D01*
X10391D01*
Y16530D01*
X10392D01*
Y16526D01*
X10392D01*
Y16524D01*
X10393D01*
Y16523D01*
X10394D01*
Y16520D01*
X10394D01*
Y16519D01*
X10395D01*
Y16514D01*
X10395D01*
Y16513D01*
X10396D01*
Y16509D01*
X10397D01*
Y16506D01*
X10397D01*
Y16504D01*
X10398D01*
Y16496D01*
X10399D01*
Y16494D01*
X10399D01*
Y16486D01*
X10400D01*
Y16484D01*
X10401D01*
Y16475D01*
X10401D01*
Y16461D01*
X10402D01*
Y16460D01*
X10403D01*
Y16439D01*
X10402D01*
Y16438D01*
X10401D01*
Y16425D01*
X10401D01*
Y16419D01*
X10400D01*
Y16417D01*
X10399D01*
Y16416D01*
Y16415D01*
Y16409D01*
X10399D01*
Y16408D01*
X10398D01*
Y16402D01*
X10397D01*
Y16401D01*
X10397D01*
Y16397D01*
X10396D01*
Y16393D01*
X10395D01*
Y16392D01*
X10395D01*
Y16386D01*
X10394D01*
Y16385D01*
X10394D01*
Y16382D01*
X10393D01*
Y16379D01*
X10392D01*
Y16378D01*
X10392D01*
Y16375D01*
X10391D01*
Y16374D01*
X10390D01*
Y16369D01*
X10390D01*
Y16368D01*
X10389D01*
Y16367D01*
X10388D01*
Y16363D01*
X10388D01*
Y16363D01*
X10387D01*
Y16360D01*
X10386D01*
Y16358D01*
X10386D01*
Y16357D01*
X10385D01*
Y16356D01*
X10384D01*
Y16355D01*
X10384D01*
Y16352D01*
X10383D01*
Y16352D01*
X10382D01*
Y16348D01*
X10382D01*
Y16348D01*
X10381D01*
Y16347D01*
X10381D01*
Y16345D01*
X10380D01*
Y16344D01*
X10379D01*
Y16342D01*
X10379D01*
Y16341D01*
X10378D01*
Y16338D01*
X10377D01*
Y16337D01*
X10377D01*
Y16336D01*
X10376D01*
Y16334D01*
X10375D01*
Y16334D01*
X10375D01*
Y16331D01*
X10374D01*
Y16330D01*
X10373D01*
Y16330D01*
X10373D01*
Y16328D01*
X10372D01*
Y16327D01*
X10371D01*
Y16324D01*
X10371D01*
Y16324D01*
X10370D01*
Y16322D01*
X10369D01*
Y16321D01*
X10369D01*
Y16320D01*
X10368D01*
Y16319D01*
X10367D01*
Y16318D01*
X10367D01*
Y16316D01*
X10366D01*
Y16315D01*
X10366D01*
Y16314D01*
X10365D01*
Y16312D01*
X10364D01*
Y16311D01*
X10364D01*
Y16311D01*
X10363D01*
Y16310D01*
X10362D01*
Y16308D01*
X10362D01*
Y16307D01*
X10361D01*
Y16307D01*
X10360D01*
Y16306D01*
X10360D01*
Y16305D01*
X10359D01*
Y16303D01*
X10358D01*
Y16302D01*
X10358D01*
Y16302D01*
X10357D01*
Y16301D01*
X10356D01*
Y16300D01*
X10356D01*
Y16298D01*
X10355D01*
Y16298D01*
X10354D01*
Y16297D01*
X10354D01*
Y16296D01*
X10353D01*
Y16295D01*
X10353D01*
Y16293D01*
X10352D01*
Y16292D01*
X10351D01*
Y16292D01*
X10351D01*
Y16291D01*
X10350D01*
Y16290D01*
X10349D01*
Y16289D01*
X10349D01*
Y16288D01*
X10348D01*
Y16287D01*
X10347D01*
Y16287D01*
X10347D01*
Y16286D01*
X10346D01*
Y16285D01*
X10345D01*
Y16284D01*
X10345D01*
Y16283D01*
X10344D01*
Y16282D01*
X10343D01*
Y16281D01*
X10343D01*
Y16281D01*
X10342D01*
Y16280D01*
X10341D01*
Y16279D01*
X10341D01*
Y16278D01*
X10340D01*
Y16278D01*
X10339D01*
Y16277D01*
X10339D01*
Y16276D01*
X10338D01*
Y16274D01*
X10337D01*
Y16273D01*
X10336D01*
Y16272D01*
X10336D01*
Y16272D01*
X10335D01*
Y16271D01*
X10334D01*
Y16270D01*
X10334D01*
Y16270D01*
X10333D01*
Y16269D01*
X10332D01*
Y16268D01*
X10332D01*
Y16268D01*
X10331D01*
Y16267D01*
X10330D01*
Y16266D01*
X10330D01*
Y16266D01*
X10329D01*
Y16264D01*
X10328D01*
Y16263D01*
X10328D01*
Y16263D01*
X10327D01*
Y16262D01*
X10326D01*
Y16261D01*
X10326D01*
Y16261D01*
X10325D01*
Y16260D01*
X10325D01*
Y16259D01*
X10324D01*
Y16259D01*
X10323D01*
Y16258D01*
X10323D01*
Y16257D01*
X10322D01*
Y16257D01*
X10321D01*
Y16256D01*
X10321D01*
Y16255D01*
X10320D01*
Y16255D01*
X10319D01*
Y16254D01*
X10319D01*
Y16253D01*
X10318D01*
Y16253D01*
X10317D01*
Y16252D01*
X10317D01*
Y16251D01*
X10316D01*
Y16251D01*
X10315D01*
Y16250D01*
X10315D01*
Y16250D01*
X10313D01*
Y16249D01*
X10312D01*
Y16248D01*
X10312D01*
Y16248D01*
X10311D01*
Y16247D01*
X10310D01*
Y16246D01*
X10310D01*
Y16246D01*
X10309D01*
Y16245D01*
X10308D01*
Y16244D01*
X10308D01*
Y16244D01*
X10307D01*
Y16243D01*
X10306D01*
Y16242D01*
X10306D01*
Y16242D01*
X10305D01*
Y16241D01*
X10303D01*
Y16240D01*
X10302D01*
Y16240D01*
X10302D01*
Y16239D01*
X10301D01*
Y16238D01*
X10300D01*
Y16238D01*
X10300D01*
Y16237D01*
X10298D01*
Y16237D01*
X10298D01*
Y16236D01*
X10297D01*
Y16235D01*
X10297D01*
Y16235D01*
X10296D01*
Y16234D01*
X10295D01*
Y16233D01*
X10293D01*
Y16233D01*
X10293D01*
Y16232D01*
X10292D01*
Y16231D01*
X10291D01*
Y16231D01*
X10290D01*
Y16230D01*
X10289D01*
Y16229D01*
X10288D01*
Y16229D01*
X10287D01*
Y16228D01*
X10287D01*
Y16227D01*
X10286D01*
Y16227D01*
X10285D01*
Y16226D01*
X10284D01*
Y16225D01*
X10283D01*
Y16225D01*
X10282D01*
Y16224D01*
X10281D01*
Y16223D01*
X10280D01*
Y16223D01*
X10280D01*
Y16222D01*
X10278D01*
Y16222D01*
X10277D01*
Y16221D01*
X10276D01*
Y16220D01*
X10276D01*
Y16220D01*
X10275D01*
Y16219D01*
X10274D01*
Y16218D01*
X10273D01*
Y16218D01*
X10272D01*
Y16217D01*
X10271D01*
Y16216D01*
X10269D01*
Y16216D01*
X10268D01*
Y16215D01*
X10267D01*
Y16214D01*
X10265D01*
Y16214D01*
X10265D01*
Y16213D01*
X10264D01*
Y16212D01*
X10263D01*
Y16212D01*
X10261D01*
Y16211D01*
X10260D01*
Y16210D01*
X10259D01*
Y16210D01*
X10257D01*
Y16209D01*
X10257D01*
Y16209D01*
X10256D01*
Y16208D01*
X10256D01*
Y16207D01*
X10254D01*
Y16207D01*
X10253D01*
Y16206D01*
X10252D01*
Y16205D01*
X10250D01*
Y16205D01*
X10249D01*
Y16204D01*
X10247D01*
Y16203D01*
X10246D01*
Y16203D01*
X10244D01*
Y16202D01*
X10242D01*
Y16201D01*
X10241D01*
Y16201D01*
X10239D01*
Y16200D01*
X10239D01*
Y16199D01*
X10237D01*
Y16199D01*
X10235D01*
Y16198D01*
X10235D01*
Y16197D01*
X10233D01*
Y16197D01*
X10232D01*
Y16196D01*
X10229D01*
Y16195D01*
X10229D01*
Y16195D01*
X10228D01*
Y16194D01*
X10225D01*
Y16194D01*
X10224D01*
Y16193D01*
X10220D01*
Y16192D01*
X10220D01*
Y16192D01*
X10218D01*
Y16191D01*
X10216D01*
Y16190D01*
X10216D01*
Y16190D01*
X10213D01*
Y16189D01*
X10211D01*
Y16188D01*
X10207D01*
Y16188D01*
X10206D01*
Y16187D01*
X10205D01*
Y16186D01*
X10201D01*
Y16186D01*
X10200D01*
Y16185D01*
X10197D01*
Y16184D01*
X10196D01*
Y16184D01*
X10192D01*
Y16183D01*
X10190D01*
Y16182D01*
X10188D01*
Y16182D01*
X10183D01*
Y16181D01*
X10182D01*
Y16181D01*
X10175D01*
Y16180D01*
X10174D01*
Y16179D01*
X10169D01*
Y16179D01*
X10164D01*
Y16178D01*
X10163D01*
Y16177D01*
X10151D01*
Y16177D01*
X10149D01*
Y16176D01*
X10138D01*
Y16175D01*
X10136D01*
Y16185D01*
X10136D01*
Y16186D01*
X10136D01*
Y16188D01*
X10136D01*
Y16189D01*
X10135D01*
Y16209D01*
X10134D01*
Y16212D01*
X10134D01*
Y16216D01*
X10133D01*
Y16221D01*
X10132D01*
Y16222D01*
X10132D01*
Y16231D01*
X10131D01*
Y16232D01*
X10131D01*
Y16237D01*
X10130D01*
Y16238D01*
X10129D01*
Y16240D01*
X10129D01*
Y16244D01*
X10128D01*
Y16245D01*
X10127D01*
Y16250D01*
X10127D01*
Y16251D01*
X10126D01*
Y16253D01*
X10125D01*
Y16257D01*
X10125D01*
Y16257D01*
X10124D01*
Y16261D01*
X10123D01*
Y16262D01*
X10123D01*
Y16265D01*
X10122D01*
Y16266D01*
X10121D01*
Y16267D01*
X10121D01*
Y16270D01*
X10120D01*
Y16272D01*
X10119D01*
Y16274D01*
X10119D01*
Y16276D01*
X10118D01*
Y16277D01*
X10118D01*
Y16279D01*
X10117D01*
Y16279D01*
X10116D01*
Y16283D01*
X10116D01*
Y16284D01*
X10115D01*
Y16286D01*
X10114D01*
Y16288D01*
X10114D01*
Y16289D01*
X10113D01*
Y16291D01*
X10112D01*
Y16291D01*
X10112D01*
Y16293D01*
X10111D01*
Y16294D01*
X10110D01*
Y16295D01*
X10110D01*
Y16297D01*
X10109D01*
Y16298D01*
X10108D01*
Y16300D01*
X10108D01*
Y16301D01*
X10107D01*
Y16302D01*
X10106D01*
Y16304D01*
X10106D01*
Y16305D01*
X10105D01*
Y16307D01*
X10105D01*
Y16307D01*
X10104D01*
Y16309D01*
X10103D01*
Y16310D01*
X10103D01*
Y16311D01*
X10102D01*
Y16313D01*
X10101D01*
Y16314D01*
X10101D01*
Y16315D01*
X10100D01*
Y16315D01*
X10099D01*
Y16317D01*
X10099D01*
Y16318D01*
X10098D01*
Y16319D01*
X10097D01*
Y16320D01*
X10097D01*
Y16321D01*
X10096D01*
Y16322D01*
X10095D01*
Y16323D01*
X10095D01*
Y16324D01*
X10094D01*
Y16326D01*
X10093D01*
Y16326D01*
X10093D01*
Y16328D01*
X10092D01*
Y16329D01*
X10091D01*
Y16330D01*
X10091D01*
Y16330D01*
X10090D01*
Y16332D01*
X10090D01*
Y16334D01*
X10089D01*
Y16334D01*
X10088D01*
Y16335D01*
X10088D01*
Y16335D01*
X10087D01*
Y16336D01*
X10086D01*
Y16338D01*
X10086D01*
Y16339D01*
X10085D01*
Y16339D01*
X10084D01*
Y16340D01*
X10084D01*
Y16341D01*
X10083D01*
Y16341D01*
X10082D01*
Y16342D01*
X10082D01*
Y16344D01*
X10081D01*
Y16345D01*
X10080D01*
Y16345D01*
X10080D01*
Y16346D01*
X10079D01*
Y16347D01*
X10078D01*
Y16348D01*
X10078D01*
Y16348D01*
X10077D01*
Y16350D01*
X10077D01*
Y16350D01*
X10076D01*
Y16352D01*
X10075D01*
Y16352D01*
X10075D01*
Y16353D01*
X10074D01*
Y16354D01*
X10073D01*
Y16354D01*
X10073D01*
Y16356D01*
X10072D01*
Y16357D01*
X10071D01*
Y16358D01*
X10071D01*
Y16358D01*
X10070D01*
Y16359D01*
X10069D01*
Y16360D01*
X10069D01*
Y16360D01*
X10068D01*
Y16361D01*
X10067D01*
Y16361D01*
X10067D01*
Y16362D01*
X10066D01*
Y16363D01*
X10065D01*
Y16363D01*
X10065D01*
Y16365D01*
X10063D01*
Y16366D01*
X10063D01*
Y16367D01*
X10062D01*
Y16367D01*
X10062D01*
Y16368D01*
X10061D01*
Y16369D01*
X10060D01*
Y16369D01*
X10060D01*
Y16370D01*
X10059D01*
Y16371D01*
X10058D01*
Y16371D01*
X10058D01*
Y16372D01*
X10057D01*
Y16373D01*
X10056D01*
Y16373D01*
X10056D01*
Y16374D01*
X10055D01*
Y16375D01*
X10054D01*
Y16375D01*
X10054D01*
Y16376D01*
X10053D01*
Y16376D01*
X10052D01*
Y16377D01*
X10052D01*
Y16378D01*
X10051D01*
Y16378D01*
X10050D01*
Y16379D01*
X10050D01*
Y16380D01*
X10049D01*
Y16380D01*
X10049D01*
Y16381D01*
X10048D01*
Y16382D01*
X10047D01*
Y16382D01*
X10046D01*
Y16384D01*
X10045D01*
Y16384D01*
X10044D01*
Y16385D01*
X10043D01*
Y16386D01*
X10043D01*
Y16386D01*
X10042D01*
Y16387D01*
X10041D01*
Y16388D01*
X10041D01*
Y16388D01*
X10040D01*
Y16389D01*
X10039D01*
Y16389D01*
X10039D01*
Y16390D01*
X10038D01*
Y16391D01*
X10037D01*
Y16391D01*
X10037D01*
Y16392D01*
X10036D01*
Y16393D01*
X10036D01*
Y16393D01*
X10035D01*
Y16394D01*
X10034D01*
Y16395D01*
X10032D01*
Y16395D01*
X10032D01*
Y16396D01*
X10031D01*
Y16397D01*
X10030D01*
Y16397D01*
X10030D01*
Y16398D01*
X10028D01*
Y16399D01*
X10028D01*
Y16399D01*
X10026D01*
Y16401D01*
X10024D01*
Y16401D01*
X10024D01*
Y16402D01*
X10023D01*
Y16403D01*
X10021D01*
Y16403D01*
X10021D01*
Y16404D01*
X10020D01*
Y16404D01*
X10019D01*
Y16405D01*
X10019D01*
Y16406D01*
X10018D01*
Y16406D01*
X10017D01*
Y16407D01*
X10015D01*
Y16408D01*
X10015D01*
Y16408D01*
X10014D01*
Y16409D01*
X10013D01*
Y16410D01*
X10012D01*
Y16410D01*
X10010D01*
Y16411D01*
X10009D01*
Y16412D01*
X10009D01*
Y16412D01*
X10008D01*
Y16413D01*
X10006D01*
Y16414D01*
X10006D01*
Y16414D01*
X10005D01*
Y16415D01*
X10003D01*
Y16416D01*
X10002D01*
Y16416D01*
X10001D01*
Y16417D01*
X10000D01*
Y16417D01*
X9999D01*
Y16418D01*
X9998D01*
Y16419D01*
X9997D01*
Y16419D01*
X9996D01*
Y16420D01*
X9996D01*
Y16421D01*
X9994D01*
Y16421D01*
X9993D01*
Y16422D01*
X9992D01*
Y16423D01*
X9990D01*
Y16423D01*
X9989D01*
Y16424D01*
X9987D01*
Y16425D01*
X9987D01*
Y16425D01*
X9985D01*
Y16426D01*
X9983D01*
Y16427D01*
X9983D01*
Y16427D01*
X9981D01*
Y16428D01*
X9980D01*
Y16429D01*
X9978D01*
Y16429D01*
X9978D01*
Y16430D01*
X9976D01*
Y16430D01*
X9974D01*
Y16431D01*
X9974D01*
Y16432D01*
X9972D01*
Y16432D01*
X9971D01*
Y16433D01*
X9969D01*
Y16434D01*
X9968D01*
Y16434D01*
X9967D01*
Y16435D01*
X9964D01*
Y16436D01*
X9963D01*
Y16436D01*
X9961D01*
Y16437D01*
X9960D01*
Y16438D01*
X9959D01*
Y16438D01*
X9955D01*
Y16439D01*
X9955D01*
Y16440D01*
X9952D01*
Y16440D01*
X9951D01*
Y16441D01*
X9949D01*
Y16442D01*
X9948D01*
Y16442D01*
X9946D01*
Y16443D01*
X9943D01*
Y16444D01*
X9942D01*
Y16444D01*
X9939D01*
Y16445D01*
X9938D01*
Y16445D01*
X9935D01*
Y16446D01*
X9932D01*
Y16447D01*
X9931D01*
Y16447D01*
X9927D01*
Y16448D01*
X9925D01*
Y16449D01*
X9923D01*
Y16449D01*
X9920D01*
Y16450D01*
X9919D01*
Y16451D01*
X9914D01*
Y16451D01*
X9913D01*
Y16452D01*
X9906D01*
Y16453D01*
X9902D01*
Y16453D01*
X9899D01*
Y16454D01*
X9892D01*
Y16455D01*
X9891D01*
Y16455D01*
X9875D01*
Y16456D01*
X9873D01*
Y16455D01*
X9872D01*
Y16456D01*
X9871D01*
Y16457D01*
X9858D01*
Y16457D01*
X9857D01*
Y16457D01*
X9847D01*
Y16466D01*
X9848D01*
Y16478D01*
X9849D01*
Y16485D01*
X9849D01*
Y16491D01*
X9850D01*
Y16492D01*
X9851D01*
Y16500D01*
X9851D01*
Y16501D01*
X9852D01*
Y16505D01*
X9853D01*
Y16511D01*
X9853D01*
Y16511D01*
X9854D01*
Y16516D01*
X9855D01*
Y16517D01*
X9855D01*
Y16520D01*
X9856D01*
Y16522D01*
X9856D01*
Y16524D01*
X9857D01*
Y16527D01*
X9858D01*
Y16528D01*
X9858D01*
Y16533D01*
X9859D01*
Y16534D01*
X9860D01*
Y16535D01*
X9860D01*
Y16536D01*
X9860D01*
Y16537D01*
X9860D01*
Y16539D01*
X9861D01*
Y16539D01*
X9862D01*
Y16542D01*
X9862D01*
Y16544D01*
X9863D01*
Y16546D01*
X9864D01*
Y16548D01*
X9864D01*
Y16548D01*
X9865D01*
Y16551D01*
X9866D01*
Y16552D01*
X9866D01*
Y16555D01*
X9867D01*
Y16556D01*
X9868D01*
Y16557D01*
X9868D01*
Y16560D01*
X9869D01*
Y16561D01*
X9869D01*
Y16563D01*
X9870D01*
Y16564D01*
X9871D01*
Y16566D01*
X9871D01*
Y16567D01*
X9872D01*
Y16568D01*
X9873D01*
Y16570D01*
X9873D01*
Y16570D01*
X9874D01*
Y16572D01*
X9875D01*
Y16573D01*
X9875D01*
Y16575D01*
X9876D01*
Y16576D01*
X9877D01*
Y16577D01*
X9877D01*
Y16579D01*
X9878D01*
Y16580D01*
X9879D01*
Y16582D01*
X9879D01*
Y16583D01*
X9880D01*
Y16584D01*
X9881D01*
Y16585D01*
X9881D01*
Y16586D01*
X9882D01*
Y16588D01*
X9883D01*
Y16589D01*
X9883D01*
Y16590D01*
X9884D01*
Y16591D01*
X9884D01*
Y16592D01*
X9885D01*
Y16593D01*
X9886D01*
Y16594D01*
X9886D01*
Y16596D01*
X9887D01*
Y16596D01*
X9888D01*
Y16597D01*
X9888D01*
Y16599D01*
X9889D01*
Y16600D01*
X9890D01*
Y16600D01*
X9890D01*
Y16601D01*
X9891D01*
Y16603D01*
X9892D01*
Y16604D01*
X9893D01*
Y16606D01*
X9894D01*
Y16606D01*
X9894D01*
Y16608D01*
X9895D01*
Y16609D01*
X9896D01*
Y16610D01*
X9896D01*
Y16610D01*
X9897D01*
Y16611D01*
X9897D01*
Y16613D01*
X9898D01*
Y16613D01*
X9899D01*
Y16614D01*
X9899D01*
Y16615D01*
X9900D01*
Y16615D01*
X9901D01*
Y16617D01*
X9901D01*
Y16617D01*
X9902D01*
Y16619D01*
X9903D01*
Y16620D01*
X9903D01*
Y16621D01*
X9904D01*
Y16621D01*
X9905D01*
Y16622D01*
X9905D01*
Y16623D01*
X9906D01*
Y16623D01*
X9907D01*
Y16624D01*
X9907D01*
Y16626D01*
X9908D01*
Y16626D01*
X9909D01*
Y16627D01*
X9909D01*
Y16628D01*
X9910D01*
Y16628D01*
X9911D01*
Y16629D01*
X9911D01*
Y16630D01*
X9912D01*
Y16632D01*
X9912D01*
Y16632D01*
X9913D01*
Y16633D01*
X9914D01*
Y16634D01*
X9914D01*
Y16634D01*
X9915D01*
Y16635D01*
X9916D01*
Y16636D01*
X9916D01*
Y16636D01*
X9917D01*
Y16637D01*
X9918D01*
Y16638D01*
X9918D01*
Y16639D01*
X9920D01*
Y16640D01*
X9920D01*
Y16641D01*
X9921D01*
Y16641D01*
X9922D01*
Y16642D01*
X9922D01*
Y16643D01*
X9923D01*
Y16643D01*
X9924D01*
Y16644D01*
X9924D01*
Y16645D01*
X9925D01*
Y16645D01*
X9925D01*
Y16647D01*
X9926D01*
Y16647D01*
X9927D01*
Y16648D01*
X9927D01*
Y16649D01*
X9928D01*
Y16649D01*
X9929D01*
Y16650D01*
X9929D01*
Y16651D01*
X9930D01*
Y16651D01*
X9931D01*
Y16652D01*
X9931D01*
Y16652D01*
X9933D01*
Y16653D01*
X9933D01*
Y16654D01*
X9934D01*
Y16654D01*
X9935D01*
Y16655D01*
X9935D01*
Y16656D01*
X9936D01*
Y16656D01*
X9937D01*
Y16657D01*
X9938D01*
Y16658D01*
X9938D01*
Y16658D01*
X9939D01*
Y16659D01*
X9940D01*
Y16660D01*
X9940D01*
Y16660D01*
X9941D01*
Y16661D01*
X9942D01*
Y16662D01*
X9942D01*
Y16662D01*
X9943D01*
Y16663D01*
X9944D01*
Y16664D01*
X9944D01*
Y16664D01*
X9945D01*
Y16665D01*
X9946D01*
Y16666D01*
X9947D01*
Y16666D01*
X9948D01*
Y16667D01*
X9949D01*
Y16667D01*
X9950D01*
Y16668D01*
X9950D01*
Y16669D01*
X9951D01*
Y16669D01*
X9952D01*
Y16670D01*
X9952D01*
Y16671D01*
X9953D01*
Y16671D01*
X9955D01*
Y16672D01*
X9955D01*
Y16673D01*
X9956D01*
Y16673D01*
X9957D01*
Y16674D01*
X9957D01*
Y16675D01*
X9959D01*
Y16676D01*
X9961D01*
Y16677D01*
X9961D01*
Y16677D01*
X9963D01*
Y16678D01*
X9963D01*
Y16679D01*
X9964D01*
Y16679D01*
X9965D01*
Y16680D01*
X9965D01*
Y16680D01*
X9966D01*
Y16681D01*
X9968D01*
Y16682D01*
X9968D01*
Y16682D01*
X9969D01*
Y16683D01*
X9970D01*
Y16684D01*
X9972D01*
Y16684D01*
X9972D01*
Y16685D01*
X9974D01*
Y16686D01*
X9974D01*
Y16686D01*
X9975D01*
Y16687D01*
X9977D01*
Y16688D01*
X9978D01*
Y16688D01*
X9979D01*
Y16689D01*
X9980D01*
Y16690D01*
X9981D01*
Y16690D01*
X9983D01*
Y16691D01*
X9983D01*
Y16692D01*
X9985D01*
Y16692D01*
X9985D01*
Y16693D01*
X9986D01*
Y16694D01*
X9988D01*
Y16694D01*
X9989D01*
Y16695D01*
X9991D01*
Y16695D01*
X9991D01*
Y16696D01*
X9992D01*
Y16697D01*
X9993D01*
Y16697D01*
X9994D01*
Y16698D01*
X9996D01*
Y16699D01*
X9996D01*
Y16699D01*
X9998D01*
Y16700D01*
X9999D01*
Y16701D01*
X10001D01*
Y16701D01*
X10002D01*
Y16702D01*
X10003D01*
Y16703D01*
X10006D01*
Y16703D01*
X10007D01*
Y16704D01*
X10008D01*
Y16705D01*
X10009D01*
Y16705D01*
X10011D01*
Y16706D01*
X10013D01*
Y16707D01*
X10013D01*
Y16707D01*
X10015D01*
Y16708D01*
X10016D01*
Y16708D01*
X10017D01*
Y16709D01*
X10019D01*
Y16710D01*
X10020D01*
Y16710D01*
X10024D01*
Y16711D01*
X10024D01*
Y16712D01*
X10026D01*
Y16712D01*
X10028D01*
Y16713D01*
X10030D01*
Y16714D01*
X10033D01*
Y16714D01*
X10034D01*
Y16715D01*
X10036D01*
Y16716D01*
X10037D01*
Y16716D01*
X10038D01*
Y16717D01*
X10041D01*
Y16718D01*
X10042D01*
Y16718D01*
X10047D01*
Y16719D01*
X10048D01*
Y16720D01*
X10051D01*
Y16720D01*
X10052D01*
Y16721D01*
X10053D01*
Y16721D01*
X10058D01*
Y16722D01*
X10059D01*
Y16723D01*
X10063D01*
Y16723D01*
X10065D01*
Y16724D01*
X10066D01*
Y16725D01*
X10071D01*
Y16725D01*
X10072D01*
Y16726D01*
X10081D01*
Y16727D01*
X10082D01*
Y16727D01*
X10089D01*
Y16728D01*
X10093D01*
Y16729D01*
X10095D01*
Y16729D01*
X10095D01*
Y16729D01*
X10096D01*
Y16729D01*
X10115D01*
Y16730D01*
X10116D01*
Y16729D01*
X10117D01*
Y16730D01*
X10118D01*
Y16731D01*
X10132D01*
Y16730D01*
D02*
G37*
G36*
X9789Y16255D02*
X9790D01*
Y16255D01*
X9791D01*
Y16254D01*
X9792D01*
Y16255D01*
X9796D01*
Y16254D01*
X9812D01*
Y16253D01*
X9813D01*
Y16253D01*
X9826D01*
Y16252D01*
X9827D01*
Y16251D01*
X9834D01*
Y16251D01*
X9840D01*
Y16250D01*
X9841D01*
Y16250D01*
X9849D01*
Y16249D01*
X9850D01*
Y16248D01*
X9858D01*
Y16248D01*
X9859D01*
Y16247D01*
X9860D01*
Y16246D01*
X9861D01*
Y16247D01*
X9862D01*
Y16246D01*
X9867D01*
Y16246D01*
X9868D01*
Y16245D01*
X9874D01*
Y16244D01*
X9875D01*
Y16244D01*
X9879D01*
Y16243D01*
X9883D01*
Y16242D01*
X9883D01*
Y16242D01*
X9888D01*
Y16241D01*
X9889D01*
Y16240D01*
X9894D01*
Y16240D01*
X9895D01*
Y16239D01*
X9896D01*
Y16238D01*
X9901D01*
Y16238D01*
X9901D01*
Y16237D01*
X9905D01*
Y16237D01*
X9906D01*
Y16236D01*
X9909D01*
Y16235D01*
X9912D01*
Y16235D01*
X9912D01*
Y16234D01*
X9916D01*
Y16233D01*
X9917D01*
Y16233D01*
X9921D01*
Y16232D01*
X9922D01*
Y16231D01*
X9922D01*
Y16231D01*
X9926D01*
Y16230D01*
X9927D01*
Y16229D01*
X9930D01*
Y16229D01*
X9931D01*
Y16228D01*
X9934D01*
Y16227D01*
X9935D01*
Y16227D01*
X9936D01*
Y16226D01*
X9938D01*
Y16225D01*
X9939D01*
Y16225D01*
X9942D01*
Y16224D01*
X9943D01*
Y16223D01*
X9944D01*
Y16223D01*
X9946D01*
Y16222D01*
X9947D01*
Y16222D01*
X9950D01*
Y16221D01*
X9950D01*
Y16220D01*
X9953D01*
Y16220D01*
X9954D01*
Y16219D01*
X9955D01*
Y16218D01*
X9957D01*
Y16217D01*
X9960D01*
Y16216D01*
X9961D01*
Y16216D01*
X9962D01*
Y16215D01*
X9963D01*
Y16214D01*
X9964D01*
Y16214D01*
X9966D01*
Y16213D01*
X9967D01*
Y16212D01*
X9969D01*
Y16212D01*
X9970D01*
Y16211D01*
X9970D01*
Y16210D01*
X9973D01*
Y16210D01*
X9974D01*
Y16209D01*
X9976D01*
Y16209D01*
X9976D01*
Y16208D01*
X9977D01*
Y16207D01*
X9979D01*
Y16207D01*
X9980D01*
Y16206D01*
X9982D01*
Y16205D01*
X9983D01*
Y16204D01*
X9984D01*
Y16203D01*
X9985D01*
Y16203D01*
X9987D01*
Y16202D01*
X9987D01*
Y16201D01*
X9988D01*
Y16201D01*
X9989D01*
Y16200D01*
X9991D01*
Y16199D01*
X9992D01*
Y16198D01*
X9994D01*
Y16197D01*
X9995D01*
Y16197D01*
X9996D01*
Y16196D01*
X9996D01*
Y16195D01*
X9997D01*
Y16195D01*
X9998D01*
Y16194D01*
X9998D01*
Y16194D01*
X10000D01*
Y16193D01*
X10001D01*
Y16192D01*
X10002D01*
Y16192D01*
X10002D01*
Y16191D01*
X10003D01*
Y16190D01*
X10006D01*
Y16189D01*
X10006D01*
Y16188D01*
X10007D01*
Y16187D01*
X10009D01*
Y16186D01*
X10009D01*
Y16186D01*
X10010D01*
Y16185D01*
X10011D01*
Y16184D01*
X10011D01*
Y16184D01*
X10013D01*
Y16183D01*
X10014D01*
Y16182D01*
X10015D01*
Y16182D01*
X10015D01*
Y16181D01*
X10016D01*
Y16181D01*
X10017D01*
Y16180D01*
X10017D01*
Y16179D01*
X10018D01*
Y16179D01*
X10019D01*
Y16178D01*
X10019D01*
Y16177D01*
X10020D01*
Y16177D01*
X10021D01*
Y16176D01*
X10021D01*
Y16175D01*
X10022D01*
Y16175D01*
X10022D01*
Y16174D01*
X10023D01*
Y16173D01*
X10024D01*
Y16173D01*
X10024D01*
Y16172D01*
X10025D01*
Y16171D01*
X10026D01*
Y16171D01*
X10026D01*
Y16170D01*
X10027D01*
Y16169D01*
X10028D01*
Y16169D01*
X10028D01*
Y16168D01*
X10029D01*
Y16168D01*
X10030D01*
Y16167D01*
X10030D01*
Y16166D01*
X10031D01*
Y16164D01*
X10032D01*
Y16164D01*
X10032D01*
Y16163D01*
X10033D01*
Y16162D01*
X10034D01*
Y16162D01*
X10034D01*
Y16161D01*
X10035D01*
Y16160D01*
X10036D01*
Y16158D01*
X10036D01*
Y16158D01*
X10037D01*
Y16156D01*
X10037D01*
Y16156D01*
X10038D01*
Y16155D01*
X10039D01*
Y16154D01*
X10039D01*
Y16154D01*
X10040D01*
Y16152D01*
X10041D01*
Y16151D01*
X10041D01*
Y16151D01*
X10042D01*
Y16149D01*
X10043D01*
Y16148D01*
X10043D01*
Y16145D01*
X10044D01*
Y16145D01*
X10045D01*
Y16143D01*
X10045D01*
Y16142D01*
X10046D01*
Y16141D01*
X10047D01*
Y16139D01*
X10047D01*
Y16138D01*
X10048D01*
Y16136D01*
X10049D01*
Y16136D01*
X10049D01*
Y16134D01*
X10050D01*
Y16130D01*
X10050D01*
Y16129D01*
X10051D01*
Y16124D01*
X10052D01*
Y16123D01*
X10052D01*
Y16118D01*
X10053D01*
Y16112D01*
X10054D01*
Y16112D01*
X10054D01*
Y16110D01*
X10054D01*
Y16109D01*
X10054D01*
Y16108D01*
X10054D01*
Y16107D01*
X10054D01*
Y16105D01*
X10054D01*
Y16104D01*
X10053D01*
Y16098D01*
X10052D01*
Y16093D01*
X10052D01*
Y16093D01*
X10051D01*
Y16087D01*
X10050D01*
Y16087D01*
X10050D01*
Y16082D01*
X10049D01*
Y16081D01*
X10049D01*
Y16080D01*
X10048D01*
Y16078D01*
X10047D01*
Y16077D01*
X10047D01*
Y16075D01*
X10046D01*
Y16074D01*
X10045D01*
Y16072D01*
X10045D01*
Y16071D01*
X10044D01*
Y16071D01*
X10043D01*
Y16069D01*
X10043D01*
Y16068D01*
X10042D01*
Y16066D01*
X10041D01*
Y16065D01*
X10041D01*
Y16065D01*
X10040D01*
Y16062D01*
X10039D01*
Y16061D01*
X10039D01*
Y16061D01*
X10038D01*
Y16060D01*
X10037D01*
Y16059D01*
X10037D01*
Y16057D01*
X10036D01*
Y16057D01*
X10036D01*
Y16056D01*
X10035D01*
Y16056D01*
X10034D01*
Y16055D01*
X10034D01*
Y16054D01*
X10033D01*
Y16054D01*
X10032D01*
Y16052D01*
X10032D01*
Y16052D01*
X10031D01*
Y16050D01*
X10030D01*
Y16049D01*
X10029D01*
Y16048D01*
X10028D01*
Y16046D01*
X10027D01*
Y16046D01*
X10026D01*
Y16045D01*
X10026D01*
Y16044D01*
X10025D01*
Y16044D01*
X10024D01*
Y16043D01*
X10024D01*
Y16043D01*
X10023D01*
Y16042D01*
X10022D01*
Y16041D01*
X10022D01*
Y16041D01*
X10021D01*
Y16040D01*
X10021D01*
Y16039D01*
X10020D01*
Y16039D01*
X10019D01*
Y16038D01*
X10019D01*
Y16037D01*
X10018D01*
Y16037D01*
X10017D01*
Y16035D01*
X10015D01*
Y16034D01*
X10014D01*
Y16033D01*
X10013D01*
Y16032D01*
X10011D01*
Y16031D01*
X10011D01*
Y16031D01*
X10009D01*
Y16030D01*
X10009D01*
Y16029D01*
X10008D01*
Y16029D01*
X10007D01*
Y16028D01*
X10007D01*
Y16028D01*
X10006D01*
Y16027D01*
X10006D01*
Y16026D01*
X10005D01*
Y16026D01*
X10003D01*
Y16025D01*
X10002D01*
Y16024D01*
X10002D01*
Y16024D01*
X10001D01*
Y16023D01*
X10000D01*
Y16022D01*
X10000D01*
Y16022D01*
X9999D01*
Y16021D01*
X9996D01*
Y16020D01*
X9995D01*
Y16019D01*
X9994D01*
Y16018D01*
X9994D01*
Y16018D01*
X9992D01*
Y16017D01*
X9991D01*
Y16016D01*
X9991D01*
Y16016D01*
X9990D01*
Y16015D01*
X9988D01*
Y16015D01*
X9987D01*
Y16014D01*
X9987D01*
Y16013D01*
X9984D01*
Y16013D01*
X9983D01*
Y16012D01*
X9983D01*
Y16011D01*
X9982D01*
Y16011D01*
X9981D01*
Y16010D01*
X9980D01*
Y16009D01*
X9979D01*
Y16009D01*
X9976D01*
Y16007D01*
X9974D01*
Y16007D01*
X9973D01*
Y16006D01*
X9972D01*
Y16005D01*
X9970D01*
Y16005D01*
X9970D01*
Y16004D01*
X9968D01*
Y16003D01*
X9967D01*
Y16003D01*
X9966D01*
Y16002D01*
X9964D01*
Y16001D01*
X9963D01*
Y16001D01*
X9961D01*
Y16000D01*
X9961D01*
Y16000D01*
X9959D01*
Y15999D01*
X9957D01*
Y15998D01*
X9957D01*
Y15998D01*
X9955D01*
Y15997D01*
X9954D01*
Y15996D01*
X9952D01*
Y15996D01*
X9951D01*
Y15995D01*
X9950D01*
Y15994D01*
X9947D01*
Y15994D01*
X9946D01*
Y15993D01*
X9944D01*
Y15992D01*
X9943D01*
Y15992D01*
X9940D01*
Y15991D01*
X9938D01*
Y15990D01*
X9938D01*
Y15990D01*
X9936D01*
Y15989D01*
X9935D01*
Y15988D01*
X9931D01*
Y15988D01*
X9931D01*
Y15987D01*
X9929D01*
Y15987D01*
X9926D01*
Y15986D01*
X9925D01*
Y15985D01*
X9922D01*
Y15985D01*
X9922D01*
Y15984D01*
X9918D01*
Y15983D01*
X9917D01*
Y15983D01*
X9916D01*
Y15982D01*
X9912D01*
Y15981D01*
X9912D01*
Y15981D01*
X9907D01*
Y15980D01*
X9906D01*
Y15979D01*
X9905D01*
Y15979D01*
X9901D01*
Y15978D01*
X9901D01*
Y15977D01*
X9896D01*
Y15977D01*
X9895D01*
Y15976D01*
X9891D01*
Y15975D01*
X9890D01*
Y15976D01*
X9890D01*
Y15975D01*
X9889D01*
Y15975D01*
X9888D01*
Y15974D01*
X9883D01*
Y15974D01*
X9882D01*
Y15973D01*
X9875D01*
Y15972D01*
X9875D01*
Y15972D01*
X9871D01*
Y15971D01*
X9867D01*
Y15970D01*
X9866D01*
Y15970D01*
X9860D01*
Y15969D01*
X9859D01*
Y15968D01*
X9852D01*
Y15968D01*
X9851D01*
Y15967D01*
X9847D01*
Y15966D01*
X9840D01*
Y15966D01*
X9840D01*
Y15965D01*
X9828D01*
Y15964D01*
X9828D01*
Y15964D01*
X9821D01*
Y15963D01*
X9812D01*
Y15962D01*
X9812D01*
Y15962D01*
X9791D01*
Y15961D01*
X9790D01*
Y15960D01*
X9732D01*
Y15961D01*
X9731D01*
Y15962D01*
X9711D01*
Y15962D01*
X9710D01*
Y15963D01*
X9701D01*
Y15964D01*
X9695D01*
Y15964D01*
X9694D01*
Y15965D01*
X9683D01*
Y15966D01*
X9682D01*
Y15966D01*
X9675D01*
Y15967D01*
X9671D01*
Y15968D01*
X9670D01*
Y15968D01*
X9664D01*
Y15969D01*
X9663D01*
Y15970D01*
X9656D01*
Y15970D01*
X9655D01*
Y15971D01*
X9651D01*
Y15972D01*
X9648D01*
Y15972D01*
X9647D01*
Y15973D01*
X9640D01*
Y15974D01*
X9640D01*
Y15974D01*
X9634D01*
Y15975D01*
X9634D01*
Y15975D01*
X9631D01*
Y15976D01*
X9628D01*
Y15977D01*
X9627D01*
Y15977D01*
X9622D01*
Y15978D01*
X9621D01*
Y15979D01*
X9618D01*
Y15979D01*
X9616D01*
Y15980D01*
X9616D01*
Y15981D01*
X9610D01*
Y15981D01*
X9610D01*
Y15982D01*
X9607D01*
Y15983D01*
X9606D01*
Y15983D01*
X9605D01*
Y15984D01*
X9601D01*
Y15985D01*
X9601D01*
Y15985D01*
X9597D01*
Y15986D01*
X9596D01*
Y15987D01*
X9593D01*
Y15987D01*
X9592D01*
Y15988D01*
X9591D01*
Y15988D01*
X9587D01*
Y15990D01*
X9584D01*
Y15990D01*
X9584D01*
Y15991D01*
X9582D01*
Y15992D01*
X9579D01*
Y15992D01*
X9579D01*
Y15993D01*
X9577D01*
Y15994D01*
X9576D01*
Y15994D01*
X9573D01*
Y15995D01*
X9571D01*
Y15996D01*
X9571D01*
Y15996D01*
X9569D01*
Y15997D01*
X9568D01*
Y15998D01*
X9565D01*
Y15998D01*
X9565D01*
Y15999D01*
X9564D01*
Y16000D01*
X9562D01*
Y16000D01*
X9562D01*
Y16001D01*
X9559D01*
Y16001D01*
X9558D01*
Y16002D01*
X9556D01*
Y16003D01*
X9556D01*
Y16003D01*
X9555D01*
Y16004D01*
X9552D01*
Y16005D01*
X9552D01*
Y16005D01*
X9550D01*
Y16006D01*
X9549D01*
Y16007D01*
X9548D01*
Y16007D01*
X9547D01*
Y16008D01*
X9546D01*
Y16009D01*
X9543D01*
Y16009D01*
X9543D01*
Y16010D01*
X9541D01*
Y16011D01*
X9540D01*
Y16011D01*
X9539D01*
Y16012D01*
X9539D01*
Y16013D01*
X9538D01*
Y16013D01*
X9536D01*
Y16014D01*
X9536D01*
Y16015D01*
X9534D01*
Y16015D01*
X9532D01*
Y16016D01*
X9531D01*
Y16017D01*
X9530D01*
Y16018D01*
X9529D01*
Y16018D01*
X9528D01*
Y16019D01*
X9527D01*
Y16020D01*
X9526D01*
Y16020D01*
X9526D01*
Y16021D01*
X9524D01*
Y16022D01*
X9523D01*
Y16022D01*
X9523D01*
Y16023D01*
X9521D01*
Y16024D01*
X9520D01*
Y16025D01*
X9519D01*
Y16026D01*
X9518D01*
Y16026D01*
X9517D01*
Y16027D01*
X9516D01*
Y16028D01*
X9515D01*
Y16028D01*
X9515D01*
Y16029D01*
X9514D01*
Y16029D01*
X9513D01*
Y16030D01*
X9513D01*
Y16031D01*
X9512D01*
Y16031D01*
X9511D01*
Y16032D01*
X9510D01*
Y16033D01*
X9509D01*
Y16033D01*
X9508D01*
Y16034D01*
X9508D01*
Y16035D01*
X9507D01*
Y16035D01*
X9506D01*
Y16036D01*
X9506D01*
Y16037D01*
X9505D01*
Y16037D01*
X9504D01*
Y16038D01*
X9504D01*
Y16039D01*
X9503D01*
Y16039D01*
X9502D01*
Y16040D01*
X9502D01*
Y16041D01*
X9501D01*
Y16041D01*
X9500D01*
Y16042D01*
X9500D01*
Y16043D01*
X9499D01*
Y16043D01*
X9498D01*
Y16044D01*
X9498D01*
Y16044D01*
X9497D01*
Y16045D01*
X9496D01*
Y16046D01*
X9496D01*
Y16046D01*
X9495D01*
Y16047D01*
X9495D01*
Y16048D01*
X9494D01*
Y16048D01*
X9493D01*
Y16049D01*
X9493D01*
Y16050D01*
X9492D01*
Y16050D01*
X9491D01*
Y16052D01*
X9491D01*
Y16053D01*
X9490D01*
Y16054D01*
X9489D01*
Y16054D01*
X9489D01*
Y16055D01*
X9488D01*
Y16056D01*
X9487D01*
Y16056D01*
X9487D01*
Y16057D01*
X9486D01*
Y16057D01*
X9485D01*
Y16059D01*
X9485D01*
Y16060D01*
X9484D01*
Y16061D01*
X9483D01*
Y16062D01*
X9483D01*
Y16063D01*
X9482D01*
Y16065D01*
X9482D01*
Y16065D01*
X9481D01*
Y16067D01*
X9480D01*
Y16068D01*
X9480D01*
Y16069D01*
X9479D01*
Y16071D01*
X9478D01*
Y16071D01*
X9478D01*
Y16074D01*
X9477D01*
Y16074D01*
X9476D01*
Y16075D01*
X9476D01*
Y16077D01*
X9475D01*
Y16078D01*
X9474D01*
Y16080D01*
X9474D01*
Y16081D01*
X9473D01*
Y16084D01*
X9472D01*
Y16087D01*
X9472D01*
Y16087D01*
X9471D01*
Y16093D01*
X9470D01*
Y16093D01*
X9470D01*
Y16101D01*
X9469D01*
Y16102D01*
X9470D01*
Y16103D01*
X9469D01*
Y16104D01*
X9468D01*
Y16109D01*
X9469D01*
Y16110D01*
X9470D01*
Y16111D01*
X9469D01*
Y16113D01*
X9470D01*
Y16123D01*
X9470D01*
Y16123D01*
X9471D01*
Y16128D01*
X9472D01*
Y16130D01*
X9472D01*
Y16130D01*
X9473D01*
Y16134D01*
X9474D01*
Y16134D01*
X9474D01*
Y16138D01*
X9475D01*
Y16139D01*
X9476D01*
Y16141D01*
X9476D01*
Y16142D01*
X9477D01*
Y16143D01*
X9478D01*
Y16145D01*
X9478D01*
Y16145D01*
X9479D01*
Y16147D01*
X9480D01*
Y16148D01*
X9480D01*
Y16149D01*
X9481D01*
Y16151D01*
X9482D01*
Y16153D01*
X9483D01*
Y16153D01*
X9483D01*
Y16155D01*
X9484D01*
Y16156D01*
X9485D01*
Y16156D01*
X9485D01*
Y16157D01*
X9486D01*
Y16158D01*
X9487D01*
Y16160D01*
X9487D01*
Y16160D01*
X9488D01*
Y16161D01*
X9489D01*
Y16162D01*
X9489D01*
Y16162D01*
X9490D01*
Y16164D01*
X9491D01*
Y16164D01*
X9491D01*
Y16166D01*
X9492D01*
Y16167D01*
X9493D01*
Y16168D01*
X9495D01*
Y16169D01*
X9495D01*
Y16170D01*
X9496D01*
Y16171D01*
X9496D01*
Y16171D01*
X9497D01*
Y16172D01*
X9498D01*
Y16173D01*
X9498D01*
Y16173D01*
X9499D01*
Y16174D01*
X9500D01*
Y16175D01*
X9500D01*
Y16175D01*
X9501D01*
Y16176D01*
X9502D01*
Y16177D01*
X9502D01*
Y16177D01*
X9503D01*
Y16178D01*
X9504D01*
Y16179D01*
X9504D01*
Y16179D01*
X9506D01*
Y16181D01*
X9506D01*
Y16181D01*
X9508D01*
Y16182D01*
X9510D01*
Y16183D01*
X9510D01*
Y16184D01*
X9511D01*
Y16184D01*
X9511D01*
Y16185D01*
X9512D01*
Y16186D01*
X9513D01*
Y16186D01*
X9514D01*
Y16187D01*
X9515D01*
Y16188D01*
X9515D01*
Y16188D01*
X9516D01*
Y16189D01*
X9517D01*
Y16190D01*
X9517D01*
Y16190D01*
X9519D01*
Y16191D01*
X9520D01*
Y16192D01*
X9521D01*
Y16192D01*
X9521D01*
Y16193D01*
X9522D01*
Y16194D01*
X9524D01*
Y16194D01*
X9524D01*
Y16195D01*
X9525D01*
Y16195D01*
X9526D01*
Y16196D01*
X9527D01*
Y16197D01*
X9528D01*
Y16197D01*
X9528D01*
Y16198D01*
X9530D01*
Y16199D01*
X9531D01*
Y16199D01*
X9532D01*
Y16200D01*
X9534D01*
Y16201D01*
X9534D01*
Y16201D01*
X9535D01*
Y16202D01*
X9536D01*
Y16203D01*
X9538D01*
Y16204D01*
X9539D01*
Y16205D01*
X9541D01*
Y16205D01*
X9542D01*
Y16206D01*
X9543D01*
Y16207D01*
X9543D01*
Y16207D01*
X9545D01*
Y16208D01*
X9546D01*
Y16209D01*
X9547D01*
Y16209D01*
X9549D01*
Y16210D01*
X9550D01*
Y16210D01*
X9552D01*
Y16211D01*
X9552D01*
Y16212D01*
X9553D01*
Y16212D01*
X9556D01*
Y16214D01*
X9558D01*
Y16214D01*
X9559D01*
Y16215D01*
X9561D01*
Y16216D01*
X9562D01*
Y16216D01*
X9562D01*
Y16217D01*
X9565D01*
Y16218D01*
X9565D01*
Y16218D01*
X9567D01*
Y16219D01*
X9568D01*
Y16220D01*
X9569D01*
Y16220D01*
X9573D01*
Y16221D01*
X9573D01*
Y16222D01*
X9575D01*
Y16222D01*
X9576D01*
Y16223D01*
X9579D01*
Y16223D01*
X9579D01*
Y16224D01*
X9580D01*
Y16225D01*
X9584D01*
Y16225D01*
X9584D01*
Y16226D01*
X9588D01*
Y16227D01*
X9588D01*
Y16227D01*
X9590D01*
Y16228D01*
X9592D01*
Y16229D01*
X9592D01*
Y16229D01*
X9596D01*
Y16230D01*
X9597D01*
Y16231D01*
X9600D01*
Y16231D01*
X9601D01*
Y16232D01*
X9602D01*
Y16233D01*
X9605D01*
Y16233D01*
X9606D01*
Y16234D01*
X9610D01*
Y16235D01*
X9610D01*
Y16235D01*
X9613D01*
Y16236D01*
X9616D01*
Y16237D01*
X9617D01*
Y16237D01*
X9621D01*
Y16238D01*
X9621D01*
Y16238D01*
X9627D01*
Y16239D01*
X9627D01*
Y16240D01*
X9629D01*
Y16240D01*
X9633D01*
Y16241D01*
X9634D01*
Y16242D01*
X9639D01*
Y16242D01*
X9640D01*
Y16243D01*
X9644D01*
Y16244D01*
X9648D01*
Y16244D01*
X9648D01*
Y16245D01*
X9655D01*
Y16246D01*
X9656D01*
Y16246D01*
X9660D01*
Y16247D01*
X9663D01*
Y16248D01*
X9664D01*
Y16248D01*
X9672D01*
Y16249D01*
X9673D01*
Y16250D01*
X9681D01*
Y16250D01*
X9682D01*
Y16250D01*
X9683D01*
Y16250D01*
X9684D01*
Y16251D01*
X9688D01*
Y16251D01*
X9694D01*
Y16252D01*
X9695D01*
Y16253D01*
X9710D01*
Y16253D01*
X9711D01*
Y16254D01*
X9724D01*
Y16255D01*
X9733D01*
Y16255D01*
X9735D01*
Y16256D01*
X9736D01*
Y16255D01*
X9738D01*
Y16256D01*
X9780D01*
Y16255D01*
X9788D01*
Y16256D01*
X9789D01*
Y16255D01*
D02*
G37*
G36*
X10347Y15988D02*
X10348D01*
Y15987D01*
X10369D01*
Y15986D01*
X10371D01*
Y15985D01*
X10371D01*
Y15986D01*
X10379D01*
Y15985D01*
X10385D01*
Y15985D01*
X10386D01*
Y15984D01*
X10397D01*
Y15983D01*
X10398D01*
Y15983D01*
X10408D01*
Y15982D01*
X10409D01*
Y15981D01*
X10409D01*
Y15981D01*
X10418D01*
Y15980D01*
X10418D01*
Y15979D01*
X10425D01*
Y15979D01*
X10426D01*
Y15978D01*
X10427D01*
Y15977D01*
X10427D01*
Y15978D01*
X10430D01*
Y15977D01*
X10431D01*
Y15978D01*
X10433D01*
Y15977D01*
X10434D01*
Y15976D01*
X10441D01*
Y15975D01*
X10442D01*
Y15975D01*
X10447D01*
Y15974D01*
X10448D01*
Y15974D01*
X10448D01*
Y15973D01*
X10454D01*
Y15972D01*
X10460D01*
Y15971D01*
X10461D01*
Y15970D01*
X10461D01*
Y15970D01*
X10462D01*
Y15970D01*
X10463D01*
Y15970D01*
X10464D01*
Y15970D01*
X10465D01*
Y15970D01*
X10466D01*
Y15969D01*
X10467D01*
Y15968D01*
X10471D01*
Y15967D01*
X10477D01*
Y15966D01*
X10478D01*
Y15966D01*
X10478D01*
Y15965D01*
X10482D01*
Y15964D01*
X10487D01*
Y15962D01*
X10488D01*
Y15962D01*
X10489D01*
Y15962D01*
X10491D01*
Y15962D01*
X10491D01*
Y15961D01*
X10492D01*
Y15960D01*
X10496D01*
Y15960D01*
X10496D01*
Y15959D01*
X10499D01*
Y15958D01*
X10500D01*
Y15957D01*
X10504D01*
Y15957D01*
X10504D01*
Y15956D01*
X10508D01*
Y15955D01*
X10509D01*
Y15955D01*
X10509D01*
Y15954D01*
X10510D01*
Y15955D01*
X10511D01*
Y15954D01*
X10511D01*
Y15953D01*
X10512D01*
Y15953D01*
X10515D01*
Y15952D01*
X10515D01*
Y15951D01*
X10519D01*
Y15951D01*
X10520D01*
Y15949D01*
X10522D01*
Y15949D01*
X10523D01*
Y15948D01*
X10526D01*
Y15947D01*
X10528D01*
Y15946D01*
X10529D01*
Y15946D01*
X10530D01*
Y15945D01*
X10532D01*
Y15944D01*
X10532D01*
Y15944D01*
X10535D01*
Y15943D01*
X10535D01*
Y15942D01*
X10538D01*
Y15941D01*
X10539D01*
Y15940D01*
X10541D01*
Y15939D01*
X10544D01*
Y15938D01*
X10545D01*
Y15938D01*
X10545D01*
Y15937D01*
X10547D01*
Y15936D01*
X10548D01*
Y15936D01*
X10548D01*
Y15935D01*
X10549D01*
Y15934D01*
X10550D01*
Y15934D01*
X10552D01*
Y15933D01*
X10555D01*
Y15932D01*
X10556D01*
Y15931D01*
X10556D01*
Y15931D01*
X10557D01*
Y15930D01*
X10558D01*
Y15929D01*
X10560D01*
Y15928D01*
X10561D01*
Y15927D01*
X10562D01*
Y15926D01*
X10565D01*
Y15925D01*
X10565D01*
Y15925D01*
X10566D01*
Y15924D01*
X10567D01*
Y15923D01*
X10569D01*
Y15923D01*
X10569D01*
Y15922D01*
X10570D01*
Y15921D01*
X10571D01*
Y15921D01*
X10571D01*
Y15920D01*
X10574D01*
Y15919D01*
X10575D01*
Y15918D01*
X10576D01*
Y15917D01*
X10577D01*
Y15916D01*
X10578D01*
Y15916D01*
X10578D01*
Y15915D01*
X10579D01*
Y15914D01*
X10582D01*
Y15913D01*
X10582D01*
Y15912D01*
X10583D01*
Y15912D01*
X10584D01*
Y15911D01*
X10584D01*
Y15910D01*
X10585D01*
Y15910D01*
X10586D01*
Y15909D01*
X10586D01*
Y15908D01*
X10587D01*
Y15908D01*
X10588D01*
Y15907D01*
X10588D01*
Y15906D01*
X10589D01*
Y15906D01*
X10589D01*
Y15905D01*
X10590D01*
Y15905D01*
X10591D01*
Y15904D01*
X10591D01*
Y15903D01*
X10592D01*
Y15903D01*
X10593D01*
Y15902D01*
X10593D01*
Y15901D01*
X10594D01*
Y15901D01*
X10595D01*
Y15900D01*
X10595D01*
Y15899D01*
X10596D01*
Y15899D01*
X10597D01*
Y15898D01*
X10597D01*
Y15897D01*
X10598D01*
Y15897D01*
X10599D01*
Y15896D01*
X10599D01*
Y15895D01*
X10600D01*
Y15895D01*
X10601D01*
Y15893D01*
X10601D01*
Y15892D01*
X10602D01*
Y15891D01*
X10603D01*
Y15890D01*
X10604D01*
Y15889D01*
X10605D01*
Y15888D01*
X10606D01*
Y15886D01*
X10606D01*
Y15885D01*
X10607D01*
Y15884D01*
X10608D01*
Y15884D01*
X10608D01*
Y15883D01*
X10609D01*
Y15882D01*
X10610D01*
Y15882D01*
X10610D01*
Y15880D01*
X10611D01*
Y15879D01*
X10612D01*
Y15877D01*
X10612D01*
Y15876D01*
X10613D01*
Y15875D01*
X10614D01*
Y15873D01*
X10614D01*
Y15873D01*
X10615D01*
Y15870D01*
X10616D01*
Y15867D01*
X10617D01*
Y15867D01*
X10617D01*
Y15866D01*
X10618D01*
Y15864D01*
X10619D01*
Y15863D01*
X10619D01*
Y15860D01*
X10620D01*
Y15859D01*
X10621D01*
Y15858D01*
X10621D01*
Y15856D01*
X10621D01*
Y15856D01*
X10621D01*
Y15855D01*
Y15854D01*
X10622D01*
Y15854D01*
X10623D01*
Y15847D01*
X10624D01*
Y15820D01*
X10623D01*
Y15814D01*
X10622D01*
Y15813D01*
X10621D01*
Y15813D01*
X10621D01*
Y15812D01*
X10621D01*
Y15808D01*
X10621D01*
Y15808D01*
X10620D01*
Y15807D01*
X10619D01*
Y15804D01*
X10618D01*
Y15800D01*
X10617D01*
Y15800D01*
X10617D01*
Y15799D01*
X10616D01*
Y15796D01*
X10615D01*
Y15794D01*
X10614D01*
Y15793D01*
X10614D01*
Y15791D01*
X10613D01*
Y15791D01*
X10612D01*
Y15790D01*
X10612D01*
Y15789D01*
X10610D01*
Y15786D01*
X10610D01*
Y15785D01*
X10609D01*
Y15785D01*
X10608D01*
Y15783D01*
X10608D01*
Y15782D01*
X10607D01*
Y15781D01*
X10606D01*
Y15781D01*
X10606D01*
Y15780D01*
X10605D01*
Y15780D01*
X10604D01*
Y15779D01*
X10604D01*
Y15776D01*
X10603D01*
Y15775D01*
X10602D01*
Y15774D01*
X10601D01*
Y15774D01*
X10601D01*
Y15773D01*
X10600D01*
Y15772D01*
X10599D01*
Y15772D01*
X10599D01*
Y15771D01*
X10598D01*
Y15770D01*
X10597D01*
Y15770D01*
X10597D01*
Y15769D01*
X10596D01*
Y15768D01*
X10595D01*
Y15768D01*
X10595D01*
Y15766D01*
X10594D01*
Y15765D01*
X10593D01*
Y15765D01*
X10593D01*
Y15764D01*
X10592D01*
Y15763D01*
X10591D01*
Y15763D01*
X10591D01*
Y15762D01*
X10590D01*
Y15761D01*
X10589D01*
Y15761D01*
X10587D01*
Y15759D01*
X10586D01*
Y15759D01*
X10586D01*
Y15758D01*
X10585D01*
Y15757D01*
X10584D01*
Y15757D01*
X10584D01*
Y15756D01*
X10583D01*
Y15755D01*
X10582D01*
Y15755D01*
X10582D01*
Y15754D01*
X10581D01*
Y15753D01*
X10580D01*
Y15753D01*
X10579D01*
Y15752D01*
X10578D01*
Y15751D01*
X10576D01*
Y15750D01*
X10575D01*
Y15750D01*
X10575D01*
Y15749D01*
X10574D01*
Y15748D01*
X10573D01*
Y15748D01*
X10573D01*
Y15747D01*
X10572D01*
Y15746D01*
X10571D01*
Y15746D01*
X10571D01*
Y15745D01*
X10569D01*
Y15744D01*
X10568D01*
Y15744D01*
X10567D01*
Y15743D01*
X10567D01*
Y15742D01*
X10566D01*
Y15742D01*
X10563D01*
Y15740D01*
X10562D01*
Y15740D01*
X10561D01*
Y15739D01*
X10559D01*
Y15738D01*
X10558D01*
Y15737D01*
X10558D01*
Y15737D01*
X10557D01*
Y15736D01*
X10556D01*
Y15735D01*
X10554D01*
Y15735D01*
X10554D01*
Y15734D01*
X10551D01*
Y15733D01*
X10550D01*
Y15733D01*
X10550D01*
Y15732D01*
X10549D01*
Y15731D01*
X10548D01*
Y15731D01*
X10547D01*
Y15730D01*
X10546D01*
Y15729D01*
X10543D01*
Y15728D01*
X10543D01*
Y15727D01*
X10540D01*
Y15727D01*
X10539D01*
Y15726D01*
X10537D01*
Y15725D01*
X10534D01*
Y15724D01*
X10533D01*
Y15723D01*
X10531D01*
Y15722D01*
X10530D01*
Y15722D01*
X10528D01*
Y15720D01*
X10527D01*
Y15720D01*
X10524D01*
Y15719D01*
X10524D01*
Y15718D01*
X10521D01*
Y15717D01*
X10519D01*
Y15716D01*
X10518D01*
Y15716D01*
X10517D01*
Y15715D01*
X10513D01*
Y15714D01*
X10511D01*
Y15713D01*
X10510D01*
Y15712D01*
X10509D01*
Y15712D01*
X10506D01*
Y15711D01*
X10503D01*
Y15710D01*
X10502D01*
Y15709D01*
X10498D01*
Y15709D01*
X10498D01*
Y15708D01*
X10497D01*
Y15707D01*
X10493D01*
Y15706D01*
X10491D01*
Y15705D01*
X10490D01*
Y15705D01*
X10489D01*
Y15704D01*
X10487D01*
Y15705D01*
X10487D01*
Y15704D01*
X10485D01*
Y15703D01*
X10485D01*
Y15703D01*
X10479D01*
Y15702D01*
X10479D01*
Y15701D01*
X10478D01*
Y15701D01*
X10477D01*
Y15701D01*
X10475D01*
Y15701D01*
X10474D01*
Y15700D01*
X10474D01*
Y15699D01*
X10470D01*
Y15699D01*
X10469D01*
Y15698D01*
X10464D01*
Y15697D01*
X10463D01*
Y15697D01*
X10463D01*
Y15696D01*
X10457D01*
Y15696D01*
X10457D01*
Y15695D01*
X10453D01*
Y15694D01*
X10452D01*
Y15694D01*
X10446D01*
Y15693D01*
X10445D01*
Y15692D01*
X10444D01*
Y15692D01*
X10438D01*
Y15691D01*
X10438D01*
Y15690D01*
X10431D01*
Y15690D01*
X10431D01*
Y15689D01*
X10429D01*
Y15688D01*
X10423D01*
Y15688D01*
X10422D01*
Y15687D01*
X10414D01*
Y15686D01*
X10413D01*
Y15686D01*
X10405D01*
Y15685D01*
X10404D01*
Y15684D01*
X10403D01*
Y15684D01*
X10392D01*
Y15683D01*
X10391D01*
Y15683D01*
X10379D01*
Y15681D01*
X10378D01*
Y15681D01*
X10377D01*
Y15681D01*
X10375D01*
Y15681D01*
X10360D01*
Y15680D01*
X10360D01*
Y15679D01*
X10319D01*
Y15679D01*
X10318D01*
Y15678D01*
X10316D01*
Y15679D01*
X10274D01*
Y15680D01*
X10274D01*
Y15681D01*
X10259D01*
Y15681D01*
X10258D01*
Y15681D01*
X10256D01*
Y15681D01*
X10256D01*
Y15682D01*
X10255D01*
Y15683D01*
X10243D01*
Y15683D01*
X10243D01*
Y15684D01*
X10231D01*
Y15684D01*
X10230D01*
Y15686D01*
X10221D01*
Y15687D01*
X10212D01*
Y15688D01*
X10205D01*
Y15689D01*
X10204D01*
Y15690D01*
X10203D01*
Y15690D01*
X10196D01*
Y15691D01*
X10196D01*
Y15692D01*
X10190D01*
Y15692D01*
X10190D01*
Y15693D01*
X10189D01*
Y15694D01*
X10182D01*
Y15695D01*
X10177D01*
Y15696D01*
X10172D01*
Y15697D01*
X10171D01*
Y15698D01*
X10165D01*
Y15699D01*
X10164D01*
Y15699D01*
X10160D01*
Y15700D01*
X10160D01*
Y15701D01*
X10159D01*
Y15701D01*
X10155D01*
Y15703D01*
X10149D01*
Y15704D01*
X10148D01*
Y15705D01*
X10147D01*
Y15704D01*
X10146D01*
Y15705D01*
X10145D01*
Y15705D01*
X10144D01*
Y15706D01*
X10142D01*
Y15707D01*
X10141D01*
Y15707D01*
X10137D01*
Y15708D01*
X10136D01*
Y15709D01*
X10136D01*
Y15709D01*
X10132D01*
Y15710D01*
X10132D01*
Y15711D01*
X10129D01*
Y15711D01*
X10129D01*
Y15712D01*
X10125D01*
Y15712D01*
X10124D01*
Y15714D01*
X10121D01*
Y15714D01*
X10121D01*
Y15715D01*
X10117D01*
Y15716D01*
X10116D01*
Y15716D01*
X10116D01*
Y15717D01*
X10114D01*
Y15718D01*
X10113D01*
Y15718D01*
X10110D01*
Y15720D01*
X10108D01*
Y15720D01*
X10107D01*
Y15721D01*
X10106D01*
Y15722D01*
X10104D01*
Y15723D01*
X10101D01*
Y15724D01*
X10101D01*
Y15724D01*
X10100D01*
Y15725D01*
X10098D01*
Y15725D01*
X10097D01*
Y15726D01*
X10095D01*
Y15727D01*
X10092D01*
Y15728D01*
X10091D01*
Y15729D01*
X10091D01*
Y15729D01*
X10089D01*
Y15730D01*
X10088D01*
Y15731D01*
X10086D01*
Y15731D01*
X10085D01*
Y15732D01*
X10084D01*
Y15733D01*
X10084D01*
Y15733D01*
X10083D01*
Y15734D01*
X10081D01*
Y15735D01*
X10080D01*
Y15735D01*
X10080D01*
Y15736D01*
X10079D01*
Y15737D01*
X10078D01*
Y15737D01*
X10076D01*
Y15739D01*
X10073D01*
Y15739D01*
X10073D01*
Y15740D01*
X10072D01*
Y15740D01*
X10071D01*
Y15741D01*
X10071D01*
Y15742D01*
X10069D01*
Y15742D01*
X10068D01*
Y15743D01*
X10067D01*
Y15744D01*
X10067D01*
Y15744D01*
X10066D01*
Y15745D01*
X10065D01*
Y15746D01*
X10062D01*
Y15747D01*
X10062D01*
Y15748D01*
X10061D01*
Y15748D01*
X10060D01*
Y15749D01*
X10060D01*
Y15750D01*
X10059D01*
Y15750D01*
X10058D01*
Y15751D01*
X10056D01*
Y15752D01*
X10056D01*
Y15752D01*
X10055D01*
Y15753D01*
X10054D01*
Y15753D01*
X10054D01*
Y15754D01*
X10053D01*
Y15755D01*
X10052D01*
Y15755D01*
X10052D01*
Y15756D01*
X10051D01*
Y15757D01*
X10050D01*
Y15757D01*
X10050D01*
Y15758D01*
X10049D01*
Y15759D01*
X10049D01*
Y15759D01*
X10048D01*
Y15760D01*
X10047D01*
Y15761D01*
X10047D01*
Y15761D01*
X10046D01*
Y15762D01*
X10045D01*
Y15763D01*
X10045D01*
Y15763D01*
X10044D01*
Y15764D01*
X10043D01*
Y15765D01*
X10043D01*
Y15765D01*
X10042D01*
Y15766D01*
X10041D01*
Y15767D01*
X10041D01*
Y15767D01*
X10040D01*
Y15768D01*
X10039D01*
Y15768D01*
X10039D01*
Y15769D01*
X10038D01*
Y15770D01*
X10037D01*
Y15770D01*
X10037D01*
Y15771D01*
X10036D01*
Y15772D01*
X10036D01*
Y15772D01*
X10035D01*
Y15773D01*
X10034D01*
Y15774D01*
X10034D01*
Y15774D01*
X10033D01*
Y15775D01*
X10032D01*
Y15776D01*
X10032D01*
Y15776D01*
X10031D01*
Y15777D01*
X10030D01*
Y15779D01*
X10030D01*
Y15780D01*
X10029D01*
Y15780D01*
X10028D01*
Y15781D01*
X10028D01*
Y15783D01*
X10027D01*
Y15784D01*
X10026D01*
Y15785D01*
X10026D01*
Y15785D01*
X10025D01*
Y15786D01*
X10024D01*
Y15788D01*
X10024D01*
Y15789D01*
X10023D01*
Y15789D01*
X10022D01*
Y15792D01*
X10021D01*
Y15793D01*
X10020D01*
Y15796D01*
X10019D01*
Y15796D01*
X10019D01*
Y15797D01*
X10018D01*
Y15801D01*
X10017D01*
Y15804D01*
X10016D01*
Y15804D01*
X10015D01*
Y15805D01*
X10015D01*
Y15809D01*
X10014D01*
Y15809D01*
X10013D01*
Y15815D01*
X10013D01*
Y15815D01*
X10012D01*
Y15820D01*
X10011D01*
Y15821D01*
X10012D01*
Y15822D01*
X10011D01*
Y15823D01*
X10011D01*
Y15824D01*
X10010D01*
Y15843D01*
X10011D01*
Y15843D01*
X10011D01*
Y15844D01*
X10012D01*
Y15846D01*
X10011D01*
Y15847D01*
X10012D01*
Y15852D01*
X10013D01*
Y15853D01*
X10013D01*
Y15857D01*
X10014D01*
Y15858D01*
X10015D01*
Y15862D01*
X10015D01*
Y15862D01*
X10016D01*
Y15863D01*
X10017D01*
Y15867D01*
X10018D01*
Y15869D01*
X10019D01*
Y15870D01*
X10019D01*
Y15871D01*
X10020D01*
Y15873D01*
X10021D01*
Y15876D01*
X10022D01*
Y15877D01*
X10022D01*
Y15878D01*
X10023D01*
Y15879D01*
X10024D01*
Y15880D01*
X10024D01*
Y15880D01*
X10025D01*
Y15881D01*
X10026D01*
Y15884D01*
X10026D01*
Y15884D01*
X10027D01*
Y15885D01*
X10028D01*
Y15886D01*
X10029D01*
Y15888D01*
X10030D01*
Y15889D01*
X10030D01*
Y15890D01*
X10031D01*
Y15890D01*
X10032D01*
Y15891D01*
X10032D01*
Y15891D01*
X10033D01*
Y15892D01*
X10034D01*
Y15893D01*
X10034D01*
Y15893D01*
X10035D01*
Y15894D01*
X10036D01*
Y15895D01*
X10036D01*
Y15895D01*
X10037D01*
Y15898D01*
X10038D01*
Y15899D01*
X10039D01*
Y15899D01*
X10039D01*
Y15900D01*
X10040D01*
Y15901D01*
X10041D01*
Y15901D01*
X10041D01*
Y15902D01*
X10042D01*
Y15903D01*
X10043D01*
Y15903D01*
X10043D01*
Y15904D01*
X10044D01*
Y15905D01*
X10045D01*
Y15905D01*
X10045D01*
Y15906D01*
X10046D01*
Y15906D01*
X10047D01*
Y15907D01*
X10047D01*
Y15908D01*
X10048D01*
Y15908D01*
X10049D01*
Y15909D01*
X10049D01*
Y15910D01*
X10050D01*
Y15910D01*
X10052D01*
Y15911D01*
X10052D01*
Y15912D01*
X10053D01*
Y15912D01*
X10054D01*
Y15913D01*
X10054D01*
Y15914D01*
X10055D01*
Y15914D01*
X10056D01*
Y15915D01*
X10056D01*
Y15916D01*
X10057D01*
Y15916D01*
X10058D01*
Y15917D01*
X10058D01*
Y15918D01*
X10059D01*
Y15918D01*
X10061D01*
Y15919D01*
X10062D01*
Y15919D01*
X10062D01*
Y15920D01*
X10063D01*
Y15921D01*
X10063D01*
Y15921D01*
X10065D01*
Y15923D01*
X10066D01*
Y15923D01*
X10068D01*
Y15924D01*
X10069D01*
Y15925D01*
X10069D01*
Y15925D01*
X10070D01*
Y15926D01*
X10072D01*
Y15927D01*
X10073D01*
Y15927D01*
X10073D01*
Y15928D01*
X10074D01*
Y15929D01*
X10075D01*
Y15929D01*
X10077D01*
Y15931D01*
X10078D01*
Y15931D01*
X10079D01*
Y15933D01*
X10082D01*
Y15933D01*
X10082D01*
Y15934D01*
X10084D01*
Y15934D01*
X10085D01*
Y15935D01*
X10086D01*
Y15936D01*
X10087D01*
Y15937D01*
X10090D01*
Y15938D01*
X10090D01*
Y15938D01*
X10091D01*
Y15939D01*
X10091D01*
Y15938D01*
X10092D01*
Y15939D01*
X10093D01*
Y15940D01*
X10093D01*
Y15940D01*
X10096D01*
Y15942D01*
X10099D01*
Y15942D01*
X10099D01*
Y15943D01*
X10100D01*
Y15944D01*
X10102D01*
Y15944D01*
X10103D01*
Y15945D01*
X10105D01*
Y15946D01*
X10106D01*
Y15946D01*
X10106D01*
Y15947D01*
X10108D01*
Y15947D01*
X10109D01*
Y15948D01*
X10112D01*
Y15949D01*
X10114D01*
Y15950D01*
X10115D01*
Y15951D01*
X10116D01*
Y15951D01*
X10119D01*
Y15952D01*
X10120D01*
Y15953D01*
X10122D01*
Y15953D01*
X10123D01*
Y15954D01*
X10123D01*
Y15955D01*
X10125D01*
Y15954D01*
X10126D01*
Y15955D01*
X10127D01*
Y15955D01*
X10128D01*
Y15956D01*
X10131D01*
Y15957D01*
X10134D01*
Y15958D01*
X10135D01*
Y15959D01*
X10136D01*
Y15959D01*
X10138D01*
Y15960D01*
X10143D01*
Y15962D01*
X10144D01*
Y15962D01*
X10146D01*
Y15962D01*
X10147D01*
Y15962D01*
X10147D01*
Y15963D01*
X10148D01*
Y15964D01*
X10152D01*
Y15964D01*
X10153D01*
Y15965D01*
X10157D01*
Y15966D01*
X10157D01*
Y15966D01*
X10158D01*
Y15967D01*
X10163D01*
Y15968D01*
X10164D01*
Y15968D01*
X10168D01*
Y15969D01*
X10168D01*
Y15970D01*
X10169D01*
Y15970D01*
X10170D01*
Y15970D01*
X10171D01*
Y15970D01*
X10172D01*
Y15970D01*
X10174D01*
Y15970D01*
X10174D01*
Y15971D01*
X10175D01*
Y15972D01*
X10180D01*
Y15972D01*
X10181D01*
Y15973D01*
X10186D01*
Y15974D01*
X10187D01*
Y15974D01*
X10187D01*
Y15975D01*
X10193D01*
Y15976D01*
X10200D01*
Y15977D01*
X10201D01*
Y15977D01*
X10202D01*
Y15978D01*
X10203D01*
Y15977D01*
X10204D01*
Y15978D01*
X10207D01*
Y15977D01*
X10207D01*
Y15978D01*
X10209D01*
Y15979D01*
X10209D01*
Y15979D01*
X10216D01*
Y15980D01*
X10216D01*
Y15981D01*
X10225D01*
Y15981D01*
X10226D01*
Y15982D01*
X10226D01*
Y15983D01*
X10237D01*
Y15983D01*
X10237D01*
Y15984D01*
X10249D01*
Y15985D01*
X10250D01*
Y15986D01*
X10251D01*
Y15985D01*
X10257D01*
Y15986D01*
X10263D01*
Y15985D01*
X10264D01*
Y15986D01*
X10265D01*
Y15987D01*
X10265D01*
Y15987D01*
X10286D01*
Y15988D01*
X10287D01*
Y15988D01*
X10347D01*
Y15988D01*
D02*
G37*
G36*
X10681Y16440D02*
X10696D01*
Y16440D01*
X10699D01*
Y16439D01*
X10703D01*
Y16438D01*
X10707D01*
Y16438D01*
X10711D01*
Y16437D01*
X10716D01*
Y16436D01*
X10719D01*
Y16436D01*
X10723D01*
Y16435D01*
X10725D01*
Y16434D01*
X10727D01*
Y16434D01*
X10729D01*
Y16433D01*
X10732D01*
Y16432D01*
X10735D01*
Y16432D01*
X10737D01*
Y16431D01*
X10740D01*
Y16430D01*
X10742D01*
Y16430D01*
X10744D01*
Y16429D01*
X10748D01*
Y16429D01*
X10748D01*
Y16428D01*
X10751D01*
Y16427D01*
X10752D01*
Y16427D01*
X10754D01*
Y16426D01*
X10756D01*
Y16425D01*
X10758D01*
Y16425D01*
X10760D01*
Y16424D01*
X10761D01*
Y16423D01*
X10764D01*
Y16423D01*
X10765D01*
Y16422D01*
X10767D01*
Y16421D01*
X10769D01*
Y16421D01*
X10770D01*
Y16420D01*
X10772D01*
Y16419D01*
X10773D01*
Y16419D01*
X10775D01*
Y16418D01*
X10776D01*
Y16417D01*
X10778D01*
Y16417D01*
X10779D01*
Y16416D01*
X10780D01*
Y16416D01*
X10782D01*
Y16415D01*
X10783D01*
Y16414D01*
X10784D01*
Y16414D01*
X10785D01*
Y16413D01*
X10787D01*
Y16412D01*
X10788D01*
Y16412D01*
X10789D01*
Y16411D01*
X10791D01*
Y16410D01*
X10793D01*
Y16410D01*
X10794D01*
Y16409D01*
X10795D01*
Y16408D01*
X10796D01*
Y16408D01*
X10797D01*
Y16407D01*
X10798D01*
Y16406D01*
X10799D01*
Y16406D01*
X10800D01*
Y16405D01*
X10801D01*
Y16404D01*
X10802D01*
Y16404D01*
X10804D01*
Y16403D01*
X10805D01*
Y16403D01*
X10806D01*
Y16402D01*
X10807D01*
Y16401D01*
X10808D01*
Y16401D01*
X10809D01*
Y16400D01*
X10810D01*
Y16399D01*
X10811D01*
Y16399D01*
X10812D01*
Y16398D01*
X10813D01*
Y16397D01*
X10814D01*
Y16397D01*
X10816D01*
Y16396D01*
X10817D01*
Y16395D01*
X10817D01*
Y16395D01*
X10818D01*
Y16394D01*
X10819D01*
Y16393D01*
X10820D01*
Y16393D01*
X10821D01*
Y16392D01*
X10822D01*
Y16391D01*
X10823D01*
Y16391D01*
X10823D01*
Y16390D01*
X10824D01*
Y16389D01*
X10825D01*
Y16389D01*
X10826D01*
Y16388D01*
X10827D01*
Y16388D01*
X10828D01*
Y16387D01*
X10829D01*
Y16386D01*
X10830D01*
Y16386D01*
X10830D01*
Y16385D01*
X10831D01*
Y16384D01*
X10832D01*
Y16384D01*
X10833D01*
Y16383D01*
X10834D01*
Y16382D01*
X10835D01*
Y16382D01*
X10836D01*
Y16381D01*
X10836D01*
Y16380D01*
X10838D01*
Y16380D01*
X10838D01*
Y16379D01*
X10839D01*
Y16378D01*
X10839D01*
Y16378D01*
X10840D01*
Y16377D01*
X10841D01*
Y16376D01*
X10842D01*
Y16376D01*
X10843D01*
Y16375D01*
X10843D01*
Y16375D01*
X10844D01*
Y16374D01*
X10845D01*
Y16373D01*
X10845D01*
Y16373D01*
X10846D01*
Y16372D01*
X10847D01*
Y16371D01*
X10848D01*
Y16371D01*
X10849D01*
Y16370D01*
X10849D01*
Y16369D01*
X10850D01*
Y16369D01*
X10851D01*
Y16368D01*
X10851D01*
Y16367D01*
X10852D01*
Y16367D01*
X10852D01*
Y16366D01*
X10853D01*
Y16365D01*
X10854D01*
Y16365D01*
X10854D01*
Y16364D01*
X10855D01*
Y16363D01*
X10856D01*
Y16363D01*
X10856D01*
Y16362D01*
X10857D01*
Y16361D01*
X10858D01*
Y16361D01*
X10858D01*
Y16360D01*
X10859D01*
Y16360D01*
X10860D01*
Y16359D01*
X10860D01*
Y16358D01*
X10861D01*
Y16358D01*
X10862D01*
Y16357D01*
X10862D01*
Y16356D01*
X10863D01*
Y16355D01*
X10864D01*
Y16354D01*
X10864D01*
Y16354D01*
X10865D01*
Y16353D01*
X10865D01*
Y16352D01*
X10866D01*
Y16352D01*
X10867D01*
Y16351D01*
X10867D01*
Y16350D01*
X10868D01*
Y16350D01*
X10869D01*
Y16349D01*
X10869D01*
Y16348D01*
X10870D01*
Y16348D01*
X10871D01*
Y16347D01*
X10871D01*
Y16346D01*
X10872D01*
Y16345D01*
X10873D01*
Y16345D01*
X10873D01*
Y16344D01*
X10874D01*
Y16343D01*
X10875D01*
Y16343D01*
X10875D01*
Y16341D01*
X10876D01*
Y16341D01*
X10877D01*
Y16340D01*
X10877D01*
Y16339D01*
X10878D01*
Y16338D01*
X10879D01*
Y16337D01*
X10879D01*
Y16336D01*
X10880D01*
Y16335D01*
X10880D01*
Y16335D01*
X10881D01*
Y16334D01*
X10882D01*
Y16333D01*
X10882D01*
Y16332D01*
X10883D01*
Y16331D01*
X10884D01*
Y16330D01*
X10884D01*
Y16330D01*
X10885D01*
Y16328D01*
X10886D01*
Y16328D01*
X10886D01*
Y16327D01*
X10887D01*
Y16326D01*
X10888D01*
Y16325D01*
X10888D01*
Y16324D01*
X10889D01*
Y16323D01*
X10890D01*
Y16322D01*
X10890D01*
Y16322D01*
X10891D01*
Y16321D01*
X10892D01*
Y16319D01*
X10892D01*
Y16319D01*
X10893D01*
Y16317D01*
X10893D01*
Y16316D01*
X10894D01*
Y16315D01*
X10895D01*
Y16314D01*
X10895D01*
Y16313D01*
X10896D01*
Y16311D01*
X10897D01*
Y16311D01*
X10897D01*
Y16309D01*
X10898D01*
Y16308D01*
X10899D01*
Y16307D01*
X10899D01*
Y16306D01*
X10900D01*
Y16305D01*
X10901D01*
Y16304D01*
X10901D01*
Y16303D01*
X10902D01*
Y16302D01*
X10903D01*
Y16300D01*
X10903D01*
Y16300D01*
X10904D01*
Y16298D01*
X10905D01*
Y16297D01*
X10905D01*
Y16296D01*
X10906D01*
Y16294D01*
X10907D01*
Y16293D01*
X10907D01*
Y16291D01*
X10908D01*
Y16291D01*
X10908D01*
Y16289D01*
X10909D01*
Y16287D01*
X10910D01*
Y16287D01*
X10910D01*
Y16285D01*
X10911D01*
Y16284D01*
X10912D01*
Y16282D01*
X10912D01*
Y16281D01*
X10913D01*
Y16280D01*
X10914D01*
Y16278D01*
X10914D01*
Y16278D01*
X10915D01*
Y16276D01*
X10916D01*
Y16274D01*
X10916D01*
Y16272D01*
X10917D01*
Y16270D01*
X10918D01*
Y16269D01*
X10918D01*
Y16266D01*
X10919D01*
Y16265D01*
X10920D01*
Y16263D01*
X10920D01*
Y16261D01*
X10921D01*
Y16260D01*
X10921D01*
Y16257D01*
X10922D01*
Y16256D01*
X10923D01*
Y16254D01*
X10923D01*
Y16253D01*
X10924D01*
Y16250D01*
X10925D01*
Y16248D01*
X10925D01*
Y16246D01*
X10926D01*
Y16242D01*
X10927D01*
Y16240D01*
X10927D01*
Y16238D01*
X10928D01*
Y16235D01*
X10929D01*
Y16233D01*
X10929D01*
Y16230D01*
X10930D01*
Y16228D01*
X10931D01*
Y16224D01*
X10931D01*
Y16220D01*
X10932D01*
Y16215D01*
X10933D01*
Y16211D01*
X10933D01*
Y16207D01*
X10934D01*
Y16202D01*
X10934D01*
Y16199D01*
X10935D01*
Y16183D01*
X10936D01*
Y16173D01*
X10936D01*
Y16168D01*
X10936D01*
Y16154D01*
X10935D01*
Y16143D01*
X10934D01*
Y16140D01*
X10934D01*
Y16134D01*
X10933D01*
Y16130D01*
X10933D01*
Y16126D01*
X10932D01*
Y16121D01*
X10931D01*
Y16119D01*
X10931D01*
Y16114D01*
X10930D01*
Y16112D01*
X10929D01*
Y16109D01*
X10929D01*
Y16106D01*
X10928D01*
Y16104D01*
X10927D01*
Y16101D01*
X10927D01*
Y16099D01*
X10926D01*
Y16096D01*
X10925D01*
Y16094D01*
X10925D01*
Y16092D01*
X10924D01*
Y16090D01*
X10923D01*
Y16088D01*
X10923D01*
Y16085D01*
X10922D01*
Y16084D01*
X10921D01*
Y16082D01*
X10921D01*
Y16080D01*
X10920D01*
Y16078D01*
X10920D01*
Y16076D01*
X10919D01*
Y16075D01*
X10918D01*
Y16073D01*
X10918D01*
Y16071D01*
X10917D01*
Y16070D01*
X10916D01*
Y16068D01*
X10916D01*
Y16067D01*
X10915D01*
Y16065D01*
X10914D01*
Y16063D01*
X10914D01*
Y16062D01*
X10913D01*
Y16060D01*
X10912D01*
Y16059D01*
X10912D01*
Y16057D01*
X10911D01*
Y16056D01*
X10910D01*
Y16055D01*
X10910D01*
Y16054D01*
X10909D01*
Y16052D01*
X10908D01*
Y16051D01*
X10908D01*
Y16050D01*
X10907D01*
Y16048D01*
X10907D01*
Y16047D01*
X10906D01*
Y16046D01*
X10905D01*
Y16044D01*
X10905D01*
Y16043D01*
X10904D01*
Y16042D01*
X10903D01*
Y16041D01*
X10903D01*
Y16039D01*
X10902D01*
Y16039D01*
X10901D01*
Y16037D01*
X10901D01*
Y16037D01*
X10900D01*
Y16035D01*
X10899D01*
Y16034D01*
X10899D01*
Y16033D01*
X10898D01*
Y16031D01*
X10897D01*
Y16031D01*
X10897D01*
Y16030D01*
X10896D01*
Y16029D01*
X10895D01*
Y16028D01*
X10895D01*
Y16026D01*
X10894D01*
Y16026D01*
X10893D01*
Y16024D01*
X10893D01*
Y16023D01*
X10892D01*
Y16022D01*
X10892D01*
Y16022D01*
X10891D01*
Y16020D01*
X10890D01*
Y16020D01*
X10890D01*
Y16018D01*
X10889D01*
Y16018D01*
X10888D01*
Y16016D01*
X10888D01*
Y16016D01*
X10887D01*
Y16015D01*
X10886D01*
Y16014D01*
X10886D01*
Y16013D01*
X10885D01*
Y16012D01*
X10884D01*
Y16011D01*
X10884D01*
Y16011D01*
X10883D01*
Y16009D01*
X10882D01*
Y16009D01*
X10882D01*
Y16007D01*
X10881D01*
Y16007D01*
X10880D01*
Y16006D01*
X10880D01*
Y16005D01*
X10879D01*
Y16004D01*
X10879D01*
Y16003D01*
X10878D01*
Y16002D01*
X10877D01*
Y16001D01*
X10876D01*
Y16000D01*
X10875D01*
Y15999D01*
X10875D01*
Y15998D01*
X10874D01*
Y15998D01*
X10873D01*
Y15997D01*
X10873D01*
Y15996D01*
X10872D01*
Y15996D01*
X10871D01*
Y15994D01*
X10871D01*
Y15994D01*
X10870D01*
Y15993D01*
X10869D01*
Y15992D01*
X10869D01*
Y15991D01*
X10868D01*
Y15990D01*
X10867D01*
Y15990D01*
X10867D01*
Y15989D01*
X10866D01*
Y15988D01*
X10865D01*
Y15988D01*
X10865D01*
Y15987D01*
X10864D01*
Y15987D01*
X10864D01*
Y15986D01*
X10863D01*
Y15985D01*
X10862D01*
Y15985D01*
X10862D01*
Y15983D01*
X10861D01*
Y15983D01*
X10860D01*
Y15982D01*
X10859D01*
Y15981D01*
X10858D01*
Y15981D01*
X10858D01*
Y15980D01*
X10857D01*
Y15979D01*
X10856D01*
Y15979D01*
X10856D01*
Y15978D01*
X10855D01*
Y15977D01*
X10854D01*
Y15977D01*
X10854D01*
Y15976D01*
X10853D01*
Y15975D01*
X10852D01*
Y15975D01*
X10852D01*
Y15974D01*
X10851D01*
Y15974D01*
X10851D01*
Y15973D01*
X10850D01*
Y15972D01*
X10849D01*
Y15972D01*
X10848D01*
Y15970D01*
X10847D01*
Y15970D01*
X10846D01*
Y15968D01*
X10845D01*
Y15968D01*
X10844D01*
Y15967D01*
X10843D01*
Y15966D01*
X10842D01*
Y15966D01*
X10841D01*
Y15965D01*
X10841D01*
Y15964D01*
X10840D01*
Y15964D01*
X10839D01*
Y15963D01*
X10839D01*
Y15962D01*
X10838D01*
Y15962D01*
X10837D01*
Y15960D01*
X10836D01*
Y15960D01*
X10835D01*
Y15959D01*
X10834D01*
Y15959D01*
X10833D01*
Y15958D01*
X10832D01*
Y15957D01*
X10832D01*
Y15957D01*
X10830D01*
Y15956D01*
X10830D01*
Y15955D01*
X10829D01*
Y15955D01*
X10828D01*
Y15954D01*
X10827D01*
Y15953D01*
X10826D01*
Y15953D01*
X10825D01*
Y15952D01*
X10824D01*
Y15951D01*
X10824D01*
Y15951D01*
X10823D01*
Y15950D01*
X10821D01*
Y15949D01*
X10821D01*
Y15949D01*
X10820D01*
Y15948D01*
X10819D01*
Y15947D01*
X10818D01*
Y15947D01*
X10817D01*
Y15946D01*
X10815D01*
Y15946D01*
X10815D01*
Y15945D01*
X10814D01*
Y15944D01*
X10813D01*
Y15944D01*
X10811D01*
Y15943D01*
X10811D01*
Y15942D01*
X10810D01*
Y15942D01*
X10809D01*
Y15941D01*
X10808D01*
Y15940D01*
X10807D01*
Y15940D01*
X10806D01*
Y15939D01*
X10804D01*
Y15938D01*
X10803D01*
Y15938D01*
X10802D01*
Y15937D01*
X10801D01*
Y15936D01*
X10800D01*
Y15936D01*
X10799D01*
Y15935D01*
X10798D01*
Y15934D01*
X10796D01*
Y15934D01*
X10795D01*
Y15933D01*
X10794D01*
Y15933D01*
X10793D01*
Y15932D01*
X10792D01*
Y15931D01*
X10791D01*
Y15931D01*
X10789D01*
Y15930D01*
X10788D01*
Y15929D01*
X10787D01*
Y15929D01*
X10785D01*
Y15928D01*
X10785D01*
Y15927D01*
X10783D01*
Y15927D01*
X10782D01*
Y15926D01*
X10780D01*
Y15925D01*
X10779D01*
Y15925D01*
X10778D01*
Y15924D01*
X10776D01*
Y15923D01*
X10774D01*
Y15923D01*
X10772D01*
Y15922D01*
X10771D01*
Y15921D01*
X10770D01*
Y15921D01*
X10768D01*
Y15920D01*
X10767D01*
Y15919D01*
X10765D01*
Y15919D01*
X10763D01*
Y15918D01*
X10761D01*
Y15918D01*
X10759D01*
Y15917D01*
X10758D01*
Y15916D01*
X10756D01*
Y15916D01*
X10755D01*
Y15915D01*
X10752D01*
Y15914D01*
X10751D01*
Y15914D01*
X10749D01*
Y15913D01*
X10746D01*
Y15912D01*
X10745D01*
Y15912D01*
X10742D01*
Y15911D01*
X10740D01*
Y15910D01*
X10738D01*
Y15910D01*
X10735D01*
Y15909D01*
X10733D01*
Y15908D01*
X10731D01*
Y15908D01*
X10729D01*
Y15907D01*
X10725D01*
Y15906D01*
X10723D01*
Y15906D01*
X10719D01*
Y15905D01*
X10716D01*
Y15905D01*
X10713D01*
Y15904D01*
X10707D01*
Y15903D01*
X10704D01*
Y15903D01*
X10697D01*
Y15902D01*
X10692D01*
Y15901D01*
X10683D01*
Y15901D01*
X10677D01*
Y15902D01*
X10677D01*
Y15903D01*
X10677D01*
Y15905D01*
X10677D01*
Y15916D01*
X10676D01*
Y15925D01*
X10675D01*
Y15934D01*
X10675D01*
Y15938D01*
X10674D01*
Y15944D01*
X10673D01*
Y15948D01*
X10673D01*
Y15951D01*
X10672D01*
Y15958D01*
X10672D01*
Y15959D01*
X10671D01*
Y15962D01*
X10670D01*
Y15964D01*
X10670D01*
Y15966D01*
X10669D01*
Y15970D01*
X10668D01*
Y15972D01*
X10668D01*
Y15974D01*
X10667D01*
Y15977D01*
X10666D01*
Y15979D01*
X10666D01*
Y15981D01*
X10665D01*
Y15983D01*
X10664D01*
Y15986D01*
X10664D01*
Y15987D01*
X10663D01*
Y15989D01*
X10662D01*
Y15991D01*
X10662D01*
Y15992D01*
X10661D01*
Y15995D01*
X10660D01*
Y15996D01*
X10660D01*
Y15998D01*
X10659D01*
Y16000D01*
X10658D01*
Y16001D01*
X10658D01*
Y16003D01*
X10657D01*
Y16005D01*
X10657D01*
Y16007D01*
X10656D01*
Y16009D01*
X10655D01*
Y16011D01*
X10655D01*
Y16012D01*
X10654D01*
Y16013D01*
X10653D01*
Y16015D01*
X10653D01*
Y16015D01*
X10652D01*
Y16017D01*
X10651D01*
Y16018D01*
X10651D01*
Y16020D01*
X10650D01*
Y16022D01*
X10649D01*
Y16023D01*
X10649D01*
Y16024D01*
X10648D01*
Y16026D01*
X10647D01*
Y16027D01*
X10647D01*
Y16028D01*
X10646D01*
Y16029D01*
X10645D01*
Y16031D01*
X10645D01*
Y16032D01*
X10644D01*
Y16033D01*
X10644D01*
Y16035D01*
X10643D01*
Y16036D01*
X10642D01*
Y16037D01*
X10642D01*
Y16037D01*
X10641D01*
Y16039D01*
X10640D01*
Y16040D01*
X10640D01*
Y16041D01*
X10639D01*
Y16042D01*
X10638D01*
Y16043D01*
X10638D01*
Y16044D01*
X10637D01*
Y16045D01*
X10636D01*
Y16046D01*
X10636D01*
Y16048D01*
X10635D01*
Y16048D01*
X10634D01*
Y16049D01*
X10634D01*
Y16050D01*
X10633D01*
Y16052D01*
X10632D01*
Y16052D01*
X10632D01*
Y16054D01*
X10631D01*
Y16055D01*
X10630D01*
Y16056D01*
X10630D01*
Y16057D01*
X10629D01*
Y16057D01*
X10629D01*
Y16058D01*
X10628D01*
Y16059D01*
X10627D01*
Y16060D01*
X10627D01*
Y16061D01*
X10626D01*
Y16062D01*
X10625D01*
Y16063D01*
X10625D01*
Y16063D01*
X10624D01*
Y16064D01*
X10623D01*
Y16065D01*
X10623D01*
Y16066D01*
X10622D01*
Y16067D01*
X10621D01*
Y16068D01*
X10621D01*
Y16069D01*
X10620D01*
Y16070D01*
X10619D01*
Y16071D01*
X10619D01*
Y16071D01*
X10618D01*
Y16072D01*
X10617D01*
Y16073D01*
X10617D01*
Y16074D01*
X10616D01*
Y16075D01*
X10616D01*
Y16076D01*
X10615D01*
Y16076D01*
X10614D01*
Y16077D01*
X10614D01*
Y16078D01*
X10613D01*
Y16078D01*
X10612D01*
Y16079D01*
X10612D01*
Y16080D01*
X10611D01*
Y16080D01*
X10610D01*
Y16082D01*
X10610D01*
Y16082D01*
X10609D01*
Y16083D01*
X10608D01*
Y16084D01*
X10608D01*
Y16084D01*
X10607D01*
Y16085D01*
X10606D01*
Y16085D01*
X10606D01*
Y16087D01*
X10605D01*
Y16087D01*
X10604D01*
Y16088D01*
X10604D01*
Y16089D01*
X10603D01*
Y16089D01*
X10603D01*
Y16090D01*
X10602D01*
Y16091D01*
X10601D01*
Y16091D01*
X10601D01*
Y16092D01*
X10600D01*
Y16093D01*
X10599D01*
Y16093D01*
X10599D01*
Y16095D01*
X10598D01*
Y16095D01*
X10597D01*
Y16096D01*
X10597D01*
Y16097D01*
X10595D01*
Y16097D01*
X10595D01*
Y16098D01*
X10594D01*
Y16099D01*
X10593D01*
Y16099D01*
X10593D01*
Y16100D01*
X10592D01*
Y16100D01*
X10591D01*
Y16101D01*
X10591D01*
Y16102D01*
X10590D01*
Y16102D01*
X10589D01*
Y16103D01*
X10588D01*
Y16104D01*
X10588D01*
Y16104D01*
X10586D01*
Y16106D01*
X10585D01*
Y16106D01*
X10584D01*
Y16107D01*
X10584D01*
Y16108D01*
X10583D01*
Y16108D01*
X10582D01*
Y16109D01*
X10582D01*
Y16110D01*
X10581D01*
Y16110D01*
X10580D01*
Y16111D01*
X10580D01*
Y16112D01*
X10579D01*
Y16112D01*
X10578D01*
Y16113D01*
X10578D01*
Y16113D01*
X10576D01*
Y16114D01*
X10576D01*
Y16115D01*
X10575D01*
Y16115D01*
X10574D01*
Y16116D01*
X10573D01*
Y16117D01*
X10573D01*
Y16117D01*
X10571D01*
Y16118D01*
X10571D01*
Y16119D01*
X10570D01*
Y16119D01*
X10569D01*
Y16120D01*
X10568D01*
Y16121D01*
X10567D01*
Y16121D01*
X10566D01*
Y16122D01*
X10565D01*
Y16123D01*
X10565D01*
Y16123D01*
X10564D01*
Y16124D01*
X10563D01*
Y16125D01*
X10561D01*
Y16125D01*
X10561D01*
Y16126D01*
X10560D01*
Y16126D01*
X10560D01*
Y16127D01*
X10559D01*
Y16128D01*
X10558D01*
Y16128D01*
X10556D01*
Y16129D01*
X10555D01*
Y16130D01*
X10554D01*
Y16130D01*
X10554D01*
Y16131D01*
X10552D01*
Y16132D01*
X10551D01*
Y16132D01*
X10550D01*
Y16133D01*
X10549D01*
Y16134D01*
X10548D01*
Y16134D01*
X10547D01*
Y16135D01*
X10546D01*
Y16136D01*
X10545D01*
Y16136D01*
X10544D01*
Y16137D01*
X10543D01*
Y16138D01*
X10542D01*
Y16138D01*
X10541D01*
Y16139D01*
X10539D01*
Y16140D01*
X10539D01*
Y16140D01*
X10537D01*
Y16141D01*
X10537D01*
Y16141D01*
X10535D01*
Y16142D01*
X10534D01*
Y16143D01*
X10532D01*
Y16143D01*
X10532D01*
Y16144D01*
X10530D01*
Y16145D01*
X10528D01*
Y16145D01*
X10528D01*
Y16146D01*
X10526D01*
Y16147D01*
X10524D01*
Y16147D01*
X10523D01*
Y16148D01*
X10522D01*
Y16149D01*
X10520D01*
Y16149D01*
X10519D01*
Y16150D01*
X10518D01*
Y16151D01*
X10517D01*
Y16151D01*
X10515D01*
Y16152D01*
X10513D01*
Y16153D01*
X10512D01*
Y16153D01*
X10511D01*
Y16154D01*
X10509D01*
Y16154D01*
X10507D01*
Y16155D01*
X10506D01*
Y16156D01*
X10504D01*
Y16156D01*
X10502D01*
Y16157D01*
X10500D01*
Y16158D01*
X10499D01*
Y16158D01*
X10496D01*
Y16159D01*
X10496D01*
Y16160D01*
X10494D01*
Y16160D01*
X10492D01*
Y16161D01*
X10491D01*
Y16162D01*
X10489D01*
Y16162D01*
X10487D01*
Y16163D01*
X10484D01*
Y16164D01*
X10481D01*
Y16164D01*
X10479D01*
Y16165D01*
X10476D01*
Y16166D01*
X10474D01*
Y16166D01*
X10470D01*
Y16167D01*
X10469D01*
Y16168D01*
X10466D01*
Y16168D01*
X10463D01*
Y16169D01*
X10461D01*
Y16169D01*
X10456D01*
Y16170D01*
X10453D01*
Y16171D01*
X10448D01*
Y16171D01*
X10444D01*
Y16172D01*
X10439D01*
Y16173D01*
X10433D01*
Y16173D01*
X10425D01*
Y16174D01*
X10411D01*
Y16175D01*
X10398D01*
Y16174D01*
X10397D01*
Y16175D01*
X10395D01*
Y16178D01*
X10396D01*
Y16190D01*
X10397D01*
Y16201D01*
X10397D01*
Y16206D01*
X10398D01*
Y16209D01*
X10399D01*
Y16214D01*
X10399D01*
Y16216D01*
X10400D01*
Y16220D01*
X10401D01*
Y16225D01*
X10401D01*
Y16227D01*
X10402D01*
Y16231D01*
X10403D01*
Y16233D01*
X10403D01*
Y16235D01*
X10404D01*
Y16238D01*
X10405D01*
Y16240D01*
X10405D01*
Y16243D01*
X10406D01*
Y16245D01*
X10407D01*
Y16248D01*
X10407D01*
Y16250D01*
X10408D01*
Y16253D01*
X10409D01*
Y16255D01*
X10409D01*
Y16256D01*
X10410D01*
Y16259D01*
X10410D01*
Y16259D01*
X10411D01*
Y16261D01*
X10412D01*
Y16263D01*
X10412D01*
Y16265D01*
X10413D01*
Y16266D01*
X10414D01*
Y16268D01*
X10414D01*
Y16270D01*
X10415D01*
Y16272D01*
X10416D01*
Y16274D01*
X10416D01*
Y16275D01*
X10417D01*
Y16277D01*
X10418D01*
Y16279D01*
X10418D01*
Y16279D01*
X10419D01*
Y16281D01*
X10420D01*
Y16283D01*
X10420D01*
Y16284D01*
X10421D01*
Y16285D01*
X10422D01*
Y16287D01*
X10422D01*
Y16288D01*
X10423D01*
Y16289D01*
X10423D01*
Y16291D01*
X10424D01*
Y16292D01*
X10425D01*
Y16293D01*
X10425D01*
Y16294D01*
X10426D01*
Y16296D01*
X10427D01*
Y16298D01*
X10427D01*
Y16298D01*
X10428D01*
Y16300D01*
X10429D01*
Y16301D01*
X10429D01*
Y16302D01*
X10430D01*
Y16304D01*
X10431D01*
Y16305D01*
X10431D01*
Y16306D01*
X10432D01*
Y16307D01*
X10433D01*
Y16308D01*
X10433D01*
Y16309D01*
X10434D01*
Y16310D01*
X10435D01*
Y16311D01*
X10435D01*
Y16312D01*
X10436D01*
Y16313D01*
X10437D01*
Y16314D01*
X10437D01*
Y16315D01*
X10438D01*
Y16317D01*
X10438D01*
Y16317D01*
X10439D01*
Y16319D01*
X10440D01*
Y16320D01*
X10440D01*
Y16320D01*
X10441D01*
Y16321D01*
X10442D01*
Y16322D01*
X10442D01*
Y16324D01*
X10443D01*
Y16324D01*
X10444D01*
Y16325D01*
X10444D01*
Y16326D01*
X10445D01*
Y16327D01*
X10446D01*
Y16328D01*
X10446D01*
Y16329D01*
X10447D01*
Y16330D01*
X10448D01*
Y16331D01*
X10448D01*
Y16332D01*
X10449D01*
Y16332D01*
X10450D01*
Y16333D01*
X10450D01*
Y16334D01*
X10451D01*
Y16335D01*
X10451D01*
Y16335D01*
X10452D01*
Y16337D01*
X10453D01*
Y16337D01*
X10453D01*
Y16338D01*
X10454D01*
Y16339D01*
X10455D01*
Y16340D01*
X10455D01*
Y16341D01*
X10456D01*
Y16341D01*
X10457D01*
Y16343D01*
X10457D01*
Y16343D01*
X10458D01*
Y16344D01*
X10459D01*
Y16345D01*
X10459D01*
Y16345D01*
X10460D01*
Y16347D01*
X10461D01*
Y16348D01*
X10462D01*
Y16348D01*
X10463D01*
Y16349D01*
X10463D01*
Y16350D01*
X10464D01*
Y16350D01*
X10464D01*
Y16351D01*
X10465D01*
Y16352D01*
X10466D01*
Y16352D01*
X10466D01*
Y16353D01*
X10467D01*
Y16354D01*
X10468D01*
Y16354D01*
X10468D01*
Y16356D01*
X10469D01*
Y16356D01*
X10470D01*
Y16357D01*
X10470D01*
Y16358D01*
X10471D01*
Y16358D01*
X10472D01*
Y16359D01*
X10472D01*
Y16360D01*
X10473D01*
Y16360D01*
X10474D01*
Y16361D01*
X10474D01*
Y16362D01*
X10475D01*
Y16363D01*
X10476D01*
Y16363D01*
X10476D01*
Y16364D01*
X10477D01*
Y16365D01*
X10478D01*
Y16365D01*
X10479D01*
Y16367D01*
X10480D01*
Y16367D01*
X10481D01*
Y16368D01*
X10481D01*
Y16369D01*
X10482D01*
Y16369D01*
X10483D01*
Y16370D01*
X10484D01*
Y16371D01*
X10485D01*
Y16371D01*
X10485D01*
Y16372D01*
X10486D01*
Y16373D01*
X10487D01*
Y16373D01*
X10487D01*
Y16374D01*
X10488D01*
Y16375D01*
X10489D01*
Y16375D01*
X10489D01*
Y16376D01*
X10490D01*
Y16376D01*
X10491D01*
Y16377D01*
X10492D01*
Y16378D01*
X10492D01*
Y16378D01*
X10493D01*
Y16379D01*
X10494D01*
Y16380D01*
X10494D01*
Y16380D01*
X10495D01*
Y16381D01*
X10496D01*
Y16382D01*
X10497D01*
Y16382D01*
X10498D01*
Y16383D01*
X10499D01*
Y16384D01*
X10500D01*
Y16384D01*
X10500D01*
Y16385D01*
X10501D01*
Y16386D01*
X10502D01*
Y16386D01*
X10504D01*
Y16387D01*
X10504D01*
Y16388D01*
X10505D01*
Y16388D01*
X10506D01*
Y16389D01*
X10507D01*
Y16390D01*
X10508D01*
Y16391D01*
X10509D01*
Y16391D01*
X10510D01*
Y16392D01*
X10511D01*
Y16393D01*
X10512D01*
Y16393D01*
X10513D01*
Y16394D01*
X10513D01*
Y16395D01*
X10514D01*
Y16395D01*
X10515D01*
Y16396D01*
X10517D01*
Y16397D01*
X10517D01*
Y16397D01*
X10518D01*
Y16398D01*
X10520D01*
Y16399D01*
X10520D01*
Y16399D01*
X10522D01*
Y16400D01*
X10523D01*
Y16401D01*
X10524D01*
Y16401D01*
X10525D01*
Y16402D01*
X10526D01*
Y16403D01*
X10527D01*
Y16403D01*
X10528D01*
Y16404D01*
X10529D01*
Y16404D01*
X10530D01*
Y16405D01*
X10532D01*
Y16406D01*
X10533D01*
Y16406D01*
X10533D01*
Y16407D01*
X10534D01*
Y16408D01*
X10536D01*
Y16408D01*
X10537D01*
Y16409D01*
X10538D01*
Y16410D01*
X10539D01*
Y16410D01*
X10541D01*
Y16411D01*
X10542D01*
Y16412D01*
X10543D01*
Y16412D01*
X10545D01*
Y16413D01*
X10546D01*
Y16414D01*
X10548D01*
Y16414D01*
X10548D01*
Y16415D01*
X10550D01*
Y16416D01*
X10552D01*
Y16416D01*
X10552D01*
Y16417D01*
X10554D01*
Y16417D01*
X10555D01*
Y16418D01*
X10557D01*
Y16419D01*
X10558D01*
Y16419D01*
X10559D01*
Y16420D01*
X10561D01*
Y16421D01*
X10563D01*
Y16421D01*
X10565D01*
Y16422D01*
X10566D01*
Y16423D01*
X10567D01*
Y16423D01*
X10570D01*
Y16424D01*
X10571D01*
Y16425D01*
X10574D01*
Y16425D01*
X10575D01*
Y16426D01*
X10577D01*
Y16427D01*
X10579D01*
Y16427D01*
X10580D01*
Y16428D01*
X10582D01*
Y16429D01*
X10584D01*
Y16429D01*
X10586D01*
Y16430D01*
X10588D01*
Y16430D01*
X10591D01*
Y16431D01*
X10593D01*
Y16432D01*
X10595D01*
Y16432D01*
X10599D01*
Y16433D01*
X10601D01*
Y16434D01*
X10604D01*
Y16434D01*
X10606D01*
Y16435D01*
X10608D01*
Y16436D01*
X10611D01*
Y16436D01*
X10615D01*
Y16437D01*
X10620D01*
Y16438D01*
X10624D01*
Y16438D01*
X10629D01*
Y16439D01*
X10633D01*
Y16440D01*
X10637D01*
Y16440D01*
X10651D01*
Y16441D01*
X10681D01*
Y16440D01*
D02*
G37*
G36*
X9947Y15375D02*
X9797D01*
Y15475D01*
X9947D01*
Y15375D01*
D02*
G37*
G36*
X8120Y13350D02*
X8020D01*
Y13500D01*
X8120D01*
Y13350D01*
D02*
G37*
G36*
X9750Y11179D02*
X9600D01*
Y11279D01*
X9750D01*
Y11179D01*
D02*
G37*
G36*
X9770Y10837D02*
X9620D01*
Y10937D01*
X9770D01*
Y10837D01*
D02*
G37*
G36*
X7801D02*
X7651D01*
Y10937D01*
X7801D01*
Y10837D01*
D02*
G37*
G36*
X5833D02*
X5683D01*
Y10937D01*
X5833D01*
Y10837D01*
D02*
G37*
G36*
X3848Y7868D02*
X3748D01*
Y8018D01*
X3848D01*
Y7868D01*
D02*
G37*
G36*
Y5899D02*
X3748D01*
Y6049D01*
X3848D01*
Y5899D01*
D02*
G37*
G36*
Y3931D02*
X3748D01*
Y4081D01*
X3848D01*
Y3931D01*
D02*
G37*
G36*
X9573Y1602D02*
X9423D01*
Y1702D01*
X9573D01*
Y1602D01*
D02*
G37*
G36*
X7605D02*
X7455D01*
Y1702D01*
X7605D01*
Y1602D01*
D02*
G37*
G36*
X5636D02*
X5486D01*
Y1702D01*
X5636D01*
Y1602D01*
D02*
G37*
G36*
X13083Y6096D02*
X12983D01*
Y6246D01*
X13083D01*
Y6096D01*
D02*
G37*
G36*
X13649Y5466D02*
X13549D01*
Y5616D01*
X13649D01*
Y5466D01*
D02*
G37*
G36*
X21805Y5210D02*
X21705D01*
Y5360D01*
X21805D01*
Y5210D01*
D02*
G37*
G36*
X13083Y4128D02*
X12983D01*
Y4278D01*
X13083D01*
Y4128D01*
D02*
G37*
G36*
X13649Y2907D02*
X13549D01*
Y3057D01*
X13649D01*
Y2907D01*
D02*
G37*
G36*
X11542Y1602D02*
X11392D01*
Y1702D01*
X11542D01*
Y1602D01*
D02*
G37*
G36*
X20183Y1345D02*
X20033D01*
Y1445D01*
X20183D01*
Y1345D01*
D02*
G37*
G36*
X17624D02*
X17474D01*
Y1445D01*
X17624D01*
Y1345D01*
D02*
G37*
G36*
X12983Y8215D02*
X13083D01*
Y8065D01*
X12983D01*
Y8215D01*
D02*
G37*
G36*
X13649Y8175D02*
X13549D01*
Y8025D01*
X13649D01*
Y8175D01*
D02*
G37*
G36*
X11738Y10837D02*
X11588D01*
Y10937D01*
X11738D01*
Y10837D01*
D02*
G37*
G36*
X12215Y13941D02*
X12315D01*
Y14091D01*
X12215D01*
Y13941D01*
D02*
G37*
G36*
X15321Y11941D02*
Y12041D01*
X15171D01*
Y11941D01*
X15321D01*
D02*
G37*
G36*
X17880D02*
Y12041D01*
X17730D01*
Y11941D01*
X17880D01*
D02*
G37*
G36*
X21705Y7770D02*
X21805D01*
Y7919D01*
X21705D01*
Y7770D01*
D02*
G37*
G36*
Y10329D02*
X21805D01*
Y10479D01*
X21705D01*
Y10329D01*
D02*
G37*
D10*
X16644Y14055D02*
G03*
X16644Y14055I-49J0D01*
G01*
X13327Y13159D02*
G03*
X13327Y13159I-49J0D01*
G01*
X6644Y13396D02*
G03*
X6644Y13396I-49J0D01*
G01*
X12165Y11900D02*
G03*
X12165Y11900I-49J0D01*
G01*
X4006Y10039D02*
G03*
X4006Y10039I-49J0D01*
G01*
X13926Y10728D02*
G03*
X13926Y10728I-49J0D01*
G01*
X23622Y6791D02*
G03*
X23622Y6791I-49J0D01*
G01*
X22677Y6791D02*
G03*
X22677Y6791I-49J0D01*
G01*
X16152Y14892D02*
G03*
X16152Y14892I-49J0D01*
G01*
D11*
X24289Y868D02*
G03*
X24289Y868I-39J0D01*
G01*
X16713Y14409D02*
Y14921D01*
Y14409D02*
X18406D01*
X16713Y14921D02*
X18406D01*
Y14409D02*
Y14921D01*
X14587Y13573D02*
Y14478D01*
X13366D02*
X14587D01*
X13366Y13573D02*
X14587D01*
X13366D02*
Y14478D01*
X5896Y15453D02*
X6132D01*
X4793D02*
X5030D01*
X6132Y13445D02*
Y15453D01*
X5896Y13445D02*
X6132D01*
X4793D02*
X5030D01*
X4793D02*
Y15453D01*
X3081Y6614D02*
X3248D01*
Y6356D02*
Y6614D01*
Y5276D02*
Y5533D01*
X3081Y5276D02*
X3248D01*
X1909Y6614D02*
X2077D01*
X1909Y6356D02*
Y6614D01*
Y5276D02*
X2077D01*
X1909D02*
Y5533D01*
X22825Y8091D02*
X23219D01*
X22825Y7776D02*
Y8091D01*
Y6909D02*
X23219D01*
X22825D02*
Y7224D01*
X23376Y6358D02*
Y6673D01*
X22982D02*
X23376D01*
Y5492D02*
Y5807D01*
X22982Y5492D02*
X23376D01*
X2461Y10591D02*
X2530D01*
Y10333D02*
Y10591D01*
Y9252D02*
Y9510D01*
X2461Y9252D02*
X2530D01*
X1191Y10333D02*
Y10591D01*
X1260D01*
X1191Y9252D02*
X1260D01*
X1191D02*
Y9510D01*
X14793Y13573D02*
Y14478D01*
X16014D01*
X14793Y13573D02*
X16014D01*
Y14478D01*
D12*
X23563Y2382D02*
G03*
X23563Y2382I-20J0D01*
G01*
X1929Y5118D02*
G03*
X1929Y5118I-20J0D01*
G01*
X23534Y13027D02*
G03*
X23534Y13027I-20J0D01*
G01*
X1211Y9094D02*
G03*
X1211Y9094I-20J0D01*
G01*
X23534Y10527D02*
G03*
X23534Y10527I-20J0D01*
G01*
X22126Y15866D02*
G03*
X22126Y15866I-20J0D01*
G01*
X23563Y3917D02*
G03*
X23563Y3917I-20J0D01*
G01*
X24394Y12D02*
Y1012D01*
X18404D02*
X24394D01*
X18404Y12D02*
X24394D01*
X18404D02*
Y1012D01*
X22756Y3799D02*
X23071D01*
X22756Y2421D02*
X23071D01*
X22372Y14744D02*
X23455D01*
X22371Y12972D02*
X23453D01*
X935Y13671D02*
X1033Y13573D01*
X935Y12982D02*
X1033Y13081D01*
X148Y13573D02*
X246Y13671D01*
X148Y13081D02*
X246Y12982D01*
X14970Y11122D02*
X15020D01*
X1161Y5620D02*
Y5856D01*
X1791Y5620D02*
Y5856D01*
X14636Y256D02*
X14734Y157D01*
X15226Y1043D02*
X15325Y945D01*
X15226Y157D02*
X15325Y256D01*
X14636Y945D02*
X14734Y1043D01*
X13120Y256D02*
X13218Y157D01*
X13711Y1043D02*
X13809Y945D01*
X13711Y157D02*
X13809Y256D01*
X13120Y945D02*
X13218Y1043D01*
X197Y4970D02*
X787D01*
X935Y6486D02*
X1033Y6388D01*
X148Y5896D02*
X246Y5797D01*
X935D02*
X1033Y5896D01*
X148Y6388D02*
X246Y6486D01*
X148Y7274D02*
Y8602D01*
X8622Y256D02*
X8720Y157D01*
X9213Y1043D02*
X9311Y945D01*
X9213Y157D02*
X9311Y256D01*
X8622Y945D02*
X8720Y1043D01*
X22372Y12244D02*
X23455D01*
X22371Y10472D02*
X23453D01*
X20689Y15079D02*
Y15394D01*
X22067Y15079D02*
Y15394D01*
X22756Y5335D02*
X23071D01*
X22756Y3957D02*
X23071D01*
X6348Y945D02*
X6447Y1043D01*
X6939Y157D02*
X7037Y256D01*
X6939Y1043D02*
X7037Y945D01*
X6348Y256D02*
X6447Y157D01*
X7106Y945D02*
X7205Y1043D01*
X7697Y157D02*
X7795Y256D01*
X7697Y1043D02*
X7795Y945D01*
X7106Y256D02*
X7205Y157D01*
X7854Y945D02*
X7953Y1043D01*
X8445Y157D02*
X8543Y256D01*
X8445Y1043D02*
X8543Y945D01*
X7854Y256D02*
X7953Y157D01*
X9350Y945D02*
X9449Y1043D01*
X9941Y157D02*
X10039Y256D01*
X9941Y1043D02*
X10039Y945D01*
X9350Y256D02*
X9449Y157D01*
X10098Y945D02*
X10197Y1043D01*
X10689Y157D02*
X10787Y256D01*
X10689Y1043D02*
X10787Y945D01*
X10098Y256D02*
X10197Y157D01*
X10846Y945D02*
X10945Y1043D01*
X11437Y157D02*
X11535Y256D01*
X11437Y1043D02*
X11535Y945D01*
X10846Y256D02*
X10945Y157D01*
X11604Y945D02*
X11703Y1043D01*
X12195Y157D02*
X12293Y256D01*
X12195Y1043D02*
X12293Y945D01*
X11604Y256D02*
X11703Y157D01*
X935Y12884D02*
X1033Y12785D01*
X148Y12293D02*
X246Y12195D01*
X935D02*
X1033Y12293D01*
X148Y12785D02*
X246Y12884D01*
X12362Y945D02*
X12461Y1043D01*
X12953Y157D02*
X13051Y256D01*
X12953Y1043D02*
X13051Y945D01*
X12362Y256D02*
X12461Y157D01*
X13878Y945D02*
X13976Y1043D01*
X14468Y157D02*
X14567Y256D01*
X14468Y1043D02*
X14567Y945D01*
X13878Y256D02*
X13976Y157D01*
X935Y7274D02*
X1033Y7175D01*
X148Y6683D02*
X246Y6585D01*
X935D02*
X1033Y6683D01*
X148Y7175D02*
X246Y7274D01*
X935Y12096D02*
X1033Y11998D01*
X148Y11506D02*
X246Y11407D01*
X935D02*
X1033Y11506D01*
X148Y11998D02*
X246Y12096D01*
X17372Y945D02*
X17470Y1043D01*
X17963Y157D02*
X18061Y256D01*
X17963Y1043D02*
X18061Y945D01*
X17372Y256D02*
X17470Y157D01*
X15394Y945D02*
X15492Y1043D01*
X15984Y157D02*
X16083Y256D01*
X15984Y1043D02*
X16083Y945D01*
X15394Y256D02*
X15492Y157D01*
X148Y15817D02*
X246Y15915D01*
X935Y15226D02*
X1033Y15325D01*
X148D02*
X246Y15226D01*
X935Y15915D02*
X1033Y15817D01*
X148Y14695D02*
X246Y14793D01*
X935Y14104D02*
X1033Y14203D01*
X148D02*
X246Y14104D01*
X935Y14793D02*
X1033Y14695D01*
X148Y7274D02*
X197Y7224D01*
X1457Y12687D02*
X1850D01*
X1457Y13809D02*
X1850D01*
X1457Y14931D02*
X1850D01*
X2805Y12254D02*
X3199D01*
D13*
X354Y2431D02*
G03*
X354Y2431I-49J0D01*
G01*
X1388Y3671D02*
X1762D01*
X1388Y1762D02*
X1762D01*
D14*
X11632Y14595D02*
Y14792D01*
X11436D02*
X11632D01*
Y11862D02*
Y12058D01*
X11436Y11862D02*
X11632D01*
X8702Y14792D02*
X8899D01*
X8702Y14595D02*
Y14792D01*
Y11862D02*
X8899D01*
X8702D02*
Y12058D01*
X12400Y9901D02*
Y10255D01*
X12046D02*
X12400D01*
Y2285D02*
Y2639D01*
X12046Y2285D02*
X12400D01*
X4430Y10255D02*
X4784D01*
X4430Y9901D02*
Y10255D01*
Y2285D02*
X4784D01*
X4430D02*
Y2639D01*
D15*
X20876Y10630D02*
Y11122D01*
X20335D02*
X20876D01*
X19213Y8898D02*
X20748Y10433D01*
X19213Y9291D02*
X20748Y10827D01*
X19213Y8110D02*
X20748Y9646D01*
X19213Y7717D02*
X20748Y9252D01*
X19213Y8504D02*
X20748Y10039D01*
X19213Y7323D02*
X20748Y8858D01*
X18391Y7288D02*
X19213Y8110D01*
X17638Y7717D02*
X19213Y9291D01*
X18514Y7018D02*
X19213Y7717D01*
X18514Y6624D02*
X19213Y7323D01*
X17992Y7283D02*
X19213Y8504D01*
X17638Y7717D02*
X17638D01*
X16841Y7283D02*
X18514D01*
X17215Y7293D02*
X17638Y7717D01*
X17598Y7283D02*
X19213Y8898D01*
X17835Y2402D02*
X20748Y5315D01*
X18228Y2402D02*
X20748Y4921D01*
X17047Y2402D02*
X20748Y6102D01*
X20876Y2264D02*
Y2756D01*
X18622Y2402D02*
X20748Y4528D01*
X19409Y2402D02*
X20748Y3740D01*
X20335Y2264D02*
X20876D01*
X19016Y2402D02*
X20748Y4134D01*
X18514Y6545D02*
Y7283D01*
X17717Y5827D02*
X18435Y6545D01*
X17717Y5827D02*
X17717D01*
X20197Y2402D02*
X20748Y2953D01*
X20591Y2402D02*
X20748Y2559D01*
X19803Y2402D02*
X20748Y3346D01*
X17441Y2402D02*
X20748Y5709D01*
X16841Y6545D02*
Y7283D01*
X14606Y8622D02*
X16968Y10984D01*
X14606Y10197D02*
X15394Y10984D01*
X14606Y9409D02*
X16181Y10984D01*
X14606Y9016D02*
X16575Y10984D01*
X14606Y9803D02*
X15787Y10984D01*
X16732Y6811D02*
X16732D01*
X16836Y6914D01*
X16841Y6545D02*
X18514D01*
X16604Y6683D02*
X16732Y6811D01*
X14606Y7835D02*
X17756Y10984D01*
X14606Y7441D02*
X18150Y10984D01*
X14606Y8228D02*
X17362Y10984D01*
X14606Y6654D02*
X18937Y10984D01*
X14606Y6260D02*
X19331Y10984D01*
X14606Y7047D02*
X18543Y10984D01*
X14478Y11122D02*
X15020D01*
X14478Y10630D02*
Y11122D01*
X14606Y10591D02*
X15000Y10984D01*
X16142Y5433D02*
X17254Y6545D01*
X16142Y4646D02*
X18041Y6545D01*
X16142Y6220D02*
X16604Y6683D01*
X16142Y5827D02*
X16860Y6545D01*
X15866Y2402D02*
X20748Y7283D01*
X16260Y2402D02*
X20748Y6890D01*
X15472Y2402D02*
X20748Y7677D01*
X14606Y5472D02*
X20118Y10984D01*
X14606Y5079D02*
X20512Y10984D01*
X14606Y5866D02*
X19724Y10984D01*
X15079Y2402D02*
X20748Y8071D01*
X14685Y2402D02*
X20748Y8465D01*
X16654Y2402D02*
X20748Y6496D01*
X16142Y4252D02*
X17717Y5827D01*
X16142Y5039D02*
X17638Y6535D01*
X14606Y3504D02*
X16142Y5039D01*
X14606Y3110D02*
X16142Y4646D01*
X14606Y3898D02*
X16142Y5433D01*
X14606Y2717D02*
X16142Y4252D01*
X14606Y4685D02*
X16142Y6220D01*
X14606Y4291D02*
X16142Y5827D01*
X14478Y2264D02*
X15020D01*
X14478D02*
Y2756D01*
X17028Y6752D02*
Y7106D01*
X17205D01*
X17264Y7047D01*
Y6929D01*
X17205Y6870D01*
X17028D01*
X17382Y6752D02*
Y7106D01*
X17559D01*
X17618Y7047D01*
Y6929D01*
X17559Y6870D01*
X17382D01*
X17736Y7106D02*
Y6811D01*
X17795Y6752D01*
X17913D01*
X17972Y6811D01*
Y7106D01*
X18327Y6752D02*
X18090D01*
X18327Y6988D01*
Y7047D01*
X18268Y7106D01*
X18149D01*
X18090Y7047D01*
X16743Y13594D02*
X16684Y13653D01*
X16566D01*
X16507Y13594D01*
Y13535D01*
X16566Y13476D01*
X16684D01*
X16743Y13417D01*
Y13358D01*
X16684Y13299D01*
X16566D01*
X16507Y13358D01*
X16861Y13299D02*
Y13653D01*
X17097Y13299D01*
Y13653D01*
X17451D02*
X17215D01*
Y13299D01*
X17451D01*
X17215Y13476D02*
X17333D01*
X17805Y13594D02*
X17746Y13653D01*
X17628D01*
X17569Y13594D01*
Y13535D01*
X17628Y13476D01*
X17746D01*
X17805Y13417D01*
Y13358D01*
X17746Y13299D01*
X17628D01*
X17569Y13358D01*
X18278Y13653D02*
X18514D01*
X18396D01*
Y13299D01*
X18868Y13594D02*
X18809Y13653D01*
X18691D01*
X18632Y13594D01*
Y13535D01*
X18691Y13476D01*
X18809D01*
X18868Y13417D01*
Y13358D01*
X18809Y13299D01*
X18691D01*
X18632Y13358D01*
X18986Y13653D02*
X19222D01*
X19104D01*
Y13299D01*
X19695D02*
Y13653D01*
X19813Y13535D01*
X19931Y13653D01*
Y13299D01*
X20108Y13535D02*
X20226D01*
X20285Y13476D01*
Y13299D01*
X20108D01*
X20049Y13358D01*
X20108Y13417D01*
X20285D01*
X20403Y13299D02*
X20521D01*
X20462D01*
Y13535D01*
X20403D01*
X20698Y13299D02*
Y13535D01*
X20875D01*
X20934Y13476D01*
Y13299D01*
X17953Y12732D02*
Y13086D01*
X18130D01*
X18189Y13027D01*
Y12909D01*
X18130Y12850D01*
X17953D01*
X18071D02*
X18189Y12732D01*
X18484D02*
X18366D01*
X18307Y12791D01*
Y12909D01*
X18366Y12968D01*
X18484D01*
X18543Y12909D01*
Y12850D01*
X18307D01*
X18661Y12968D02*
X18780Y12732D01*
X18898Y12968D01*
X19370Y12732D02*
X19488D01*
X19429D01*
Y13086D01*
X19370Y13027D01*
X17274Y12165D02*
X17038D01*
X17274Y12401D01*
Y12461D01*
X17215Y12520D01*
X17097D01*
X17038Y12461D01*
X17392D02*
X17451Y12520D01*
X17569D01*
X17628Y12461D01*
Y12224D01*
X17569Y12165D01*
X17451D01*
X17392Y12224D01*
Y12461D01*
X17983Y12165D02*
X17746D01*
X17983Y12401D01*
Y12461D01*
X17923Y12520D01*
X17805D01*
X17746Y12461D01*
X18278Y12165D02*
Y12520D01*
X18101Y12342D01*
X18337D01*
X18455Y12165D02*
X18691Y12401D01*
X18809Y12165D02*
X18927D01*
X18868D01*
Y12520D01*
X18809Y12461D01*
X19104D02*
X19163Y12520D01*
X19281D01*
X19340Y12461D01*
Y12224D01*
X19281Y12165D01*
X19163D01*
X19104Y12224D01*
Y12461D01*
X19458Y12165D02*
X19695Y12401D01*
X20049Y12165D02*
X19813D01*
X20049Y12401D01*
Y12461D01*
X19990Y12520D01*
X19872D01*
X19813Y12461D01*
X20167D02*
X20226Y12520D01*
X20344D01*
X20403Y12461D01*
Y12401D01*
X20344Y12342D01*
X20285D01*
X20344D01*
X20403Y12283D01*
Y12224D01*
X20344Y12165D01*
X20226D01*
X20167Y12224D01*
X14574Y11030D02*
X14757Y10846D01*
X14574D02*
X14757Y11030D01*
X14574Y10938D02*
X14757D01*
X14665Y10846D02*
Y11030D01*
X1565Y13674D02*
X1611Y13720D01*
X1703D01*
X1749Y13674D01*
Y13629D01*
X1703Y13583D01*
X1657D01*
X1703D01*
X1749Y13537D01*
Y13491D01*
X1703Y13445D01*
X1611D01*
X1565Y13491D01*
X1749Y12323D02*
X1565D01*
X1749Y12507D01*
Y12552D01*
X1703Y12598D01*
X1611D01*
X1565Y12552D01*
X1378Y15659D02*
X1102D01*
Y15522D01*
X1148Y15476D01*
X1194D01*
X1240Y15522D01*
Y15659D01*
Y15522D01*
X1286Y15476D01*
X1332D01*
X1378Y15522D01*
Y15659D01*
X577Y4882D02*
X394D01*
Y4744D01*
X486Y4790D01*
X531D01*
X577Y4744D01*
Y4652D01*
X531Y4606D01*
X440D01*
X394Y4652D01*
X410Y8547D02*
X364Y8592D01*
X272D01*
X226Y8547D01*
Y8363D01*
X272Y8317D01*
X364D01*
X410Y8363D01*
Y8455D01*
X318D01*
X502Y8317D02*
Y8592D01*
X686Y8317D01*
Y8592D01*
X777D02*
Y8317D01*
X915D01*
X961Y8363D01*
Y8547D01*
X915Y8592D01*
X777D01*
X236Y8159D02*
Y7976D01*
X328Y7884D01*
X420Y7976D01*
Y8159D01*
X512D02*
X604D01*
X558D01*
Y7884D01*
X512D01*
X604D01*
X1102Y13415D02*
X1378D01*
Y13278D01*
X1332Y13232D01*
X1240D01*
X1194Y13278D01*
Y13415D01*
Y13324D02*
X1102Y13232D01*
X1691Y14567D02*
Y14842D01*
X1553Y14705D01*
X1736D01*
X1332Y11814D02*
X1378Y11860D01*
Y11952D01*
X1332Y11998D01*
X1148D01*
X1102Y11952D01*
Y11860D01*
X1148Y11814D01*
X1332Y11539D02*
X1378Y11585D01*
Y11677D01*
X1332Y11723D01*
X1286D01*
X1240Y11677D01*
Y11585D01*
X1194Y11539D01*
X1148D01*
X1102Y11585D01*
Y11677D01*
X1148Y11723D01*
X1332Y12720D02*
X1378Y12766D01*
Y12858D01*
X1332Y12904D01*
X1148D01*
X1102Y12858D01*
Y12766D01*
X1148Y12720D01*
X1240D01*
Y12812D01*
X1102Y12628D02*
X1378D01*
X1102Y12444D01*
X1378D01*
Y12353D02*
X1102D01*
Y12215D01*
X1148Y12169D01*
X1332D01*
X1378Y12215D01*
Y12353D01*
X1332Y14354D02*
X1378Y14400D01*
Y14491D01*
X1332Y14537D01*
X1148D01*
X1102Y14491D01*
Y14400D01*
X1148Y14354D01*
X1240D01*
Y14446D01*
X17536Y1352D02*
X17490Y1398D01*
X17398D01*
X17352Y1352D01*
Y1168D01*
X17398Y1122D01*
X17490D01*
X17536Y1168D01*
Y1260D01*
X17444D01*
X17628Y1122D02*
Y1398D01*
X17812Y1122D01*
Y1398D01*
X17903D02*
Y1122D01*
X18041D01*
X18087Y1168D01*
Y1352D01*
X18041Y1398D01*
X17903D01*
X8914Y1352D02*
X8868Y1398D01*
X8776D01*
X8730Y1352D01*
Y1168D01*
X8776Y1122D01*
X8868D01*
X8914Y1168D01*
Y1260D01*
X8822D01*
X9006Y1398D02*
Y1122D01*
X9189D01*
X12470D02*
Y1398D01*
X12562Y1306D01*
X12654Y1398D01*
Y1122D01*
X12930Y1352D02*
X12884Y1398D01*
X12792D01*
X12746Y1352D01*
Y1168D01*
X12792Y1122D01*
X12884D01*
X12930Y1168D01*
X9642Y1352D02*
X9596Y1398D01*
X9505D01*
X9459Y1352D01*
Y1168D01*
X9505Y1122D01*
X9596D01*
X9642Y1168D01*
X9734Y1352D02*
X9780Y1398D01*
X9872D01*
X9918Y1352D01*
Y1168D01*
X9872Y1122D01*
X9780D01*
X9734Y1168D01*
Y1352D01*
X10390D02*
X10344Y1398D01*
X10253D01*
X10207Y1352D01*
Y1168D01*
X10253Y1122D01*
X10344D01*
X10390Y1168D01*
X10482Y1122D02*
X10574D01*
X10528D01*
Y1398D01*
X10482Y1352D01*
X11138D02*
X11092Y1398D01*
X11001D01*
X10955Y1352D01*
Y1168D01*
X11001Y1122D01*
X11092D01*
X11138Y1168D01*
X11414Y1122D02*
X11230D01*
X11414Y1306D01*
Y1352D01*
X11368Y1398D01*
X11276D01*
X11230Y1352D01*
X11896D02*
X11850Y1398D01*
X11759D01*
X11713Y1352D01*
Y1168D01*
X11759Y1122D01*
X11850D01*
X11896Y1168D01*
X11988Y1352D02*
X12034Y1398D01*
X12126D01*
X12172Y1352D01*
Y1306D01*
X12126Y1260D01*
X12080D01*
X12126D01*
X12172Y1214D01*
Y1168D01*
X12126Y1122D01*
X12034D01*
X11988Y1168D01*
X3002Y12333D02*
X3094D01*
X3048D01*
Y12608D01*
X3002Y12562D01*
X19415Y1398D02*
X19599D01*
X19507D01*
Y1122D01*
X19691Y1398D02*
Y1122D01*
X19829D01*
X19875Y1168D01*
Y1352D01*
X19829Y1398D01*
X19691D01*
X19966D02*
X20058D01*
X20012D01*
Y1122D01*
X19966D01*
X20058D01*
X23415Y1398D02*
Y1214D01*
X23507Y1122D01*
X23599Y1214D01*
Y1398D01*
X23875Y1306D02*
X23737D01*
X23691Y1260D01*
Y1168D01*
X23737Y1122D01*
X23875D01*
X24150Y1306D02*
X24012D01*
X23966Y1260D01*
Y1168D01*
X24012Y1122D01*
X24150D01*
X22599Y1352D02*
X22553Y1398D01*
X22461D01*
X22415Y1352D01*
Y1168D01*
X22461Y1122D01*
X22553D01*
X22599Y1168D01*
Y1260D01*
X22507D01*
X22691Y1122D02*
Y1398D01*
X22875Y1122D01*
Y1398D01*
X22966D02*
Y1122D01*
X23104D01*
X23150Y1168D01*
Y1352D01*
X23104Y1398D01*
X22966D01*
X21415D02*
X21599D01*
X21507D01*
Y1122D01*
X21875Y1352D02*
X21829Y1398D01*
X21737D01*
X21691Y1352D01*
Y1168D01*
X21737Y1122D01*
X21829D01*
X21875Y1168D01*
X21966Y1398D02*
Y1122D01*
Y1214D01*
X22150Y1398D01*
X22012Y1260D01*
X22150Y1122D01*
X20415Y1398D02*
X20599D01*
X20507D01*
Y1122D01*
X20691D02*
Y1398D01*
X20783Y1306D01*
X20875Y1398D01*
Y1122D01*
X21150Y1352D02*
X21104Y1398D01*
X21012D01*
X20966Y1352D01*
Y1306D01*
X21012Y1260D01*
X21104D01*
X21150Y1214D01*
Y1168D01*
X21104Y1122D01*
X21012D01*
X20966Y1168D01*
X18415Y1398D02*
X18599D01*
X18507D01*
Y1122D01*
X18691Y1398D02*
Y1122D01*
X18829D01*
X18875Y1168D01*
Y1352D01*
X18829Y1398D01*
X18691D01*
X19104D02*
X19012D01*
X18966Y1352D01*
Y1168D01*
X19012Y1122D01*
X19104D01*
X19150Y1168D01*
Y1352D01*
X19104Y1398D01*
X6640Y1352D02*
X6594Y1398D01*
X6503D01*
X6457Y1352D01*
Y1168D01*
X6503Y1122D01*
X6594D01*
X6640Y1168D01*
Y1260D01*
X6549D01*
X6870Y1398D02*
X6778D01*
X6732Y1352D01*
Y1168D01*
X6778Y1122D01*
X6870D01*
X6916Y1168D01*
Y1352D01*
X6870Y1398D01*
X7398Y1352D02*
X7352Y1398D01*
X7260D01*
X7215Y1352D01*
Y1168D01*
X7260Y1122D01*
X7352D01*
X7398Y1168D01*
Y1260D01*
X7306D01*
X7490Y1398D02*
Y1122D01*
X7628D01*
X7674Y1168D01*
Y1352D01*
X7628Y1398D01*
X7490D01*
X8146Y1352D02*
X8100Y1398D01*
X8009D01*
X7963Y1352D01*
Y1168D01*
X8009Y1122D01*
X8100D01*
X8146Y1168D01*
Y1260D01*
X8054D01*
X8422Y1352D02*
X8376Y1398D01*
X8284D01*
X8238Y1352D01*
Y1168D01*
X8284Y1122D01*
X8376D01*
X8422Y1168D01*
X15502Y1122D02*
Y1398D01*
X15640D01*
X15686Y1352D01*
Y1260D01*
X15640Y1214D01*
X15502D01*
X15594D02*
X15686Y1122D01*
X15961Y1352D02*
X15915Y1398D01*
X15823D01*
X15777Y1352D01*
Y1168D01*
X15823Y1122D01*
X15915D01*
X15961Y1168D01*
Y1260D01*
X15869D01*
X14744Y1398D02*
Y1122D01*
X14928D01*
X15020Y1352D02*
X15066Y1398D01*
X15157D01*
X15203Y1352D01*
Y1306D01*
X15157Y1260D01*
X15111D01*
X15157D01*
X15203Y1214D01*
Y1168D01*
X15157Y1122D01*
X15066D01*
X15020Y1168D01*
X13986Y1398D02*
Y1122D01*
X14170D01*
X14445D02*
X14262D01*
X14445Y1306D01*
Y1352D01*
X14399Y1398D01*
X14308D01*
X14262Y1352D01*
X13228Y1398D02*
Y1122D01*
X13412D01*
X13504D02*
X13596D01*
X13550D01*
Y1398D01*
X13504Y1352D01*
D16*
X22677Y14872D02*
X22756D01*
X22677Y15148D02*
X22756D01*
X3199Y7028D02*
Y8524D01*
X1703D02*
X3199D01*
X1703Y7028D02*
X3199D01*
X1703D02*
Y8524D01*
X22303Y5817D02*
Y5896D01*
X22028Y5817D02*
Y5896D01*
X1919Y11467D02*
X1998D01*
X1919Y11742D02*
X1998D01*
X709Y10364D02*
Y10522D01*
X1102Y10364D02*
Y10522D01*
X21033Y11742D02*
Y11900D01*
X21427Y11742D02*
Y11900D01*
X19331Y14951D02*
Y15030D01*
X19055Y14951D02*
Y15030D01*
X22303Y6565D02*
Y6644D01*
X22028Y6565D02*
Y6644D01*
X24065Y7618D02*
Y7697D01*
X23789Y7618D02*
Y7697D01*
X2618Y9547D02*
Y9626D01*
X2894Y9547D02*
Y9626D01*
X531Y7520D02*
X610D01*
X531Y7795D02*
X610D01*
X965Y7854D02*
X1043D01*
X965Y8130D02*
X1043D01*
X1220Y4734D02*
X1299D01*
X1220Y5010D02*
X1299D01*
X4764Y12835D02*
Y12913D01*
X4488Y12835D02*
Y12913D01*
X2382Y14862D02*
X2539D01*
X2382Y15256D02*
X2539D01*
X4114Y12835D02*
Y12913D01*
X4390Y12835D02*
Y12913D01*
X7510Y14537D02*
Y14616D01*
X7234Y14537D02*
Y14616D01*
X7520Y13661D02*
Y13740D01*
X7244Y13661D02*
Y13740D01*
X6890Y12776D02*
Y12854D01*
X7165Y12776D02*
Y12854D01*
X7884Y14537D02*
Y14616D01*
X7608Y14537D02*
Y14616D01*
X7894Y13661D02*
Y13740D01*
X7618Y13661D02*
Y13740D01*
X7254Y12776D02*
Y12854D01*
X7530Y12776D02*
Y12854D01*
X2382Y15354D02*
X2539D01*
X2382Y15748D02*
X2539D01*
X2382Y13740D02*
X2539D01*
X2382Y14134D02*
X2539D01*
X2382Y14232D02*
X2539D01*
X2382Y14626D02*
X2539D01*
X2382Y12618D02*
X2539D01*
X2382Y13012D02*
X2539D01*
X2382Y13110D02*
X2539D01*
X2382Y13504D02*
X2539D01*
X5423Y14528D02*
X5502D01*
X5423Y14252D02*
X5502D01*
X12657Y14446D02*
Y14524D01*
X12381Y14446D02*
Y14524D01*
X5423Y14075D02*
X5502D01*
X5423Y13799D02*
X5502D01*
X5423Y13622D02*
X5502D01*
X5423Y13346D02*
X5502D01*
X7559Y11348D02*
X7638D01*
X7559Y11624D02*
X7638D01*
X8297Y11348D02*
X8376D01*
X8297Y11624D02*
X8376D01*
X13543Y12441D02*
X13622D01*
X13543Y12717D02*
X13622D01*
X13543Y12096D02*
X13622D01*
X13543Y12372D02*
X13622D01*
X6654Y15673D02*
X6732D01*
X6654Y15949D02*
X6732D01*
X12657Y13711D02*
Y13789D01*
X12382Y13711D02*
Y13789D01*
X12776Y12362D02*
Y12441D01*
X13051Y12362D02*
Y12441D01*
X14291Y12372D02*
X14370D01*
X14291Y12096D02*
X14370D01*
X13799Y15610D02*
X13878D01*
X13799Y15335D02*
X13878D01*
X13799Y15955D02*
X13878D01*
X13799Y15679D02*
X13878D01*
X5935Y15896D02*
Y15974D01*
X5659Y15896D02*
Y15974D01*
X14252Y15630D02*
Y15709D01*
X14527Y15630D02*
Y15709D01*
X14902Y16043D02*
X14980D01*
X14902Y15768D02*
X14980D01*
X15837Y15610D02*
X15915D01*
X15837Y15335D02*
X15915D01*
X15797Y15984D02*
Y16063D01*
X15522Y15984D02*
Y16063D01*
X5482Y15896D02*
Y15974D01*
X5207Y15896D02*
Y15974D01*
X15463Y12441D02*
X15541D01*
X15463Y12717D02*
X15541D01*
X14724D02*
X14803D01*
X14724Y12441D02*
X14803D01*
X2884Y11260D02*
Y11339D01*
X3159Y11260D02*
Y11339D01*
X15039Y16329D02*
X15118D01*
X15039Y16604D02*
X15118D01*
X15010Y15335D02*
X15089D01*
X15010Y15610D02*
X15089D01*
X3406Y11772D02*
Y11929D01*
X3799Y11772D02*
Y11929D01*
X20541Y11742D02*
Y11900D01*
X20935Y11742D02*
Y11900D01*
X16575Y807D02*
X16654D01*
X16575Y1083D02*
X16654D01*
X7056Y11294D02*
Y11372D01*
X6780Y11294D02*
Y11372D01*
X6516Y11289D02*
Y11368D01*
X6240Y11289D02*
Y11368D01*
X14341Y11447D02*
X14419D01*
X14341Y11171D02*
X14419D01*
X22953Y1781D02*
Y1860D01*
X23228Y1781D02*
Y1860D01*
X22874Y1781D02*
Y1860D01*
X22598Y1781D02*
Y1860D01*
X22520Y1781D02*
Y1860D01*
X22244Y1781D02*
Y1860D01*
X13612Y11447D02*
X13691D01*
X13612Y11171D02*
X13691D01*
X3533Y3907D02*
Y4065D01*
X3140Y3907D02*
Y4065D01*
X2500Y4026D02*
X2657D01*
X2500Y4419D02*
X2657D01*
X1890Y4154D02*
Y4232D01*
X1614Y4154D02*
Y4232D01*
X1486Y4154D02*
Y4232D01*
X1211Y4154D02*
Y4232D01*
X3504Y2470D02*
X3661D01*
X3504Y2077D02*
X3661D01*
X3504Y1969D02*
X3661D01*
X3504Y1575D02*
X3661D01*
X4488Y11850D02*
Y11929D01*
X4764Y11850D02*
Y11929D01*
X4390Y11850D02*
Y11929D01*
X4114Y11850D02*
Y11929D01*
X5443Y12667D02*
Y12746D01*
X5167Y12667D02*
Y12746D01*
X1880Y11388D02*
X2037D01*
X1880Y10994D02*
X2037D01*
X1102Y9341D02*
Y9498D01*
X709Y9341D02*
Y9498D01*
X1201Y6870D02*
Y7028D01*
X1594Y6870D02*
Y7028D01*
X3376Y15374D02*
Y15532D01*
X3770Y15374D02*
Y15532D01*
X4429Y15630D02*
X4508D01*
X4429Y15906D02*
X4508D01*
X8219Y15236D02*
Y15315D01*
X7943Y15236D02*
Y15315D01*
X8593Y15236D02*
Y15315D01*
X8317Y15236D02*
Y15315D01*
X12372Y15236D02*
Y15315D01*
X12096Y15236D02*
Y15315D01*
X12018Y15236D02*
Y15315D01*
X11742Y15236D02*
Y15315D01*
X7559Y12313D02*
X7638D01*
X7559Y12037D02*
X7638D01*
X7559Y11968D02*
X7638D01*
X7559Y11693D02*
X7638D01*
X13159Y15630D02*
Y15709D01*
X13435Y15630D02*
Y15709D01*
X16594Y15020D02*
Y15098D01*
X16319Y15020D02*
Y15098D01*
X16152Y13455D02*
Y13533D01*
X16427Y13455D02*
Y13533D01*
X22559Y12392D02*
X22638D01*
X22559Y12667D02*
X22638D01*
X23386D02*
X23465D01*
X23386Y12392D02*
X23465D01*
X23071Y10285D02*
X23150D01*
X23071Y10010D02*
X23150D01*
X22165Y1781D02*
Y1860D01*
X21890Y1781D02*
Y1860D01*
X12943Y11053D02*
Y11132D01*
X13218Y11053D02*
Y11132D01*
X3396Y3081D02*
X3474D01*
X3396Y3356D02*
X3474D01*
X8297Y11280D02*
X8376D01*
X8297Y11004D02*
X8376D01*
X12589Y11053D02*
Y11132D01*
X12864Y11053D02*
Y11132D01*
X4321Y11053D02*
Y11132D01*
X4596Y11053D02*
Y11132D01*
X12234Y11053D02*
Y11132D01*
X12510Y11053D02*
Y11132D01*
X13327Y2126D02*
Y2205D01*
X13051Y2126D02*
Y2205D01*
X3406Y2687D02*
X3484D01*
X3406Y2963D02*
X3484D01*
X502Y4301D02*
X581D01*
X502Y4026D02*
X581D01*
X19419Y15817D02*
X19577D01*
X19419Y15423D02*
X19577D01*
X5955Y12539D02*
Y12697D01*
X5561Y12539D02*
Y12697D01*
M02*
