M48
;Layer_Color=9474304
;FILE_FORMAT=2:4
INCH,LZ
;TYPE=PLATED
T1F00S00C0.0079
T2F00S00C0.0118
T3F00S00C0.0394
T4F00S00C0.0787
%
T01
X016398Y000669
X016123Y001073
X016093Y00252
X016417
X016963Y00252
X017205Y002755
X01742Y003522
X017421Y003806
Y004131
X017431Y004469
X017417Y004719
X017539Y004961
X01756Y005197
X017796Y005217
X017785Y00498
X017805Y004707
Y00447
Y004234
X017825Y003996
X017815Y003711
X017933Y003506
X016841Y003596
X016794Y004034
X016901Y00441
X016881Y005059
X01626Y00499
X016611Y005832
X016693Y006053
X016595Y006594
X016318Y006426
X016299Y007185
X017461Y007028
X017657Y006841
X017678Y006565
X017914Y006575
X017441Y006496
X017442Y005906
X017649Y005768
X017687Y006024
X017921Y005827
Y005512
X017657Y005413
X018525Y005276
X018573Y00565
X018534Y006063
X018712Y006536
X018477Y006896
X018652Y007283
X018593Y007638
X017875Y007638
X017921Y007402
X017923Y007156
X017691Y007349
X017638Y007579
X015443Y006467
X015138Y006427
X015482Y005837
X015709Y003455
X015896Y003297
Y003031
X015266Y002687
X01622Y003789
X018602Y004203
X018884Y004572
X020276Y005108
X022087Y005118
X022028Y004803
X021969Y004488
X021909Y004173
X021988Y003583
Y003268
X022028Y002953
X022087Y002638
X021201Y00248
X021408Y001495
X020062Y002562
X022559Y006102
X022313Y007165
X014724Y006427
X013061Y006673
X013102Y007469
X012156Y007274
X012217Y006959
X012096Y006639
X012141Y006407
X012207Y006171
X012047Y005974
X012202Y005581
Y005187
X011663Y005108
X011476Y004882
X01186Y004754
X012041Y004278
X011898Y004087
X012008Y003878
X011721Y003921
X011799Y003698
X011565Y00373
X011468Y004085
X011178Y003846
X010925Y00384
X010581Y003927
X010413Y003524
X010717Y003288
X010904Y003101
X010777Y002608
X010551Y002726
X010376Y002537
X010094Y002524
X009845Y002805
X00997Y003209
X009567Y003081
X009547Y003317
X009163Y00304
X009075Y003552
X009323Y004123
X009576Y004617
X009823Y004587
X01001Y005315
X009764Y00562
X010197Y005827
Y006152
X009616Y006476
X009547Y007323
X009803Y007579
X008632Y007411
X010492Y00687
X011083Y007323
X011329Y007451
X011378Y005896
X013071Y005659
Y005098
X013047Y004788
X013091Y003937
X013032Y003415
X013168Y003003
X013366Y002874
X01378Y002624
X01432Y002672
X014558Y002647
X014794Y002572
X013602Y003386
X012203Y003445
X012136Y003671
X011658Y00252
X012185Y00187
X01247Y001732
X012136Y001348
X012323Y000984
X012962Y001171
X011703Y001201
X011417
X010768Y001024
X01002
X009331Y001033
X009226Y001604
X008789Y001647
X008415Y001661
X008337Y00125
X008606Y001268
X008553Y001014
X007913Y001417
X007566Y001227
X007175Y00123
X006713Y00127
X006998Y001654
X007392
X007298Y002535
X007126Y002697
X006742Y002785
X006555Y002618
X006348Y002795
X006152Y002618
X005758Y002608
X005364Y002615
X005167Y00248
X005562Y002974
X005955Y002844
X004941Y003435
X004624Y003415
X004636Y003819
X004675Y004193
X004624Y004596
Y00499
Y005581
X003804Y005778
X00376Y006181
X00378Y006496
X003804Y006959
X003199Y006909
X003152Y006678
X004624Y007156
X004655Y007451
X005039Y006801
X005069Y006535
X003804Y005187
Y004793
X00374Y0044
X002844Y004587
X002539
X002234
X001988Y004409
X001112
X001024Y004173
X000935Y004587
X000699Y004459
X000787Y007392
X007697Y005167
X007664Y004927
X008073Y005089
X008071Y003936
X007987Y003528
X007736Y003031
X0075Y002953
X007313Y00311
X007077Y003435
X006988Y003947
X007195Y004163
X007451Y00378
X008583Y004006
X008557Y002963
X010291Y002995
X010089Y003749
X009144Y005276
X009055Y007844
X008567Y007885
X008278Y008287
X008022Y008406
X007982Y007992
X007756Y007825
X007605Y008642
X007722Y008847
X007549Y009016
X007928Y009145
X008007Y009367
X008243Y009366
X008416Y009528
X008514Y010042
X008907Y010048
X008888Y009803
X009124Y009774
X009161Y010007
X009459Y00999
X009341Y009606
X008878Y008809
X0104Y008471
X010659Y008465
X010955Y007815
X012037Y007746
X012207Y007943
Y008337
X012028Y008533
X011683
X011968Y009065
X012185Y009242
X013159Y008996
X013034Y008545
X013107Y00832
X012726Y010246
X012421Y010256
X013395Y010503
X014085Y01062
X0144Y010669
X014292Y01252
X014581Y012875
X014685Y015098
X013508Y014261
X012237Y014213
Y013819
Y013425
Y013032
Y012638
X01251Y012451
X011417Y012441
X011378Y012185
X011417Y012835
Y013228
Y013622
Y014016
X011407Y014547
X011002Y014551
X010792Y014444
X010527Y014444
X010309Y014354
X010079Y014415
X009872Y014556
X009675Y014425
X009469Y014311
X009281Y014577
X008878Y015108
X008996Y015453
X00953
X010064
X010598
X011132
X012598
X012126Y014685
X011821Y014596
X008042Y013573
X006988Y013435
X007124Y014027
X006033Y013937
X005955Y013484
X006427Y012864
X006083Y01247
X005552Y011996
X005298Y011857
X004902Y012106
X004911Y012402
X004611Y012411
X004252Y012397
X004911Y0131
X00501Y01374
X00502Y014144
X004813Y014961
X005581Y01497
X005797Y015443
X005344
X00439Y015472
X005217Y016634
X006073Y016004
X006112Y014596
X005238Y011022
X004744Y010876
X004774Y011299
X004469Y010591
X004035Y010719
X003848Y010305
X004036Y010108
X003809Y009232
Y008927
X003819Y00815
X00189Y00873
X001971Y009068
X002481Y010765
X002362Y0119
X001752Y01189
X00124Y01188
X003602Y01127
X000443Y008258
X000333Y007934
X015138Y008484
X015176Y008976
X015915Y008435
X016798Y008509
X016831Y008268
X016663Y008703
X016663Y009154
X016896Y00911
X017904Y009173
X017392Y009793
X017657Y010098
X018513Y010431
X018415Y010738
X018947Y010807
X019086Y010522
X019858Y010398
X020079Y010561
X019892Y010768
X020079Y009724
X020666Y010018
X022569Y00999
X022638Y009734
X022638Y009478
X022638Y009222
Y008967
Y008711
Y008455
Y008199
Y007943
X023898Y008396
X02372Y008652
X023543Y008907
X023898Y008927
X023366Y009163
X023189Y009419
X023012Y009675
X023327Y009852
X023711Y010593
X023859Y01079
X023711Y010986
X023858Y011179
X023711Y011538
X023866Y011739
X023711Y011931
X023858Y012124
X023494Y012864
X023209Y012815
X023711Y013093
X023859Y01329
X023711Y013486
X023858Y013679
X023711Y014038
X023859Y014235
X023711Y014431
X023858Y014624
X023179Y015
X022096Y014724
X021624Y014537
X021443Y01435
X021713Y013907
X020778Y013967
X02061Y014183
X020443Y0144
X020482Y014813
X020217Y014862
X018879Y014932
X018465Y015246
X018336Y014399
X018091Y01439
X017933Y013681
X018051Y01314
X018602Y013593
X019006Y014321
X019331Y014341
X017234Y014567
X017254Y014961
X016201Y015177
X016033Y014754
X016398Y014409
X016417Y013986
X016024Y013484
X015669Y013583
X015404Y013573
X016378Y013002
X015718Y012303
X01501Y012264
X01597Y010866
X016356Y010492
X016357Y010236
X016555Y010364
X016963Y010752
X017421Y008425
X017458Y008172
X017756Y008159
X017711Y007819
X017923Y007923
X017343Y013494
X015157Y016161
X022372Y012844
X022461Y012254
X022451Y010295
X021673Y010974
T02
X016693Y000482
X018248Y0006
X021036Y002285
X022411Y002293
X022382Y001329
X022736
X023091
X023504Y002195
X023661Y003002
X02375Y003976
X020413Y00456
X020315Y007362
X021831Y007106
X022569Y007162
X022549Y006831
X018839Y006289
X018553Y006329
X017648Y006309
X015945Y003652
X014026Y002638
X013612Y002953
X013159Y001093
X012126Y004596
X011673Y005502
X01189Y006319
X010807Y006663
X010177Y004843
X008868Y004852
X008829Y007618
X003356Y007579
X003465Y006978
Y006683
Y006388
X003169
Y006093
X002874
X002579
Y005797
X002874
X003169
Y005502
X003465
Y005797
Y006093
Y005207
Y004911
Y004616
X003169
Y004911
Y005207
X00376Y005482
X00374Y003888
X002904Y002982
Y002618
X001959Y002657
X0006Y00253
X000679Y004724
X000305
X001988Y005502
Y005797
X002283
Y006093
X001988
Y006388
Y006683
X001043Y006604
X000492Y007382
X004222Y00247
X004734Y002825
X003356Y008169
Y00876
Y009055
X003061
X002766
X00247
Y00876
X002766
X003061
Y00935
Y009646
X003356
Y00935
Y009941
X003061
Y010236
X003356
Y010532
X003061
Y010827
X002766
X003356
X00249Y010364
X002451Y010069
X002156
Y009774
X00186
X001565
Y010069
X00186
X00127
Y009774
X00126Y010443
X000965
X000561Y01061
Y010906
X000423Y009715
Y009419
X002451Y009774
X004213Y009921
X005305Y012165
X00502Y012776
X005472Y013189
X006181Y013012
X006535Y01313
X007077Y014921
X007096Y015482
X006476Y015502
X007736Y015512
X008228Y014744
X008046Y014537
X00499Y015236
X003917Y015748
X003179Y015453
X003642Y014803
X003268Y01436
Y013533
X003396Y012569
X00314Y012421
X003642Y012756
X004311Y013386
X00123Y013593
X000522Y013868
Y01499
X00123Y014715
Y015837
X001909Y01248
X012559Y012913
X01252Y013238
X013337Y012992
X013356Y013809
X013297Y014843
X012923Y015925
X014616Y016211
X014685Y014734
X014567Y013671
X011516Y015305
X012372Y010561
X012116Y010295
X011663Y009045
X010994Y008898
X010837Y008652
X01753Y009242
X018533Y009764
X018592Y010058
X019045Y009734
X019583Y010092
X019315Y010409
X021398Y010787
X020423Y008553
X023691Y009291
X02063Y015256
X020187Y015413
X019803Y015177
X018878Y015374
X0156Y016575
X015148Y013642
T03
X018894Y000512
X019894
X020894
X021894
X022894
X023894
T04
X008415Y00627
M30
