G04*
G04 #@! TF.GenerationSoftware,Altium Limited,Altium Designer,22.6.1 (34)*
G04*
G04 Layer_Color=16711935*
%FSLAX24Y24*%
%MOIN*%
G70*
G04*
G04 #@! TF.SameCoordinates,BFD713BD-E5D5-4BF8-98F0-1AC20243F701*
G04*
G04*
G04 #@! TF.FilePolarity,Negative*
G04*
G01*
G75*
%ADD44C,0.0354*%
%ADD58R,0.0492X0.0118*%
%ADD59R,0.0531X0.0118*%
%ADD65R,0.0236X0.0276*%
%ADD69R,0.0276X0.0236*%
%ADD72R,0.0295X0.0433*%
%ADD74R,0.0394X0.0295*%
%ADD77C,0.0630*%
%ADD78C,0.1220*%
%ADD103R,0.0433X0.0276*%
%ADD104R,0.0299X0.0130*%
%ADD105R,0.0299X0.0177*%
%ADD106R,0.0217X0.0413*%
%ADD107R,0.0591X0.0197*%
%ADD108R,0.0354X0.0118*%
%ADD109R,0.0118X0.0354*%
%ADD110R,0.0295X0.0169*%
D44*
X23691Y14961D02*
G03*
X23691Y14961I-59J0D01*
G01*
X463Y8937D02*
G03*
X463Y8937I-59J0D01*
G01*
X23898Y1762D02*
G03*
X23898Y1762I-59J0D01*
G01*
D58*
X15817Y5581D02*
D03*
Y5423D02*
D03*
Y5266D02*
D03*
Y5108D02*
D03*
Y4951D02*
D03*
Y4793D02*
D03*
Y4636D02*
D03*
Y4478D02*
D03*
Y4321D02*
D03*
Y4163D02*
D03*
X15049Y4636D02*
D03*
Y4793D02*
D03*
Y4478D02*
D03*
Y4321D02*
D03*
Y4951D02*
D03*
Y5581D02*
D03*
Y5423D02*
D03*
Y5266D02*
D03*
Y5108D02*
D03*
X15817Y8081D02*
D03*
Y7923D02*
D03*
Y7766D02*
D03*
Y7608D02*
D03*
Y7451D02*
D03*
Y7293D02*
D03*
Y7136D02*
D03*
Y6978D02*
D03*
Y6821D02*
D03*
Y6663D02*
D03*
X15049Y7136D02*
D03*
Y7293D02*
D03*
Y6978D02*
D03*
Y6821D02*
D03*
Y7451D02*
D03*
Y8081D02*
D03*
Y7923D02*
D03*
Y7766D02*
D03*
Y7608D02*
D03*
X15817Y10581D02*
D03*
Y10423D02*
D03*
Y10266D02*
D03*
Y10108D02*
D03*
Y9951D02*
D03*
Y9793D02*
D03*
Y9636D02*
D03*
Y9478D02*
D03*
Y9321D02*
D03*
Y9163D02*
D03*
X15049Y9636D02*
D03*
Y9793D02*
D03*
Y9478D02*
D03*
Y9321D02*
D03*
Y9951D02*
D03*
Y10581D02*
D03*
Y10423D02*
D03*
Y10266D02*
D03*
Y10108D02*
D03*
X19707Y2919D02*
D03*
Y3077D02*
D03*
Y3234D02*
D03*
Y3392D02*
D03*
Y3549D02*
D03*
Y3707D02*
D03*
Y3864D02*
D03*
Y4022D02*
D03*
Y4179D02*
D03*
Y4337D02*
D03*
X20475Y3864D02*
D03*
Y3707D02*
D03*
Y4022D02*
D03*
Y4179D02*
D03*
Y3549D02*
D03*
Y2919D02*
D03*
Y3077D02*
D03*
Y3234D02*
D03*
Y3392D02*
D03*
D59*
X15069Y4163D02*
D03*
Y6663D02*
D03*
Y9163D02*
D03*
X20456Y4337D02*
D03*
D65*
X8671Y9390D02*
D03*
X9104D02*
D03*
X6713Y915D02*
D03*
X7146D02*
D03*
X8760Y3317D02*
D03*
X8327D02*
D03*
X10522Y2205D02*
D03*
X10089D02*
D03*
X10059Y6585D02*
D03*
X10492D02*
D03*
X20492Y4872D02*
D03*
X20059D02*
D03*
X14705Y11014D02*
D03*
X15138D02*
D03*
X15482Y8740D02*
D03*
X15915D02*
D03*
X15148Y8750D02*
D03*
X14715D02*
D03*
X15482Y6112D02*
D03*
X15915D02*
D03*
X14715D02*
D03*
X15148D02*
D03*
X15010Y3750D02*
D03*
X15443D02*
D03*
X20502Y6821D02*
D03*
X20935D02*
D03*
X11654Y3209D02*
D03*
X11220D02*
D03*
X11555Y6959D02*
D03*
X11988D02*
D03*
X8888Y7323D02*
D03*
X9321D02*
D03*
X7884Y7333D02*
D03*
X8317D02*
D03*
D69*
X18032Y11516D02*
D03*
Y11083D02*
D03*
X9724Y1024D02*
D03*
Y591D02*
D03*
X12008Y2697D02*
D03*
Y3130D02*
D03*
X10472Y1024D02*
D03*
Y591D02*
D03*
X16220Y3435D02*
D03*
Y3002D02*
D03*
X8888Y591D02*
D03*
Y1024D02*
D03*
X11555Y6594D02*
D03*
Y6161D02*
D03*
X10118Y8228D02*
D03*
Y7795D02*
D03*
X9823Y4203D02*
D03*
Y3770D02*
D03*
X8819Y4203D02*
D03*
Y3770D02*
D03*
D72*
X21014Y10561D02*
D03*
X20404D02*
D03*
X11083Y5295D02*
D03*
X10472D02*
D03*
X11083Y4783D02*
D03*
X10472D02*
D03*
X11083Y4272D02*
D03*
X10472D02*
D03*
X14557Y3012D02*
D03*
X13947D02*
D03*
X15571D02*
D03*
X14961D02*
D03*
X14557Y3514D02*
D03*
X13947D02*
D03*
D74*
X18465Y11683D02*
D03*
Y11073D02*
D03*
X9616Y6152D02*
D03*
Y6762D02*
D03*
D77*
X21894Y512D02*
D03*
X20894D02*
D03*
X23894D02*
D03*
X22894D02*
D03*
X19894D02*
D03*
X18894D02*
D03*
D78*
X8415Y6270D02*
D03*
D103*
X11682Y7820D02*
D03*
Y8194D02*
D03*
Y7446D02*
D03*
X10600Y7820D02*
D03*
Y8194D02*
D03*
Y7446D02*
D03*
D104*
X18211Y7717D02*
D03*
Y7559D02*
D03*
Y8031D02*
D03*
Y8189D02*
D03*
Y7874D02*
D03*
Y6772D02*
D03*
Y6929D02*
D03*
Y6614D02*
D03*
Y7244D02*
D03*
Y7402D02*
D03*
Y7087D02*
D03*
Y9291D02*
D03*
Y9449D02*
D03*
Y9134D02*
D03*
Y9764D02*
D03*
Y9606D02*
D03*
Y8504D02*
D03*
Y8661D02*
D03*
Y8346D02*
D03*
Y8976D02*
D03*
Y8819D02*
D03*
Y4409D02*
D03*
Y4567D02*
D03*
Y4252D02*
D03*
Y4882D02*
D03*
Y5039D02*
D03*
Y4724D02*
D03*
Y3622D02*
D03*
Y3780D02*
D03*
Y4094D02*
D03*
Y3937D02*
D03*
Y6142D02*
D03*
Y6299D02*
D03*
Y5984D02*
D03*
Y6457D02*
D03*
Y5354D02*
D03*
Y5512D02*
D03*
Y5197D02*
D03*
Y5827D02*
D03*
Y5669D02*
D03*
X17144Y7717D02*
D03*
Y7559D02*
D03*
Y8031D02*
D03*
Y8189D02*
D03*
Y7874D02*
D03*
Y6929D02*
D03*
Y7087D02*
D03*
Y6772D02*
D03*
Y7402D02*
D03*
Y7244D02*
D03*
Y9291D02*
D03*
Y9449D02*
D03*
Y9134D02*
D03*
Y9764D02*
D03*
Y9606D02*
D03*
Y8504D02*
D03*
Y8661D02*
D03*
Y8346D02*
D03*
Y8976D02*
D03*
Y8819D02*
D03*
Y4252D02*
D03*
Y4409D02*
D03*
Y4094D02*
D03*
Y4724D02*
D03*
Y4882D02*
D03*
Y4567D02*
D03*
Y3622D02*
D03*
Y3937D02*
D03*
Y3780D02*
D03*
Y5984D02*
D03*
Y6142D02*
D03*
Y5827D02*
D03*
Y6457D02*
D03*
Y6614D02*
D03*
Y6299D02*
D03*
Y5197D02*
D03*
Y5354D02*
D03*
Y5039D02*
D03*
Y5669D02*
D03*
Y5512D02*
D03*
D105*
X18211Y9951D02*
D03*
Y3435D02*
D03*
X17144Y9951D02*
D03*
Y3435D02*
D03*
D106*
X9321Y8652D02*
D03*
Y7805D02*
D03*
X8317Y4616D02*
D03*
Y3770D02*
D03*
X9321Y3770D02*
D03*
Y4616D02*
D03*
X8317Y8652D02*
D03*
Y7805D02*
D03*
D107*
X21880Y8967D02*
D03*
Y8711D02*
D03*
Y9222D02*
D03*
Y8199D02*
D03*
Y8455D02*
D03*
Y9734D02*
D03*
Y9478D02*
D03*
Y7943D02*
D03*
Y7431D02*
D03*
Y7687D02*
D03*
X19557Y8199D02*
D03*
Y8455D02*
D03*
Y9478D02*
D03*
Y9222D02*
D03*
Y9734D02*
D03*
Y8711D02*
D03*
Y8967D02*
D03*
Y7431D02*
D03*
Y7943D02*
D03*
Y7687D02*
D03*
D108*
X9646Y2352D02*
D03*
X9016D02*
D03*
X7697D02*
D03*
X8327D02*
D03*
D109*
X9488Y2726D02*
D03*
X9331D02*
D03*
X9646D02*
D03*
Y1978D02*
D03*
X9173D02*
D03*
X9488D02*
D03*
X9331D02*
D03*
X9173Y2726D02*
D03*
X9016D02*
D03*
Y1978D02*
D03*
X8327D02*
D03*
X8169D02*
D03*
X8012D02*
D03*
X7854D02*
D03*
X7697D02*
D03*
Y2726D02*
D03*
X7854D02*
D03*
X8012D02*
D03*
X8169D02*
D03*
X8327D02*
D03*
D110*
X11083Y6220D02*
D03*
Y6024D02*
D03*
Y5827D02*
D03*
X10492Y6024D02*
D03*
Y6220D02*
D03*
Y5827D02*
D03*
X7612Y915D02*
D03*
X8203D02*
D03*
Y719D02*
D03*
Y522D02*
D03*
X7612D02*
D03*
Y719D02*
D03*
X19272Y11063D02*
D03*
Y11260D02*
D03*
Y11457D02*
D03*
X19862D02*
D03*
Y11260D02*
D03*
Y11063D02*
D03*
M02*
