G04*
G04 #@! TF.GenerationSoftware,Altium Limited,Altium Designer,22.6.1 (34)*
G04*
G04 Layer_Color=8388736*
%FSLAX24Y24*%
%MOIN*%
G70*
G04*
G04 #@! TF.SameCoordinates,BFD713BD-E5D5-4BF8-98F0-1AC20243F701*
G04*
G04*
G04 #@! TF.FilePolarity,Negative*
G04*
G01*
G75*
%ADD44C,0.0354*%
%ADD45R,0.0157X0.0433*%
%ADD46R,0.0197X0.0551*%
%ADD47R,0.0413X0.0256*%
%ADD48R,0.0650X0.0177*%
%ADD49R,0.0615X0.0149*%
%ADD50R,0.0149X0.0615*%
%ADD51R,0.0138X0.0354*%
%ADD52R,0.0968X0.0685*%
%ADD53R,0.0079X0.0079*%
%ADD54R,0.0748X0.0669*%
%ADD55R,0.0572X0.0149*%
%ADD56R,0.0149X0.0572*%
%ADD57R,0.1669X0.1669*%
%ADD58R,0.0492X0.0118*%
%ADD59R,0.0531X0.0118*%
%ADD60R,0.0079X0.0079*%
G04:AMPARAMS|DCode=61|XSize=63mil|YSize=82.7mil|CornerRadius=0mil|HoleSize=0mil|Usage=FLASHONLY|Rotation=90.000|XOffset=0mil|YOffset=0mil|HoleType=Round|Shape=Octagon|*
%AMOCTAGOND61*
4,1,8,-0.0413,-0.0157,-0.0413,0.0157,-0.0256,0.0315,0.0256,0.0315,0.0413,0.0157,0.0413,-0.0157,0.0256,-0.0315,-0.0256,-0.0315,-0.0413,-0.0157,0.0*
%
%ADD61OCTAGOND61*%

%ADD62R,0.0748X0.0177*%
%ADD63R,0.0177X0.0748*%
%ADD64R,0.0394X0.0354*%
%ADD65R,0.0236X0.0276*%
%ADD66R,0.0138X0.0315*%
%ADD67R,0.0957X0.0689*%
%ADD68R,0.0551X0.1378*%
%ADD69R,0.0276X0.0236*%
%ADD70R,0.0591X0.0433*%
%ADD71R,0.0433X0.0295*%
%ADD72R,0.0295X0.0433*%
%ADD73R,0.0295X0.0394*%
%ADD74R,0.0394X0.0295*%
G04:AMPARAMS|DCode=75|XSize=63mil|YSize=82.7mil|CornerRadius=0mil|HoleSize=0mil|Usage=FLASHONLY|Rotation=180.000|XOffset=0mil|YOffset=0mil|HoleType=Round|Shape=Octagon|*
%AMOCTAGOND75*
4,1,8,0.0157,-0.0413,-0.0157,-0.0413,-0.0315,-0.0256,-0.0315,0.0256,-0.0157,0.0413,0.0157,0.0413,0.0315,0.0256,0.0315,-0.0256,0.0157,-0.0413,0.0*
%
%ADD75OCTAGOND75*%

%ADD76R,0.0256X0.0413*%
%ADD77C,0.0630*%
%ADD78C,0.1220*%
G36*
X1854Y15423D02*
X1858Y15422D01*
X1861Y15420D01*
X1864Y15418D01*
X1867Y15415D01*
X1869Y15411D01*
X1870Y15407D01*
X1870Y15404D01*
X1870Y15400D01*
X1870Y15400D01*
X1869Y15396D01*
X1867Y15393D01*
X1865Y15391D01*
X1864Y15390D01*
X1864Y15390D01*
X1668Y15193D01*
X1665Y15190D01*
X1661Y15188D01*
X1657Y15187D01*
X1654Y15187D01*
X1650Y15187D01*
X1646Y15188D01*
X1643Y15190D01*
X1640Y15193D01*
X1640Y15193D01*
X1443Y15390D01*
X1440Y15393D01*
X1438Y15396D01*
X1438Y15397D01*
X1437Y15400D01*
X1437Y15402D01*
X1437Y15404D01*
X1437Y15405D01*
X1437Y15407D01*
X1438Y15410D01*
X1438Y15411D01*
X1440Y15415D01*
X1443Y15418D01*
X1446Y15420D01*
X1449Y15422D01*
X1450Y15422D01*
X1453Y15423D01*
X1455Y15423D01*
X1457Y15423D01*
X1457Y15423D01*
X1850D01*
X1850Y15423D01*
X1854Y15423D01*
D02*
G37*
G36*
Y15325D02*
X1858Y15323D01*
X1861Y15322D01*
X1864Y15319D01*
X1867Y15316D01*
X1869Y15313D01*
X1870Y15309D01*
X1870Y15305D01*
X1870Y15305D01*
Y15010D01*
X1870Y15006D01*
X1869Y15002D01*
X1867Y14999D01*
X1864Y14996D01*
X1861Y14993D01*
X1858Y14992D01*
X1854Y14990D01*
X1850Y14990D01*
X1457D01*
X1453Y14990D01*
X1449Y14992D01*
X1446Y14993D01*
X1443Y14996D01*
X1440Y14999D01*
X1438Y15002D01*
X1437Y15006D01*
X1437Y15010D01*
Y15305D01*
X1437Y15305D01*
X1437Y15307D01*
X1437Y15309D01*
X1438Y15312D01*
X1438Y15313D01*
X1440Y15316D01*
X1443Y15319D01*
X1446Y15322D01*
X1449Y15323D01*
X1450Y15324D01*
X1453Y15325D01*
X1455Y15325D01*
X1457Y15325D01*
X1459Y15325D01*
X1461Y15325D01*
X1463Y15324D01*
X1464Y15323D01*
X1468Y15322D01*
X1471Y15319D01*
X1654Y15136D01*
X1836Y15319D01*
X1839Y15322D01*
X1843Y15323D01*
X1847Y15325D01*
X1850Y15325D01*
X1854Y15325D01*
D02*
G37*
G36*
Y14301D02*
X1858Y14300D01*
X1861Y14298D01*
X1864Y14295D01*
X1867Y14292D01*
X1869Y14289D01*
X1870Y14285D01*
X1870Y14282D01*
X1870Y14278D01*
X1870Y14278D01*
X1869Y14274D01*
X1867Y14271D01*
X1865Y14269D01*
X1864Y14268D01*
X1864Y14267D01*
X1668Y14071D01*
X1665Y14068D01*
X1661Y14066D01*
X1657Y14065D01*
X1654Y14065D01*
X1650Y14065D01*
X1646Y14066D01*
X1643Y14068D01*
X1640Y14071D01*
X1640Y14071D01*
X1443Y14268D01*
X1440Y14271D01*
X1438Y14274D01*
X1438Y14275D01*
X1437Y14278D01*
X1437Y14280D01*
X1437Y14282D01*
X1437Y14283D01*
X1437Y14285D01*
X1438Y14288D01*
X1438Y14289D01*
X1440Y14292D01*
X1443Y14295D01*
X1446Y14298D01*
X1449Y14300D01*
X1450Y14300D01*
X1453Y14301D01*
X1455Y14301D01*
X1457Y14301D01*
X1457Y14301D01*
X1850D01*
X1850Y14301D01*
X1854Y14301D01*
D02*
G37*
G36*
Y14202D02*
X1858Y14201D01*
X1861Y14200D01*
X1864Y14197D01*
X1867Y14194D01*
X1869Y14191D01*
X1870Y14187D01*
X1870Y14183D01*
X1870Y14183D01*
Y13888D01*
X1870Y13884D01*
X1869Y13880D01*
X1867Y13877D01*
X1864Y13874D01*
X1861Y13871D01*
X1858Y13870D01*
X1854Y13868D01*
X1850Y13868D01*
X1457D01*
X1453Y13868D01*
X1449Y13870D01*
X1446Y13871D01*
X1443Y13874D01*
X1440Y13877D01*
X1438Y13880D01*
X1437Y13884D01*
X1437Y13888D01*
Y14183D01*
X1437Y14183D01*
X1437Y14185D01*
X1437Y14187D01*
X1438Y14190D01*
X1438Y14191D01*
X1440Y14194D01*
X1443Y14197D01*
X1446Y14200D01*
X1449Y14201D01*
X1450Y14202D01*
X1453Y14202D01*
X1455Y14203D01*
X1457Y14203D01*
X1459Y14203D01*
X1461Y14202D01*
X1463Y14202D01*
X1464Y14201D01*
X1468Y14200D01*
X1471Y14197D01*
X1654Y14014D01*
X1836Y14197D01*
X1839Y14200D01*
X1843Y14201D01*
X1847Y14202D01*
X1850Y14203D01*
X1854Y14202D01*
D02*
G37*
G36*
Y13179D02*
X1858Y13178D01*
X1861Y13176D01*
X1864Y13173D01*
X1867Y13170D01*
X1869Y13167D01*
X1870Y13163D01*
X1870Y13159D01*
X1870Y13156D01*
X1870Y13156D01*
X1869Y13152D01*
X1867Y13148D01*
X1865Y13147D01*
X1864Y13145D01*
X1864Y13145D01*
X1668Y12949D01*
X1665Y12946D01*
X1661Y12944D01*
X1657Y12943D01*
X1654Y12943D01*
X1650Y12943D01*
X1646Y12944D01*
X1643Y12946D01*
X1640Y12949D01*
X1640Y12949D01*
X1443Y13145D01*
X1440Y13148D01*
X1438Y13152D01*
X1438Y13153D01*
X1437Y13156D01*
X1437Y13158D01*
X1437Y13159D01*
X1437Y13161D01*
X1437Y13163D01*
X1438Y13166D01*
X1438Y13167D01*
X1440Y13170D01*
X1443Y13173D01*
X1446Y13176D01*
X1449Y13178D01*
X1450Y13178D01*
X1453Y13179D01*
X1455Y13179D01*
X1457Y13179D01*
X1457Y13179D01*
X1850D01*
X1850Y13179D01*
X1854Y13179D01*
D02*
G37*
G36*
Y13080D02*
X1858Y13079D01*
X1861Y13077D01*
X1864Y13075D01*
X1867Y13072D01*
X1869Y13069D01*
X1870Y13065D01*
X1870Y13061D01*
X1870Y13061D01*
Y12766D01*
X1870Y12762D01*
X1869Y12758D01*
X1867Y12755D01*
X1864Y12752D01*
X1861Y12749D01*
X1858Y12747D01*
X1854Y12746D01*
X1850Y12746D01*
X1457D01*
X1453Y12746D01*
X1449Y12747D01*
X1446Y12749D01*
X1443Y12752D01*
X1440Y12755D01*
X1438Y12758D01*
X1437Y12762D01*
X1437Y12766D01*
Y13061D01*
X1437Y13061D01*
X1437Y13063D01*
X1437Y13065D01*
X1438Y13068D01*
X1438Y13069D01*
X1440Y13072D01*
X1443Y13075D01*
X1446Y13077D01*
X1449Y13079D01*
X1450Y13080D01*
X1453Y13080D01*
X1455Y13081D01*
X1457Y13081D01*
X1459Y13081D01*
X1461Y13080D01*
X1463Y13080D01*
X1464Y13079D01*
X1468Y13077D01*
X1471Y13075D01*
X1654Y12892D01*
X1836Y13075D01*
X1839Y13077D01*
X1843Y13079D01*
X1847Y13080D01*
X1850Y13081D01*
X1854Y13080D01*
D02*
G37*
G36*
X3222Y12214D02*
X3226Y12213D01*
X3229Y12211D01*
X3232Y12209D01*
X3235Y12206D01*
X3237Y12202D01*
X3238Y12199D01*
X3238Y12195D01*
Y11900D01*
X3238Y11900D01*
X3238Y11898D01*
X3238Y11896D01*
X3237Y11893D01*
X3237Y11892D01*
X3235Y11889D01*
X3232Y11886D01*
X3229Y11883D01*
X3226Y11881D01*
X3225Y11881D01*
X3222Y11880D01*
X3220Y11880D01*
X3219Y11880D01*
X3217Y11880D01*
X3215Y11880D01*
X3212Y11881D01*
X3211Y11881D01*
X3208Y11883D01*
X3205Y11886D01*
X3022Y12068D01*
X2839Y11886D01*
X2836Y11883D01*
X2832Y11881D01*
X2829Y11880D01*
X2825Y11880D01*
X2821Y11880D01*
X2817Y11881D01*
X2814Y11883D01*
X2811Y11886D01*
X2808Y11889D01*
X2807Y11892D01*
X2805Y11896D01*
X2805Y11900D01*
X2805Y11900D01*
Y12195D01*
X2805Y12199D01*
X2807Y12202D01*
X2808Y12206D01*
X2811Y12209D01*
X2814Y12211D01*
X2817Y12213D01*
X2821Y12214D01*
X2825Y12215D01*
X3219D01*
X3222Y12214D01*
D02*
G37*
G36*
X3026Y12017D02*
X3029Y12016D01*
X3033Y12014D01*
X3036Y12012D01*
X3036Y12012D01*
X3232Y11815D01*
X3235Y11812D01*
X3237Y11809D01*
X3237Y11808D01*
X3238Y11805D01*
X3238Y11803D01*
X3238Y11801D01*
X3238Y11799D01*
X3238Y11797D01*
X3237Y11794D01*
X3237Y11794D01*
X3235Y11790D01*
X3232Y11787D01*
X3229Y11785D01*
X3226Y11783D01*
X3225Y11783D01*
X3222Y11782D01*
X3220Y11782D01*
X3219Y11781D01*
X3218Y11781D01*
X2825D01*
X2825Y11781D01*
X2821Y11782D01*
X2817Y11783D01*
X2814Y11785D01*
X2811Y11787D01*
X2808Y11790D01*
X2807Y11794D01*
X2805Y11797D01*
X2805Y11801D01*
X2805Y11805D01*
X2805Y11805D01*
X2807Y11809D01*
X2808Y11812D01*
X2810Y11814D01*
X2811Y11815D01*
X2811Y11815D01*
X3008Y12012D01*
X3011Y12014D01*
X3014Y12016D01*
X3018Y12017D01*
X3022Y12018D01*
X3026Y12017D01*
D02*
G37*
G36*
X809Y5650D02*
X811Y5649D01*
X814Y5648D01*
X815Y5648D01*
X818Y5646D01*
X821Y5644D01*
X824Y5641D01*
X825Y5637D01*
X826Y5637D01*
X826Y5634D01*
X827Y5632D01*
X827Y5630D01*
X827Y5630D01*
Y5039D01*
X827Y5039D01*
X827Y5037D01*
X826Y5036D01*
X826Y5033D01*
X825Y5032D01*
X824Y5028D01*
X821Y5025D01*
X818Y5023D01*
X815Y5021D01*
X814Y5021D01*
X811Y5020D01*
X809Y5020D01*
X807Y5020D01*
X805Y5020D01*
X803Y5020D01*
X800Y5021D01*
X800Y5021D01*
X796Y5023D01*
X793Y5025D01*
X498Y5321D01*
X495Y5324D01*
X494Y5327D01*
X492Y5331D01*
X492Y5335D01*
X492Y5339D01*
X493Y5341D01*
X494Y5342D01*
X495Y5346D01*
X498Y5349D01*
X498Y5349D01*
X793Y5644D01*
X796Y5646D01*
X800Y5648D01*
X800Y5648D01*
X803Y5649D01*
X805Y5650D01*
X807Y5650D01*
X809Y5650D01*
D02*
G37*
G36*
X622Y5650D02*
X624Y5649D01*
X628Y5648D01*
X631Y5646D01*
X634Y5644D01*
X637Y5641D01*
X638Y5637D01*
X639Y5637D01*
X639Y5634D01*
X640Y5632D01*
X640Y5630D01*
X640Y5628D01*
X639Y5626D01*
X638Y5622D01*
X637Y5619D01*
X634Y5616D01*
X353Y5335D01*
X634Y5053D01*
X634Y5053D01*
X635Y5052D01*
X637Y5050D01*
X638Y5047D01*
X639Y5043D01*
X640Y5043D01*
X640Y5039D01*
X639Y5036D01*
X638Y5032D01*
X637Y5028D01*
X634Y5025D01*
X631Y5023D01*
X628Y5021D01*
X624Y5020D01*
X620Y5020D01*
X620Y5020D01*
X217Y5020D01*
X213Y5020D01*
X209Y5021D01*
X206Y5023D01*
X203Y5025D01*
X200Y5028D01*
X198Y5032D01*
X197Y5036D01*
X197Y5039D01*
Y5630D01*
X197Y5634D01*
X198Y5637D01*
X200Y5641D01*
X203Y5644D01*
X206Y5646D01*
X209Y5648D01*
X213Y5649D01*
X217Y5650D01*
X620D01*
X620Y5650D01*
X622Y5650D01*
D02*
G37*
D44*
X463Y8937D02*
G03*
X463Y8937I-59J0D01*
G01*
X23898Y1762D02*
G03*
X23898Y1762I-59J0D01*
G01*
X23691Y14961D02*
G03*
X23691Y14961I-59J0D01*
G01*
D45*
X17067Y14055D02*
D03*
X16870D02*
D03*
X17264D02*
D03*
X16870Y15276D02*
D03*
X17067D02*
D03*
X17657Y14055D02*
D03*
X17854D02*
D03*
X17461D02*
D03*
X18051D02*
D03*
X18248D02*
D03*
X17657Y15276D02*
D03*
X17264D02*
D03*
X17461D02*
D03*
X17854D02*
D03*
X18248D02*
D03*
X18051D02*
D03*
D46*
X14360Y14892D02*
D03*
X14104D02*
D03*
X13848D02*
D03*
X14360Y13159D02*
D03*
X13848D02*
D03*
X14104D02*
D03*
X13593Y14892D02*
D03*
Y13159D02*
D03*
X15276D02*
D03*
X15020D02*
D03*
Y14892D02*
D03*
X15787Y13159D02*
D03*
X15531D02*
D03*
X15787Y14892D02*
D03*
X15276D02*
D03*
X15531D02*
D03*
D47*
X23268Y3583D02*
D03*
Y3268D02*
D03*
Y2638D02*
D03*
Y2953D02*
D03*
X22559Y3583D02*
D03*
Y3268D02*
D03*
Y2638D02*
D03*
Y2953D02*
D03*
Y5118D02*
D03*
Y4803D02*
D03*
Y4488D02*
D03*
Y4173D02*
D03*
X23268Y5118D02*
D03*
Y4803D02*
D03*
Y4488D02*
D03*
Y4173D02*
D03*
D48*
X6594Y14961D02*
D03*
Y14705D02*
D03*
Y15217D02*
D03*
Y14193D02*
D03*
Y14449D02*
D03*
Y13937D02*
D03*
Y13681D02*
D03*
X4331Y13937D02*
D03*
Y14193D02*
D03*
Y14961D02*
D03*
Y15217D02*
D03*
Y14449D02*
D03*
Y14705D02*
D03*
Y13681D02*
D03*
D49*
X11827Y14409D02*
D03*
Y14016D02*
D03*
Y13819D02*
D03*
Y14213D02*
D03*
Y13622D02*
D03*
Y13425D02*
D03*
Y13228D02*
D03*
Y12835D02*
D03*
Y12638D02*
D03*
Y13032D02*
D03*
Y12441D02*
D03*
Y12244D02*
D03*
X8507Y14409D02*
D03*
Y14016D02*
D03*
Y13819D02*
D03*
Y14213D02*
D03*
Y13622D02*
D03*
Y13425D02*
D03*
Y13228D02*
D03*
Y12835D02*
D03*
Y12638D02*
D03*
Y13032D02*
D03*
Y12441D02*
D03*
Y12244D02*
D03*
D50*
X11053Y14987D02*
D03*
X11250D02*
D03*
X10659D02*
D03*
X10856D02*
D03*
X10463D02*
D03*
X10266D02*
D03*
X11053Y11667D02*
D03*
X11250D02*
D03*
X10659D02*
D03*
X10856D02*
D03*
X10463D02*
D03*
X10266D02*
D03*
X9872Y14987D02*
D03*
X10069D02*
D03*
X9478D02*
D03*
X9675D02*
D03*
X9281D02*
D03*
X9085D02*
D03*
X9872Y11667D02*
D03*
X10069D02*
D03*
X9478D02*
D03*
X9675D02*
D03*
X9281D02*
D03*
X9085D02*
D03*
D51*
X2874Y6514D02*
D03*
X2480D02*
D03*
X2283D02*
D03*
X2677D02*
D03*
X2480Y5376D02*
D03*
X2874D02*
D03*
X2677D02*
D03*
X2283D02*
D03*
D52*
X2579Y5945D02*
D03*
D53*
X689Y5335D02*
D03*
X236D02*
D03*
D54*
X2575Y3543D02*
D03*
Y1890D02*
D03*
X575Y3543D02*
D03*
Y1890D02*
D03*
D55*
X12617Y9518D02*
D03*
Y9715D02*
D03*
Y8927D02*
D03*
Y8730D02*
D03*
Y9124D02*
D03*
Y8337D02*
D03*
Y8140D02*
D03*
Y8533D02*
D03*
Y9321D02*
D03*
Y7746D02*
D03*
Y7943D02*
D03*
Y7156D02*
D03*
Y6959D02*
D03*
Y7352D02*
D03*
Y6565D02*
D03*
Y6368D02*
D03*
Y6762D02*
D03*
Y7549D02*
D03*
Y5974D02*
D03*
Y5778D02*
D03*
Y6171D02*
D03*
Y5187D02*
D03*
Y4990D02*
D03*
Y5384D02*
D03*
Y4596D02*
D03*
Y4400D02*
D03*
Y4793D02*
D03*
Y5581D02*
D03*
Y4006D02*
D03*
Y4203D02*
D03*
Y3809D02*
D03*
Y3415D02*
D03*
Y3612D02*
D03*
Y3022D02*
D03*
Y2825D02*
D03*
Y3219D02*
D03*
X4214Y9518D02*
D03*
Y9715D02*
D03*
Y9321D02*
D03*
Y8927D02*
D03*
Y8730D02*
D03*
Y9124D02*
D03*
Y8337D02*
D03*
Y8140D02*
D03*
Y8533D02*
D03*
Y7746D02*
D03*
Y7943D02*
D03*
Y7549D02*
D03*
Y7156D02*
D03*
Y6959D02*
D03*
Y7352D02*
D03*
Y6565D02*
D03*
Y6368D02*
D03*
Y6762D02*
D03*
Y5974D02*
D03*
Y5778D02*
D03*
Y6171D02*
D03*
Y5187D02*
D03*
Y4990D02*
D03*
Y5384D02*
D03*
Y4596D02*
D03*
Y4400D02*
D03*
Y4793D02*
D03*
Y5581D02*
D03*
Y4006D02*
D03*
Y4203D02*
D03*
Y3809D02*
D03*
Y3415D02*
D03*
Y3612D02*
D03*
Y3022D02*
D03*
Y2825D02*
D03*
Y3219D02*
D03*
D56*
X11860Y10471D02*
D03*
X11073D02*
D03*
X11270D02*
D03*
X10876D02*
D03*
X11663D02*
D03*
X11467D02*
D03*
X9892D02*
D03*
X10089D02*
D03*
X9695D02*
D03*
X10482D02*
D03*
X10679D02*
D03*
X10285D02*
D03*
X9301D02*
D03*
X9498D02*
D03*
X9104D02*
D03*
X8711D02*
D03*
X8907D02*
D03*
X8514D02*
D03*
X11860Y2068D02*
D03*
X10876D02*
D03*
X11073D02*
D03*
X10679D02*
D03*
X11467D02*
D03*
X11663D02*
D03*
X11270D02*
D03*
X9695D02*
D03*
X9892D02*
D03*
X9498D02*
D03*
X10285D02*
D03*
X10482D02*
D03*
X10089D02*
D03*
X9104D02*
D03*
X9301D02*
D03*
X8907D02*
D03*
X8711D02*
D03*
X8514D02*
D03*
X7530Y10471D02*
D03*
X7726D02*
D03*
X7333D02*
D03*
X8120D02*
D03*
X8317D02*
D03*
X7923D02*
D03*
X6545D02*
D03*
X6742D02*
D03*
X6348D02*
D03*
X7136D02*
D03*
X6939D02*
D03*
X6152D02*
D03*
X5955D02*
D03*
X5167D02*
D03*
X5364D02*
D03*
X4970D02*
D03*
X5758D02*
D03*
X5561D02*
D03*
X7726Y2068D02*
D03*
X7923D02*
D03*
X7530D02*
D03*
X8120D02*
D03*
X8317D02*
D03*
X6742D02*
D03*
X6939D02*
D03*
X6545D02*
D03*
X7136D02*
D03*
X7333D02*
D03*
X6152D02*
D03*
X6348D02*
D03*
X5955D02*
D03*
X5167D02*
D03*
X5364D02*
D03*
X4970D02*
D03*
X5758D02*
D03*
X5561D02*
D03*
D57*
X8415Y6270D02*
D03*
D58*
X23297Y14095D02*
D03*
Y13937D02*
D03*
Y14252D02*
D03*
Y13622D02*
D03*
Y13780D02*
D03*
Y14409D02*
D03*
Y14567D02*
D03*
Y13307D02*
D03*
Y13465D02*
D03*
X22530Y13780D02*
D03*
Y13937D02*
D03*
Y14409D02*
D03*
Y14567D02*
D03*
Y14095D02*
D03*
Y14252D02*
D03*
Y13150D02*
D03*
Y13622D02*
D03*
Y13307D02*
D03*
Y13465D02*
D03*
Y12067D02*
D03*
Y11909D02*
D03*
Y11752D02*
D03*
Y11594D02*
D03*
Y11437D02*
D03*
Y11280D02*
D03*
Y11122D02*
D03*
Y10965D02*
D03*
Y10807D02*
D03*
Y10650D02*
D03*
X23297Y11122D02*
D03*
Y11280D02*
D03*
Y10965D02*
D03*
Y10807D02*
D03*
Y11437D02*
D03*
Y12067D02*
D03*
Y11909D02*
D03*
Y11752D02*
D03*
Y11594D02*
D03*
D59*
X23278Y13150D02*
D03*
Y10650D02*
D03*
D60*
X1654Y13140D02*
D03*
Y12785D02*
D03*
X3022Y12175D02*
D03*
Y11821D02*
D03*
X1654Y13907D02*
D03*
Y14262D02*
D03*
Y15030D02*
D03*
Y15384D02*
D03*
D61*
X591Y13327D02*
D03*
Y6142D02*
D03*
Y12539D02*
D03*
Y6929D02*
D03*
Y11752D02*
D03*
Y15571D02*
D03*
Y14449D02*
D03*
D62*
X21220Y10148D02*
D03*
Y10404D02*
D03*
Y9636D02*
D03*
Y9380D02*
D03*
Y9892D02*
D03*
Y7589D02*
D03*
Y7844D02*
D03*
Y7077D02*
D03*
Y6821D02*
D03*
Y7333D02*
D03*
Y8868D02*
D03*
Y8612D02*
D03*
Y9124D02*
D03*
Y8356D02*
D03*
Y8100D02*
D03*
Y5285D02*
D03*
Y5797D02*
D03*
Y5541D02*
D03*
Y4774D02*
D03*
Y5030D02*
D03*
Y6309D02*
D03*
Y6053D02*
D03*
Y6565D02*
D03*
Y3750D02*
D03*
Y3494D02*
D03*
Y4006D02*
D03*
Y3238D02*
D03*
Y2982D02*
D03*
Y4518D02*
D03*
Y4262D02*
D03*
X14134Y10148D02*
D03*
Y9892D02*
D03*
Y10404D02*
D03*
Y9380D02*
D03*
Y9124D02*
D03*
Y9636D02*
D03*
Y7333D02*
D03*
Y7077D02*
D03*
Y7589D02*
D03*
Y6565D02*
D03*
Y6309D02*
D03*
Y6821D02*
D03*
Y8612D02*
D03*
Y8356D02*
D03*
Y8868D02*
D03*
Y8100D02*
D03*
Y7844D02*
D03*
Y4518D02*
D03*
Y5030D02*
D03*
Y4774D02*
D03*
Y4262D02*
D03*
Y6053D02*
D03*
Y5797D02*
D03*
Y5541D02*
D03*
Y5285D02*
D03*
Y3750D02*
D03*
Y3494D02*
D03*
Y4006D02*
D03*
Y3238D02*
D03*
Y2982D02*
D03*
D63*
X18829Y11457D02*
D03*
X19085D02*
D03*
X18317D02*
D03*
X18573D02*
D03*
X19596D02*
D03*
X19852D02*
D03*
X19341D02*
D03*
X17293D02*
D03*
X17037D02*
D03*
X17805D02*
D03*
X18061D02*
D03*
X17549D02*
D03*
X20108D02*
D03*
X17293Y1929D02*
D03*
X17549D02*
D03*
X17037D02*
D03*
X19341D02*
D03*
X19596D02*
D03*
X19085D02*
D03*
X20108D02*
D03*
X19852D02*
D03*
X18061D02*
D03*
X18317D02*
D03*
X17805D02*
D03*
X18573D02*
D03*
X18829D02*
D03*
X16014Y11457D02*
D03*
X16270D02*
D03*
X15502D02*
D03*
X15758D02*
D03*
X16781D02*
D03*
X16526D02*
D03*
X15246D02*
D03*
X16526Y1929D02*
D03*
X16782D02*
D03*
X16270D02*
D03*
X15246D02*
D03*
X15758D02*
D03*
X16014D02*
D03*
X15502D02*
D03*
D64*
X23494Y7874D02*
D03*
Y7126D02*
D03*
X22707Y7500D02*
D03*
X23494Y6083D02*
D03*
X22707Y6457D02*
D03*
Y5709D02*
D03*
D65*
X22500Y15010D02*
D03*
X22933D02*
D03*
X1742Y11604D02*
D03*
X2175D02*
D03*
X354Y7657D02*
D03*
X787D02*
D03*
X787Y7992D02*
D03*
X1220D02*
D03*
X1043Y4872D02*
D03*
X1476D02*
D03*
X5679Y14390D02*
D03*
X5246D02*
D03*
X5679Y13937D02*
D03*
X5246D02*
D03*
X5679Y13484D02*
D03*
X5246D02*
D03*
X7382Y11486D02*
D03*
X7815D02*
D03*
X8120D02*
D03*
X8553D02*
D03*
X13366Y12579D02*
D03*
X13799D02*
D03*
X13366Y12234D02*
D03*
X13799D02*
D03*
X6476Y15811D02*
D03*
X6909D02*
D03*
X14547Y12234D02*
D03*
X14114D02*
D03*
X14055Y15472D02*
D03*
X13622D02*
D03*
X14055Y15817D02*
D03*
X13622D02*
D03*
X15157Y15906D02*
D03*
X14724D02*
D03*
X16093Y15472D02*
D03*
X15659D02*
D03*
X15285Y12579D02*
D03*
X15718D02*
D03*
X14980D02*
D03*
X14547D02*
D03*
X14862Y16467D02*
D03*
X15295D02*
D03*
X14833Y15472D02*
D03*
X15266D02*
D03*
X16398Y945D02*
D03*
X16831D02*
D03*
X14596Y11309D02*
D03*
X14163D02*
D03*
X13868Y11309D02*
D03*
X13435D02*
D03*
X4252Y15768D02*
D03*
X4685D02*
D03*
X7815Y12175D02*
D03*
X7382D02*
D03*
X7815Y11831D02*
D03*
X7382D02*
D03*
X22382Y12530D02*
D03*
X22815D02*
D03*
X23642D02*
D03*
X23209D02*
D03*
X23327Y10148D02*
D03*
X22894D02*
D03*
X3219Y3219D02*
D03*
X3652D02*
D03*
X8553Y11142D02*
D03*
X8120D02*
D03*
X3228Y2825D02*
D03*
X3661D02*
D03*
X758Y4163D02*
D03*
X325D02*
D03*
D66*
X2254Y10482D02*
D03*
X2057D02*
D03*
X1860D02*
D03*
X1663D02*
D03*
X2254Y9360D02*
D03*
X1663D02*
D03*
X2057D02*
D03*
X1860D02*
D03*
X1467Y10482D02*
D03*
Y9360D02*
D03*
D67*
X1860Y9921D02*
D03*
D68*
X2864Y7776D02*
D03*
X2037D02*
D03*
D69*
X22165Y5640D02*
D03*
Y6073D02*
D03*
X19193Y14774D02*
D03*
Y15207D02*
D03*
X22165Y6388D02*
D03*
Y6821D02*
D03*
X23927Y7441D02*
D03*
Y7874D02*
D03*
X2756Y9803D02*
D03*
Y9370D02*
D03*
X4626Y12657D02*
D03*
Y13091D02*
D03*
X4252D02*
D03*
Y12657D02*
D03*
X7372Y14360D02*
D03*
Y14793D02*
D03*
X7382Y13484D02*
D03*
Y13917D02*
D03*
X7028Y13032D02*
D03*
Y12598D02*
D03*
X7746Y14360D02*
D03*
Y14793D02*
D03*
X7756Y13484D02*
D03*
Y13917D02*
D03*
X7392Y13032D02*
D03*
Y12598D02*
D03*
X12519Y14269D02*
D03*
Y14702D02*
D03*
X12520Y13533D02*
D03*
Y13967D02*
D03*
X12913Y12618D02*
D03*
Y12185D02*
D03*
X5797Y15718D02*
D03*
Y16152D02*
D03*
X14390Y15886D02*
D03*
Y15453D02*
D03*
X15659Y15807D02*
D03*
Y16240D02*
D03*
X5344Y15718D02*
D03*
Y16152D02*
D03*
X3022Y11516D02*
D03*
Y11083D02*
D03*
X6918Y11117D02*
D03*
Y11550D02*
D03*
X6378Y11112D02*
D03*
Y11545D02*
D03*
X23091Y2037D02*
D03*
Y1604D02*
D03*
X22736D02*
D03*
Y2037D02*
D03*
X22382Y1604D02*
D03*
Y2037D02*
D03*
X1752Y3976D02*
D03*
Y4409D02*
D03*
X1348Y3976D02*
D03*
Y4409D02*
D03*
X4626Y12106D02*
D03*
Y11673D02*
D03*
X4252D02*
D03*
Y12106D02*
D03*
X5305Y12490D02*
D03*
Y12923D02*
D03*
X8081Y15059D02*
D03*
Y15492D02*
D03*
X8455Y15059D02*
D03*
Y15492D02*
D03*
X12234Y15059D02*
D03*
Y15492D02*
D03*
X11880Y15059D02*
D03*
Y15492D02*
D03*
X13297Y15886D02*
D03*
Y15453D02*
D03*
X16457Y14843D02*
D03*
Y15276D02*
D03*
X16289Y13711D02*
D03*
Y13278D02*
D03*
X22028Y1604D02*
D03*
Y2037D02*
D03*
X13081Y11309D02*
D03*
Y10876D02*
D03*
X12726Y11309D02*
D03*
Y10876D02*
D03*
X4459Y11309D02*
D03*
Y10876D02*
D03*
X12372Y11309D02*
D03*
Y10876D02*
D03*
X13189Y1949D02*
D03*
Y2382D02*
D03*
D70*
X1476Y5344D02*
D03*
Y6132D02*
D03*
D71*
X906Y10138D02*
D03*
Y10748D02*
D03*
X21230Y11516D02*
D03*
Y12126D02*
D03*
X3602Y11545D02*
D03*
Y12156D02*
D03*
X20738Y11516D02*
D03*
Y12126D02*
D03*
X3337Y4291D02*
D03*
Y3681D02*
D03*
X906Y9724D02*
D03*
Y9114D02*
D03*
X1398Y6644D02*
D03*
Y7254D02*
D03*
X3573Y15148D02*
D03*
Y15758D02*
D03*
D72*
X2766Y15059D02*
D03*
X2156D02*
D03*
X2766Y15551D02*
D03*
X2156D02*
D03*
X2766Y13937D02*
D03*
X2156D02*
D03*
X2766Y14429D02*
D03*
X2156D02*
D03*
X2766Y12815D02*
D03*
X2156D02*
D03*
X2766Y13307D02*
D03*
X2156D02*
D03*
X2884Y4222D02*
D03*
X2274D02*
D03*
X3278Y2274D02*
D03*
X3888D02*
D03*
X3278Y1772D02*
D03*
X3888D02*
D03*
X1654Y11191D02*
D03*
X2264D02*
D03*
D73*
X19193Y15620D02*
D03*
X19803D02*
D03*
D74*
X5758Y12923D02*
D03*
Y12313D02*
D03*
D75*
X11191Y600D02*
D03*
X11949D02*
D03*
X14980D02*
D03*
X13465D02*
D03*
X8967D02*
D03*
X6693D02*
D03*
X7451D02*
D03*
X8199D02*
D03*
X9695D02*
D03*
X10443D02*
D03*
X12707D02*
D03*
X14222D02*
D03*
X17717D02*
D03*
X15738D02*
D03*
D76*
X20906Y14882D02*
D03*
X21220D02*
D03*
X21535D02*
D03*
X21850D02*
D03*
X20906Y15591D02*
D03*
X21220D02*
D03*
X21535D02*
D03*
X21850D02*
D03*
D77*
X21894Y512D02*
D03*
X20894D02*
D03*
X23894D02*
D03*
X22894D02*
D03*
X19894D02*
D03*
X18894D02*
D03*
D78*
X8415Y6270D02*
D03*
M02*
